<svg xmlns="http://www.w3.org/2000/svg" width="162.5" height="24.093" viewBox="0 0 162.5 24.093">
  <g id="Group_1" data-name="Group 1" transform="translate(-1157.846 -572.966)">
    <path id="Path_1" data-name="Path 1" d="M1157.846,591.952V577.487a1.343,1.343,0,0,1,1.5-1.5h2.244a1.343,1.343,0,0,1,1.5,1.5v5.462h5.113v-5.462a1.343,1.343,0,0,1,1.5-1.5h2.245a1.344,1.344,0,0,1,1.5,1.5v14.465a1.344,1.344,0,0,1-1.5,1.5h-2.245a1.343,1.343,0,0,1-1.5-1.5v-4.739h-5.113v4.739a1.344,1.344,0,0,1-1.5,1.5h-2.244A1.343,1.343,0,0,1,1157.846,591.952Z" transform="translate(0 -1.977)" fill="#0fbf89"/>
    <path id="Path_2" data-name="Path 2" d="M1208.533,594.561c0-3.966,2.669-6.834,6.161-6.834a4.15,4.15,0,0,1,3.741,1.92V589.5a1.343,1.343,0,0,1,1.5-1.5h2.145a1.343,1.343,0,0,1,1.5,1.5v10.126a1.343,1.343,0,0,1-1.5,1.5h-2.145a1.343,1.343,0,0,1-1.5-1.5V599.5a4.184,4.184,0,0,1-3.741,1.9C1211.2,601.395,1208.533,598.526,1208.533,594.561Zm9.977,0c0-1.646-.923-2.918-2.419-2.918s-2.42,1.272-2.42,2.918.923,2.918,2.42,2.918S1218.509,596.207,1218.509,594.561Z" transform="translate(-33.13 -9.648)" fill="#0fbf89"/>
    <path id="Path_3" data-name="Path 3" d="M1259,605.21V589.5a1.343,1.343,0,0,1,1.5-1.5h2.145a1.343,1.343,0,0,1,1.5,1.5v.124a4.183,4.183,0,0,1,3.741-1.9c3.492,0,6.161,2.868,6.161,6.834s-2.669,6.834-6.161,6.834a4.148,4.148,0,0,1-3.741-1.921v5.736a1.343,1.343,0,0,1-1.5,1.5H1260.5A1.343,1.343,0,0,1,1259,605.21Zm9.9-10.649c0-1.646-.923-2.918-2.419-2.918s-2.419,1.272-2.419,2.918.923,2.918,2.419,2.918S1268.906,596.207,1268.906,594.561Z" transform="translate(-66.12 -9.648)" fill="#0fbf89"/>
    <path id="Path_4" data-name="Path 4" d="M1307.6,605.21V589.5a1.343,1.343,0,0,1,1.5-1.5h2.145a1.344,1.344,0,0,1,1.5,1.5v.124a4.184,4.184,0,0,1,3.741-1.9c3.491,0,6.16,2.868,6.16,6.834s-2.669,6.834-6.16,6.834a4.149,4.149,0,0,1-3.741-1.921v5.736a1.343,1.343,0,0,1-1.5,1.5H1309.1A1.343,1.343,0,0,1,1307.6,605.21Zm9.9-10.649c0-1.646-.923-2.918-2.419-2.918s-2.42,1.272-2.42,2.918.923,2.918,2.42,2.918S1317.505,596.207,1317.505,594.561Z" transform="translate(-97.886 -9.648)" fill="#0fbf89"/>
    <path id="Path_5" data-name="Path 5" d="M1355.339,575.26c0-1.3.923-2.294,2.868-2.294s2.868,1,2.868,2.294-1.022,2.295-2.868,2.295S1355.339,576.557,1355.339,575.26Zm.3,14.715V579.85a1.343,1.343,0,0,1,1.5-1.5h2.145a1.343,1.343,0,0,1,1.5,1.5v10.126a1.343,1.343,0,0,1-1.5,1.5h-2.145A1.343,1.343,0,0,1,1355.638,589.976Z" transform="translate(-129.087 0)" fill="#0fbf89"/>
    <path id="Path_6" data-name="Path 6" d="M1378.09,599.624V589.5a1.343,1.343,0,0,1,1.5-1.5h2.145a1.343,1.343,0,0,1,1.5,1.5v.124a3.957,3.957,0,0,1,3.642-1.9c4.065,0,4.564,3.566,4.564,5.712v6.185a1.343,1.343,0,0,1-1.5,1.5h-2.145a1.344,1.344,0,0,1-1.5-1.5v-5.687c0-1.022-.224-2.219-1.546-2.219s-1.521,1.2-1.521,2.219v5.687a1.344,1.344,0,0,1-1.5,1.5h-2.145A1.344,1.344,0,0,1,1378.09,599.624Z" transform="translate(-143.958 -9.648)" fill="#0fbf89"/>
    <path id="Path_7" data-name="Path 7" d="M1421.29,594.611c0-3.592,2.594-6.884,7.333-6.884,4.14,0,7.233,2.494,7.233,6.684,0,.823-.624,1.172-1.547,1.172h-8.23c0,.723,1.147,1.97,3.367,1.97a5.4,5.4,0,0,0,2.319-.524,1.474,1.474,0,0,1,2.071.4l.4.524a1.348,1.348,0,0,1-.3,2.12,9.132,9.132,0,0,1-4.939,1.322C1424.158,601.395,1421.29,598.377,1421.29,594.611Zm9.926-1.4c-.075-1.272-1.3-1.9-2.569-1.9-1.247,0-2.494.624-2.569,1.9Z" transform="translate(-172.195 -9.648)" fill="#0fbf89"/>
    <path id="Path_8" data-name="Path 8" d="M1466.8,598.651c-.424-.923.1-1.6,1.047-1.821l1-.224c.848-.2,1.172.224,1.846.848a2.253,2.253,0,0,0,1.546.474c.748,0,1.222-.225,1.222-.648,0-.25-.1-.424-.873-.7l-1.5-.549c-.723-.274-4.09-1.122-4.09-3.991,0-2.619,2.319-4.315,5.337-4.315a5.192,5.192,0,0,1,4.34,1.846c.673.872.224,1.7-.8,1.97l-.9.249a1.755,1.755,0,0,1-1.771-.449,1.541,1.541,0,0,0-.922-.274c-.549,0-.823.3-.823.624s.274.474.873.673l1.447.6c2.843,1,4.115,2.394,4.165,4.19,0,2.943-2.669,4.24-5.712,4.24C1469.594,601.395,1467.674,600.522,1466.8,598.651Z" transform="translate(-201.844 -9.648)" fill="#0fbf89"/>
    <path id="Path_9" data-name="Path 9" d="M1502.872,598.651c-.424-.923.1-1.6,1.048-1.821l1-.224c.848-.2,1.172.224,1.846.848a2.252,2.252,0,0,0,1.546.474c.748,0,1.222-.225,1.222-.648,0-.25-.1-.424-.873-.7l-1.5-.549c-.723-.274-4.09-1.122-4.09-3.991,0-2.619,2.32-4.315,5.337-4.315a5.191,5.191,0,0,1,4.34,1.846c.674.872.224,1.7-.8,1.97l-.9.249a1.754,1.754,0,0,1-1.771-.449,1.542,1.542,0,0,0-.923-.274c-.549,0-.823.3-.823.624s.275.474.873.673l1.447.6c2.843,1,4.115,2.394,4.165,4.19,0,2.943-2.669,4.24-5.712,4.24C1505.666,601.395,1503.745,600.522,1502.872,598.651Z" transform="translate(-225.422 -9.648)" fill="#0fbf89"/>
    <path id="Path_10" data-name="Path 10" d="M1539.748,591.559l-.075-.474a2.032,2.032,0,0,1,.723-1.92l5.462-4.888c1.322-1.173,2.22-2.12,2.22-3.417,0-1-.9-1.571-1.945-1.571a1.875,1.875,0,0,0-1.671.723c-.5.773-.748,1.247-1.621,1.247H1540.9c-1,0-1.621-.574-1.4-1.546.573-2.469,2.619-4.514,6.759-4.514,3.915,0,6.734,2.245,6.734,5.836,0,2.394-1.621,4.49-3.317,5.886l-2.544,2,.025.1c1.123-.125,3.243-.175,3.343-.175h1.771a1.343,1.343,0,0,1,1.5,1.5v1.1a1.343,1.343,0,0,1-1.5,1.5h-10.924A1.455,1.455,0,0,1,1539.748,591.559Z" transform="translate(-249.43 -1.459)" fill="#faad00"/>
    <path id="Path_11" data-name="Path 11" d="M1585.971,591.559l-.074-.474a2.032,2.032,0,0,1,.723-1.92l5.462-4.888c1.322-1.173,2.22-2.12,2.22-3.417,0-1-.9-1.571-1.946-1.571a1.874,1.874,0,0,0-1.671.723c-.5.773-.748,1.247-1.621,1.247h-1.946c-1,0-1.621-.574-1.4-1.546.573-2.469,2.619-4.514,6.759-4.514,3.916,0,6.734,2.245,6.734,5.836,0,2.394-1.621,4.49-3.317,5.886l-2.544,2,.025.1c1.122-.125,3.242-.175,3.342-.175h1.771a1.343,1.343,0,0,1,1.5,1.5v1.1a1.343,1.343,0,0,1-1.5,1.5h-10.924A1.455,1.455,0,0,1,1585.971,591.559Z" transform="translate(-279.643 -1.459)" fill="#faad00"/>
  </g>
</svg>
