<svg xmlns="http://www.w3.org/2000/svg" width="155.009" height="122.247" viewBox="0 0 155.009 122.247">
  <g id="Group_1557" data-name="Group 1557" transform="translate(-750.949 -89.293)">
    <circle id="Ellipse_75" data-name="Ellipse 75" cx="1.97" cy="1.97" r="1.97" transform="translate(855.961 113.923) rotate(-80.783)" fill="#faad00"/>
    <circle id="Ellipse_76" data-name="Ellipse 76" cx="0.919" cy="0.919" r="0.919" transform="translate(859.394 106.964)" fill="#faad00"/>
    <circle id="Ellipse_77" data-name="Ellipse 77" cx="0.943" cy="0.943" r="0.943" transform="translate(799.139 94.961)" fill="#faad00"/>
    <circle id="Ellipse_78" data-name="Ellipse 78" cx="1.596" cy="1.596" r="1.596" transform="translate(860.18 204)" fill="#faad00"/>
    <circle id="Ellipse_79" data-name="Ellipse 79" cx="0.737" cy="0.737" r="0.737" transform="translate(787.916 209.638)" fill="#faad00"/>
    <circle id="Ellipse_80" data-name="Ellipse 80" cx="0.87" cy="0.87" r="0.87" transform="translate(856.075 104.081) rotate(-76.717)" fill="#0fbf89"/>
    <circle id="Ellipse_81" data-name="Ellipse 81" cx="0.919" cy="0.919" r="0.919" transform="translate(783.011 115.776)" fill="#faad00"/>
    <circle id="Ellipse_82" data-name="Ellipse 82" cx="0.87" cy="0.87" r="0.87" transform="matrix(0.95, -0.312, 0.312, 0.95, 784.959, 111.095)" fill="#0fbf89"/>
    <circle id="Ellipse_83" data-name="Ellipse 83" cx="0.761" cy="0.761" r="0.761" transform="translate(823.253 104.304)" fill="#0fbf89"/>
    <circle id="Ellipse_84" data-name="Ellipse 84" cx="0.58" cy="0.58" r="0.58" transform="translate(755.541 164.233)" fill="#0fbf89"/>
    <circle id="Ellipse_85" data-name="Ellipse 85" cx="1.45" cy="1.45" r="1.45" transform="translate(858.306 208.279)" fill="#0fbf89"/>
    <circle id="Ellipse_86" data-name="Ellipse 86" cx="0.761" cy="0.761" r="0.761" transform="translate(874.528 89.293)" fill="#0fbf89"/>
    <g id="Group_1324" data-name="Group 1324" transform="translate(800.857 114.217)">
      <g id="Group_1323" data-name="Group 1323" transform="translate(0)">
        <path id="Path_666" data-name="Path 666" d="M848.492,144.03c-.121-.749-.23-2.248.967-2.127.435.048.677.435,1.16.266.907-.315.7-1.487,1.076-2.164.617-1.088,1.813.5,2.732-.024a.812.812,0,0,0,.362-.81c-.024-1.221,1.052-1.136,1.934-.894a.182.182,0,0,0,.1-.351c-.894-.242-2.381-.326-2.417.967-.012.314.157.629-.3.822a.951.951,0,0,1-.52-.048c-.315-.1-.593-.315-.919-.4a1.034,1.034,0,0,0-1.124.3,4.283,4.283,0,0,0-.52,1.535c-.181.544-.531.858-1.124.593a1.3,1.3,0,0,0-.737-.17c-1.245.17-1.185,1.68-1.027,2.6.048.23.4.133.363-.1Z" transform="translate(-848.047 -137.782)" fill="#0fbf89"/>
      </g>
    </g>
    <g id="Group_1326" data-name="Group 1326" transform="translate(802.364 115.81)">
      <g id="Group_1325" data-name="Group 1325" transform="translate(0)">
        <path id="Path_667" data-name="Path 667" d="M851.343,146.238a1.263,1.263,0,0,1,1.4-1.076,3.125,3.125,0,0,0,1.112-.072c.822-.314.665-1.209.858-1.91.363-1.33,2.043-.508,2.974-.725a1.134,1.134,0,0,0,.894-1.451c-.084-.218-.435-.121-.351.1.411,1-.991,1.063-1.583.991a3.574,3.574,0,0,0-1.293-.012,1.421,1.421,0,0,0-1.052,1.342c-.085.6-.073,1.269-.858,1.366a11.127,11.127,0,0,0-1.269.024,1.586,1.586,0,0,0-1.2,1.4c-.036.254.326.254.362.024Z" transform="translate(-850.978 -140.881)" fill="#0fbf89"/>
      </g>
    </g>
    <g id="Group_1328" data-name="Group 1328" transform="translate(826.985 91.419)">
      <g id="Group_1327" data-name="Group 1327">
        <path id="Path_668" data-name="Path 668" d="M899.595,93.489a2.186,2.186,0,0,0-.665,1.9,1.045,1.045,0,0,0,1.184.762c.326-.024.665-.109.931.181.206.218.073.677.012.919a3.349,3.349,0,0,0-.242,1.136.888.888,0,0,0,1.052.846c.23-.048.133-.4-.1-.351-1.052.242-.326-1.511-.278-1.934a1.181,1.181,0,0,0-.29-.992,1.067,1.067,0,0,0-.931-.193c-.532.061-1.027-.109-1.052-.749a2.139,2.139,0,0,1,.616-1.281c.17-.157-.1-.423-.242-.242Z" transform="translate(-898.879 -93.428)" fill="#0fbf89"/>
      </g>
    </g>
    <g id="Group_1330" data-name="Group 1330" transform="translate(829.736 91.284)">
      <g id="Group_1329" data-name="Group 1329" transform="translate(0 0)">
        <path id="Path_669" data-name="Path 669" d="M905.049,93.18a1.231,1.231,0,0,0-.3,2.164c.29.217.629.169.919.351.544.326.109.967.133,1.475a.768.768,0,0,0,.29.64.586.586,0,0,0,.943-.242c.073-.218-.278-.315-.351-.1-.459-.061-.616-.266-.483-.617l.072-.362a1.844,1.844,0,0,0,.036-.363.947.947,0,0,0-.266-.7c-.29-.266-.737-.157-1.052-.375a.891.891,0,0,1,.242-1.571c.217-.084.024-.387-.181-.3Z" transform="translate(-904.231 -93.165)" fill="#0fbf89"/>
      </g>
    </g>
    <g id="Group_1332" data-name="Group 1332" transform="translate(750.949 155.785)">
      <g id="Group_1331" data-name="Group 1331">
        <path id="Path_670" data-name="Path 670" d="M751.516,225.615a1.3,1.3,0,0,1,0-1.414c.278-.435.665-.447,1.112-.616.617-.254.629-.894.593-1.475a1.838,1.838,0,0,1,.036-.629c.157-.484.568-.351.943-.29a.817.817,0,0,0,.6-.121,1.242,1.242,0,0,0,.447-.7c.061-.218.073-.447.121-.665a1.32,1.32,0,0,1,.145-.435c.193-.3.423-.326.7-.061a.182.182,0,0,0,.35-.1c-.217-.786-1.184-.435-1.426.121a4.451,4.451,0,0,0-.181.8,1.653,1.653,0,0,1-.145.471c-.181.326-.52.266-.834.23-.375-.036-.665-.072-.907.278a2.181,2.181,0,0,0-.205,1.33c.012.556-.109.774-.653.954a1.838,1.838,0,0,0-.592.254,1.684,1.684,0,0,0-.424,2.236c.121.205.435.024.315-.17Z" transform="translate(-750.949 -218.654)" fill="#faad00"/>
      </g>
    </g>
    <g id="Group_1334" data-name="Group 1334" transform="translate(752.349 157.622)">
      <g id="Group_1333" data-name="Group 1333" transform="translate(0 0)">
        <path id="Path_671" data-name="Path 671" d="M754.35,228.186c-.507-.072-.314-.629-.084-.846a2.588,2.588,0,0,1,.616-.363,2.212,2.212,0,0,0,.725-.52c.52-.653-.23-1.523.5-2.043s2.671-.737,2.1-2.091c-.085-.217-.4-.024-.315.181.411.979-1.583,1.269-2.091,1.68a1.217,1.217,0,0,0-.411.568c-.145.507.278,1.027-.1,1.511-.435.532-1.366.532-1.584,1.281a.767.767,0,0,0,.556,1c.217.024.314-.326.084-.363Z" transform="translate(-753.672 -222.228)" fill="#faad00"/>
      </g>
    </g>
    <g id="Group_1336" data-name="Group 1336" transform="translate(888.655 130.153)">
      <g id="Group_1335" data-name="Group 1335">
        <path id="Path_672" data-name="Path 672" d="M1019.328,174.123a.793.793,0,0,1,.036-.846c.266-.387.58-.3.992-.266a1.214,1.214,0,0,0,.8-.072c.471-.29.4-.894.483-1.354.194-1.076,1.124-.1,1.753-.435a.779.779,0,0,0,.363-.592c.084-.471.108-1.874,1.015-1.306.193.121.387-.193.182-.314-.81-.5-1.463.326-1.535,1.088-.048.435,0,.858-.58.8-.205-.024-.411-.133-.616-.157a.775.775,0,0,0-.8.351,3.554,3.554,0,0,0-.217,1.124c-.181.822-.883.362-1.451.459a1.157,1.157,0,0,0-.749,1.692.184.184,0,0,0,.326-.169Z" transform="translate(-1018.858 -168.787)" fill="#faad00"/>
      </g>
    </g>
    <g id="Group_1338" data-name="Group 1338" transform="translate(890.529 131.765)">
      <g id="Group_1337" data-name="Group 1337" transform="translate(0)">
        <path id="Path_673" data-name="Path 673" d="M1022.9,176.408a.729.729,0,0,1,.991-.883.179.179,0,0,0,.217-.024,2.469,2.469,0,0,0,.471-1.039c.218-.7.738-.8,1.366-.992s1.305-.7,1.052-1.426c-.085-.218-.435-.121-.351.1.351.954-1.366,1.028-1.874,1.378-.617.435-.435,1.221-.907,1.729a1.361,1.361,0,0,1,.217-.024,1.1,1.1,0,0,0-1.523,1.293c.072.206.423.121.339-.108Z" transform="translate(-1022.504 -171.922)" fill="#faad00"/>
      </g>
    </g>
    <g id="Group_1340" data-name="Group 1340" transform="translate(886.346 159.023)">
      <g id="Group_1339" data-name="Group 1339" transform="translate(0 0)">
        <path id="Path_674" data-name="Path 674" d="M1014.537,225.316H1033.8a.181.181,0,0,0,0-.362h-19.267a.181.181,0,0,0,0,.362Z" transform="translate(-1014.365 -224.954)" fill="#e8e8e8"/>
      </g>
    </g>
    <g id="Group_1342" data-name="Group 1342" transform="translate(891.776 159.129)">
      <g id="Group_1341" data-name="Group 1341" transform="translate(0 0)">
        <path id="Path_675" data-name="Path 675" d="M1024.93,225.331v5.609a.181.181,0,0,0,.362,0v-5.609a.181.181,0,0,0-.362,0Z" transform="translate(-1024.93 -225.159)" fill="#e8e8e8"/>
      </g>
    </g>
    <g id="Group_1344" data-name="Group 1344" transform="translate(900.382 151.115)">
      <g id="Group_1343" data-name="Group 1343" transform="translate(0 0)">
        <path id="Path_676" data-name="Path 676" d="M1042.035,217.573V209.74a.181.181,0,0,0-.362,0v7.833a.181.181,0,0,0,.362,0Z" transform="translate(-1041.673 -209.568)" fill="#e8e8e8"/>
      </g>
    </g>
    <g id="Group_1346" data-name="Group 1346" transform="translate(896.305 151.07)">
      <g id="Group_1345" data-name="Group 1345">
        <path id="Path_677" data-name="Path 677" d="M1033.914,209.843h7.289a.182.182,0,0,0,0-.363h-7.289a.182.182,0,0,0,0,.363Z" transform="translate(-1033.742 -209.48)" fill="#e8e8e8"/>
      </g>
    </g>
    <g id="Group_1348" data-name="Group 1348" transform="translate(891.703 107.734)">
      <g id="Group_1347" data-name="Group 1347" transform="translate(0)">
        <path id="Path_678" data-name="Path 678" d="M1024.788,125.342v6.769a.182.182,0,0,0,.363,0v-6.769a.182.182,0,0,0-.363,0Z" transform="translate(-1024.788 -125.17)" fill="#e8e8e8"/>
      </g>
    </g>
    <g id="Group_1350" data-name="Group 1350" transform="translate(885.877 114.832)">
      <g id="Group_1349" data-name="Group 1349">
        <path id="Path_679" data-name="Path 679" d="M1013.635,139.342h13.078a.181.181,0,0,0,0-.362h-13.078a.181.181,0,1,0,0,.362Z" transform="translate(-1013.454 -138.98)" fill="#e8e8e8"/>
      </g>
    </g>
    <g id="Group_1352" data-name="Group 1352" transform="translate(899.016 114.974)">
      <g id="Group_1351" data-name="Group 1351" transform="translate(0)">
        <path id="Path_680" data-name="Path 680" d="M1039.016,139.428v4.5a.181.181,0,0,0,.362,0v-4.5a.181.181,0,0,0-.362,0Z" transform="translate(-1039.016 -139.256)" fill="#e8e8e8"/>
      </g>
    </g>
    <g id="Group_1354" data-name="Group 1354" transform="translate(777.447 100.497)">
      <g id="Group_1353" data-name="Group 1353">
        <path id="Path_681" data-name="Path 681" d="M802.679,111.452h12.813a.181.181,0,0,0,0-.362H802.679a.181.181,0,0,0,0,.362Z" transform="translate(-802.502 -111.09)" fill="#e8e8e8"/>
      </g>
    </g>
    <g id="Group_1356" data-name="Group 1356" transform="translate(789.905 100.642)">
      <g id="Group_1355" data-name="Group 1355" transform="translate(0 0)">
        <path id="Path_682" data-name="Path 682" d="M826.738,111.554v3.481a.182.182,0,0,0,.363,0v-3.481a.181.181,0,0,0-.363,0Z" transform="translate(-826.738 -111.372)" fill="#e8e8e8"/>
      </g>
    </g>
    <g id="Group_1358" data-name="Group 1358" transform="translate(785.662 94.789)">
      <g id="Group_1357" data-name="Group 1357" transform="translate(0)">
        <path id="Path_683" data-name="Path 683" d="M818.847,105.729v-5.572a.182.182,0,0,0-.363,0v5.572a.181.181,0,1,0,.363,0Z" transform="translate(-818.484 -99.985)" fill="#e8e8e8"/>
      </g>
    </g>
    <g id="Group_1360" data-name="Group 1360" transform="translate(752.105 137.75)">
      <g id="Group_1359" data-name="Group 1359" transform="translate(0)">
        <path id="Path_684" data-name="Path 684" d="M753.37,183.928h8.848a.181.181,0,0,0,0-.362H753.37a.181.181,0,0,0,0,.362Z" transform="translate(-753.199 -183.566)" fill="#e8e8e8"/>
      </g>
    </g>
    <g id="Group_1362" data-name="Group 1362" transform="translate(757.68 134.302)">
      <g id="Group_1361" data-name="Group 1361">
        <path id="Path_685" data-name="Path 685" d="M764.045,177.03v3.263a.181.181,0,0,0,.362,0V177.03a.181.181,0,0,0-.362,0Z" transform="translate(-764.045 -176.858)" fill="#e8e8e8"/>
      </g>
    </g>
    <g id="Group_1364" data-name="Group 1364" transform="translate(755.372 134.293)">
      <g id="Group_1363" data-name="Group 1363" transform="translate(0 0)">
        <path id="Path_686" data-name="Path 686" d="M759.735,177.2h4.714a.182.182,0,0,0,0-.363h-4.714a.181.181,0,0,0,0,.363Z" transform="translate(-759.553 -176.84)" fill="#e8e8e8"/>
      </g>
    </g>
    <g id="Group_1366" data-name="Group 1366" transform="translate(808.604 210.503)">
      <g id="Group_1365" data-name="Group 1365" transform="translate(0)">
        <path id="Path_687" data-name="Path 687" d="M863.3,325.47H875.12a.181.181,0,0,0,0-.362H863.3a.181.181,0,0,0,0,.362Z" transform="translate(-863.117 -325.108)" fill="#e8e8e8"/>
      </g>
    </g>
    <g id="Group_1368" data-name="Group 1368" transform="translate(815.699 207.78)">
      <g id="Group_1367" data-name="Group 1367">
        <path id="Path_688" data-name="Path 688" d="M877.283,322.534v-2.551a.181.181,0,0,0-.362,0v2.551a.181.181,0,0,0,.362,0Z" transform="translate(-876.921 -319.811)" fill="#e8e8e8"/>
      </g>
    </g>
    <g id="Group_1370" data-name="Group 1370" transform="translate(814.789 207.602)">
      <g id="Group_1369" data-name="Group 1369" transform="translate(0)">
        <path id="Path_689" data-name="Path 689" d="M875.323,319.826h4.908a.181.181,0,0,0,0-.362h-4.908a.181.181,0,0,0,0,.362Z" transform="translate(-875.151 -319.464)" fill="#e8e8e8"/>
      </g>
    </g>
    <g id="Group_1372" data-name="Group 1372" transform="translate(752.383 204.145)">
      <g id="Group_1371" data-name="Group 1371" transform="translate(0)">
        <path id="Path_690" data-name="Path 690" d="M753.911,313.1h11.822a.182.182,0,0,0,0-.363H753.911a.182.182,0,0,0,0,.363Z" transform="translate(-753.739 -312.738)" fill="#e8e8e8"/>
      </g>
    </g>
    <g id="Group_1374" data-name="Group 1374" transform="translate(758.018 199.597)">
      <g id="Group_1373" data-name="Group 1373">
        <path id="Path_691" data-name="Path 691" d="M764.7,304.062v4.182a.182.182,0,0,0,.363,0v-4.182a.182.182,0,0,0-.363,0Z" transform="translate(-764.703 -303.891)" fill="#e8e8e8"/>
      </g>
    </g>
    <g id="Group_1376" data-name="Group 1376" transform="translate(753.12 199.225)">
      <g id="Group_1375" data-name="Group 1375">
        <path id="Path_692" data-name="Path 692" d="M760.072,303.167h-4.726a.182.182,0,0,0,0,.363h4.726a.182.182,0,0,0,0-.363Z" transform="translate(-755.174 -303.167)" fill="#e8e8e8"/>
      </g>
    </g>
    <g id="Group_1378" data-name="Group 1378" transform="translate(883.337 188.364)">
      <g id="Group_1377" data-name="Group 1377" transform="translate(0)">
        <path id="Path_693" data-name="Path 693" d="M1009.13,287.543a.77.77,0,0,1,.314-1.306c.326-.072.641.133.955.169a.633.633,0,0,0,.653-.206c.242-.314.048-.676.036-1.027-.024-1.1,1.281-1.027,1.934-.641a.183.183,0,0,0,.266-.205,1.591,1.591,0,0,1,2.6-1.547c.181.145.435-.109.254-.254a1.957,1.957,0,0,0-3.2,1.91c.085-.072.182-.133.266-.206a1.761,1.761,0,0,0-1.862-.133,1.245,1.245,0,0,0-.507.58,1.055,1.055,0,0,0-.1.507c.012.326.121.3-.121.616-.266.351-.29.194-.665.109a1.105,1.105,0,0,0-1.064,1.886c.157.169.411-.085.242-.254Z" transform="translate(-1008.511 -282.036)" fill="#e8e8e8"/>
      </g>
    </g>
    <g id="Group_1380" data-name="Group 1380" transform="translate(885.955 190.645)">
      <g id="Group_1379" data-name="Group 1379">
        <path id="Path_694" data-name="Path 694" d="M1013.962,290.062c-.133-1.1,1.669-1.112,2.176-1.874a3.061,3.061,0,0,0,.266-.616,1.2,1.2,0,0,1,.846-.725,3.191,3.191,0,0,1,1.958.387c.218.084.315-.266.1-.351-1.112-.459-2.611-.81-3.227.544-.218.483-.29.749-.8,1-.3.145-.617.229-.907.4a1.288,1.288,0,0,0-.762,1.233c.024.23.387.23.351,0Z" transform="translate(-1013.605 -286.473)" fill="#e8e8e8"/>
      </g>
    </g>
    <g id="Group_1382" data-name="Group 1382" transform="translate(762.448 100.87)">
      <g id="Group_1381" data-name="Group 1381" transform="translate(0 0)">
        <path id="Path_695" data-name="Path 695" d="M773.714,112.845c-.23-.58.544-.738.907-.532a2.027,2.027,0,0,1,.629.689,3.027,3.027,0,0,1,.411.749.72.72,0,0,1-.036.665c-.423.193-.641.145-.653-.133-.109-.4.314-.665.677-.653a1.483,1.483,0,0,1,.979.5,2.089,2.089,0,0,1,.531,1.68c.109-.036.23-.06.339-.1a.629.629,0,0,1,.314-.907.9.9,0,0,1,.858.036,3.216,3.216,0,0,1,1.015,1.039c.133.194.447.012.314-.181-.459-.641-1.148-1.535-2.055-1.33-.665.145-1.2.919-.762,1.523a.184.184,0,0,0,.339-.1c.108-1.148-.738-2.72-2.092-2.526a.908.908,0,0,0-.834.907.761.761,0,0,0,.653.81.859.859,0,0,0,.834-.87,2.835,2.835,0,0,0-.8-1.7,1.248,1.248,0,0,0-1.366-.531.8.8,0,0,0-.544,1.039c.072.242.423.145.338-.072Z" transform="translate(-773.321 -111.816)" fill="#e8e8e8"/>
      </g>
    </g>
    <g id="Group_1384" data-name="Group 1384" transform="translate(825.915 118.367)">
      <g id="Group_1383" data-name="Group 1383">
        <path id="Path_696" data-name="Path 696" d="M897.4,147.121c-.508-.3-.146-1.2.423-.822.544.363-.181.979-.532.556-.145-.181-.4.072-.254.254a.8.8,0,0,0,1.124.036.713.713,0,0,0-.109-1.124.77.77,0,0,0-1.148.217.907.907,0,0,0,.326,1.2c.181.109.363-.193.17-.314Z" transform="translate(-896.796 -145.857)" fill="#e8e8e8"/>
      </g>
    </g>
    <g id="Group_1386" data-name="Group 1386" transform="translate(864.554 92.003)">
      <g id="Group_1385" data-name="Group 1385" transform="translate(0 0)">
        <path id="Path_697" data-name="Path 697" d="M972.442,95.758a.536.536,0,0,1,.616-.774c-.036-.024-.073-.06-.108-.084a.631.631,0,0,1-.556.919,2.021,2.021,0,0,1,.169.133c-.073-.206-.157-.423-.23-.629s-.435-.121-.351.1.157.423.23.629a.168.168,0,0,0,.169.133.955.955,0,0,0,.895-.556c.133-.266.205-.822-.121-.992-.713-.351-1.45.713-1.027,1.306.133.193.447.012.314-.181Z" transform="translate(-971.97 -94.564)" fill="#e8e8e8"/>
      </g>
    </g>
    <g id="Group_1388" data-name="Group 1388" transform="translate(874.483 110.155)">
      <g id="Group_1387" data-name="Group 1387">
        <path id="Path_698" data-name="Path 698" d="M991.669,130.895a.564.564,0,0,1,.423-.64.5.5,0,0,1,.544.387c.157.544-.556.8-.894.423-.157-.17-.411.084-.254.253a.863.863,0,0,0,1.451-.882.846.846,0,0,0-1.015-.52.934.934,0,0,0-.617,1.076.188.188,0,0,0,.363-.1Z" transform="translate(-991.287 -129.881)" fill="#e8e8e8"/>
      </g>
    </g>
    <g id="Group_1390" data-name="Group 1390" transform="translate(834.917 208.025)">
      <g id="Group_1389" data-name="Group 1389" transform="translate(0)">
        <path id="Path_699" data-name="Path 699" d="M915.024,323.478a.612.612,0,0,1,0-1.088c.411-.23.8-.024,1.172.145.314.145.676.278.955,0,.254-.242.206-.617.218-.931.048-1.221,1.233-.979,2.043-.677.217.085.314-.266.1-.351-.713-.278-1.7-.544-2.272.157a1.137,1.137,0,0,0-.23.7c-.012.169.061.544-.036.7-.266.4-.629.036-.907-.085a1.29,1.29,0,0,0-1.62.387.954.954,0,0,0,.387,1.342c.218.108.4-.206.194-.3Z" transform="translate(-914.31 -320.287)" fill="#e8e8e8"/>
      </g>
    </g>
    <circle id="Ellipse_87" data-name="Ellipse 87" cx="0.761" cy="0.761" r="0.761" transform="translate(803.423 156.666)" fill="#faad00"/>
    <circle id="Ellipse_88" data-name="Ellipse 88" cx="0.737" cy="0.737" r="0.737" transform="translate(804.946 160.595)" fill="#0fbf89"/>
    <circle id="Ellipse_89" data-name="Ellipse 89" cx="1.378" cy="1.378" r="1.378" transform="translate(803.423 179.862)" fill="#0fbf89"/>
    <g id="Group_1392" data-name="Group 1392" transform="translate(844.089 139.044)">
      <g id="Group_1391" data-name="Group 1391">
        <path id="Path_700" data-name="Path 700" d="M932.379,186.457a6.744,6.744,0,0,0,.4.737.7.7,0,0,0,.58.109c.363-.061.593-.326.907-.5.677-.387.677.278.943.653.3.447.629.23.979.012.23-.145.447-.242.653-.036a2.479,2.479,0,0,1,.266.423,1.182,1.182,0,0,0,.5.447c.206.1.4-.217.182-.315-.5-.217-.556-1.039-1.148-1.124-.278-.036-.4.121-.616.242-.266.157-.423.266-.593-.036-.073-.121-.084-.29-.169-.411-.387-.641-.991-.29-1.475.024a1.982,1.982,0,0,1-.266.169c-.206-.061-.423-.121-.629-.181-.084-.084-.084-.29-.157-.4a.381.381,0,0,0-.435-.181c-.242.049-.145.4.085.363Z" transform="translate(-932.153 -186.083)" fill="#faad00"/>
      </g>
    </g>
    <g id="Group_1394" data-name="Group 1394" transform="translate(846.815 137.765)">
      <g id="Group_1393" data-name="Group 1393" transform="translate(0 0)">
        <path id="Path_701" data-name="Path 701" d="M937.8,184.087c.362-.568,1.2.617,1.535.762a.9.9,0,0,0,.617.024,1.729,1.729,0,0,0,.266-.109.786.786,0,0,1,.87.181c.387.326.5.762,1.052.883a.636.636,0,0,0,.774-.339c.1-.206-.217-.4-.314-.181-.339.725-1.27-.7-1.511-.858-.447-.29-.725-.048-1.172.048-.713.145-.943-.653-1.535-.846a.687.687,0,0,0-.883.266c-.145.193.169.375.3.169Z" transform="translate(-937.457 -183.595)" fill="#faad00"/>
      </g>
    </g>
    <g id="Group_1396" data-name="Group 1396" transform="translate(839.72 158.87)">
      <g id="Group_1395" data-name="Group 1395" transform="translate(0 0)">
        <path id="Path_702" data-name="Path 702" d="M924.066,224.869c.242.6.484,1.221.725,1.825.024-.072.061-.133.085-.206-.133.085-.266.17-.4.266-.206-.484-.121-.6.266-.387a1.078,1.078,0,0,1,.387.713,3.436,3.436,0,0,1-.205,1.74.177.177,0,0,0,.218.217c.725-.145,1.015.725.87,1.269a4.247,4.247,0,0,1-.544,1.1c-.121.193.193.375.314.181a2.494,2.494,0,0,0,.569-2.1,1.159,1.159,0,0,0-1.306-.8l.217.217a3.339,3.339,0,0,0,.1-2.3,1.036,1.036,0,0,0-1.208-.676.648.648,0,0,0-.423.93c.326.665.894.218,1.317-.06a.2.2,0,0,0,.084-.206c-.242-.6-.483-1.221-.725-1.825-.072-.206-.423-.121-.338.1Z" transform="translate(-923.654 -224.655)" fill="#e8e8e8"/>
      </g>
    </g>
    <g id="flower" transform="translate(847.11 157.893)">
      <g id="Group_1398" data-name="Group 1398" transform="translate(0 24.661)">
        <g id="Group_1397" data-name="Group 1397">
          <path id="Path_703" data-name="Path 703" d="M938.208,270.905a53.072,53.072,0,0,0,.58,13.272c.036.229.387.133.351-.1a52.857,52.857,0,0,1-.568-13.175c.024-.23-.339-.23-.363,0Z" transform="translate(-938.031 -270.733)" fill="#e8e8e8"/>
        </g>
      </g>
      <g id="Group_1400" data-name="Group 1400" transform="translate(0.293 24.747)">
        <g id="Group_1399" data-name="Group 1399">
          <path id="Path_704" data-name="Path 704" d="M938.728,271.265a26.647,26.647,0,0,0,5.814,1.306,12.661,12.661,0,0,0,5.79-.3c.217-.085.121-.435-.1-.351a12.394,12.394,0,0,1-5.693.29,25.793,25.793,0,0,1-5.717-1.293c-.23-.085-.315.266-.1.351Z" transform="translate(-938.601 -270.901)" fill="#e8e8e8"/>
        </g>
      </g>
      <g id="Group_1402" data-name="Group 1402" transform="translate(0.073 0.511)">
        <g id="Group_1401" data-name="Group 1401">
          <path id="Path_705" data-name="Path 705" d="M941.4,248.845a13.621,13.621,0,0,1-1.511-3.13,15.064,15.064,0,0,1-.423-1.608c-.061-.326-.121-.653-.157-.979,0-.036-.133-.894.121-.774.121.061.326-.048.266-.206a15.051,15.051,0,0,1-1.064-5.258l-.181.181c.1.036.181.072.278.108.121.145.351-.012.3-.181a9.972,9.972,0,0,1-.447-2.393,11.352,11.352,0,0,1,.157-2.333.18.18,0,0,0,.217-.217,19.793,19.793,0,0,1-.278-4.134,16.414,16.414,0,0,1,.194-2.043,3,3,0,0,1,.628-1.813l-.29-.036a26.452,26.452,0,0,1,2.1,6.08q.762,3.064,1.341,6.189a99.611,99.611,0,0,1,1.5,12.993c.012.23.375.23.363,0A99.393,99.393,0,0,0,943,236.2q-.6-3.227-1.39-6.418a25.973,25.973,0,0,0-2.091-5.947.19.19,0,0,0-.29-.036,2.309,2.309,0,0,0-.629,1.39,19.448,19.448,0,0,0-.012,6.95l.217-.217c-.7-.193-.616,1.317-.629,1.656a10.462,10.462,0,0,0,.484,3.505c.1-.06.206-.121.3-.181a.538.538,0,0,0-.532-.218.186.186,0,0,0-.181.181,15.385,15.385,0,0,0,1.076,5.355c.085-.073.181-.133.266-.206-1.209-.58-.508,2.152-.411,2.562A14.057,14.057,0,0,0,941.07,249c.145.217.459.036.326-.157Z" transform="translate(-938.173 -223.75)" fill="#e8e8e8"/>
        </g>
      </g>
      <g id="Group_1404" data-name="Group 1404" transform="translate(4.796)">
        <g id="Group_1403" data-name="Group 1403">
          <path id="Path_706" data-name="Path 706" d="M947.784,236.287a8.873,8.873,0,0,1-.036-2.333c.024-.193.484-2.466.713-2.369a.19.19,0,0,0,.278-.157,13.294,13.294,0,0,1,1.124-4.351,16.1,16.1,0,0,1,2.067-4h-.253c.689.786.6,1.983.641,2.961.048,1.1.085,2.2.1,3.3q.036,3.246-.109,6.491a107.435,107.435,0,0,1-1.45,13.2c-.036.229.314.326.35.1a109.4,109.4,0,0,0,1.487-13.768q.145-3.481.072-6.962c-.024-1.16-.048-2.321-.133-3.481a3.293,3.293,0,0,0-.7-2.1.175.175,0,0,0-.253,0,15.6,15.6,0,0,0-2.067,3.952,14.175,14.175,0,0,0-1.221,4.666c.1-.048.182-.108.278-.157-.737-.326-.979,1.245-1.076,1.668a9.123,9.123,0,0,0-.121,3.432c-.012.242.339.145.315-.084Z" transform="translate(-947.362 -222.755)" fill="#e8e8e8"/>
        </g>
      </g>
      <g id="Group_1406" data-name="Group 1406" transform="translate(0.796 37.877)">
        <g id="Group_1405" data-name="Group 1405">
          <path id="Path_707" data-name="Path 707" d="M939.71,296.975a18.149,18.149,0,0,0,11.628-.169c.217-.072.121-.423-.1-.351a17.884,17.884,0,0,1-11.434.169.182.182,0,0,0-.1.351Z" transform="translate(-939.579 -296.446)" fill="#e8e8e8"/>
        </g>
      </g>
      <g id="Group_1408" data-name="Group 1408" transform="translate(11.974 25.821)">
        <g id="Group_1407" data-name="Group 1407">
          <path id="Path_708" data-name="Path 708" d="M961.328,273.163c.145,1.958.3,3.916.435,5.874a26.169,26.169,0,0,1-.145,6c-.036.23.315.326.351.1a25.023,25.023,0,0,0,.169-5.862c-.133-2.031-.29-4.073-.447-6.1-.012-.23-.375-.23-.362,0Z" transform="translate(-961.327 -272.991)" fill="#e8e8e8"/>
        </g>
      </g>
    </g>
    <g id="window" transform="translate(770.891 118.333)">
      <path id="Path_709" data-name="Path 709" d="M835.824,297.92c2.466-1.317,4.944-2.635,7.409-3.953,1.161.194,2.756.447,4.666.713a156.187,156.187,0,0,0,17.756,1.62,126.561,126.561,0,0,0,15.846-.484,64.2,64.2,0,0,0,11.241-1.91,59.39,59.39,0,0,0,5.8-1.91,26.705,26.705,0,0,1,3.832,1.62,24.822,24.822,0,0,1,2.152,1.257c-2.272.653-5.331,1.487-8.969,2.333-7.663,1.789-13.538,2.635-14.77,2.816-7.047,1-17.092,2.417-29.723.955A98.456,98.456,0,0,1,835.824,297.92Z" transform="translate(-812.14 -216.846)" fill="#fff"/>
      <path id="Path_710" data-name="Path 710" d="M835.565,300.435c.061.507.133,1,.193,1.511.907.254,2.237.616,3.88.979a72.332,72.332,0,0,0,10.5,1.511,186.526,186.526,0,0,0,27.7.133,94.741,94.741,0,0,0,19.835-3.348c2.9-.846,5.27-1.7,6.962-2.369q-.2-.852-.4-1.7c-.471.193-1.172.471-2.031.786a62.981,62.981,0,0,1-14.9,3.348c-9.4,1.16-14.106,1.728-21.007,1.837A151.088,151.088,0,0,1,835.565,300.435Z" transform="translate(-812.014 -219.349)" fill="#161616"/>
      <g id="Group_1410" data-name="Group 1410" transform="translate(23.466 81.134)">
        <g id="Group_1409" data-name="Group 1409">
          <path id="Path_711" data-name="Path 711" d="M835.4,303.819v1.161a.181.181,0,0,0,.362,0v-1.161a.181.181,0,0,0-.362,0Z" transform="translate(-835.401 -303.637)" fill="#161616"/>
        </g>
      </g>
      <g id="Group_1412" data-name="Group 1412" transform="translate(23.468 79.356)">
        <g id="Group_1411" data-name="Group 1411">
          <path id="Path_712" data-name="Path 712" d="M835.535,303.637c9.03,2.441,18.457,2.756,27.753,2.889a136.49,136.49,0,0,0,26.725-1.9,81.384,81.384,0,0,0,14.553-4.086c.217-.084.121-.435-.1-.351a91.33,91.33,0,0,1-26.036,5.561,196.713,196.713,0,0,1-26.954-.012,79.742,79.742,0,0,1-15.847-2.441.176.176,0,1,0-.1.338Z" transform="translate(-835.404 -300.179)" fill="#161616"/>
        </g>
      </g>
      <g id="Group_1414" data-name="Group 1414" transform="translate(92.276 77.759)">
        <g id="Group_1413" data-name="Group 1413">
          <path id="Path_713" data-name="Path 713" d="M969.624,298.778a6.532,6.532,0,0,0,.048-1.535c-.024-.23-.387-.23-.362,0a6.354,6.354,0,0,1-.036,1.438c-.036.218.315.326.351.1Z" transform="translate(-969.271 -297.071)" fill="#161616"/>
        </g>
      </g>
      <g id="Group_1416" data-name="Group 1416" transform="translate(23.477 77.038)">
        <g id="Group_1415" data-name="Group 1415">
          <path id="Path_714" data-name="Path 714" d="M835.7,299.909c2.538-1.209,5.028-2.5,7.47-3.9a.181.181,0,0,0-.181-.314q-3.662,2.085-7.47,3.9c-.217.1-.036.411.182.315Z" transform="translate(-835.421 -295.668)" fill="#161616"/>
        </g>
      </g>
      <g id="Group_1418" data-name="Group 1418" transform="translate(30.998 75.036)">
        <g id="Group_1417" data-name="Group 1417">
          <path id="Path_715" data-name="Path 715" d="M850.186,293.943a134.452,134.452,0,0,0,43.949,1.172,42.377,42.377,0,0,0,11.29-3.01c.217-.1.024-.411-.181-.315a40.177,40.177,0,0,1-10.117,2.8c-3.529.556-7.095.894-10.661,1.124a137.392,137.392,0,0,1-21.733-.351c-4.182-.4-8.328-1-12.45-1.777-.23-.036-.326.314-.1.351Z" transform="translate(-850.054 -291.773)" fill="#161616"/>
        </g>
      </g>
      <g id="Group_1420" data-name="Group 1420" transform="translate(86.164 74.948)">
        <g id="Group_1419" data-name="Group 1419">
          <path id="Path_716" data-name="Path 716" d="M957.512,291.962a25.008,25.008,0,0,1,6.056,2.925c.194.133.375-.181.181-.315a25.7,25.7,0,0,0-6.14-2.961.182.182,0,0,0-.1.351Z" transform="translate(-957.38 -291.602)" fill="#161616"/>
        </g>
      </g>
      <g id="Group_1422" data-name="Group 1422" transform="translate(23.656 77.643)">
        <g id="Group_1421" data-name="Group 1421">
          <path id="Path_717" data-name="Path 717" d="M835.895,300.289a55,55,0,0,0,13.187,2.478c4.532.363,9.1.471,13.646.471A150.622,150.622,0,0,0,889.707,301a107.57,107.57,0,0,0,14.928-3.8c.217-.072.121-.423-.1-.351a117.566,117.566,0,0,1-26.471,5.343,179.146,179.146,0,0,1-26.955.338,58.5,58.5,0,0,1-15.145-2.6c-.193-.073-.29.278-.072.351Z" transform="translate(-835.771 -296.846)" fill="#161616"/>
        </g>
      </g>
      <g id="Group_1424" data-name="Group 1424" transform="translate(30.515 7.337)">
        <g id="Group_1423" data-name="Group 1423">
          <path id="Path_718" data-name="Path 718" d="M849.341,164.783c14.77-3.421,29.976-4.17,45.085-4.316,4.279-.048,8.558-.036,12.837-.036a.182.182,0,0,0,0-.363c-15.157-.024-30.387-.036-45.436,2.055-4.231.592-8.425,1.342-12.583,2.309a.182.182,0,0,0,.1.351Z" transform="translate(-849.113 -160.064)" fill="#161616"/>
        </g>
      </g>
      <path id="Path_719" data-name="Path 719" d="M961.212,153.481c.157,5.621.254,12.136.217,19.376-.024,4.206-.06,2.2-.435,19.7-.218,10.081-.278,13.876-.992,19.7-.459,3.8-1.015,6.914-1.426,9.029,3.118.87,6.091,1.692,8.7,2.417A51.356,51.356,0,0,0,974,225.364a26.829,26.829,0,0,0,9.029-.326c1.293-10.588,2.007-19.618,2.417-26.532,1.475-24.295.1-35.488-.435-39.416-.725-5.294-1.62-9.645-2.309-12.655-2.586.5-4.69,1.027-6.164,1.426a103.374,103.374,0,0,0-12.438,4.4C962.856,152.78,961.852,153.2,961.212,153.481Z" transform="translate(-871.798 -146.103)" fill="#fff"/>
      <path id="Path_720" data-name="Path 720" d="M797.972,146.858c-.1,1.039-.206,2.321-.3,3.433-2.007,22.881-3.01,34.328-3.336,41.689a209.211,209.211,0,0,0,1.317,33.615,2.631,2.631,0,0,0,.81,1.015,6.06,6.06,0,0,0,2.116.7,14.013,14.013,0,0,1,1.62.6,18.711,18.711,0,0,0,6.769.81,29.918,29.918,0,0,0,10.6-2.623,41.161,41.161,0,0,0,5.657-2.828c-.749-6.733-1.305-13.84-1.62-21.3a307.159,307.159,0,0,1,1.317-43.406c-.556-.217-1.366-.52-2.321-.906-1.644-.665-5.584-2.272-12.522-5.657C805.333,150.678,801.9,148.949,797.972,146.858Z" transform="translate(-791.887 -146.309)" fill="#fff"/>
      <path id="Path_721" data-name="Path 721" d="M1005.373,146.34c.145.8.338,1.9.556,3.215.3,1.874.979,6.31,1.475,12.136.507,6.068.628,11.29.64,15.448.036,8.437-.278,14.625-1.1,29.058-.254,4.5-.629,11.084-1.1,19.122.5-.036.979-.061,1.475-.1.242-2.007.568-4.993.822-8.642.193-2.635.278-4.557.363-6.624.423-9.476.5-9.368.641-13.236.29-7.627.23-13.489.181-18.759-.036-3.639-.145-7.083-.363-13.973a81.919,81.919,0,0,0-1.378-14.251c-.278-1.378-.544-2.526-.737-3.312C1006.352,146.4,1005.869,146.376,1005.373,146.34Z" transform="translate(-894.54 -146.057)" fill="#161616"/>
      <path id="Path_722" data-name="Path 722" d="M794.21,147.281c-.085.423-.217,1.076-.351,1.874a42.9,42.9,0,0,0-.52,4.617c-.266,4.109-.8,6.116-1.571,15.242-.146,1.668-.254,3.131-.471,6.068-.448,6-.665,8.993-.822,12.377-.169,3.784-.193,6.455-.229,11.8-.036,4.617-.061,7.953.06,12.317.1,3.481.29,8.207.762,13.84.979.29,1.946.58,2.925.87-.012-.544-.048-1.523-.121-2.744-.29-5.427-.761-7.627-.87-12.147-.036-1.39-.012-2.309,0-3.626.133-9.452-.024-13.767.061-19.908.145-10.02.822-17.852,1.4-24.525.544-6.309,1.16-11.713,1.692-15.943C795.492,147.353,794.851,147.317,794.21,147.281Z" transform="translate(-789.975 -146.515)" fill="#161616"/>
      <g id="Group_1426" data-name="Group 1426" transform="translate(86.642 7.411)">
        <g id="Group_1425" data-name="Group 1425">
          <path id="Path_723" data-name="Path 723" d="M960.792,160.381c.447,8.872.386,17.768.266,26.64-.133,8.678-.193,17.381-.858,26.048a134.325,134.325,0,0,1-1.885,14.723c-.048.229.3.326.351.1a166.9,166.9,0,0,0,2.466-25.843q.417-13.254.387-26.544c-.012-5.04-.1-10.081-.351-15.121-.024-.23-.387-.23-.375,0Z" transform="translate(-958.309 -160.209)" fill="#161616"/>
        </g>
      </g>
      <g id="Group_1428" data-name="Group 1428" transform="translate(89.3 0.097)">
        <g id="Group_1427" data-name="Group 1427">
          <path id="Path_724" data-name="Path 724" d="M963.752,153.465a83.014,83.014,0,0,1,21.177-7.132c.23-.048.133-.4-.1-.351a84.159,84.159,0,0,0-21.261,7.168c-.206.109-.024.423.181.315Z" transform="translate(-963.48 -145.978)" fill="#161616"/>
        </g>
      </g>
      <g id="Group_1430" data-name="Group 1430" transform="translate(110.623 0.118)">
        <g id="Group_1429" data-name="Group 1429">
          <path id="Path_725" data-name="Path 725" d="M1004.969,146.245a155.753,155.753,0,0,1,2.587,30.532c-.024,10.226-.629,20.428-1.124,30.641q-.436,8.83-.87,17.647c-.012.23.35.23.362,0,.52-10.419,1.064-20.838,1.535-31.269a273.624,273.624,0,0,0,.061-30.69,132.87,132.87,0,0,0-2.188-16.946.186.186,0,0,0-.363.085Z" transform="translate(-1004.964 -146.019)" fill="#161616"/>
        </g>
      </g>
      <g id="Group_1432" data-name="Group 1432" transform="translate(86.657 74.757)">
        <g id="Group_1431" data-name="Group 1431">
          <path id="Path_726" data-name="Path 726" d="M958.389,291.54a4.6,4.6,0,0,0,2.272.979c1.04.315,2.091.629,3.131.943,2.1.628,4.194,1.293,6.322,1.825a30.969,30.969,0,0,0,12.643.5c.23-.036.133-.387-.1-.351a30.456,30.456,0,0,1-12.45-.5c-1.946-.472-3.856-1.076-5.766-1.656l-2.9-.87-1.451-.435a2.858,2.858,0,0,1-1.438-.689.184.184,0,0,0-.266.254Z" transform="translate(-958.339 -291.23)" fill="#161616"/>
        </g>
      </g>
      <g id="Group_1434" data-name="Group 1434" transform="translate(110.738)">
        <g id="Group_1433" data-name="Group 1433">
          <path id="Path_727" data-name="Path 727" d="M1005.32,146.145c.447.109.894.218,1.353.326a.182.182,0,0,0,.1-.351c-.447-.108-.894-.217-1.353-.326-.23-.048-.326.3-.1.351Z" transform="translate(-1005.188 -145.79)" fill="#161616"/>
        </g>
      </g>
      <g id="Group_1436" data-name="Group 1436" transform="translate(112.192 0.335)">
        <g id="Group_1435" data-name="Group 1435">
          <path id="Path_728" data-name="Path 728" d="M1008.023,146.668a87.918,87.918,0,0,1,1.886,15c.362,5.125.556,10.262.64,15.411.145,10.214-.206,20.428-.785,30.629-.326,5.778-.738,11.555-1.161,17.333-.012.23.351.23.363,0,.761-10.274,1.45-20.548,1.776-30.847.326-10.274.3-20.573-.351-30.846-.351-5.584-.665-11.314-2.006-16.765a.186.186,0,0,0-.363.085Z" transform="translate(-1008.017 -146.442)" fill="#161616"/>
        </g>
      </g>
      <g id="Group_1438" data-name="Group 1438" transform="translate(111.241 78.861)">
        <g id="Group_1437" data-name="Group 1437">
          <path id="Path_729" data-name="Path 729" d="M1006.339,299.723l1.583-.145c.23-.024.23-.387,0-.362l-1.583.145c-.23.024-.23.387,0,.362Z" transform="translate(-1006.167 -299.215)" fill="#161616"/>
        </g>
      </g>
      <g id="Group_1440" data-name="Group 1440" transform="translate(29.224 11.992)">
        <g id="Group_1439" data-name="Group 1439">
          <path id="Path_730" data-name="Path 730" d="M848.109,169.293q-1.215,12.565-1.451,25.19-.236,12.674.52,25.347c.278,4.738.677,9.464,1.16,14.178.024.23.387.23.363,0q-1.305-12.547-1.632-25.177-.326-12.674.339-25.347.38-7.107,1.052-14.191c.036-.23-.326-.23-.351,0Z" transform="translate(-846.602 -169.121)" fill="#161616"/>
        </g>
      </g>
      <g id="Group_1442" data-name="Group 1442" transform="translate(6.224 0.497)">
        <g id="Group_1441" data-name="Group 1441">
          <path id="Path_731" data-name="Path 731" d="M801.946,147.1A196.825,196.825,0,0,0,826.3,158.533c.217.084.314-.266.1-.351a195.449,195.449,0,0,1-24.271-11.4.181.181,0,0,0-.181.315Z" transform="translate(-801.856 -146.757)" fill="#161616"/>
        </g>
      </g>
      <g id="Group_1444" data-name="Group 1444" transform="translate(2.71 0.582)">
        <g id="Group_1443" data-name="Group 1443">
          <path id="Path_732" data-name="Path 732" d="M798.25,147.094q-2.013,15.339-2.78,30.823-.762,15.466-.242,30.943.29,8.685.979,17.357c.024.23.387.23.363,0q-1.233-15.429-1.185-30.919t1.354-30.919q.743-8.667,1.874-17.285c.024-.23-.338-.23-.362,0Z" transform="translate(-795.02 -146.922)" fill="#161616"/>
        </g>
      </g>
      <g id="Group_1446" data-name="Group 1446" transform="translate(3.797 76.671)">
        <g id="Group_1445" data-name="Group 1445">
          <path id="Path_733" data-name="Path 733" d="M797.222,298.39c6.732,3.662,14.795,2.876,21.636-.024a47.635,47.635,0,0,0,5.947-3.07c.193-.121.012-.435-.182-.315-6.37,3.856-13.84,6.552-21.37,5.149a19.718,19.718,0,0,1-5.85-2.055c-.194-.108-.387.206-.181.315Z" transform="translate(-797.134 -294.954)" fill="#161616"/>
        </g>
      </g>
      <g id="Group_1448" data-name="Group 1448" transform="translate(1.115 78.771)">
        <g id="Group_1447" data-name="Group 1447">
          <path id="Path_734" data-name="Path 734" d="M792.015,299.372a25.313,25.313,0,0,0,2.6,1.039c.217.072.314-.278.1-.351a23.565,23.565,0,0,1-2.514-1c-.218-.1-.4.218-.181.315Z" transform="translate(-791.917 -299.04)" fill="#161616"/>
        </g>
      </g>
      <g id="Group_1450" data-name="Group 1450" transform="translate(0 0.665)">
        <g id="Group_1449" data-name="Group 1449">
          <path id="Path_735" data-name="Path 735" d="M793.741,147.258c-1.306,10.129-2.394,20.282-3.107,30.472-.7,10.141-1.039,20.307-.822,30.472.121,5.753.411,11.507.907,17.236.024.23.387.23.362,0a280.477,280.477,0,0,1-.883-30.568c.23-10.165.931-20.319,1.934-30.448q.852-8.594,1.97-17.176c.036-.217-.326-.217-.362.012Z" transform="translate(-789.747 -147.084)" fill="#161616"/>
        </g>
      </g>
      <g id="Group_1452" data-name="Group 1452" transform="translate(3.971 0.563)">
        <g id="Group_1451" data-name="Group 1451">
          <path id="Path_736" data-name="Path 736" d="M797.7,147.415a8.336,8.336,0,0,1,2.128-.157c.23.012.23-.351,0-.362a9.156,9.156,0,0,0-2.224.169c-.23.048-.133.4.1.351Z" transform="translate(-797.473 -146.885)" fill="#161616"/>
        </g>
      </g>
      <g id="Group_1454" data-name="Group 1454" transform="translate(93.04 8.233)">
        <g id="Group_1453" data-name="Group 1453">
          <path id="Path_737" data-name="Path 737" d="M971.471,161.98q.762,21.032-.1,42.075c-.157,3.929-.362,7.845-.616,11.773-.012.23.351.23.362,0q1.324-21,1.016-42.064-.091-5.893-.3-11.785c-.012-.23-.375-.23-.363,0Z" transform="translate(-970.757 -161.808)" fill="#161616"/>
        </g>
      </g>
      <g id="Group_1456" data-name="Group 1456" transform="translate(98.564 3.205)">
        <g id="Group_1455" data-name="Group 1455">
          <path id="Path_738" data-name="Path 738" d="M982.555,152.2q.726,14.632.714,29.3,0,14.649-.725,29.3-.4,8.286-1.04,16.547c-.012.23.35.23.363,0q1.124-14.614,1.535-29.263t.1-29.312q-.182-8.285-.58-16.571c-.012-.23-.375-.23-.363,0Z" transform="translate(-981.503 -152.025)" fill="#161616"/>
        </g>
      </g>
      <g id="Group_1458" data-name="Group 1458" transform="translate(106.276 1.043)">
        <g id="Group_1457" data-name="Group 1457">
          <path id="Path_739" data-name="Path 739" d="M996.882,148q1.015,15.212,1.2,30.484.163,15.321-.52,30.617-.38,8.576-1.051,17.139c-.012.23.35.23.362,0q1.16-15.211,1.486-30.472.308-15.3-.229-30.629-.309-8.576-.883-17.152a.181.181,0,0,0-.362.012Z" transform="translate(-996.507 -147.819)" fill="#161616"/>
        </g>
      </g>
      <g id="Group_1460" data-name="Group 1460" transform="translate(90.981 66.614)">
        <g id="Group_1459" data-name="Group 1459">
          <path id="Path_740" data-name="Path 740" d="M968.279,275.561a65.193,65.193,0,0,1-1.523,9.4.182.182,0,0,0,.351.1,64.763,64.763,0,0,0,1.535-9.5c.025-.23-.338-.23-.362,0Z" transform="translate(-966.751 -275.389)" fill="#161616"/>
        </g>
      </g>
      <g id="Group_1462" data-name="Group 1462" transform="translate(8.104 3.068)">
        <g id="Group_1461" data-name="Group 1461">
          <path id="Path_741" data-name="Path 741" d="M807.689,151.886a231.884,231.884,0,0,0-2.164,30.63c-.084,10.3.339,20.584.967,30.859.351,5.814.761,11.615,1.172,17.429.012.23.375.23.362,0-.725-10.238-1.451-20.475-1.849-30.726-.4-10.226-.459-20.476.133-30.7.338-5.814.894-11.628,1.716-17.393.048-.218-.3-.326-.338-.1Z" transform="translate(-805.514 -151.759)" fill="#161616"/>
        </g>
      </g>
      <g id="Group_1464" data-name="Group 1464" transform="translate(15.424 6.409)">
        <g id="Group_1463" data-name="Group 1463">
          <path id="Path_742" data-name="Path 742" d="M821.559,158.43c-.918,9.8-1.535,19.642-1.74,29.493a289.492,289.492,0,0,0,.846,29.493q.671,8.177,1.9,16.282c.036.23.387.133.351-.1a249.9,249.9,0,0,1-2.635-29.432c-.315-9.718-.133-19.461.4-29.167q.453-8.286,1.245-16.56c.024-.242-.339-.242-.363-.012Z" transform="translate(-819.755 -158.26)" fill="#161616"/>
        </g>
      </g>
      <g id="Group_1466" data-name="Group 1466" transform="translate(22.087 9.295)">
        <g id="Group_1465" data-name="Group 1465">
          <path id="Path_743" data-name="Path 743" d="M834.822,164.048a253.7,253.7,0,0,0-2.055,27.583,257.31,257.31,0,0,0,.943,27.644q.689,7.688,1.825,15.315c.037.229.387.133.351-.1a254.738,254.738,0,0,1-2.236-55.033q.526-7.724,1.523-15.423c.049-.218-.314-.218-.35.012Z" transform="translate(-832.717 -163.874)" fill="#161616"/>
        </g>
      </g>
      <path id="Path_744" data-name="Path 744" d="M980.358,148.093a101.746,101.746,0,0,1,2.792,19.086,103.731,103.731,0,0,1-7.144,42.849q-3.971,6.364-7.929,12.728a35.386,35.386,0,0,0,11.156,2.792,34.632,34.632,0,0,0,8.364-.339c.024-.531.423-8.618.447-9.15,1.317-27.087,1.4-28.937,1.451-30.8a258.019,258.019,0,0,0-1.112-32.031q-.672-3.463-1.342-6.914C984.83,146.9,982.594,147.489,980.358,148.093Z" transform="translate(-876.415 -146.046)" fill="#3f3f3f" opacity="0.12" style="isolation: isolate"/>
      <path id="Path_745" data-name="Path 745" d="M811.751,154.416c-.314,1.317-.786,3.288-1.342,5.693-2.466,10.733-4.279,18.626-5.246,25.891-1.716,12.8-3.372,25.2,3.686,35.379a28.651,28.651,0,0,0,5.8,6.14,21.865,21.865,0,0,1-5.355,1.342,23.039,23.039,0,0,1-12.837-2.345c-.87-8.014-1.474-16.6-1.668-25.674a298.241,298.241,0,0,1,3.687-53.68Q805.1,150.789,811.751,154.416Z" transform="translate(-792.165 -146.457)" fill="#3f3f3f" opacity="0.13" style="isolation: isolate"/>
    </g>
    <g id="legs" transform="translate(821.626 168.833)">
      <path id="Path_746" data-name="Path 746" d="M889.528,249.338c-.5,1.185-.5,2.067-.568,4.34-.085,2.8-.326,5.6-.351,8.389-.024,2.357-.061,5.922-.157,10.564a122.089,122.089,0,0,0,24.985-1.184c-1.741-5.886-2.889-10.177-3.711-13.5a27.348,27.348,0,0,0-2.84-7.543,24.19,24.19,0,0,0-2.708-3.844c-.193-.169-4.46-3.759-9.391-2.067A9.542,9.542,0,0,0,889.528,249.338Z" transform="translate(-888.452 -244.039)" fill="#faad00"/>
      <g id="Group_1468" data-name="Group 1468" transform="translate(8.173 12.074)">
        <g id="Group_1467" data-name="Group 1467">
          <path id="Path_747" data-name="Path 747" d="M904.375,267.8q1.215,2.158,2.417,4.315c.109.206.423.024.315-.181-.81-1.439-1.62-2.877-2.418-4.316-.108-.205-.423-.024-.314.181Z" transform="translate(-904.352 -267.529)" fill="#faad00"/>
        </g>
      </g>
      <g id="Group_1470" data-name="Group 1470" transform="translate(8.057 11.952)">
        <g id="Group_1469" data-name="Group 1469">
          <path id="Path_748" data-name="Path 748" d="M904.168,267.613a17.874,17.874,0,0,1,3.517,7.869,68.726,68.726,0,0,1,1.1,8.316c.012.23.375.23.362,0a72.455,72.455,0,0,0-1.136-8.546,18,18,0,0,0-3.578-7.893c-.145-.193-.411.072-.266.254Z" transform="translate(-904.126 -267.292)" fill="#faad00"/>
        </g>
      </g>
      <path id="Path_749" data-name="Path 749" d="M909.875,244.378c.423.846,1.028,2.091,1.7,3.59a63.872,63.872,0,0,1,5.1,14.674,41.544,41.544,0,0,1,.689,9.767c1.015-.048,2.091-.133,3.215-.254s2.2-.266,3.215-.435c-.314-1.064-.822-2.756-1.39-4.847-1.583-5.85-1.8-7.676-3.155-11.531a24.664,24.664,0,0,0-3.275-6.672A10.44,10.44,0,0,0,912.2,245.2,9.646,9.646,0,0,0,909.875,244.378Z" transform="translate(-898.864 -244.204)" fill="#3f3f3f" opacity="0.19" style="isolation: isolate"/>
      <path id="Path_750" data-name="Path 750" d="M904.255,268.176a35.372,35.372,0,0,1,1.076,6.237,36.053,36.053,0,0,1-.629,10.2l4.158-.254a58.013,58.013,0,0,0-.761-6.8c-.762-4.46-1.559-6.116-2.2-7.18A15.359,15.359,0,0,0,904.255,268.176Z" transform="translate(-896.132 -255.769)" fill="#3f3f3f" opacity="0.11" style="isolation: isolate"/>
    </g>
    <g id="hand_right" data-name="hand right" transform="translate(809.484 153.271)">
      <path id="Path_751" data-name="Path 751" d="M869.763,214.027c-.4.266-.64.774-1.112,1.777a16.15,16.15,0,0,0-.858,2.417c-.8,2.708-.713,2.248-.991,3.276a45.723,45.723,0,0,0-1.378,6.914,42.861,42.861,0,0,0-.266,5.984,37.568,37.568,0,0,0,1.184,7.977,83.251,83.251,0,0,0,3.747,10.758c.435,1.1.8,2.007,1.052,2.635-.181.024-.471.06-.822.108-1.825.218-2.079.169-2.816.326-.943.206-1.789.411-2.116,1.124-.145.326-.205.786-.024.943.23.194.677-.242,1.45-.5a3.639,3.639,0,0,1,1.632-.133,8.222,8.222,0,0,0-.6,1.571c-.266.919-.471,1.668-.133,2.2.17.266.5.508.762.435.145-.036.278-.169.641-1.124a6.013,6.013,0,0,1,.665-1.632,2.173,2.173,0,0,1,.737-.58,6.076,6.076,0,0,0-.254,1.293,4.08,4.08,0,0,0,0,1.015,2.2,2.2,0,0,0,.713,1.511c.1.072.5.375.737.217.206-.121.145-.46.23-1.547a4.51,4.51,0,0,1,.206-1.317,2.543,2.543,0,0,1,.58-.907,18.4,18.4,0,0,0-.025,2.127c.049.858.133,1.245.411,1.486a.659.659,0,0,0,.64.169c.218-.1.29-.4.35-.774a14.375,14.375,0,0,1,.411-2.538,1.9,1.9,0,0,1,.58-.858,2.192,2.192,0,0,1,1.8-.17c.58.181.8.5,1.088.363a.878.878,0,0,0,.386-.749c.012-.713-.774-1.257-1.45-1.7a6.736,6.736,0,0,0-1.523-.774,28.518,28.518,0,0,1-1.958-5.04,32.4,32.4,0,0,1-.786-3.614c-.641-3.687-.411-5.1-1.124-8.763-.169-.883-.338-1.584-.435-1.983.048-.6.133-1.547.254-2.7a47.007,47.007,0,0,1,1.475-8.848c.641-2.163,1.293-3.94,1.293-3.94.822-2.212,1.088-2.514.991-3.227C874.768,214.995,871.25,213.036,869.763,214.027Z" transform="translate(-864.982 -213.763)" fill="#fff"/>
      <g id="Group_1472" data-name="Group 1472" transform="translate(0 1.317)">
        <g id="Group_1471" data-name="Group 1471">
          <path id="Path_752" data-name="Path 752" d="M868.679,216.421a45.745,45.745,0,0,0-3.8,15.689,42.482,42.482,0,0,0,2.442,16.148c1.015,2.986,2.248,5.886,3.505,8.787.1.217.4.024.315-.181-2.176-5.028-4.3-10.129-5.318-15.52a40.362,40.362,0,0,1,.362-16.1,47.029,47.029,0,0,1,2.8-8.63c.084-.218-.217-.411-.315-.194Z" transform="translate(-864.829 -216.326)" fill="#161616"/>
        </g>
      </g>
      <g id="Group_1474" data-name="Group 1474" transform="translate(5.954 8.192)">
        <g id="Group_1473" data-name="Group 1473">
          <path id="Path_753" data-name="Path 753" d="M878.818,229.823a48.172,48.172,0,0,0-2.406,14.275.182.182,0,0,0,.363,0,47.9,47.9,0,0,1,2.393-14.178c.073-.217-.278-.314-.351-.1Z" transform="translate(-876.412 -229.701)" fill="#161616"/>
        </g>
      </g>
      <g id="Group_1476" data-name="Group 1476" transform="translate(4.653 20.133)">
        <g id="Group_1475" data-name="Group 1475">
          <path id="Path_754" data-name="Path 754" d="M873.913,253.189a11.211,11.211,0,0,1,1.765,5.077c.266,1.825.387,3.675.653,5.5a32.831,32.831,0,0,0,3.155,10.733c.108.205.423.024.314-.181a32.948,32.948,0,0,1-3.191-11.156c-.447-3.372-.314-7.277-2.381-10.153-.133-.181-.447,0-.314.181Z" transform="translate(-873.88 -252.933)" fill="#161616"/>
        </g>
      </g>
      <g id="Group_1478" data-name="Group 1478" transform="translate(0.038 41.868)">
        <g id="Group_1477" data-name="Group 1477">
          <path id="Path_755" data-name="Path 755" d="M870.819,295.219a25.728,25.728,0,0,0-3.348.375,3.726,3.726,0,0,0-2.163,1.039c-.314.375-.713,1.269-.024,1.523.3.109.568-.1.822-.242a2.639,2.639,0,0,1,2.031-.532.182.182,0,0,0,.1-.351,2.339,2.339,0,0,0-1.729.254c-.169.085-.326.169-.484.266-.1.048-.181.109-.278.17-.109-.194-.23-.387-.339-.58.024-.3.629-.653.846-.774a5.954,5.954,0,0,1,1.934-.52c.882-.133,1.765-.218,2.647-.266a.181.181,0,0,0-.012-.362Z" transform="translate(-864.904 -295.218)" fill="#161616"/>
        </g>
      </g>
      <g id="Group_1480" data-name="Group 1480" transform="translate(2.378 42.942)">
        <g id="Group_1479" data-name="Group 1479">
          <path id="Path_756" data-name="Path 756" d="M872.04,297.309a2.77,2.77,0,0,0-2.1,1.692,4.353,4.353,0,0,0-.266,3.227c.338.713,1.172.967,1.487.1.193-.544.157-1.136.351-1.68a3.24,3.24,0,0,1,1.257-1.656c.193-.133.012-.447-.182-.314a3.479,3.479,0,0,0-1.269,1.5,4.651,4.651,0,0,0-.326.979c-.061.278-.1,1.68-.761,1.269-.375-.23-.411-.967-.4-1.342a6.6,6.6,0,0,1,.35-1.729,2.47,2.47,0,0,1,1.946-1.692c.242-.036.146-.387-.084-.351Z" transform="translate(-869.455 -297.307)" fill="#161616"/>
        </g>
      </g>
      <g id="Group_1482" data-name="Group 1482" transform="translate(4.999 43.807)">
        <g id="Group_1481" data-name="Group 1481">
          <path id="Path_757" data-name="Path 757" d="M875.654,299.022a3.58,3.58,0,0,0-.229,4.907c.4.375,1.015.569,1.124-.133.181-1.172-.29-2.829.991-3.53.206-.109.024-.423-.182-.314a2.075,2.075,0,0,0-.931,1.16,11.308,11.308,0,0,0-.217,2.212c-.048.338-.145.7-.52.351a2.049,2.049,0,0,1-.351-.435,2.651,2.651,0,0,1-.4-1.2,3.123,3.123,0,0,1,.907-2.708c.181-.133,0-.447-.194-.314Z" transform="translate(-874.555 -298.989)" fill="#161616"/>
        </g>
      </g>
      <g id="Group_1484" data-name="Group 1484" transform="translate(7.467 44.684)">
        <g id="Group_1483" data-name="Group 1483">
          <path id="Path_758" data-name="Path 758" d="M879.7,300.818a6.53,6.53,0,0,0-.3,2.684c.06.435.314,1.5.87,1.607.629.121.883-.991.943-1.4.133-.895-.036-1.971.665-2.659a.179.179,0,1,0-.253-.254c-.846.834-.556,2.043-.81,3.107-.085.387-.326.967-.725.52a1.971,1.971,0,0,1-.326-.979,6.373,6.373,0,0,1,.3-2.514c.048-.23-.3-.326-.362-.109Z" transform="translate(-879.355 -300.696)" fill="#161616"/>
        </g>
      </g>
      <g id="Group_1486" data-name="Group 1486" transform="translate(9.497 41.532)">
        <g id="Group_1485" data-name="Group 1485">
          <path id="Path_759" data-name="Path 759" d="M884.234,294.937a5.863,5.863,0,0,1,2.007,1.161,2.276,2.276,0,0,1,.64,1c.181,1-.568.362-.846.242a2.46,2.46,0,0,0-2.708.677c-.108.206.206.387.315.181.23-.423.858-.532,1.293-.593a2.094,2.094,0,0,1,.822.012c.29.085.471.338.749.423a.593.593,0,0,0,.761-.544,2.3,2.3,0,0,0-.858-1.741,6.348,6.348,0,0,0-2.1-1.184c-.193-.072-.278.278-.073.362Z" transform="translate(-883.305 -294.565)" fill="#161616"/>
        </g>
      </g>
      <path id="Path_760" data-name="Path 760" d="M876.968,222.342c-1.39.085-2.224,3.639-2.684,5.609a37.708,37.708,0,0,0-.894,9.694,56.3,56.3,0,0,0,3.892,19.328c.387,1.088.762,2.176,1.148,3.252-.217.894-.435,1.813-.64,2.768-.266,1.257-.508,2.49-.7,3.675a.919.919,0,0,0,.761-.206,1.58,1.58,0,0,0,.254-1.112c.012-.363.048-2.116.834-2.768a1.931,1.931,0,0,1,1.789-.206c.544.206.786.6,1.148.483a.865.865,0,0,0,.508-.689c.121-.883-1.571-1.789-1.849-1.934a3.7,3.7,0,0,1-1.148-.689,2.732,2.732,0,0,1-.64-1.245c-1-3.82-1.5-3.578-2.176-7.966-.508-3.312-.181-3.118-.7-5.754a28.392,28.392,0,0,1-.762-4.23,17.447,17.447,0,0,1,.315-4.363c.907-4.992,2.647-11.036,3.07-12.474C878.1,222.91,877.572,222.306,876.968,222.342Z" transform="translate(-868.983 -217.932)" fill="#3f3f3f" opacity="0.13" style="isolation: isolate"/>
    </g>
    <g id="hand_left" data-name="hand left" transform="translate(826.97 102.093)">
      <path id="Path_761" data-name="Path 761" d="M914.136,120.207c-.375-.012-.665.665-.738.846a2.749,2.749,0,0,0-.157,1.523s.073.508.315,3.578a12.927,12.927,0,0,1-.109,2.949c-.483,1.33-.943,2.37-1.257,3.046-1.064,2.272-1.777,3.179-3.264,6.056-.556,1.076-.6,1.245-1.257,2.575-1.632,3.3-2.829,5.367-4.049,7.578-1.076,1.934-2.587,4.775-4.363,8.425a4.4,4.4,0,0,0,.471,3.469,4.645,4.645,0,0,0,5.318,1.583,12.744,12.744,0,0,0,1.208-2.1,14.465,14.465,0,0,0,.738-2.055c.133-.447.665-1.958,1.74-5,.339-.943.749-2.067,1.584-4.267,1.269-3.372,1.9-5.052,2.321-6.1.954-2.393,1.68-4.049,3.106-7.264.749-1.693,1.668-3.735,2.732-6.056a14.847,14.847,0,0,0,2.369-1.68,17.817,17.817,0,0,0,3.215-3.893c.81-1.184,1.426-2.224,1.257-3.263-.024-.145-.085-.568-.315-.629-.29-.084-.652.5-1.051,1a10.811,10.811,0,0,1-1.947,1.9,20.088,20.088,0,0,1,.847-1.994,11.553,11.553,0,0,0,1.16-2.792c.278-1.2.024-1.414-.048-1.475-.326-.242-.883.217-1.209-.048-.29-.254-.036-.81-.266-.943s-.737.266-1.1.689a5.374,5.374,0,0,0-1,2.1,8.979,8.979,0,0,1-1.366,2.575c-.181.024-.423.036-.532-.109-.121-.169.048-.447.206-.894.036-.109.012-.048.266-1.161.1-.423.278-1.208.424-1.837.205-.907.3-1.281.108-1.68-.036-.084-.193-.411-.423-.423-.266-.012-.471.411-.629.738-.64,1.317-.967,1.982-1.052,2.212a26.932,26.932,0,0,0-1.076,3.506,2.926,2.926,0,0,1-.157.652c-.061.157-.1.218-.133.315-.3.677-.048,1.124-.362,1.366-.037.024-.218.157-.363.109s-.23-.254-.314-.943c-.121-.943-.048-1.221-.266-1.632C914.571,120.569,914.389,120.219,914.136,120.207Z" transform="translate(-898.968 -114.309)" fill="#fff"/>
      <g id="Group_1488" data-name="Group 1488" transform="translate(14.116 5.636)">
        <g id="Group_1487" data-name="Group 1487">
          <path id="Path_762" data-name="Path 762" d="M926.784,131.019a17.277,17.277,0,0,0-.1-2.623,6.512,6.512,0,0,1,.036-1.281,4.7,4.7,0,0,1,.157-.713c.121-.351.133-.641.52-.653.363-.012.339.205.4.507a4.614,4.614,0,0,1,.085.81,6.936,6.936,0,0,0,.121,1.124c.085.375.314.689.737.556.218-.072.133-.423-.1-.351-.423.121-.386-1.306-.411-1.547a4.1,4.1,0,0,0-.218-1.148c-.205-.508-.676-.762-1.075-.29a4.026,4.026,0,0,0-.629,2.442c0,1.064.206,2.1.108,3.167-.012.229.351.229.363,0Z" transform="translate(-926.313 -125.161)" fill="#161616"/>
        </g>
      </g>
      <g id="Group_1490" data-name="Group 1490" transform="translate(16.354 0)">
        <g id="Group_1489" data-name="Group 1489">
          <path id="Path_763" data-name="Path 763" d="M931,123.272a19.305,19.305,0,0,0,1.136-3.759,16.442,16.442,0,0,1,1.547-3.892,3.643,3.643,0,0,1,.544-.846c.447-.411.447.375.411.713a17.914,17.914,0,0,1-.435,2.248c-.157.677-.375,1.33-.531,2.007a1.007,1.007,0,0,0,.181.991c.157.169.411-.085.254-.254-.3-.326.012-.979.109-1.329.109-.4.217-.8.3-1.2.169-.737.338-1.486.447-2.248.06-.4.145-1.1-.206-1.4-.3-.254-.6-.012-.81.229a12.381,12.381,0,0,0-1.862,3.88,29.505,29.505,0,0,1-1.4,4.69.179.179,0,0,0,.315.169Z" transform="translate(-930.666 -114.196)" fill="#161616"/>
        </g>
      </g>
      <g id="Group_1492" data-name="Group 1492" transform="translate(19.457 0.579)">
        <g id="Group_1491" data-name="Group 1491">
          <path id="Path_764" data-name="Path 764" d="M936.875,121.318c.362.036.5-.23.665-.52.266-.459.508-.943.738-1.414a27.766,27.766,0,0,1,1.306-2.78,2.118,2.118,0,0,1,.459-.58.544.544,0,0,1,.629-.157,2.4,2.4,0,0,1,.061.508,4.855,4.855,0,0,1-.387,1.74c-.411,1.1-.87,2.188-1.317,3.288-.085.218.266.315.351.1.254-.628,2.865-6.14,1.16-6.176-.338-.012-.725.411-.919.64a5.716,5.716,0,0,0-.8,1.33c-.254.568-.484,1.136-.749,1.692-.157.339-.338.689-.508,1.015-.108.218-.375.967-.676.943-.242-.012-.242.351-.012.375Z" transform="translate(-936.704 -115.322)" fill="#161616"/>
        </g>
      </g>
      <g id="Group_1494" data-name="Group 1494" transform="translate(22.61 1.411)">
        <g id="Group_1493" data-name="Group 1493">
          <path id="Path_765" data-name="Path 765" d="M944.135,117.656c.133-.7.894-.217.991.23a2.042,2.042,0,0,1-.181,1.1c-.181.531-.387,1.051-.6,1.559a23.708,23.708,0,0,1-1.475,2.865.182.182,0,0,0,.315.181,25.314,25.314,0,0,0,1.39-2.659,10.438,10.438,0,0,0,.907-2.515,1.235,1.235,0,0,0-.677-1.438.786.786,0,0,0-1.015.592c-.036.217.314.315.351.085Z" transform="translate(-942.838 -116.941)" fill="#161616"/>
        </g>
      </g>
      <g id="Group_1496" data-name="Group 1496" transform="translate(19.25 5.125)">
        <g id="Group_1495" data-name="Group 1495">
          <path id="Path_766" data-name="Path 766" d="M940.257,127.247c.459-.52.906-1.039,1.366-1.559a9.484,9.484,0,0,1,.725-.822c.085-.072.169-.133.242-.206.206.072.411.145.629.217.061.109-.085.423-.121.52a14.621,14.621,0,0,1-1.559,3.252,15.561,15.561,0,0,1-5.149,5c-.206.121-.012.435.181.314a15.887,15.887,0,0,0,6.056-6.515,12.556,12.556,0,0,0,.846-2.043c.121-.411.193-.967-.278-1.185s-.943.206-1.233.508c-.689.713-1.317,1.511-1.97,2.26-.145.17.109.424.266.254Z" transform="translate(-936.301 -124.166)" fill="#161616"/>
        </g>
      </g>
      <g id="Group_1498" data-name="Group 1498" transform="translate(0 10.947)">
        <g id="Group_1497" data-name="Group 1497">
          <path id="Path_767" data-name="Path 767" d="M913.122,135.666a14.182,14.182,0,0,1-.012,3.36,10.7,10.7,0,0,1-1.148,3.107c-1.028,2.006-2.1,3.989-3.155,5.983q-3.154,5.983-6.309,11.954c-1.209,2.285-2.417,4.581-3.626,6.866-.109.206.206.387.315.181,4.339-8.231,8.763-16.427,13.03-24.707a11.368,11.368,0,0,0,1.184-3.058,13.429,13.429,0,0,0,.061-3.686.169.169,0,1,0-.339,0Z" transform="translate(-898.849 -135.494)" fill="#161616"/>
        </g>
      </g>
      <g id="Group_1500" data-name="Group 1500" transform="translate(6.29 14.438)">
        <g id="Group_1499" data-name="Group 1499">
          <path id="Path_768" data-name="Path 768" d="M924.11,142.375A253.319,253.319,0,0,0,913.9,167.444c-.87,2.478-1.741,4.956-2.792,7.361-.1.217.217.4.314.181,1.8-4.1,3.119-8.389,4.666-12.571q2.376-6.454,5.125-12.776c1.039-2.381,2.1-4.738,3.215-7.083.1-.206-.218-.387-.314-.181Z" transform="translate(-911.086 -142.284)" fill="#161616"/>
        </g>
      </g>
      <path id="Path_769" data-name="Path 769" d="M926.894,118.049c-.5-.072-1.161,1.958-1.547,2.974-1.172,3.118-2.164,3.481-4.678,7.712a56.628,56.628,0,0,0-3.505,6.962q-5.8,12.22-11.592,24.452c.943,1.148,1.874,2.309,2.816,3.457.471-1.342,1.161-3.312,2.018-5.693,1.559-4.291,3.578-9.815,6.431-16.536,1.136-2.659,2.707-6.249,4.726-10.468a16.945,16.945,0,0,0,2.176-1.644,13.448,13.448,0,0,0,3.662-4.521,11.083,11.083,0,0,0,.955-3.082,1.058,1.058,0,0,0-.641-.109c-.435.085-.665.508-.846.8-.7,1.076-1.729,1.789-1.862,1.7-.073-.061.133-.411.689-1.547,1.136-2.333.665-1.716,1.112-2.5a1.984,1.984,0,0,0,.423-1.33C927.232,118.46,927.1,118.085,926.894,118.049Z" transform="translate(-902.117 -116.068)" fill="#3f3f3f" opacity="0.1" style="isolation: isolate"/>
      <path id="Path_770" data-name="Path 770" d="M927.276,134.088c-.6.387-1.462.955-2.441,1.7a21.425,21.425,0,0,0-3.348,2.925,13.064,13.064,0,0,0-2.345,4.037c-3.324,8.485-7.276,17.7-8.4,20.258-.617,1.4-1.584,3.517-2.865,6.055.58.762,1.172,1.523,1.753,2.285,1.668-5.089,3.59-10.419,5.79-15.943,2.369-5.935,4.823-11.483,7.289-16.644a15.911,15.911,0,0,0,4.569-4.678Z" transform="translate(-903.236 -123.863)" fill="#3f3f3f" opacity="0.13" style="isolation: isolate"/>
    </g>
    <g id="torso" transform="translate(813.158 143.073)">
      <path id="Path_771" data-name="Path 771" d="M877.833,198.224a13.516,13.516,0,0,0-2.478,2.139,15.436,15.436,0,0,0-2.188,3.2c-.4.713-.689,1.342-.895,1.8.315.6.822,1.535,1.523,2.647a58.861,58.861,0,0,0,3.88,5.173c.7.895,1.716,2.236,2.925,3.929q.29,1.36.507,2.865a40.6,40.6,0,0,1,.4,5.681,7.093,7.093,0,0,0,2.357,1.68,7.692,7.692,0,0,0,4.5.448,10.183,10.183,0,0,0,4.267-1.8,13.218,13.218,0,0,0,3.6-3.542c-.157-1.886-.363-3.832-.617-5.85q-.326-2.574-.725-5a27.639,27.639,0,0,0-.556-5,20.526,20.526,0,0,0-1.97-5.959,18.406,18.406,0,0,0-4.158-5.282,19.047,19.047,0,0,0-1.68-1.293A27.015,27.015,0,0,1,882.2,196.3,21.43,21.43,0,0,0,877.833,198.224Z" transform="translate(-872.121 -193.986)" fill="#fff"/>
      <g id="Group_1502" data-name="Group 1502" transform="translate(0 3.976)">
        <g id="Group_1501" data-name="Group 1501">
          <path id="Path_772" data-name="Path 772" d="M872.323,209.111a11.926,11.926,0,0,1,2.308-3.916A15.191,15.191,0,0,1,877.907,202c.193-.133.012-.447-.181-.314a15.5,15.5,0,0,0-3.372,3.276A11.984,11.984,0,0,0,871.984,209c-.06.242.29.326.339.109Z" transform="translate(-871.978 -201.657)" fill="#161616"/>
        </g>
      </g>
      <g id="Group_1504" data-name="Group 1504" transform="translate(0.052 11.279)">
        <g id="Group_1503" data-name="Group 1503">
          <path id="Path_773" data-name="Path 773" d="M872.106,216.137a71.3,71.3,0,0,0,8.787,12.172c.157.17.411-.084.254-.254a71.013,71.013,0,0,1-8.727-12.1.182.182,0,0,0-.315.181Z" transform="translate(-872.079 -215.865)" fill="#161616"/>
        </g>
      </g>
      <g id="Group_1506" data-name="Group 1506" transform="translate(10.041)">
        <g id="Group_1505" data-name="Group 1505">
          <path id="Path_774" data-name="Path 774" d="M891.777,196.407a14.807,14.807,0,0,1,4.424-2.127.182.182,0,0,0-.1-.351,15.213,15.213,0,0,0-4.508,2.164c-.193.133-.012.447.181.314Z" transform="translate(-891.513 -193.923)" fill="#161616"/>
        </g>
      </g>
      <g id="Group_1508" data-name="Group 1508" transform="translate(14.352 0.108)">
        <g id="Group_1507" data-name="Group 1507">
          <path id="Path_775" data-name="Path 775" d="M899.975,194.479c5.777,4.025,8.255,11.084,7.977,17.914-.012.23.351.23.363,0,.29-6.975-2.272-14.13-8.159-18.228-.181-.133-.362.181-.181.314Z" transform="translate(-899.9 -194.132)" fill="#161616"/>
        </g>
      </g>
      <g id="Group_1510" data-name="Group 1510" transform="translate(8.063 22.726)">
        <g id="Group_1509" data-name="Group 1509">
          <path id="Path_776" data-name="Path 776" d="M887.682,238.419a12.709,12.709,0,0,1,.834,4.3,42.44,42.44,0,0,1,.194,4.3.181.181,0,0,0,.362,0,39.291,39.291,0,0,0-.242-4.775,12.328,12.328,0,0,0-.834-4.025c-.108-.206-.411-.024-.314.193Z" transform="translate(-887.663 -238.136)" fill="#161616"/>
        </g>
      </g>
      <g id="Group_1512" data-name="Group 1512" transform="translate(9.295 28.152)">
        <g id="Group_1511" data-name="Group 1511">
          <path id="Path_777" data-name="Path 777" d="M890.1,252.228a7.416,7.416,0,0,0,7.6,2.164,12.134,12.134,0,0,0,4.134-2.043,9.874,9.874,0,0,0,3.131-3.384c.109-.206-.206-.387-.314-.181a9.57,9.57,0,0,1-3.01,3.252,12.106,12.106,0,0,1-3.855,1.958,7.08,7.08,0,0,1-7.446-2.019c-.133-.181-.387.072-.242.254Z" transform="translate(-890.061 -248.693)" fill="#161616"/>
        </g>
      </g>
      <g id="Group_1514" data-name="Group 1514" transform="translate(22.535 17.596)">
        <g id="Group_1513" data-name="Group 1513">
          <path id="Path_778" data-name="Path 778" d="M915.823,228.383a99.339,99.339,0,0,1,1.378,10.661c.012.229.375.229.362,0a103.906,103.906,0,0,0-1.39-10.758c-.037-.229-.387-.133-.351.1Z" transform="translate(-915.82 -228.155)" fill="#161616"/>
        </g>
      </g>
      <path id="Path_779" data-name="Path 779" d="M892.92,196.056a32.339,32.339,0,0,1,4.714,7.385,36.408,36.408,0,0,1,3.034,12.692,52.032,52.032,0,0,1-.121,11.084,12.746,12.746,0,0,0,5.669-4.714c-.4-3.372-.8-6.757-1.2-10.129a22.823,22.823,0,0,0-.774-6.551,22.492,22.492,0,0,0-4.533-8.7,21.693,21.693,0,0,0-3.034-2.925C895.422,194.824,894.177,195.44,892.92,196.056Z" transform="translate(-882.155 -194.055)" fill="#3f3f3f" opacity="0.13" style="isolation: isolate"/>
      <path id="Path_780" data-name="Path 780" d="M910.391,206.046c-.218.06.29,2.031.774,4.944a78.69,78.69,0,0,1,.894,8.7,43.229,43.229,0,0,1-1.306,12.1,11.446,11.446,0,0,0,2.031-1.306,10.9,10.9,0,0,0,1.97-2.091,40.343,40.343,0,0,0-.955-8.824,18.668,18.668,0,0,1-.423-1.849c-.29-1.716-.145-2.454-.3-3.88a15.971,15.971,0,0,0-.773-3.276C911.66,208.475,910.632,205.973,910.391,206.046Z" transform="translate(-890.621 -199.814)" fill="#3f3f3f" opacity="0.14" style="isolation: isolate"/>
    </g>
    <path id="Path_781" data-name="Path 781" d="M871.538,160.8a11.292,11.292,0,0,0-5.7,7.93,1.458,1.458,0,0,0-1.076.253,1.673,1.673,0,0,0-.375,1.9,3,3,0,0,0,.459.665,2.149,2.149,0,0,0,.81.737,1.4,1.4,0,0,0,.87.048,11.794,11.794,0,0,0,.677,1.6,9.3,9.3,0,0,0,2.345,3.107,8.269,8.269,0,0,0,1.741,1.1,4.05,4.05,0,0,1,.882,2.224,4.616,4.616,0,0,1-2.538,4.122c-2.248,1.2-4.69,0-5.584-.447a8.1,8.1,0,0,1-3.929-4.255c-1.233-3.324.375-6.648,1.33-8.63s1.414-1.862,2.152-3.808c.979-2.575.459-3.481,1.583-5.451a6.362,6.362,0,0,1,3.167-3.046,5.8,5.8,0,0,1,3.675-.121,5.062,5.062,0,0,1,2.6-.761c2.756,0,4.521,2.611,4.944,3.239,1.257,1.849.592,2.417,1.716,5.016,1.415,3.276,2.792,3.082,4.062,6.153.616,1.5,1.644,3.977.507,6.346a6.585,6.585,0,0,1-4.182,3.239,5.379,5.379,0,0,1-3.929-.315c-.157-.084-2.236-1.221-2.406-3.167a4.109,4.109,0,0,1,.194-1.523,4.472,4.472,0,0,1,.822-1.462,9.174,9.174,0,0,0,1.583-4.182,2.023,2.023,0,0,0,.883-.253,2.172,2.172,0,0,0,1.015-1.97c-.012-.17-.06-1.136-.761-1.463a1.229,1.229,0,0,0-.762-.06C876.059,165.282,873.8,163.046,871.538,160.8Z" transform="translate(-52.838 -33.37)" fill="#0fbf89"/>
    <path id="Path_782" data-name="Path 782" d="M876.01,163.46a12.449,12.449,0,0,0-2.865,2.3,11.8,11.8,0,0,0-2.731,4.9,6.768,6.768,0,0,0-.17.785,1,1,0,0,0-.737,0,1.3,1.3,0,0,0-.6,1.04,2.1,2.1,0,0,0,.217,1.342,1.78,1.78,0,0,0,.871.955,1.565,1.565,0,0,0,.991.084,14.4,14.4,0,0,0,.785,1.729,9.3,9.3,0,0,0,2.127,2.985,6.829,6.829,0,0,0,1.994,1.209,4.455,4.455,0,0,1,.6,1.39,4.321,4.321,0,0,1,.133,1.209,3.586,3.586,0,0,0,1.644.387,3.812,3.812,0,0,0,2.562-1.124,10.923,10.923,0,0,1-.52-2.514c-.036-.447-.048-.87-.048-1.257a7.1,7.1,0,0,0,1.209-1.728,7.463,7.463,0,0,0,.785-3.252,1.679,1.679,0,0,0,.87-.085,1.76,1.76,0,0,0,.87-.906,2.639,2.639,0,0,0,.085-2.127c-.109-.23-.29-.653-.653-.689a.767.767,0,0,0-.568.266c-.5-.593-1.426-1.692-2.732-3.2a15.647,15.647,0,0,0-3.034-2.985C876.663,163.847,876.276,163.617,876.01,163.46Z" transform="translate(-57.309 -36.045)" fill="#fff"/>
    <path id="Path_783" data-name="Path 783" d="M879.5,187.106c-.121.278.447.774.713.979a2.567,2.567,0,0,0,1.366.483,2.739,2.739,0,0,0,1.849-.459,2.191,2.191,0,0,0,.883-1.136c.133-.471.1-1.124-.157-1.233-.193-.072-.375.169-.786.459a4.778,4.778,0,0,1-2.115.713C880.165,187.082,879.621,186.865,879.5,187.106Z" transform="translate(-62.467 -46.867)"/>
    <g id="Group_1516" data-name="Group 1516" transform="translate(813.194 136.828)">
      <g id="Group_1515" data-name="Group 1515">
        <path id="Path_784" data-name="Path 784" d="M872.055,182.392a13.023,13.023,0,0,0,2.3,5.064c1.027,1.317,2.55,2.586,4.327,2.417a5.652,5.652,0,0,0,3.856-2.744,8.854,8.854,0,0,0,1.475-5.185c-.012-.23-.375-.23-.363,0a8.528,8.528,0,0,1-1.269,4.75c-.834,1.342-2.212,2.756-3.892,2.829-1.777.072-3.239-1.378-4.182-2.731a13.3,13.3,0,0,1-1.91-4.509c-.048-.217-.4-.121-.338.109Z" transform="translate(-872.048 -181.773)" fill="#161616"/>
      </g>
    </g>
    <g id="Group_1518" data-name="Group 1518" transform="translate(818.311 144.489)">
      <g id="Group_1517" data-name="Group 1517">
        <path id="Path_785" data-name="Path 785" d="M882.03,196.948a4.542,4.542,0,0,1,.761,2.55.182.182,0,0,0,.363,0,4.982,4.982,0,0,0-.81-2.732.181.181,0,0,0-.314.181Z" transform="translate(-882.003 -196.676)" fill="#161616"/>
      </g>
    </g>
    <g id="Group_1520" data-name="Group 1520" transform="translate(819.179 146.281)">
      <g id="Group_1519" data-name="Group 1519" transform="translate(0)">
        <path id="Path_786" data-name="Path 786" d="M883.781,201.338a3.4,3.4,0,0,0,4.388-.919c.145-.181-.169-.363-.314-.181a3.022,3.022,0,0,1-3.893.786c-.205-.109-.387.205-.181.314Z" transform="translate(-883.691 -200.163)" fill="#161616"/>
      </g>
    </g>
    <g id="Group_1522" data-name="Group 1522" transform="translate(822.75 142.959)">
      <g id="Group_1521" data-name="Group 1521" transform="translate(0 0)">
        <path id="Path_787" data-name="Path 787" d="M890.639,193.882a10.58,10.58,0,0,0,.532,3.239c.073.217.423.121.351-.1a10.687,10.687,0,0,1-.52-3.143.181.181,0,1,0-.363,0Z" transform="translate(-890.639 -193.701)" fill="#161616"/>
      </g>
    </g>
    <g id="Group_1524" data-name="Group 1524" transform="translate(811.377 135.202)">
      <g id="Group_1523" data-name="Group 1523">
        <path id="Path_788" data-name="Path 788" d="M870.7,182c-.157.169-.544.108-.725.012a1.531,1.531,0,0,1-.387-.29,2.309,2.309,0,0,1-.556-.81c-.242-.568-.351-2.2.725-1.91a.182.182,0,0,0,.1-.351c-1.33-.351-1.535,1.414-1.2,2.3.266.713,1.487,2.188,2.309,1.306.145-.17-.109-.423-.266-.254Z" transform="translate(-868.513 -178.61)" fill="#161616"/>
      </g>
    </g>
    <g id="Group_1526" data-name="Group 1526" transform="translate(824.807 133.901)">
      <g id="Group_1525" data-name="Group 1525">
        <path id="Path_789" data-name="Path 789" d="M895.545,176.542c.145-.483.774.447.846.617a2.466,2.466,0,0,1,.133,1.221,1.415,1.415,0,0,1-1.656,1.378.182.182,0,0,0-.1.35c1.462.375,2.248-1.148,2.115-2.393a2,2,0,0,0-.8-1.535.588.588,0,0,0-.894.254.183.183,0,0,0,.351.108Z" transform="translate(-894.64 -176.078)" fill="#161616"/>
      </g>
    </g>
    <g id="Group_1528" data-name="Group 1528" transform="translate(814.52 130.072)">
      <g id="Group_1527" data-name="Group 1527" transform="translate(0 0)">
        <path id="Path_790" data-name="Path 790" d="M874.965,170.359a2.572,2.572,0,0,1,1.946-1.378c.23-.036.133-.387-.1-.351a2.91,2.91,0,0,0-2.163,1.547c-.109.206.206.387.314.181Z" transform="translate(-874.628 -168.628)" fill="#161616"/>
      </g>
    </g>
    <g id="Group_1530" data-name="Group 1530" transform="translate(820.214 129.52)">
      <g id="Group_1529" data-name="Group 1529" transform="translate(0)">
        <path id="Path_791" data-name="Path 791" d="M885.932,167.976a2.21,2.21,0,0,1,2.49,1.184c.109.206.411.024.314-.181a2.568,2.568,0,0,0-2.9-1.353.182.182,0,0,0,.1.351Z" transform="translate(-885.704 -167.555)" fill="#161616"/>
      </g>
    </g>
    <g id="Group_1532" data-name="Group 1532" transform="translate(817.804 131.203)">
      <g id="Group_1531" data-name="Group 1531" transform="translate(0)">
        <path id="Path_792" data-name="Path 792" d="M881.019,171.054a14.064,14.064,0,0,1,.157,3.9,2.762,2.762,0,0,0-.061,1.366,4.943,4.943,0,0,0,1.04,1.148c.157.169.423-.085.254-.254-.218-.23-.435-.447-.653-.677a.861.861,0,0,1-.3-.967c.06-.46.121-.931.145-1.4a14.215,14.215,0,0,0-.23-3.2c-.036-.242-.387-.145-.351.085Z" transform="translate(-881.016 -170.828)" fill="#161616"/>
      </g>
    </g>
    <g id="Group_1534" data-name="Group 1534" transform="translate(815.7 132.775)">
      <g id="Group_1533" data-name="Group 1533" transform="translate(0)">
        <path id="Path_793" data-name="Path 793" d="M877.507,175.647a1.54,1.54,0,0,1-.242-.943c0-.072.048-.387.109-.4a2.264,2.264,0,0,1,.109.471,3.258,3.258,0,0,1,.036.484c0,.048-.012.447-.012.206-.012-.351.012-.7.024-1.052-.121.012-.242.036-.351.048a7.061,7.061,0,0,1,.1,1.136h.363v-.145a.182.182,0,0,0-.363,0v.145a.182.182,0,0,0,.363,0,7.091,7.091,0,0,0-.109-1.233c-.036-.206-.351-.145-.351.048a7.943,7.943,0,0,0-.012,1.2.4.4,0,0,0,.314.387c.6.121.423-1.063.375-1.353-.036-.23-.073-.58-.29-.713a.36.36,0,0,0-.484.169,1.81,1.81,0,0,0,.145,1.717c.085.206.4.024.278-.169Z" transform="translate(-876.923 -173.886)" fill="#161616"/>
      </g>
    </g>
    <g id="Group_1536" data-name="Group 1536" transform="translate(821.285 132.134)">
      <g id="Group_1535" data-name="Group 1535" transform="translate(0 0)">
        <path id="Path_794" data-name="Path 794" d="M888.371,174.4a1.535,1.535,0,0,1-.242-.943c0-.072.048-.387.109-.4a2.3,2.3,0,0,1,.109.471,3.266,3.266,0,0,1,.036.484c0,.048-.012.447-.012.205-.012-.351.012-.7.024-1.051-.121.012-.242.036-.351.048a7.118,7.118,0,0,1,.1,1.136h.362v-.145a.181.181,0,0,0-.362,0v.145a.181.181,0,0,0,.362,0,7.079,7.079,0,0,0-.109-1.233c-.036-.206-.351-.145-.351.048a7.879,7.879,0,0,0-.012,1.2.4.4,0,0,0,.315.387c.6.121.423-1.063.375-1.354-.036-.229-.073-.58-.29-.713a.358.358,0,0,0-.483.169,1.807,1.807,0,0,0,.145,1.716c.084.218.4.036.278-.169Z" transform="translate(-887.788 -172.64)" fill="#161616"/>
      </g>
    </g>
    <g id="Group_1538" data-name="Group 1538" transform="translate(814.322 135.284)">
      <g id="Group_1537" data-name="Group 1537" transform="translate(0)">
        <path id="Path_795" data-name="Path 795" d="M874.415,179.131a.181.181,0,0,0,0-.362.181.181,0,0,0,0,.362Z" transform="translate(-874.243 -178.769)" fill="#161616"/>
      </g>
    </g>
    <g id="Group_1540" data-name="Group 1540" transform="translate(815.74 135.55)">
      <g id="Group_1539" data-name="Group 1539" transform="translate(0 0)">
        <path id="Path_796" data-name="Path 796" d="M877.181,179.648h.048a.181.181,0,1,0,0-.362h-.048a.186.186,0,0,0-.181.181.178.178,0,0,0,.181.181Z" transform="translate(-877 -179.286)" fill="#161616"/>
      </g>
    </g>
    <g id="Group_1542" data-name="Group 1542" transform="translate(814.898 136.662)">
      <g id="Group_1541" data-name="Group 1541" transform="translate(0 0)">
        <path id="Path_797" data-name="Path 797" d="M875.54,181.812a.182.182,0,0,0,0-.363.182.182,0,0,0,0,.363Z" transform="translate(-875.363 -181.449)" fill="#161616"/>
      </g>
    </g>
    <g id="Group_1544" data-name="Group 1544" transform="translate(821.759 135.103)">
      <g id="Group_1543" data-name="Group 1543" transform="translate(0 0)">
        <path id="Path_798" data-name="Path 798" d="M888.892,178.778h.048a.181.181,0,1,0,0-.362h-.048a.186.186,0,0,0-.181.181.178.178,0,0,0,.181.181Z" transform="translate(-888.711 -178.416)" fill="#161616"/>
      </g>
    </g>
    <g id="Group_1546" data-name="Group 1546" transform="translate(823.098 134.208)">
      <g id="Group_1545" data-name="Group 1545" transform="translate(0 0)">
        <path id="Path_799" data-name="Path 799" d="M891.487,177.038a.181.181,0,0,0,0-.362.181.181,0,0,0,0,.362Z" transform="translate(-891.315 -176.676)" fill="#161616"/>
      </g>
    </g>
    <g id="Group_1548" data-name="Group 1548" transform="translate(822.907 135.187)">
      <g id="Group_1547" data-name="Group 1547" transform="translate(0 0)">
        <path id="Path_800" data-name="Path 800" d="M891.126,178.943h.048a.181.181,0,1,0,0-.363h-.048a.186.186,0,0,0-.181.181.2.2,0,0,0,.181.181Z" transform="translate(-890.945 -178.58)" fill="#161616"/>
      </g>
    </g>
    <g id="Group_1550" data-name="Group 1550" transform="translate(816.558 138.046)">
      <g id="Group_1549" data-name="Group 1549" transform="translate(0 0)">
        <path id="Path_801" data-name="Path 801" d="M879.37,186.614c-.193-.278-.507-.677-.375-1.04.157-.411.653-.35.979-.3a2.313,2.313,0,0,0,1.112.012,5.107,5.107,0,0,0,.882-.459c.689-.387,1.5-.424,1.716.483.617,2.478-3.759,3.179-4.436,1-.072-.217-.423-.133-.351.1.834,2.671,6.007,1.68,5.1-1.281a1.321,1.321,0,0,0-1.064-.979c-.87-.085-1.438.785-2.272.846-.616.048-1.366-.423-1.861.157-.447.52-.085,1.185.242,1.644.145.193.46.012.326-.181Z" transform="translate(-878.593 -184.143)" fill="#161616"/>
      </g>
    </g>
    <g id="Group_1552" data-name="Group 1552" transform="translate(816.621 138.584)">
      <g id="Group_1551" data-name="Group 1551">
        <path id="Path_802" data-name="Path 802" d="M878.728,186.433c.266.738,1.6.508,2.176.424a6.1,6.1,0,0,0,2.986-1.366c.181-.145-.073-.411-.254-.254a5.593,5.593,0,0,1-2.152,1.136c-.351.1-2.2.508-2.393-.024-.1-.23-.447-.133-.363.084Z" transform="translate(-878.715 -185.189)" fill="#161616"/>
      </g>
    </g>
    <g id="Group_1554" data-name="Group 1554" transform="translate(818.654 143.167)">
      <g id="Group_1553" data-name="Group 1553">
        <path id="Path_803" data-name="Path 803" d="M882.8,196.073a4.28,4.28,0,0,0,4.1-1.7c.133-.193-.182-.375-.314-.181a3.955,3.955,0,0,1-3.687,1.535.182.182,0,0,0-.1.351Z" transform="translate(-882.67 -194.104)" fill="#161616"/>
      </g>
    </g>
    <g id="Group_1556" data-name="Group 1556" transform="translate(818.828 143.449)">
      <g id="Group_1555" data-name="Group 1555" transform="translate(0 0)">
        <path id="Path_804" data-name="Path 804" d="M883.1,196.449c1.257.785,3.324-.326,3.928-1.523.109-.206-.205-.387-.314-.181-.508,1.015-2.357,2.067-3.433,1.4a.176.176,0,1,0-.181.3Z" transform="translate(-883.009 -194.654)" fill="#161616"/>
      </g>
    </g>
    <path id="Path_805" data-name="Path 805" d="M888.281,173.219a19.492,19.492,0,0,1,.266,1.958c.169,2.224.46,5.947-1.789,8.425a7.029,7.029,0,0,1-3.409,2.006,10.2,10.2,0,0,0,2.14-.3,7.771,7.771,0,0,0,1.088-.351c.048,1.076.085,2.151.133,3.227.411-.266.81-.52,1.221-.785a5.137,5.137,0,0,1-.484-2.792,7.522,7.522,0,0,1,.738-2.224,10.02,10.02,0,0,1,.8-1.426,1.622,1.622,0,0,0,.254.774c.737,1.1,3.046,1.208,4.5.266a4.293,4.293,0,0,0,1.656-4.448,5.494,5.494,0,0,1,.7.7,8.456,8.456,0,0,1,1.306,3.058,12.052,12.052,0,0,1,.362,1.39,6.178,6.178,0,0,1-.048,2.441,5.654,5.654,0,0,1-2.115,3.107,6.4,6.4,0,0,1-2.393,1.112,5.621,5.621,0,0,1-4.122-.423,3.025,3.025,0,0,1-1.185-.991,2.352,2.352,0,0,1-.254-.991,14.54,14.54,0,0,1-.048-3.058c.326-1.644,1.064-1.813,1.475-3.686a9.049,9.049,0,0,0,.194-1.608,1.571,1.571,0,0,0,1.7-.858,2.063,2.063,0,0,0-.048-2.49,1.445,1.445,0,0,0-1.088-.29C889.333,174.379,888.813,173.8,888.281,173.219Z" transform="translate(-64.346 -40.788)" fill="#3f3f3f" opacity="0.2" style="isolation: isolate"/>
    <path id="Path_806" data-name="Path 806" d="M881.8,180.838c.617.181,1.245.375,1.862.556-.157.145-.315.278-.484.423s-.3.242-.459.362a2.546,2.546,0,0,1-.689-.785A2.021,2.021,0,0,1,881.8,180.838Z" transform="translate(-63.592 -44.49)" fill="#3f3f3f" opacity="0.13" style="isolation: isolate"/>
    <path id="Path_807" data-name="Path 807" d="M861.324,183.1c-1.318,4.654-.339,8.413,1.631,9.235,1.547.641,4.339-.266,4.859-1.849a2.9,2.9,0,0,0-.133-1.68,13.193,13.193,0,0,0-1.849-4.134,2.91,2.91,0,0,1-.689-.6,2.742,2.742,0,0,1-.58-1.342c.351.363.858.822,1.184.677a.883.883,0,0,0,.4-1.015,15.022,15.022,0,0,0,.593,2.2,9.333,9.333,0,0,0,1.777,3.384,7.123,7.123,0,0,0,2.744,1.886,4.041,4.041,0,0,1,.834,1.91,4.193,4.193,0,0,1-.108,1.644,4.691,4.691,0,0,1-1.294,2.152,5.1,5.1,0,0,1-2.876,1.317c-3.276.435-5.814-2.429-6.262-2.925a7.32,7.32,0,0,1-1.607-2.659,8.874,8.874,0,0,1,.217-5.318A13.5,13.5,0,0,1,861.324,183.1Z" transform="translate(-52.813 -45.245)" fill="#3f3f3f" opacity="0.16" style="isolation: isolate"/>
  </g>
</svg>
