<svg xmlns="http://www.w3.org/2000/svg" width="115.686" height="105.696" viewBox="0 0 115.686 105.696">
  <g id="Group_2082" data-name="Group 2082" transform="translate(-397.473 -413.517)">
    <g id="Group_2009" data-name="Group 2009" transform="translate(397.473 483.287)">
      <path id="Path_1076" data-name="Path 1076" d="M397.609,530.536c7.216.5,14.525,1.023,21.482,3.143a42.159,42.159,0,0,1,5.879,2.271l-.029-.224a5.776,5.776,0,0,0-1.417,2.086,5.653,5.653,0,0,0-.339,1.289,5.442,5.442,0,0,0-.053.592c-.011.339-.1.383-.386.559a19.376,19.376,0,0,0-4.486,3.781.144.144,0,0,0,.1.242q15.321.25,30.611,1.4,4.336.327,8.666.726l-.1-.243a3.019,3.019,0,0,0-.966,1.3.143.143,0,0,0,.137.18,16.666,16.666,0,0,1,5.806.65l-.085-.209-.748,1c-.069.093.026.209.123.214l31.368,1.728,8.858.488c.183.01.182-.274,0-.284L470.663,549.5l-8.858-.488.123.214.747-1a.143.143,0,0,0-.085-.209,16.9,16.9,0,0,0-5.882-.66l.137.18a2.762,2.762,0,0,1,.894-1.177c.108-.084.007-.232-.1-.243q-15.259-1.4-30.583-1.911-4.346-.143-8.694-.213l.1.243a19.334,19.334,0,0,1,4.887-4.006.143.143,0,0,0,.071-.123,5.5,5.5,0,0,1,1.723-4.178.143.143,0,0,0-.029-.223c-6.631-3.165-13.955-4.316-21.211-4.969-2.1-.188-4.194-.337-6.294-.483-.182-.013-.182.271,0,.284Z" transform="translate(-397.473 -530.251)" fill="#e8e8e8"/>
    </g>
    <g id="Group_2010" data-name="Group 2010" transform="translate(397.632 483.043)">
      <path id="Path_1077" data-name="Path 1077" d="M397.75,530.016q2.252,6.038,4.222,12.177,1.954,6.093,3.624,12.272a3.9,3.9,0,0,1,.224,1.8,14.375,14.375,0,0,1-.547,1.556,8.631,8.631,0,0,0-.4,3.328c.013.182.3.183.284,0a8.426,8.426,0,0,1,.328-3.046c.148-.491.371-.953.527-1.44a2.783,2.783,0,0,0,.086-1.374c-.093-.515-.255-1.02-.392-1.524s-.284-1.036-.429-1.553q-.433-1.552-.884-3.1-1.811-6.208-3.912-12.328-1.181-3.439-2.452-6.846c-.063-.17-.338-.1-.274.075Z" transform="translate(-397.74 -529.844)" fill="#e8e8e8"/>
    </g>
    <g id="Group_2011" data-name="Group 2011" transform="translate(416.557 497.218)">
      <path id="Path_1078" data-name="Path 1078" d="M431.52,553.739l.762,3.587a13.33,13.33,0,0,1,.329,1.874,7.46,7.46,0,0,1-.139,1.782c-.209,1.191-.45,2.377-.677,3.565-.222,1.162-.4,2.345-.7,3.489a12.92,12.92,0,0,1-1.67,3.461c-.1.156.149.3.246.143a14.229,14.229,0,0,0,1.549-3.019,28.9,28.9,0,0,0,.772-3.586c.233-1.22.469-2.44.7-3.661a10.351,10.351,0,0,0,.218-1.761,8.272,8.272,0,0,0-.233-1.812q-.437-2.069-.879-4.137c-.038-.179-.312-.1-.274.075Z" transform="translate(-429.403 -553.561)" fill="#e8e8e8"/>
    </g>
    <g id="Group_2012" data-name="Group 2012" transform="translate(456.439 500.326)">
      <path id="Path_1079" data-name="Path 1079" d="M496.139,558.936a41.391,41.391,0,0,0,1.751,4.848q.514,1.184,1.1,2.335.3.585.616,1.16c.173.314.571.8.345,1.165-.1.156.149.3.246.143a.941.941,0,0,0-.063-.942c-.191-.381-.416-.748-.616-1.126q-.646-1.217-1.208-2.478a40.823,40.823,0,0,1-1.9-5.181.142.142,0,0,0-.274.075Z" transform="translate(-496.132 -558.761)" fill="#e8e8e8"/>
    </g>
    <g id="Group_2013" data-name="Group 2013" transform="translate(454.031 507.544)">
      <path id="Path_1080" data-name="Path 1080" d="M497.054,570.932a16.6,16.6,0,0,1-2.578,4.26,4.544,4.544,0,0,0-1.087,1.823,6.638,6.638,0,0,0-.094,1.226,6.64,6.64,0,0,1-.17,1.28,16.046,16.046,0,0,1-1.008,2.768c-.072.166.173.311.246.143a19.6,19.6,0,0,0,.917-2.378,7.937,7.937,0,0,0,.254-1.214c.051-.413.041-.827.065-1.241a3.7,3.7,0,0,1,1.054-2.177,17.823,17.823,0,0,0,1.408-1.932,16.678,16.678,0,0,0,1.268-2.483c.07-.169-.205-.243-.274-.076Z" transform="translate(-492.103 -570.838)" fill="#e8e8e8"/>
    </g>
    <g id="Group_2014" data-name="Group 2014" transform="translate(482.865 504.144)">
      <path id="Path_1081" data-name="Path 1081" d="M540.387,565.392a32.814,32.814,0,0,1,5.692,7.849q.648,1.248,1.186,2.549c.069.166.344.093.274-.076a33.167,33.167,0,0,0-5.046-8.406q-.906-1.1-1.906-2.116c-.128-.131-.329.07-.2.2Z" transform="translate(-540.346 -565.149)" fill="#e8e8e8"/>
    </g>
    <g id="Group_2015" data-name="Group 2015" transform="translate(397.527 472.927)">
      <path id="Path_1082" data-name="Path 1082" d="M397.74,523.03q5.731-1.654,11.514-3.115,5.761-1.453,11.568-2.712,3.289-.713,6.591-1.362a.143.143,0,0,0,0-.274,1.236,1.236,0,0,1-.883-.806l-.1.174a69.885,69.885,0,0,1,10.018-1.733c.181-.018.182-.3,0-.284a70.512,70.512,0,0,0-10.094,1.743.144.144,0,0,0-.1.175,1.527,1.527,0,0,0,1.082,1v-.274q-5.852,1.152-11.663,2.5-5.787,1.344-11.526,2.883-3.25.871-6.483,1.8a.142.142,0,0,0,.075.274Z" transform="translate(-397.564 -512.919)" fill="#e8e8e8"/>
    </g>
    <g id="Group_2016" data-name="Group 2016" transform="translate(430.887 459.673)">
      <path id="Path_1083" data-name="Path 1083" d="M456.888,503.863a5.411,5.411,0,0,1-2.514-1.065,1.749,1.749,0,0,1-.492-2.194,1.2,1.2,0,0,1,1.013-.591c.335.013.657.16.991.2a.654.654,0,0,0,.671-.239c.2-.333-.043-.727.066-1.085.334-1.1,1.719-1.039,2.623-.962.119.01.162-.126.123-.214a3.637,3.637,0,0,1,.289-3.262,6.478,6.478,0,0,1,2.3-2.2,6.982,6.982,0,0,1,6.338-.755,4.811,4.811,0,0,1,2.385,2.192c.083.163.328.019.246-.143a5.557,5.557,0,0,0-5.441-2.779A8.4,8.4,0,0,0,462,491.9a7.105,7.105,0,0,0-2.466,2.214,3.973,3.973,0,0,0-.407,3.741l.123-.214a2.9,2.9,0,0,0-2.6.644,1.332,1.332,0,0,0-.333,1.027c.026.2.137.521-.126.608a1.145,1.145,0,0,1-.585-.05,2.028,2.028,0,0,0-1.121-.081,1.613,1.613,0,0,0-.84.672,1.936,1.936,0,0,0,.29,2.279,5.089,5.089,0,0,0,2.886,1.4c.178.042.253-.231.075-.274Z" transform="translate(-453.38 -490.743)" fill="#e8e8e8"/>
    </g>
    <g id="Group_2017" data-name="Group 2017" transform="translate(448.203 458.321)">
      <path id="Path_1084" data-name="Path 1084" d="M482.643,492.547a2.178,2.178,0,0,1,2.278-2.385,2.649,2.649,0,0,1,1.186.385,1.894,1.894,0,0,0,1.081.328,1.269,1.269,0,0,0,.795-.445c.234-.256.406-.559.625-.828a2.2,2.2,0,0,1,.988-.687c1.64-.57,3.337.542,4.478,1.636a9.419,9.419,0,0,1,2.39,3.805,9.2,9.2,0,0,1,.255,5.045c-.042.178.232.253.274.075a9.751,9.751,0,0,0-2.427-8.835c-1.123-1.18-2.77-2.369-4.487-2.133a2.708,2.708,0,0,0-1.889,1.181,2.266,2.266,0,0,1-.788.837c-.45.2-.9-.091-1.284-.3a2.575,2.575,0,0,0-2.6.013,2.522,2.522,0,0,0-1.161,2.306c.013.182.3.183.284,0Z" transform="translate(-482.352 -488.48)" fill="#e8e8e8"/>
    </g>
    <g id="Group_2018" data-name="Group 2018" transform="translate(462.461 467.319)">
      <path id="Path_1085" data-name="Path 1085" d="M506.49,507.932a3.323,3.323,0,0,1,1.28-2.02c.537-.281,1.428-.2,1.646.454a.143.143,0,0,0,.279-.038,2.666,2.666,0,0,1,5.319-.06c.01.111.155.2.243.1.769-.9,2.026-2.754,3.427-1.907a2.183,2.183,0,0,1,.965,1.671,6.214,6.214,0,0,1-.493,2.524c-.06.173.215.248.274.075.427-1.246.877-2.73.035-3.911a1.935,1.935,0,0,0-1.255-.831,2.1,2.1,0,0,0-1.58.5,11.31,11.31,0,0,0-1.574,1.677l.243.1a3.081,3.081,0,0,0-2-2.568,2.883,2.883,0,0,0-3.138.867,2.96,2.96,0,0,0-.745,1.761l.279-.038a1.413,1.413,0,0,0-1.876-.707c-.927.351-1.305,1.417-1.6,2.274-.059.173.215.247.274.075Z" transform="translate(-506.207 -503.535)" fill="#e8e8e8"/>
    </g>
    <g id="Group_2019" data-name="Group 2019" transform="translate(481.91 460.229)">
      <path id="Path_1086" data-name="Path 1086" d="M539.971,509.071a1.383,1.383,0,1,1,1.486-2.2c.108.123.3-.035.223-.172a3.64,3.64,0,0,1,3.939-5.413.144.144,0,0,0,.16-.209,2.907,2.907,0,0,1,.229-2.892,9.7,9.7,0,0,1,2.045-2.418c1.466-1.323,3.431-2.369,5.419-1.619a2.965,2.965,0,0,1,1.917,2.015.143.143,0,0,0,.274,0,5.84,5.84,0,0,1,2-3.086,4.3,4.3,0,0,1,3.893-.979,2.353,2.353,0,0,1,1.5,1.433c.058.173.333.1.274-.075a2.935,2.935,0,0,0-3.358-1.742,5.714,5.714,0,0,0-3.559,2.255,6.025,6.025,0,0,0-1.02,2.119h.274c-.454-1.9-2.673-2.757-4.445-2.4a6.948,6.948,0,0,0-3.014,1.573,10.646,10.646,0,0,0-2.327,2.583,3.3,3.3,0,0,0-.344,3.377l.16-.209a4.047,4.047,0,0,0-3.3.737,3.882,3.882,0,0,0-1.5,3.128,3.968,3.968,0,0,0,.534,1.965l.223-.172a1.667,1.667,0,1,0-1.763,2.672c.174.059.249-.216.076-.274Z" transform="translate(-538.748 -491.673)" fill="#e8e8e8"/>
    </g>
    <g id="Group_2020" data-name="Group 2020" transform="translate(497.587 468.588)">
      <path id="Path_1087" data-name="Path 1087" d="M565.365,514.052a4.585,4.585,0,0,1,.94-3.876,2.926,2.926,0,0,1,1.788-1.121,1.429,1.429,0,0,1,1.56.886.144.144,0,0,0,.274,0,4.776,4.776,0,0,1,2-2.941,2.76,2.76,0,0,1,3.2.188.145.145,0,0,0,.224-.029,2.684,2.684,0,0,1,4.915,1.134c.023.179.308.181.284,0a2.967,2.967,0,0,0-5.445-1.277l.223-.029a3.031,3.031,0,0,0-3.425-.3,4.976,4.976,0,0,0-2.248,3.177h.274a1.6,1.6,0,0,0-1.084-1.026,2.177,2.177,0,0,0-1.7.25,4.534,4.534,0,0,0-2.052,2.967,4.844,4.844,0,0,0,0,2.07c.039.179.314.1.274-.075Z" transform="translate(-564.977 -505.659)" fill="#e8e8e8"/>
    </g>
    <g id="Group_2021" data-name="Group 2021" transform="translate(471.595 457.653)">
      <path id="Path_1088" data-name="Path 1088" d="M522.163,497.569a1.787,1.787,0,0,1-.018-2.21,1.806,1.806,0,0,1,2-.515.143.143,0,0,0,.18-.137,3.131,3.131,0,0,1,3.19-3.1.146.146,0,0,0,.137-.1,6.168,6.168,0,0,1,2.539-3.4,3.281,3.281,0,0,1,3.574.16,2.309,2.309,0,0,1,.989,1.672.143.143,0,0,0,.28.038,2.668,2.668,0,0,1,2.552-1.764,3.9,3.9,0,0,1,3.158,1.7,7.988,7.988,0,0,1,1.1,2.017c.065.169.34.1.274-.075a6.576,6.576,0,0,0-2.587-3.413,3.55,3.55,0,0,0-3.567-.05,2.567,2.567,0,0,0-1.207,1.514l.279.038a2.969,2.969,0,0,0-2.568-2.52,4.067,4.067,0,0,0-3.82,1.659,7.848,7.848,0,0,0-1.272,2.349l.137-.1a3.418,3.418,0,0,0-3.474,3.388l.18-.137a2.018,2.018,0,0,0-2.255,3.2c.116.142.316-.06.2-.2Z" transform="translate(-521.489 -487.362)" fill="#e8e8e8"/>
    </g>
    <g id="Group_2022" data-name="Group 2022" transform="translate(471.124 470.552)">
      <path id="Path_1089" data-name="Path 1089" d="M520.917,514.547a8.235,8.235,0,0,1,4.738-.805c.133.017.173-.161.1-.243a1.3,1.3,0,0,1,.242-1.775,2.509,2.509,0,0,1,2.275-.3.144.144,0,0,0,.18-.137,1.679,1.679,0,0,1,2.887-1.164.144.144,0,0,0,.224-.029,1.721,1.721,0,0,1,1.185-.861.929.929,0,0,1,1.012.643.142.142,0,0,0,.274-.076,1.2,1.2,0,0,0-1.214-.856,1.96,1.96,0,0,0-1.5,1.007l.223-.029a1.964,1.964,0,0,0-3.372,1.365l.18-.137a2.7,2.7,0,0,0-2.641.456,1.568,1.568,0,0,0-.153,2.092l.1-.243a8.5,8.5,0,0,0-4.881.844c-.164.082-.02.328.143.246Z" transform="translate(-520.701 -508.945)" fill="#e8e8e8"/>
    </g>
    <g id="Group_2023" data-name="Group 2023" transform="translate(397.486 440.295)">
      <path id="Path_1090" data-name="Path 1090" d="M397.707,460.915a10.175,10.175,0,0,1,7.743-.636,41.462,41.462,0,0,1,7.763,3.482,28.9,28.9,0,0,0,7.931,2.706,35.24,35.24,0,0,0,8.4.421c6.01-.38,11.842-2.039,17.578-3.776,5.825-1.764,11.633-3.519,17.709-4.167a57.718,57.718,0,0,1,17.894.833q1.093.228,2.175.5a.142.142,0,0,0,.076-.274,57.357,57.357,0,0,0-17.836-1.547,61.5,61.5,0,0,0-8.8,1.247c-3,.648-5.94,1.51-8.872,2.4-5.912,1.789-11.852,3.675-18.02,4.339a31.83,31.83,0,0,1-17.1-2.437c-4.653-2.2-9.748-5.77-15.157-4.061a8.1,8.1,0,0,0-1.635.727.142.142,0,0,0,.143.246Z" transform="translate(-397.495 -458.32)" fill="#e8e8e8"/>
    </g>
    <g id="Group_2024" data-name="Group 2024" transform="translate(443.163 431.643)">
      <path id="Path_1091" data-name="Path 1091" d="M474.055,450.48a41.726,41.726,0,0,0,11.642-2.623,72.9,72.9,0,0,1,11.608-3.383,33.607,33.607,0,0,1,13.209.842c4.388,1.043,8.651,2.543,13.029,3.621a35.15,35.15,0,0,0,13.133,1.128q.811-.112,1.612-.282c.179-.038.1-.311-.075-.274a31.352,31.352,0,0,1-13.338-.55c-4.4-.992-8.664-2.486-13.031-3.607a36.84,36.84,0,0,0-13.059-1.363,53.16,53.16,0,0,0-11.542,3.037,52.1,52.1,0,0,1-11.713,3.067q-.735.073-1.474.1c-.182.008-.183.292,0,.284Z" transform="translate(-473.918 -443.844)" fill="#e8e8e8"/>
    </g>
    <g id="Group_2025" data-name="Group 2025" transform="translate(414.742 450.901)">
      <path id="Path_1092" data-name="Path 1092" d="M426.537,481.013a32.683,32.683,0,0,1,15.215-2.249,46.6,46.6,0,0,1,7.954,1.647,45.612,45.612,0,0,0,7.985,1.529,58.733,58.733,0,0,0,16.089-1.133c2.69-.512,5.358-1.133,8.015-1.791,2.679-.663,5.35-1.372,8.062-1.9,5.1-.986,10.551-1.293,15.469.667a17.252,17.252,0,0,1,1.744.815c.161.086.305-.159.143-.246-4.48-2.393-9.715-2.641-14.659-1.971-5.506.747-10.841,2.457-16.264,3.621a66.649,66.649,0,0,1-16.543,1.778,39.829,39.829,0,0,1-8.231-1.19,79.645,79.645,0,0,0-8.066-1.915,32.862,32.862,0,0,0-15.15,1.373q-.931.314-1.84.684c-.167.068-.094.343.076.274Z" transform="translate(-426.367 -476.065)" fill="#e8e8e8"/>
    </g>
    <g id="Group_2026" data-name="Group 2026" transform="translate(419.535 419.758)">
      <path id="Path_1093" data-name="Path 1093" d="M434.523,435.152a48.026,48.026,0,0,0,14.6-1.822c4.783-1.263,9.427-2.98,14.109-4.564a88.024,88.024,0,0,1,14.047-3.74,58.53,58.53,0,0,1,13.891-.617,49.38,49.38,0,0,1,13.565,2.958q.808.3,1.6.638c.168.071.242-.2.075-.274a48.768,48.768,0,0,0-13.273-3.417,57.462,57.462,0,0,0-13.932.145,76.85,76.85,0,0,0-13.9,3.318c-4.742,1.545-9.411,3.314-14.2,4.708a53.152,53.152,0,0,1-14.73,2.428q-.924,0-1.848-.046c-.183-.009-.182.276,0,.284Z" transform="translate(-434.386 -423.958)" fill="#e8e8e8"/>
    </g>
    <g id="Group_2027" data-name="Group 2027" transform="translate(404.697 416.963)">
      <path id="Path_1094" data-name="Path 1094" d="M409.631,420.491c3.545,1.835,7.625,2.063,11.531,1.67,4.3-.432,8.466-1.625,12.734-2.238a27.547,27.547,0,0,1,7.631-.166c.179.025.256-.249.075-.274-4.422-.6-8.84.269-13.162,1.154-4.019.823-8.1,1.652-12.223,1.341a16.7,16.7,0,0,1-6.442-1.732c-.162-.084-.306.161-.143.246Z" transform="translate(-409.56 -419.282)" fill="#e8e8e8"/>
    </g>
    <circle id="Ellipse_100" data-name="Ellipse 100" cx="1.921" cy="1.921" r="1.921" transform="translate(413.781 434.959)" fill="#0fbf89"/>
    <circle id="Ellipse_101" data-name="Ellipse 101" cx="0.911" cy="0.911" r="0.911" transform="translate(426.616 456.806)" fill="#0fbf89"/>
    <circle id="Ellipse_102" data-name="Ellipse 102" cx="1.089" cy="1.089" r="1.089" transform="translate(455.389 415.153)" fill="#0fbf89"/>
    <circle id="Ellipse_103" data-name="Ellipse 103" cx="1.637" cy="1.637" r="1.637" transform="translate(478.635 428.808)" fill="#faad00"/>
    <circle id="Ellipse_104" data-name="Ellipse 104" cx="1.428" cy="1.428" r="1.428" transform="translate(433.033 441.274)" fill="#faad00"/>
    <circle id="Ellipse_105" data-name="Ellipse 105" cx="0.818" cy="0.818" r="0.818" transform="translate(473.55 413.517)" fill="#faad00"/>
    <circle id="Ellipse_106" data-name="Ellipse 106" cx="0.849" cy="0.849" r="0.849" transform="translate(480.974 446.106)" fill="#0fbf89"/>
    <path id="Path_1095" data-name="Path 1095" d="M510.829,546.253l-.2.83,4.427,2.568,5.922-3.512-.131-.571-4.228-1.78Z" transform="translate(-45.525 -52.411)" fill="#fff"/>
    <g id="Group_2028" data-name="Group 2028" transform="translate(464.963 494.529)">
      <path id="Path_1096" data-name="Path 1096" d="M510.462,549.327l4.427,2.568a.142.142,0,0,0,.144-.246l-4.427-2.568a.142.142,0,0,0-.143.246Z" transform="translate(-510.393 -549.061)"/>
    </g>
    <g id="Group_2029" data-name="Group 2029" transform="translate(464.938 493.801)">
      <path id="Path_1097" data-name="Path 1097" d="M510.629,548.615l.13-.593a.142.142,0,1,0-.274-.075l-.131.592a.142.142,0,0,0,.274.076Z" transform="translate(-510.351 -547.843)"/>
    </g>
    <g id="Group_2030" data-name="Group 2030" transform="translate(465.166 493.696)">
      <path id="Path_1098" data-name="Path 1098" d="M510.8,547.936l4.4,2.8c.155.1.3-.148.143-.246l-4.4-2.8c-.155-.1-.3.148-.143.246Z" transform="translate(-510.733 -547.668)"/>
    </g>
    <g id="Group_2031" data-name="Group 2031" transform="translate(469.516 496.477)">
      <path id="Path_1099" data-name="Path 1099" d="M518.088,552.425l-.073.534a.158.158,0,0,0,.014.109.142.142,0,0,0,.085.065.147.147,0,0,0,.11-.014.136.136,0,0,0,.065-.086l.074-.534a.158.158,0,0,0-.014-.109.145.145,0,0,0-.085-.065.143.143,0,0,0-.109.014.138.138,0,0,0-.066.085Z" transform="translate(-518.011 -552.321)"/>
    </g>
    <g id="Group_2032" data-name="Group 2032" transform="translate(469.712 493.199)">
      <path id="Path_1100" data-name="Path 1100" d="M518.553,550.342q2.757-1.525,5.4-3.236c.153-.1.011-.345-.143-.246q-2.646,1.71-5.4,3.236c-.16.088-.017.334.143.245Z" transform="translate(-518.34 -546.837)"/>
    </g>
    <g id="Group_2033" data-name="Group 2033" transform="translate(469.528 493.583)">
      <path id="Path_1101" data-name="Path 1101" d="M518.242,551.239l5.785-3.493a.142.142,0,0,0-.143-.246l-5.785,3.493a.142.142,0,0,0,.143.246Z" transform="translate(-518.031 -547.479)"/>
    </g>
    <g id="Group_2034" data-name="Group 2034" transform="translate(475.237 493.201)">
      <path id="Path_1102" data-name="Path 1102" d="M527.6,547.054c.007.014.014.029.021.044l-.014-.034a.559.559,0,0,1,.039.142l0-.038a.578.578,0,0,1,0,.147l.005-.038,0,.024a.155.155,0,0,0,.014.109.147.147,0,0,0,.085.065.144.144,0,0,0,.11-.014.141.141,0,0,0,.065-.085.724.724,0,0,0,.014-.129.809.809,0,0,0-.011-.127.661.661,0,0,0-.073-.211.143.143,0,0,0-.194-.051.145.145,0,0,0-.051.194Z" transform="translate(-527.583 -546.84)"/>
    </g>
    <g id="Group_2035" data-name="Group 2035" transform="translate(465.266 491.288)">
      <path id="Path_1103" data-name="Path 1103" d="M511.07,546.3q2.875-1.165,5.72-2.4c.167-.073.023-.318-.143-.246q-2.811,1.224-5.653,2.375c-.167.068-.094.343.076.274Z" transform="translate(-510.9 -543.639)"/>
    </g>
    <g id="Group_2036" data-name="Group 2036" transform="translate(470.961 491.229)">
      <path id="Path_1104" data-name="Path 1104" d="M520.522,543.826l4.229,1.78c.169.071.242-.2.075-.274l-4.228-1.78c-.169-.071-.242.2-.076.274Z" transform="translate(-520.428 -543.539)"/>
    </g>
    <g id="Group_2037" data-name="Group 2037" transform="translate(468.891 492.747)">
      <path id="Path_1105" data-name="Path 1105" d="M517.822,548a.5.5,0,0,1-.5-.267.675.675,0,0,1,0-.631,1.348,1.348,0,0,1,1.087-.734.879.879,0,0,1,.929.575.675.675,0,0,1-.016.511,1.068,1.068,0,0,1-.516.441c-.365.18-.917.3-1.215-.056-.117-.14-.317.062-.2.2a1.232,1.232,0,0,0,1.44.155,1.536,1.536,0,0,0,.684-.509.925.925,0,0,0,.118-.746,1.155,1.155,0,0,0-1.155-.859,1.627,1.627,0,0,0-1.418.911.951.951,0,0,0,.032.913.777.777,0,0,0,.8.369c.179-.035.1-.309-.076-.274Z" transform="translate(-516.965 -546.08)"/>
    </g>
    <g id="Group_2038" data-name="Group 2038" transform="translate(470.053 492.785)">
      <path id="Path_1106" data-name="Path 1106" d="M519.211,546.247l-.3,1.845a.148.148,0,0,0,.1.175.143.143,0,0,0,.174-.1l.3-1.845a.147.147,0,0,0-.1-.175.143.143,0,0,0-.174.1Z" transform="translate(-518.91 -546.143)"/>
    </g>
    <g id="Group_2039" data-name="Group 2039" transform="translate(466.277 493.292)">
      <path id="Path_1107" data-name="Path 1107" d="M512.658,547.259l4.159,2.627c.155.1.3-.148.143-.246l-4.159-2.627c-.155-.1-.3.148-.143.246Z" transform="translate(-512.591 -546.991)"/>
    </g>
    <g id="Group_2040" data-name="Group 2040" transform="translate(467.911 494.819)">
      <path id="Path_1108" data-name="Path 1108" d="M515.464,549.83a.142.142,0,0,0,0-.284.142.142,0,0,0,0,.284Z" transform="translate(-515.326 -549.546)"/>
    </g>
    <path id="Path_1109" data-name="Path 1109" d="M490.275,528.866l3.148-1.639c.879-1.439,1.558-1.731,2.033-1.705.763.042.891.9,1.9,1.18.979.268,1.312-.417,2.814-.483,1.274-.056,2.742.362,2.826.942.06.4-.549.807-.918,1.049a7.559,7.559,0,0,1-3.673.984c-.895.1-2.173.274-3.738.59l-4.46,1.837Z" transform="translate(-37.31 -45.061)"/>
    <path id="Path_1110" data-name="Path 1110" d="M475.287,506.239c-1.078.708-2.549,1.7-4.263,2.931a85.1,85.1,0,0,0-8.354,6.713,34.364,34.364,0,0,0-3.656,3.872,16.222,16.222,0,0,0-2.66,4.237c-.613,1.583-1.078,2.538-.816,3.8a5.115,5.115,0,0,0,2.455,3.187,6.213,6.213,0,0,0,3.263.681,15.068,15.068,0,0,0,5.021-.969,57.052,57.052,0,0,0,6.152-2.18,54.01,54.01,0,0,0,5.9-2.964c-.029-.362-.079-.883-.173-1.508a6.582,6.582,0,0,0-.742-2.721,3.851,3.851,0,0,0-1.319-1.237,16.039,16.039,0,0,0,2.212-1.991,12.879,12.879,0,0,0,2.538-3.721c.616-1.435,1.333-3.106.811-4.67C480.981,507.672,478.392,506.325,475.287,506.239Z" transform="translate(-23.331 -37.304)" fill="#fff"/>
    <path id="Path_1111" data-name="Path 1111" d="M485.932,509.81a87.026,87.026,0,0,1-5.854,7.337c-7.786,8.748-14.084,12.252-13.438,13.6.383.8,3.2.854,14.686-2.935l1.482-.833a6.824,6.824,0,0,0-.918-3.988,6.479,6.479,0,0,0-1.316-1.559,14.577,14.577,0,0,0,2.212-1.909,13.078,13.078,0,0,0,2.284-3.182A11.153,11.153,0,0,0,485.932,509.81Z" transform="translate(-27.809 -38.741)" fill="#9e9e9e" opacity="0.22"/>
    <g id="Group_2041" data-name="Group 2041" transform="translate(432.025 469.445)">
      <path id="Path_1112" data-name="Path 1112" d="M474.14,507.115c-1.688,1.082-3.295,2.285-4.884,3.507-1.4,1.077-2.8,2.155-4.169,3.272a37.261,37.261,0,0,0-7.128,7.286,16.473,16.473,0,0,0-2.4,4.633,5.356,5.356,0,0,0-.173,2.65,4.1,4.1,0,0,0,1.047,1.929c2.648,2.789,6.916,1.627,10.119.691a52.666,52.666,0,0,0,10.538-4.368q.627-.344,1.244-.7a.142.142,0,0,0-.143-.245,52.463,52.463,0,0,1-10.141,4.557,33.52,33.52,0,0,1-5.477,1.417,7.231,7.231,0,0,1-5.071-.828,4.414,4.414,0,0,1-1.515-1.619,4.1,4.1,0,0,1-.346-2.574,9.447,9.447,0,0,1,.9-2.59,20.523,20.523,0,0,1,1.215-2.137,33.6,33.6,0,0,1,6.75-7.246c1.275-1.071,2.589-2.095,3.906-3.113,1.534-1.186,3.068-2.374,4.668-3.471q.6-.409,1.206-.8c.154-.1.011-.345-.143-.246Z" transform="translate(-455.284 -507.092)"/>
    </g>
    <g id="Group_2042" data-name="Group 2042" transform="translate(450.223 471.77)">
      <path id="Path_1113" data-name="Path 1113" d="M493.63,511.16A9.258,9.258,0,0,1,492.513,517a15.773,15.773,0,0,1-3.933,4.576c-.891.74-1.831,1.417-2.786,2.071-.149.1-.008.35.143.246,3.4-2.335,6.869-5.215,7.845-9.43a8.638,8.638,0,0,0,.121-3.377c-.03-.18-.3-.1-.274.075Z" transform="translate(-485.731 -510.982)"/>
    </g>
    <g id="Group_2043" data-name="Group 2043" transform="translate(452.487 482.632)">
      <path id="Path_1114" data-name="Path 1114" d="M489.62,529.437c.914.243,1.356,1.279,1.65,2.087a8.678,8.678,0,0,1,.521,3.057.142.142,0,0,0,.284,0,8.9,8.9,0,0,0-.622-3.371,3.031,3.031,0,0,0-1.758-2.046.142.142,0,0,0-.075.274Z" transform="translate(-489.519 -529.157)"/>
    </g>
    <path id="Path_1115" data-name="Path 1115" d="M509.321,528.45l2.784-.617,2.254-2.492a3.386,3.386,0,0,1,2.175-.211c.809.222.979.676,1.773.838a4.323,4.323,0,0,0,2.277-.458c1.963-.721,2.369-1.3,2.857-1.055.638.316.858,1.751.3,2.628-.5.782-1.409.768-2.928,1.126-1.666.393-1.265.574-5.781,2.4-1.023.414-2.507,1-4.343,1.656Z" transform="translate(-44.999 -44.61)"/>
    <path id="Path_1116" data-name="Path 1116" d="M485.821,506.674c-1.729.863-2.521,1.639-4.921,3.712-4.152,3.585-10.315,8.63-13.994,13.028a9.56,9.56,0,0,0-1.922,3.63,5.466,5.466,0,0,0-.127,3.217,5.1,5.1,0,0,0,2.441,2.864,6.452,6.452,0,0,0,3.463.6,18.625,18.625,0,0,0,5.635-1.011,97.477,97.477,0,0,0,11.091-4.582c1.561-.791,3.718-1.933,6.243-3.434a4.922,4.922,0,0,0,.2-1.567,5.337,5.337,0,0,0-1.379-3.288c.183-.368.464-.919.827-1.58a25.1,25.1,0,0,0,1.533-2.79,6.587,6.587,0,0,0,.256-2.93c-.208-3.049-.649-5.985-.931-7.688A18.091,18.091,0,0,0,485.821,506.674Z" transform="translate(-27.032 -36.748)" fill="#fff"/>
    <path id="Path_1117" data-name="Path 1117" d="M498.7,506.349a22.356,22.356,0,0,1-2.169,6.074c-6.279,11.767-21.385,13.627-20.921,17.944.094.877.855,2.075,4.056,3.281,1.693-.528,3.065-1.016,4-1.36a86.625,86.625,0,0,0,11.352-5.2c1.354-.739,2.437-1.376,3.116-1.782a4.86,4.86,0,0,0,.2-1.567,5.449,5.449,0,0,0-1.653-3.554,16.488,16.488,0,0,0,1.424-1.89,8.727,8.727,0,0,0,1.369-2.818,6.638,6.638,0,0,0,.1-2.326C499.294,510.4,498.918,507.792,498.7,506.349Z" transform="translate(-31.431 -37.348)" fill="#9e9e9e" opacity="0.27"/>
    <g id="Group_2044" data-name="Group 2044" transform="translate(456.587 468.861)">
      <path id="Path_1118" data-name="Path 1118" d="M506.922,506.293q.5,2.733.758,5.5a17.912,17.912,0,0,1,.123,2.66,6.288,6.288,0,0,1-.663,2.453,16.574,16.574,0,0,1-2.773,3.784,23.232,23.232,0,0,1-7.913,5.57c-.168.072-.023.316.143.245a23.534,23.534,0,0,0,7.653-5.279,18.96,18.96,0,0,0,2.905-3.746,6.975,6.975,0,0,0,.85-2.284,10.952,10.952,0,0,0,.023-2.661q-.258-3.178-.833-6.321c-.032-.179-.307-.1-.274.076Z" transform="translate(-496.379 -506.115)"/>
    </g>
    <g id="Group_2045" data-name="Group 2045" transform="translate(437.521 472.885)">
      <path id="Path_1119" data-name="Path 1119" d="M481.577,512.875a97.015,97.015,0,0,0-9.571,7.918,49.38,49.38,0,0,0-4.229,4.377,15.4,15.4,0,0,0-2.962,4.914,5.508,5.508,0,0,0,.6,5.044,5.807,5.807,0,0,0,4.305,1.935,17.242,17.242,0,0,0,5.8-.744,48.915,48.915,0,0,0,5.762-2.131,85.775,85.775,0,0,0,11.142-5.33q.655-.4,1.3-.818c.152-.1.01-.347-.143-.246a66.775,66.775,0,0,1-10.661,5.395c-3.662,1.561-7.424,3.3-11.452,3.579a7.859,7.859,0,0,1-4.857-.922,4.549,4.549,0,0,1-1.787-4.608,11.778,11.778,0,0,1,2.514-5.067,38.377,38.377,0,0,1,3.969-4.322,95.943,95.943,0,0,1,9.2-7.837q.6-.451,1.211-.892c.147-.106.005-.353-.143-.246Z" transform="translate(-464.479 -512.849)"/>
    </g>
    <g id="Group_2046" data-name="Group 2046" transform="translate(465.375 482.957)">
      <path id="Path_1120" data-name="Path 1120" d="M511.124,529.944a4.815,4.815,0,0,1,1.163,4.611.142.142,0,0,0,.274.076,5.1,5.1,0,0,0-1.236-4.888c-.128-.131-.329.069-.2.2Z" transform="translate(-511.083 -529.7)"/>
    </g>
    <path id="Path_1121" data-name="Path 1121" d="M478.694,465.708c-.251.487-.594,1.178-.965,2.022a40.67,40.67,0,0,0-2.238,6.8,70.572,70.572,0,0,0-1.739,10.6,14.964,14.964,0,0,0,.064,4.784,15.185,15.185,0,0,0,1.226,3.629,19.733,19.733,0,0,0,2.8,4.426c.16.8.351,1.733.576,2.767.577,2.646.869,3.654,1.686,4.61a5.615,5.615,0,0,0,.712.7c-.579-1.649-.657-2.137-.565-2.178.188-.085.85,1.766,2.387,2.169a2.51,2.51,0,0,0,.967.054,7.176,7.176,0,0,0-.512-4.523l2.4,2.764a6.458,6.458,0,0,0-.441-2.494,6.667,6.667,0,0,0-2.571-3.113c1.507.04,1.864-.148,1.91-.328.129-.516-2.158-1.6-2.383-1.7-.375-.177-.694-.3-.912-.385a18.88,18.88,0,0,1-2.742-9.155c.127-1.419.293-2.541.4-3.226.6-3.676,1.286-4.995,1.91-9.008a15.943,15.943,0,0,0,.31-2.921A11.609,11.609,0,0,0,478.694,465.708Z" transform="translate(-30.624 -20.998)" fill="#fff"/>
    <path id="Path_1122" data-name="Path 1122" d="M482.5,473.789c-.261-.042-.769,2.558-1.9,6.634-1.038,3.721-2.067,6.761-2.837,8.9a31.755,31.755,0,0,0,1.161,4c1.654,4.559,3.393,6.072,4.641,9.733a20.535,20.535,0,0,1,1.069,6.46,2.285,2.285,0,0,0,.542-.594c.973-1.556-.4-3.774-.5-3.93,1.727,2.308,2.309,2.71,2.5,2.6.347-.2-.224-2.19-1.283-3.777a8.922,8.922,0,0,0-1.818-1.984q1.885.189,2-.172.163-.524-3.415-2.213c-.2-.44-.5-1.134-.838-2-1.027-2.626-1.755-4.49-1.805-6.768a19.287,19.287,0,0,1,.387-3.288c.164-1.015.315-1.69,1.167-5.447.563-2.48.564-2.482.589-2.62C482.638,476.672,482.765,473.832,482.5,473.789Z" transform="translate(-32.299 -24.248)" fill="#9e9e9e" opacity="0.23"/>
    <g id="Group_2047" data-name="Group 2047" transform="translate(442.852 444.889)">
      <path id="Path_1123" data-name="Path 1123" d="M478.426,466.071a16.982,16.982,0,0,0-1.768,4.016q-.75,2.14-1.33,4.334a58.335,58.335,0,0,0-1.628,8.906q-.265,2.565-.3,5.147a.142.142,0,0,0,.284,0,57.871,57.871,0,0,1,3.033-17.681q.4-1.176.844-2.334a10.943,10.943,0,0,1,1.112-2.245c.1-.151-.143-.294-.246-.143Z" transform="translate(-473.399 -466.007)"/>
    </g>
    <g id="Group_2048" data-name="Group 2048" transform="translate(447.683 450.022)">
      <path id="Path_1124" data-name="Path 1124" d="M484.029,474.733c.016,4.233-1.457,8.258-2.172,12.386a25.188,25.188,0,0,0-.375,3.447c-.007.183.278.183.284,0,.142-4.226,1.645-8.232,2.274-12.386a22.425,22.425,0,0,0,.273-3.447.142.142,0,0,0-.284,0Z" transform="translate(-481.482 -474.595)"/>
    </g>
    <g id="Group_2049" data-name="Group 2049" transform="translate(446.175 464.792)">
      <path id="Path_1125" data-name="Path 1125" d="M479.061,499.585c1.509.32,1.478,2.333,1.676,3.515a22.307,22.307,0,0,0,1.152,4.249,22.992,22.992,0,0,0,1,2.245c.083.163.328.02.245-.143a22.21,22.21,0,0,1-2.148-6.6,9.923,9.923,0,0,0-.439-2.239,2.061,2.061,0,0,0-1.408-1.3c-.178-.038-.255.236-.075.274Z" transform="translate(-478.959 -499.307)"/>
    </g>
    <g id="Group_2050" data-name="Group 2050" transform="translate(442.921 467.576)">
      <path id="Path_1126" data-name="Path 1126" d="M473.515,504.1c.166,3.623,2.279,6.689,4.315,9.54.105.148.352.006.245-.143-2-2.8-4.113-5.83-4.276-9.4-.008-.182-.293-.183-.284,0Z" transform="translate(-473.515 -503.966)"/>
    </g>
    <g id="Group_2051" data-name="Group 2051" transform="translate(449.95 475.075)">
      <path id="Path_1127" data-name="Path 1127" d="M485.376,516.791a9.063,9.063,0,0,1,2.637,1.073q.3.182.584.386c.115.083.492.319.378.5-.054.086-.19.074-.279.075-.132,0-.265,0-.4,0l-.829,0a.142.142,0,0,0,0,.284l1.009,0c.221,0,.507.036.683-.132.409-.39-.249-.85-.527-1.044a9.289,9.289,0,0,0-3.184-1.415c-.178-.042-.254.232-.076.274Z" transform="translate(-485.274 -516.513)"/>
    </g>
    <g id="Group_2052" data-name="Group 2052" transform="translate(447.077 476.838)">
      <path id="Path_1128" data-name="Path 1128" d="M480.47,519.641a40.8,40.8,0,0,0,1.057,4.53,16.645,16.645,0,0,0,.809,2.092,2.9,2.9,0,0,0,1.174,1.535.144.144,0,0,0,.214-.123,3.678,3.678,0,0,0-.636-2.246c-.1-.15-.348-.008-.245.143a3.423,3.423,0,0,1,.6,2.1l.214-.122c-.612-.289-.9-1.046-1.161-1.626a16.737,16.737,0,0,1-.767-2.076,43.037,43.037,0,0,1-.982-4.287c-.035-.179-.309-.1-.274.076Z" transform="translate(-480.467 -519.463)"/>
    </g>
    <g id="Group_2053" data-name="Group 2053" transform="translate(451.849 477.718)">
      <path id="Path_1129" data-name="Path 1129" d="M488.513,521.208a7.257,7.257,0,0,1,2.821,5.345l.1-.138c-.264.066-.48-.28-.626-.453l-.541-.644-1.052-1.254c-.118-.141-.318.062-.2.2l1.292,1.54c.287.342.667,1.018,1.2.885a.144.144,0,0,0,.1-.137,7.562,7.562,0,0,0-2.961-5.591c-.146-.111-.287.136-.143.246Z" transform="translate(-488.452 -520.934)"/>
    </g>
    <g id="Group_2054" data-name="Group 2054" transform="translate(449.52 480.599)">
      <path id="Path_1130" data-name="Path 1130" d="M484.592,528.138a13.339,13.339,0,0,0,1.468,1.467c.247.21.5.412.763.6a2.055,2.055,0,0,0,.794.474c.552.077.6-.635.613-1.012a11.7,11.7,0,0,0-.037-1.9,4.452,4.452,0,0,0-.667-1.949c-.1-.152-.347-.01-.245.143a4.268,4.268,0,0,1,.644,1.956,10.52,10.52,0,0,1,.007,2.035.627.627,0,0,1-.143.41c-.152.12-.366-.077-.491-.163q-.489-.336-.944-.717a13.34,13.34,0,0,1-1.562-1.546c-.119-.139-.32.063-.2.2Z" transform="translate(-484.555 -525.754)"/>
    </g>
    <g id="Group_2055" data-name="Group 2055" transform="translate(450.358 480.618)">
      <path id="Path_1131" data-name="Path 1131" d="M485.965,525.961a20.133,20.133,0,0,0,2.077,4.5c.1.155.342.013.246-.143a19.784,19.784,0,0,1-2.048-4.436c-.056-.174-.33-.1-.274.075Z" transform="translate(-485.958 -525.787)"/>
    </g>
    <path id="Path_1132" data-name="Path 1132" d="M486.721,458.193a10.07,10.07,0,0,0-3.828,3.657c-1.8,3.075-1.314,6.4-1.021,8.42.437,3,1.139,2.688,1.786,6.549.217,1.3.216,1.8.68,6.124.186,1.737.347,3.158.454,4.088a13.027,13.027,0,0,0,9.023.987,12.622,12.622,0,0,0,5.5-3.132,114.327,114.327,0,0,0,1.693-15.042c.171-3.729.148-7.228,0-10.462C500.369,459.012,492.8,454.77,486.721,458.193Z" transform="translate(-33.84 -17.441)" fill="#0fbf89"/>
    <path id="Path_1133" data-name="Path 1133" d="M494.528,465.662a15.17,15.17,0,0,0-2.292,4.868,15.618,15.618,0,0,0-.49,4.178c-.015,3.435-.015,7.246.028,11.456-.42.539-1.07,1.367-1.883,2.368-.962,1.184-1.724,2.085-1.854,2.237-1.936,2.264-6.217,5.187-7.9,6.308a8.1,8.1,0,0,0-2.412-.775c-.122-.019-2.166-.32-2.333.179-.074.219.234.531.406.666.456.356.85.152,1.3.464a1.433,1.433,0,0,1,.521.748,26.689,26.689,0,0,1-3.244,2.256c-1.829,1.079-3.2,1.591-3.113,2,.04.19.4.383,1.791.409l.9.444,1.35.46a.84.84,0,0,0,.087.7c.494.617,2.422-.108,3.511-.741a7.707,7.707,0,0,0,2.842-2.966q2.352-1.356,4.821-2.979a92.453,92.453,0,0,0,9.789-7.459c.243-1.126.523-2.531.8-4.156.111-.662.387-2.346.828-6.233,0,0,.357-3.132.473-9.644a4.755,4.755,0,0,0-.657-2.926A4.883,4.883,0,0,0,494.528,465.662Z" transform="translate(-29.685 -20.979)" fill="#fff"/>
    <path id="Path_1134" data-name="Path 1134" d="M498.743,467.045c.051,1.378.093,3.419.014,5.89-.231,7.185-.346,10.778-2.177,14.533-1.606,3.3-3.792,5.246-7.152,8.242a45.4,45.4,0,0,1-13.18,8.121,2.154,2.154,0,0,0,1.145,1.348,2.624,2.624,0,0,0,1.9-.121,7.553,7.553,0,0,0,3.1-1.638,7.661,7.661,0,0,0,1.572-1.946c1.718-1.116,3.07-1.99,3.852-2.494a73.691,73.691,0,0,0,7.52-5.144,37.918,37.918,0,0,0,3.027-2.8c.213-.984.48-2.3.746-3.855.579-3.386.493-4.05,1.049-8.594.684-5.593,1.1-6.953.227-9.026A8.737,8.737,0,0,0,498.743,467.045Z" transform="translate(-31.693 -21.536)" fill="#9e9e9e" opacity="0.24"/>
    <g id="Group_2056" data-name="Group 2056" transform="translate(461.871 452.617)">
      <path id="Path_1135" data-name="Path 1135" d="M505.221,479.074q.251,4.822.158,9.653-.027,1.39-.083,2.778c-.007.183.277.182.284,0q.193-4.825.041-9.654-.044-1.389-.117-2.776c-.01-.182-.294-.183-.284,0Z" transform="translate(-505.221 -478.936)"/>
    </g>
    <g id="Group_2057" data-name="Group 2057" transform="translate(450.31 465.049)">
      <path id="Path_1136" data-name="Path 1136" d="M497.769,499.758a7.329,7.329,0,0,0-1.972,2.214,31.411,31.411,0,0,1-2.073,2.508,31.47,31.47,0,0,1-7.778,6.181.142.142,0,0,0,.143.246,32.021,32.021,0,0,0,9.547-8.257c.345-.446.672-.9,1-1.361A4.274,4.274,0,0,1,497.912,500a.142.142,0,0,0-.143-.246Z" transform="translate(-485.877 -499.738)"/>
    </g>
    <g id="Group_2058" data-name="Group 2058" transform="translate(445.526 475.095)">
      <path id="Path_1137" data-name="Path 1137" d="M482.811,517.248c-.816-.062-1.564-.472-2.369-.61a6.319,6.319,0,0,0-1.192-.092,2.8,2.8,0,0,0-1.109.151.446.446,0,0,0-.233.583,1.133,1.133,0,0,0,.632.532,3.231,3.231,0,0,1,1.614,1.09.142.142,0,0,0,.246-.143,2.523,2.523,0,0,0-1.182-.951c-.246-.115-.509-.208-.745-.342-.111-.063-.3-.19-.317-.332-.029-.238.368-.247.515-.264a6.016,6.016,0,0,1,2.174.145,11.665,11.665,0,0,0,1.965.518c.182.014.182-.271,0-.284Z" transform="translate(-477.872 -516.545)"/>
    </g>
    <g id="Group_2059" data-name="Group 2059" transform="translate(441.433 477.634)">
      <path id="Path_1138" data-name="Path 1138" d="M476.993,520.821c-.746.55-1.494,1.1-2.291,1.574-.73.433-1.516.726-2.271,1.106a4.238,4.238,0,0,0-.919.6c-.2.177-.542.478-.48.782.057.28.386.378.634.39a4.957,4.957,0,0,0,1.317-.163A14.555,14.555,0,0,0,475.86,524c.165-.078.021-.323-.144-.246a17.593,17.593,0,0,1-2.232.929,6.9,6.9,0,0,1-1.184.269c-.162.02-1.114.158-.962-.221a1.962,1.962,0,0,1,.741-.7,6.474,6.474,0,0,1,.89-.468,18.069,18.069,0,0,0,1.951-.964c.771-.463,1.5-1,2.219-1.53.146-.108,0-.354-.143-.246Z" transform="translate(-471.025 -520.794)"/>
    </g>
    <g id="Group_2060" data-name="Group 2060" transform="translate(443.233 481.721)">
      <path id="Path_1139" data-name="Path 1139" d="M474.132,528.09a3.883,3.883,0,0,0,3.214-.2c.162-.085.019-.331-.143-.245a3.607,3.607,0,0,1-2.995.166c-.17-.067-.244.208-.075.274Z" transform="translate(-474.036 -527.632)"/>
    </g>
    <g id="Group_2061" data-name="Group 2061" transform="translate(444.112 482.354)">
      <path id="Path_1140" data-name="Path 1140" d="M475.535,528.895a1.574,1.574,0,0,0,1.279.53,8.488,8.488,0,0,0,1.9-.191c.179-.036.1-.31-.076-.274a8.791,8.791,0,0,1-1.7.182,1.4,1.4,0,0,1-1.163-.391c-.109-.144-.356,0-.246.143Z" transform="translate(-475.507 -528.691)"/>
    </g>
    <g id="Group_2062" data-name="Group 2062" transform="translate(445.084 479.796)">
      <path id="Path_1141" data-name="Path 1141" d="M477.134,527.722c.086.612.744.781,1.269.753a6.889,6.889,0,0,0,1.785-.348,7.7,7.7,0,0,0,3-1.854,7.474,7.474,0,0,0,1.244-1.648c.089-.16-.156-.3-.246-.143a7.338,7.338,0,0,1-2.908,2.863,7.205,7.205,0,0,1-1.889.705c-.544.12-1.869.434-1.986-.4-.026-.18-.3-.1-.274.076Z" transform="translate(-477.132 -524.411)"/>
    </g>
    <g id="Group_2063" data-name="Group 2063" transform="translate(451.913 469.284)">
      <path id="Path_1142" data-name="Path 1142" d="M488.771,517.6q3.167-1.87,6.233-3.9c1.974-1.31,3.95-2.644,5.825-4.093a12.005,12.005,0,0,0,2.572-2.574c.1-.15-.142-.292-.246-.143-1.28,1.837-3.269,3.092-5.071,4.36q-2.933,2.066-5.97,3.979-1.728,1.089-3.487,2.128a.142.142,0,0,0,.143.245Z" transform="translate(-488.559 -506.823)"/>
    </g>
    <g id="Group_2064" data-name="Group 2064" transform="translate(465.033 444.889)">
      <path id="Path_1143" data-name="Path 1143" d="M510.686,466.381a2.175,2.175,0,0,1,1.983.427,3.515,3.515,0,0,1,1.182,1.879,8.475,8.475,0,0,1,.25,2.318c0,.863-.04,1.727-.073,2.589a108.983,108.983,0,0,1-.941,10.949q-.428,3.037-1.083,6.035c-.039.178.235.255.274.075a87.439,87.439,0,0,0,1.677-11.3c.164-1.9.279-3.808.354-5.715.036-.916.079-1.836.076-2.753a8.411,8.411,0,0,0-.282-2.349,3.754,3.754,0,0,0-1.305-1.986,2.439,2.439,0,0,0-2.189-.445c-.173.056-.1.331.076.274Z" transform="translate(-510.511 -466.007)"/>
    </g>
    <path id="Path_1144" data-name="Path 1144" d="M481.35,439.124a7.089,7.089,0,0,0-.189,2.252,19.7,19.7,0,0,0,.164,3.839,10.4,10.4,0,0,0,1.529,4.395,9.038,9.038,0,0,0,2.668,2.6l2.415-.7a3.705,3.705,0,0,0,2.04,2.884,3.424,3.424,0,0,0,1.6-.357,3.681,3.681,0,0,0,1.786-2.19,10.164,10.164,0,0,1-.891-5.221,1.559,1.559,0,0,1,.381-1.171c.423-.4.874-.13,1.415-.492a2.024,2.024,0,0,0,.69-2.171,1.827,1.827,0,0,0-.506-.8,2.219,2.219,0,0,0-1.919-.43,7.112,7.112,0,0,0-2.127-2.613C487.354,436.676,482.406,437.146,481.35,439.124Z" transform="translate(-33.663 -9.622)" fill="#fff"/>
    <path id="Path_1145" data-name="Path 1145" d="M492.753,442.3a9.561,9.561,0,0,1,.4,2.357c.19,4.609-3.088,7.974-4.086,8.926q.671-.184,1.405-.346.421-.092.828-.169l.306,1.19a4.814,4.814,0,0,0,2.346-1.091,5,5,0,0,0,1.647-3.323c.606-1.169,1.161-2.125,1.589-2.831,1.2-1.97,1.757-2.571,1.638-3.556a2.955,2.955,0,0,0-1.2-1.918C496.366,440.664,494.334,440.912,492.753,442.3Z" transform="translate(-36.85 -11.069)" fill="#9e9e9e" opacity="0.18"/>
    <path id="Path_1146" data-name="Path 1146" d="M492.8,458.022a6.562,6.562,0,0,0,5.14.53,18.388,18.388,0,0,1-1-5.223,11.276,11.276,0,0,1-4.143,4.692Z" transform="translate(-38.353 -16.018)" fill="#9e9e9e" opacity="0.17"/>
    <path id="Path_1147" data-name="Path 1147" d="M487.476,434.082a5.652,5.652,0,0,0,.836,2.459c1.945,3.054,6.257,2.861,6.548,2.844a1.347,1.347,0,0,1,.564-.428,1.7,1.7,0,0,1,1.918.716,1.952,1.952,0,0,1,.06,1.815,2.1,2.1,0,0,1-.586.732,2.319,2.319,0,0,1-1.415.492,6.593,6.593,0,0,0-.4,2.782,7.742,7.742,0,0,0,1.678,3.935c2.546,3.1,8.174,4.261,9.74,2.263,1.093-1.395-.015-4.046-.64-5.313a4.133,4.133,0,0,0,3.542-3.542,3.324,3.324,0,0,0-1.574-2.9c-2.258-1.31-4.7,1.6-6.591.591-2.309-1.232.047-6.237-2.755-8.707-1.947-1.716-5.429-1.365-7.674-.344A8.632,8.632,0,0,0,487.476,434.082Z" transform="translate(-36.21 -6.881)" fill="#faad00"/>
    <path id="Path_1148" data-name="Path 1148" d="M486.4,433.172a10.969,10.969,0,0,1-3.788,3.443,10.772,10.772,0,0,1-2.966,1.087,18.307,18.307,0,0,0-.147,2.75,13.734,13.734,0,0,0,1.018,5.388,8.1,8.1,0,0,0,1.37,2.289,7.676,7.676,0,0,0,1.84,1.543c.433-.071.9-.163,1.388-.286.427-.107.825-.225,1.194-.347a2.353,2.353,0,0,1,.721,1.792c-.21,1.467-2.535,1.988-2.893,2.067a6.025,6.025,0,0,1-5.952-2.066c-.719-.982-.812-2.34-.984-5.067a24.7,24.7,0,0,1,.3-6.788c.448-2.3.672-3.444,1.525-4.572,2.192-2.9,6.765-3.74,7.526-2.66C486.711,431.979,486.762,432.393,486.4,433.172Z" transform="translate(-32.035 -7.152)" fill="#faad00"/>
    <g id="Group_2065" data-name="Group 2065" transform="translate(447.32 429.938)">
      <path id="Path_1149" data-name="Path 1149" d="M481.089,441.095c-.522,3.661-.183,7.715,2.039,10.8a5.148,5.148,0,0,0,2.247,1.883c.17.066.244-.208.075-.274a4.76,4.76,0,0,1-2.032-1.691,10.681,10.681,0,0,1-1.289-2.345,14.533,14.533,0,0,1-.972-5.22,20.022,20.022,0,0,1,.206-3.078c.026-.179-.248-.256-.274-.075Z" transform="translate(-480.875 -440.992)"/>
    </g>
    <g id="Group_2066" data-name="Group 2066" transform="translate(451.808 436.862)">
      <path id="Path_1150" data-name="Path 1150" d="M488.519,458.4c3.279-.237,5.474-2.968,6.988-5.612a.142.142,0,0,0-.246-.143c-1.458,2.546-3.574,5.242-6.742,5.471-.181.013-.183.3,0,.284Z" transform="translate(-488.383 -452.576)"/>
    </g>
    <g id="Group_2067" data-name="Group 2067" transform="translate(454.306 441.869)">
      <path id="Path_1151" data-name="Path 1151" d="M492.564,461.09a4.449,4.449,0,0,0,1.409,2.8c.135.123.336-.078.2-.2a4.154,4.154,0,0,1-1.326-2.6c-.019-.18-.3-.182-.284,0Z" transform="translate(-492.563 -460.954)"/>
    </g>
    <g id="Group_2068" data-name="Group 2068" transform="translate(458.501 437.215)">
      <path id="Path_1152" data-name="Path 1152" d="M499.581,453.3a13.13,13.13,0,0,0,1.076,4.943c.072.167.317.023.246-.143a12.756,12.756,0,0,1-1.038-4.8.142.142,0,0,0-.285,0Z" transform="translate(-499.581 -453.168)"/>
    </g>
    <g id="Group_2069" data-name="Group 2069" transform="translate(456.169 442.251)">
      <path id="Path_1153" data-name="Path 1153" d="M495.753,464.235a1.46,1.46,0,0,0,1.169-.083,4.187,4.187,0,0,0,1.008-.562,4.268,4.268,0,0,0,1.393-1.826c.068-.17-.207-.244-.274-.075a3.962,3.962,0,0,1-2.075,2.137,1.4,1.4,0,0,1-1.077.164c-.164-.08-.308.166-.143.245Z" transform="translate(-495.68 -461.594)"/>
    </g>
    <g id="Group_2070" data-name="Group 2070" transform="translate(450.393 431.15)">
      <path id="Path_1154" data-name="Path 1154" d="M486.066,443.156a37.3,37.3,0,0,0,.2,6.27c.015.124.2.213.265.072l.8-1.639c.079-.164-.166-.308-.246-.143l-.8,1.639.265.072a37.24,37.24,0,0,1-.2-6.27c.01-.183-.274-.182-.284,0Z" transform="translate(-486.015 -443.019)"/>
    </g>
    <g id="Group_2071" data-name="Group 2071" transform="translate(448.008 431.31)">
      <path id="Path_1155" data-name="Path 1155" d="M482.291,444.236a1.369,1.369,0,0,1,1.346-.653.143.143,0,0,0,.142-.142.146.146,0,0,0-.142-.142,1.645,1.645,0,0,0-1.592.794.142.142,0,0,0,.246.143Z" transform="translate(-482.025 -443.287)"/>
    </g>
    <g id="Group_2072" data-name="Group 2072" transform="translate(451.623 430.162)">
      <path id="Path_1156" data-name="Path 1156" d="M488.323,442.022a1.764,1.764,0,0,1,2.072-.069c.151.1.293-.142.143-.246a2.049,2.049,0,0,0-2.416.114c-.142.115.06.316.2.2Z" transform="translate(-488.074 -441.367)"/>
    </g>
    <g id="Group_2073" data-name="Group 2073" transform="translate(448.184 433.67)">
      <path id="Path_1157" data-name="Path 1157" d="M482.324,447.586a.847.847,0,0,0,.926.853,1.165,1.165,0,0,0,.96-1.023.147.147,0,0,0-.1-.175.143.143,0,0,0-.175.1.911.911,0,0,1-.681.813.564.564,0,0,1-.646-.568.143.143,0,0,0-.142-.142.146.146,0,0,0-.142.142Z" transform="translate(-482.32 -447.237)"/>
    </g>
    <g id="Group_2074" data-name="Group 2074" transform="translate(452.249 432.217)">
      <path id="Path_1158" data-name="Path 1158" d="M489.126,445.743a1.02,1.02,0,0,0,1.309.66,1.555,1.555,0,0,0,1-1.461.142.142,0,0,0-.284,0,1.273,1.273,0,0,1-.758,1.177.739.739,0,0,1-.987-.451.142.142,0,0,0-.274.075Z" transform="translate(-489.121 -444.805)"/>
    </g>
    <g id="Group_2075" data-name="Group 2075" transform="translate(453.036 434.706)">
      <path id="Path_1159" data-name="Path 1159" d="M490.58,449.253h.059a.1.1,0,0,0,.055-.012.108.108,0,0,0,.045-.029.1.1,0,0,0,.029-.046.107.107,0,0,0,.013-.054l-.005-.038a.139.139,0,0,0-.036-.063l-.029-.022a.143.143,0,0,0-.072-.019h-.059a.155.155,0,0,0-.1.041.106.106,0,0,0-.03.046.114.114,0,0,0-.012.055l0,.038a.146.146,0,0,0,.037.063l.029.022a.143.143,0,0,0,.072.019Z" transform="translate(-490.438 -448.969)"/>
    </g>
    <g id="Group_2076" data-name="Group 2076" transform="translate(454.578 433.816)">
      <path id="Path_1160" data-name="Path 1160" d="M493.018,447.622v.059a.108.108,0,0,0,.013.055.1.1,0,0,0,.029.045.1.1,0,0,0,.045.03.115.115,0,0,0,.055.012l.038,0a.14.14,0,0,0,.063-.037l.022-.029a.138.138,0,0,0,.02-.072v-.059a.11.11,0,0,0-.013-.055.128.128,0,0,0-.075-.075.109.109,0,0,0-.055-.013l-.038.005a.139.139,0,0,0-.063.036l-.022.029a.138.138,0,0,0-.02.072Z" transform="translate(-493.018 -447.48)"/>
    </g>
    <g id="Group_2077" data-name="Group 2077" transform="translate(454.227 435.24)">
      <path id="Path_1161" data-name="Path 1161" d="M492.569,450.146a.142.142,0,0,0,0-.284.142.142,0,0,0,0,.284Z" transform="translate(-492.431 -449.862)"/>
    </g>
    <g id="Group_2078" data-name="Group 2078" transform="translate(450.682 439.288)">
      <path id="Path_1162" data-name="Path 1162" d="M486.641,456.971a8.006,8.006,0,0,1,1.925.016c.076.01.141-.072.142-.142a.145.145,0,0,0-.142-.142,7.975,7.975,0,0,0-1.925-.016.146.146,0,0,0-.142.142.143.143,0,0,0,.142.142Z" transform="translate(-486.499 -456.636)"/>
    </g>
    <g id="Group_2079" data-name="Group 2079" transform="translate(458.515 431.834)">
      <path id="Path_1163" data-name="Path 1163" d="M499.84,444.934a1.312,1.312,0,0,1,1.52-.391,1.564,1.564,0,0,1,.946,1.241,2,2,0,0,1-2.026,2.235c-.182-.02-.18.265,0,.284a2.267,2.267,0,0,0,2.277-1.8,1.9,1.9,0,0,0-1.392-2.314,1.565,1.565,0,0,0-1.526.54c-.114.141.086.343.2.2Z" transform="translate(-499.605 -444.164)"/>
    </g>
    <g id="Group_2080" data-name="Group 2080" transform="translate(458.94 432.569)">
      <path id="Path_1164" data-name="Path 1164" d="M501.412,445.4a1.63,1.63,0,0,0-1.015,2.028c.06.171.335.1.274-.076a1.343,1.343,0,0,1,.816-1.678c.173-.056.1-.331-.075-.274Z" transform="translate(-500.315 -445.393)"/>
    </g>
    <g id="Group_2081" data-name="Group 2081" transform="translate(459.204 433.426)">
      <path id="Path_1165" data-name="Path 1165" d="M500.862,447.1c.027.007.055.014.082.024l.033.013h0l.019.009a.885.885,0,0,1,.133.08c.008.006.008.006,0,0l.011.009.032.027c.021.019.041.039.06.06s.032.035.046.054c-.014-.019.01.014.012.017s.016.023.023.035a.783.783,0,0,1,.039.068l.016.032s.018.041.008.018a.91.91,0,0,1,.047.149c0,.014.005.027.008.041.008.044,0-.026,0,.018,0,.023,0,.047,0,.071a.793.793,0,0,1,0,.084c0,.006-.007.045,0,.019,0,.014-.005.028-.008.042a.145.145,0,0,0,.1.175.143.143,0,0,0,.174-.1,1.056,1.056,0,0,0-.761-1.219.142.142,0,1,0-.075.274Z" transform="translate(-500.758 -446.827)"/>
    </g>
  </g>
</svg>
