<svg xmlns="http://www.w3.org/2000/svg" width="107.898" height="100" viewBox="0 0 107.898 100">
  <g id="Group_1304" data-name="Group 1304" transform="translate(-238.157 -63.958)">
    <g id="background" transform="translate(238.157 63.958)">
      <g id="Group_890" data-name="Group 890" transform="translate(39.731 87.663)">
        <g id="Group_889" data-name="Group 889">
          <path id="Path_534" data-name="Path 534" d="M680.523,1039.974a.135.135,0,0,0,0-.27.135.135,0,0,0,0,.27Z" transform="translate(-680.392 -1039.704)" fill="#e8e8e8"/>
        </g>
      </g>
      <g id="Group_892" data-name="Group 892" transform="translate(30.925 78.74)">
        <g id="Group_891" data-name="Group 891">
          <path id="Path_535" data-name="Path 535" d="M582.4,940.578c3.807,6.324,7.769,12.841,13.508,17.62a29.341,29.341,0,0,0,5.084,3.423c.153.081.29-.152.136-.233-6.573-3.466-11.24-9.454-15.188-15.587-1.136-1.766-2.225-3.561-3.308-5.359a.135.135,0,0,0-.233.136Z" transform="translate(-582.375 -940.378)" fill="#e8e8e8"/>
        </g>
      </g>
      <g id="Group_894" data-name="Group 894" transform="translate(61.346 79.153)">
        <g id="Group_893" data-name="Group 893">
          <path id="Path_536" data-name="Path 536" d="M921.009,945.215c3.644,4.436,9.1,6.769,14.525,8.2,3.127.825,6.312,1.4,9.47,2.083q4.808,1.042,9.538,2.408,5.308,1.533,10.488,3.464c.163.061.233-.2.072-.26a145.978,145.978,0,0,0-18.51-5.535c-6.057-1.38-12.377-2.189-18.019-4.936a21.729,21.729,0,0,1-7.374-5.615c-.11-.134-.3.057-.191.191Z" transform="translate(-920.976 -944.978)" fill="#e8e8e8"/>
        </g>
      </g>
      <g id="Group_896" data-name="Group 896" transform="translate(61.323 91.904)">
        <g id="Group_895" data-name="Group 895">
          <path id="Path_537" data-name="Path 537" d="M920.777,1087.165a57.154,57.154,0,0,0,18.3,7.644c.169.038.241-.222.072-.26a56.926,56.926,0,0,1-18.238-7.617c-.146-.094-.282.139-.136.233Z" transform="translate(-920.715 -1086.91)" fill="#e8e8e8"/>
        </g>
      </g>
      <g id="Group_898" data-name="Group 898" transform="translate(66.79 65.943)">
        <g id="Group_897" data-name="Group 897">
          <path id="Path_538" data-name="Path 538" d="M984.3,816.9a8.635,8.635,0,0,1-1.664-3.552l-.2.152a1.706,1.706,0,0,1,.67.616.135.135,0,0,0,.233-.136,13.768,13.768,0,0,1-1.442-6.558l-.23.1.529.6c.1.111.244-.012.225-.131a46.348,46.348,0,0,1-.518-5.247c-.032-.785-.058-1.576-.032-2.362a3.372,3.372,0,0,1,.678-2.2l-.225-.06a79.345,79.345,0,0,1,2.632,11.033l.26-.072a2.807,2.807,0,0,1,.321-2.081h-.233a3.19,3.19,0,0,1,.606,1.556.135.135,0,0,0,.27,0,1.578,1.578,0,0,1,.754-1.194l-.2-.08a57.742,57.742,0,0,1,1.05,9.115c.006.173.276.174.269,0A58.216,58.216,0,0,0,987,807.212a.136.136,0,0,0-.2-.08,1.868,1.868,0,0,0-.888,1.426h.27a3.444,3.444,0,0,0-.643-1.692.136.136,0,0,0-.233,0,3.093,3.093,0,0,0-.348,2.289c.039.172.287.1.26-.072a79.374,79.374,0,0,0-2.632-11.033.136.136,0,0,0-.225-.059c-1.013,1.154-.785,2.976-.738,4.393a46.886,46.886,0,0,0,.541,5.672l.225-.131-.529-.6a.136.136,0,0,0-.23.1,14.062,14.062,0,0,0,1.479,6.694l.233-.136a2,2,0,0,0-.767-.713.136.136,0,0,0-.2.152,8.921,8.921,0,0,0,1.733,3.671c.107.136.3-.056.191-.191Z" transform="translate(-981.569 -797.95)" fill="#e8e8e8"/>
        </g>
      </g>
      <g id="Group_900" data-name="Group 900" transform="translate(77.619 65.321)">
        <g id="Group_899" data-name="Group 899">
          <path id="Path_539" data-name="Path 539" d="M1103.085,808.509a6.786,6.786,0,0,1-.681-3.735l-.2.116.781.572c.1.071.229-.046.2-.152a13.131,13.131,0,0,1-.129-6.913l-.246.032.472.774c.065.106.264.072.251-.068a17.731,17.731,0,0,1,1.076-7.94l-.225.059a4.106,4.106,0,0,1,.8,2.431c.075.954.109,1.913.146,2.87q.116,2.988.092,5.979h.27a5.3,5.3,0,0,1,.979-3.418l-.212.027.5.634c.077.1.227.011.23-.1a2.1,2.1,0,0,1,1.423-1.927l-.17-.13a29.1,29.1,0,0,1-1.016,9.419.135.135,0,0,0,.26.072,29.322,29.322,0,0,0,1.025-9.49.136.136,0,0,0-.171-.13,2.374,2.374,0,0,0-1.621,2.187l.23-.1-.5-.634a.136.136,0,0,0-.212.027,5.545,5.545,0,0,0-1.016,3.554.135.135,0,0,0,.27,0q.023-3.254-.114-6.506c-.041-.962-.055-1.938-.181-2.893a3.852,3.852,0,0,0-.823-2.071.136.136,0,0,0-.225.06,17.908,17.908,0,0,0-1.086,8.012l.251-.068-.472-.773a.136.136,0,0,0-.246.032,13.413,13.413,0,0,0,.129,7.057l.2-.152-.781-.572c-.091-.067-.194.026-.2.116a7.045,7.045,0,0,0,.718,3.871c.078.155.31.019.233-.136Z" transform="translate(-1102.099 -791.022)" fill="#e8e8e8"/>
        </g>
      </g>
      <g id="Group_902" data-name="Group 902" transform="translate(15.968 71.41)">
        <g id="Group_901" data-name="Group 901">
          <path id="Path_540" data-name="Path 540" d="M427.987,877.524a14.768,14.768,0,0,1-5.077-4.639l-.021.163a.479.479,0,0,1,.764.14l.233-.136L421.2,868.97l-1.318-2-.684-1.039-.293-.445c-.219-.333-.291-.349-.181-.775l.246-.032a18.836,18.836,0,0,1-2.813-5.777l-.2.152c2.086,1.153,3.5,3.292,4.957,5.109q2.479,3.089,4.926,6.2l.191-.191a7.414,7.414,0,0,1-1.926-3.694l-.2.152a7.431,7.431,0,0,1,1.765,1.783.136.136,0,0,0,.251-.068l-.024-1.109-.171.13a3.662,3.662,0,0,1,1.777,1.45c.488.661.928,1.36,1.387,2.041l2.978,4.425c.1.143.33.008.233-.136l-3.276-4.867c-.794-1.18-1.577-2.715-3.027-3.173a.136.136,0,0,0-.171.13l.024,1.109.251-.068a7.831,7.831,0,0,0-1.862-1.88c-.1-.074-.219.048-.2.152a7.672,7.672,0,0,0,1.995,3.813c.123.129.295-.058.191-.191q-2.5-3.185-5.037-6.343c-1.443-1.8-2.838-3.873-4.9-5.013a.136.136,0,0,0-.2.152,19.053,19.053,0,0,0,2.84,5.841.137.137,0,0,0,.246-.032c.1-.4-.5-.525-.669-.188s.182.761.357,1.027l1.026,1.559,3.955,6.013a.135.135,0,0,0,.233-.136.748.748,0,0,0-1.187-.195.136.136,0,0,0-.021.163,15.067,15.067,0,0,0,5.174,4.736c.152.084.288-.149.136-.233Z" transform="translate(-415.892 -858.8)" fill="#e8e8e8"/>
        </g>
      </g>
      <g id="Group_904" data-name="Group 904" transform="translate(24.292 71.878)">
        <g id="Group_903" data-name="Group 903">
          <path id="Path_541" data-name="Path 541" d="M516.2,877.058a33.784,33.784,0,0,1-6.407-9.136l-.152.2a1.813,1.813,0,0,1,.981.88l.233-.136a12.458,12.458,0,0,1-2.054-4.757l-.2.152a9.753,9.753,0,0,1,2.64,3.322l2.489,3.971c.092.147.325.011.233-.136l-2.677-4.27a9.153,9.153,0,0,0-2.549-3.119.136.136,0,0,0-.2.152A12.64,12.64,0,0,0,510.625,869a.135.135,0,0,0,.233-.136,2.088,2.088,0,0,0-1.142-1c-.12-.046-.2.1-.152.2a34,34,0,0,0,6.449,9.19c.122.124.313-.067.191-.191Z" transform="translate(-508.542 -864.007)" fill="#e8e8e8"/>
        </g>
      </g>
      <g id="Group_906" data-name="Group 906" transform="translate(6.991 69.641)">
        <g id="Group_905" data-name="Group 905">
          <path id="Path_542" data-name="Path 542" d="M321.129,854.952a5.033,5.033,0,0,1-1.881-3.218l-.13.171a.792.792,0,0,1,.779.345c.1.14.332.008.233-.136a10.924,10.924,0,0,1-1.867-4.811l-.23.1.5.388c.114.088.294-.02.212-.163a19.1,19.1,0,0,1-2.506-8.39l-.251.068a54.207,54.207,0,0,1,5.558,9.77l.233-.136c-.241-.314.214-.646.514-.58.267.059.463.346.586.567a14.463,14.463,0,0,1,.613,1.4l1.323,3.129c.067.159.3.022.233-.136l-1.114-2.635a9.466,9.466,0,0,0-1-2.164.878.878,0,0,0-1.061-.369.627.627,0,0,0-.33.924.135.135,0,0,0,.233-.136,54.2,54.2,0,0,0-5.558-9.769c-.073-.095-.26-.081-.251.068a19.41,19.41,0,0,0,2.543,8.526l.212-.163-.5-.388c-.078-.06-.247-.036-.23.1a11.2,11.2,0,0,0,1.9,4.947l.233-.136a1.068,1.068,0,0,0-1.012-.478.138.138,0,0,0-.13.171,5.248,5.248,0,0,0,1.951,3.337c.135.106.327-.083.191-.191Z" transform="translate(-315.968 -839.104)" fill="#e8e8e8"/>
        </g>
      </g>
      <g id="Group_908" data-name="Group 908" transform="translate(0 34.727)">
        <g id="Group_907" data-name="Group 907">
          <path id="Path_543" data-name="Path 543" d="M238.41,452.257a3.149,3.149,0,0,1,3.668-1.334c1.215.436,2,1.577,2.954,2.383a3.341,3.341,0,0,0,2.9.881A10.691,10.691,0,0,0,251,452.626a3.749,3.749,0,0,1,3.482-.564c1.131.49,1.963,1.462,3.052,2.026a3.388,3.388,0,0,0,3.184-.056c1.191-.578,2.3-1.562,3.694-1.566,1.751,0,3.1,1.35,4.693,1.876a3.151,3.151,0,0,0,3.523-.615c.108-.134-.082-.326-.191-.191-.925,1.147-2.618.87-3.807.333-1.292-.583-2.471-1.543-3.931-1.662-1.34-.109-2.451.668-3.563,1.3a4.655,4.655,0,0,1-1.932.7,3.136,3.136,0,0,1-1.835-.524,18.969,18.969,0,0,0-2.958-1.942,3.711,3.711,0,0,0-3.094.394,16.882,16.882,0,0,1-3.252,1.739,3.437,3.437,0,0,1-3.366-1.236c-.914-.884-1.828-1.943-3.163-2.122a3.441,3.441,0,0,0-3.363,1.6.135.135,0,0,0,.233.136Z" transform="translate(-238.157 -450.489)" fill="#e8e8e8"/>
        </g>
      </g>
      <g id="Group_910" data-name="Group 910" transform="translate(69.436 24.045)">
        <g id="Group_909" data-name="Group 909">
          <path id="Path_544" data-name="Path 544" d="M1011.269,333.132c.659-1.178,2.219-.43,2.991.169a4.867,4.867,0,0,0,2.577,1.334c1.82.138,3.439-1.209,5-1.934a4.627,4.627,0,0,1,3.064-.468c1.074.26,2.016.876,3.057,1.228a3.205,3.205,0,0,0,2.663-.148c1.14-.629,1.959-1.645,3.4-1.416,1.373.218,2.491,1.163,3.84,1.466a2.684,2.684,0,0,0,2.739-.649c.111-.132-.078-.323-.191-.191-.771.91-2.067.76-3.083.4-1.156-.4-2.176-1.176-3.42-1.318-1.208-.138-2.028.542-2.965,1.184a3.085,3.085,0,0,1-1.61.628,4.066,4.066,0,0,1-1.66-.356,14.3,14.3,0,0,0-3.076-1.168,4.779,4.779,0,0,0-2.568.427c-1.689.714-3.514,2.364-5.468,2-1.28-.236-2-1.422-3.165-1.884a1.848,1.848,0,0,0-2.356.551c-.085.152.148.288.233.136Z" transform="translate(-1011.018 -331.591)" fill="#e8e8e8"/>
        </g>
      </g>
      <g id="Group_912" data-name="Group 912" transform="translate(82.744 20.606)">
        <g id="Group_911" data-name="Group 911">
          <path id="Path_545" data-name="Path 545" d="M1159.4,295.266c.836-1.751,3.161-.95,4.486-.4a6.122,6.122,0,0,0,2.514.623,5.774,5.774,0,0,0,2.079-.542c1.52-.656,3.075-1.727,4.805-1.254,1.531.419,2.853,1.688,4.537,1.327.97-.208,1.777-.848,2.726-1.114a5.064,5.064,0,0,1,3.554.745c.155.076.292-.157.136-.233a6.851,6.851,0,0,0-2.836-.9,5.7,5.7,0,0,0-2.51.811,3.468,3.468,0,0,1-2.844.262c-.837-.3-1.59-.8-2.434-1.083-1.654-.558-3.147.2-4.62.9a5.033,5.033,0,0,1-5.388.045c-1.381-.564-3.625-1.035-4.44.671-.074.156.158.293.233.136Z" transform="translate(-1159.15 -293.318)" fill="#e8e8e8"/>
        </g>
      </g>
      <g id="Group_914" data-name="Group 914" transform="translate(1.799 30.537)">
        <g id="Group_913" data-name="Group 913">
          <path id="Path_546" data-name="Path 546" d="M258.275,404.115c1.435.3,2.24,1.664,3.533,2.24a2.688,2.688,0,0,0,1.675.235c.631-.148.9-.611,1.256-1.1,1.115-1.551,3.05-.077,4.294.449a2.855,2.855,0,0,0,1.908.207,5.358,5.358,0,0,0,1.584-.893,3.434,3.434,0,0,1,2.251-.866,5.757,5.757,0,0,1,2.673,1.227c.143.1.278-.135.136-.233-1.152-.792-2.557-1.653-3.989-1.078-1.278.512-2.235,1.924-3.757,1.616-1.407-.285-2.512-1.53-4.033-1.359a1.834,1.834,0,0,0-1.379.915,1.752,1.752,0,0,1-.9.828,2.018,2.018,0,0,1-1.125-.018c-1.576-.427-2.43-2.09-4.051-2.426-.169-.035-.242.225-.072.26Z" transform="translate(-258.178 -403.852)" fill="#e8e8e8"/>
        </g>
      </g>
      <g id="Group_915" data-name="Group 915" transform="translate(17.81 0)">
        <path id="Path_547" data-name="Path 547" d="M442.412,76.005a6.024,6.024,0,1,1,6.024-6.024A6.031,6.031,0,0,1,442.412,76.005Zm0-11.868a5.844,5.844,0,1,0,5.844,5.844A5.851,5.851,0,0,0,442.412,64.138Z" transform="translate(-436.388 -63.958)" fill="#e8e8e8"/>
      </g>
      <g id="Group_917" data-name="Group 917" transform="translate(26.777 42.3)">
        <g id="Group_916" data-name="Group 916">
          <path id="Path_548" data-name="Path 548" d="M548.9,535.307c.094-.3-.156-.481-.43-.518a1.383,1.383,0,0,0-1.038.469c-.849.783-1.11,2-1.98,2.766a1.525,1.525,0,0,1-1.986.159,4.128,4.128,0,0,0-1.6-.654,2.878,2.878,0,0,0-2.791.931c-.364.594.063,1.455-.68,1.824-.826.41-1.572-.33-1.945-1a.135.135,0,0,0-.233.136,1.878,1.878,0,0,0,2.177,1.151,1.117,1.117,0,0,0,.725-.775c.066-.274.017-.557.063-.833a1.194,1.194,0,0,1,.666-.849,3.162,3.162,0,0,1,1.964-.324,5.813,5.813,0,0,1,1.817.8,1.986,1.986,0,0,0,2.438-.828,14.339,14.339,0,0,0,.916-1.493,3.921,3.921,0,0,1,.595-.777,1.913,1.913,0,0,1,.412-.315c.062-.033.755-.273.65.058-.052.166.208.237.26.072Z" transform="translate(-536.202 -534.781)" fill="#0fbf89"/>
        </g>
      </g>
      <g id="Group_919" data-name="Group 919" transform="translate(24.903 42.218)">
        <g id="Group_918" data-name="Group 918">
          <path id="Path_549" data-name="Path 549" d="M529.639,534.379a.836.836,0,0,0-1.047-.471c-.574.178-.835.829-1,1.347a18.673,18.673,0,0,1-.726,2.516A2.156,2.156,0,0,1,525,539.12a2.856,2.856,0,0,1-1.169-.543,2.308,2.308,0,0,0-.816-.272,2.53,2.53,0,0,0-1.675.371,2.618,2.618,0,0,0-1,1.323,5.6,5.6,0,0,1-.877,1.975,2.173,2.173,0,0,1-2.408.3c-.782-.32-1.822-1.258-1.287-2.183a.135.135,0,0,0-.233-.136c-.653,1.128.568,2.263,1.551,2.621a2.275,2.275,0,0,0,3.041-1.156,10.626,10.626,0,0,1,.8-1.982,2.2,2.2,0,0,1,2.074-.859c.742.1,1.25.775,2,.815a2.121,2.121,0,0,0,1.6-.748,4.746,4.746,0,0,0,.982-2.253,9.849,9.849,0,0,1,.377-1.357,1.608,1.608,0,0,1,.529-.772.6.6,0,0,1,.9.191c.064.159.324.09.26-.072Z" transform="translate(-515.342 -533.866)" fill="#faad00"/>
        </g>
      </g>
      <g id="Group_921" data-name="Group 921" transform="translate(70.196 33.386)">
        <g id="Group_920" data-name="Group 920">
          <path id="Path_550" data-name="Path 550" d="M1019.79,447c-.387-.96,1.369-.882,1.844-1.11a1.464,1.464,0,0,0,.769-1.167c.1-.707-.169-1.4-.116-2.109a2.316,2.316,0,0,1,.886-1.764c.662-.437,1.37-.036,2.083-.063a1.4,1.4,0,0,0,1.206-.792c.658-1.248-.462-3.269.872-4.174.143-.1.008-.33-.136-.233-.943.639-.81,1.817-.754,2.811a2.227,2.227,0,0,1-.524,1.865c-.581.513-1.356.087-2.026.1a1.939,1.939,0,0,0-1.727,1.481,3.277,3.277,0,0,0-.134,1.382,3.208,3.208,0,0,1-.089,2.035c-.411.688-1.272.416-1.885.735a.884.884,0,0,0-.529,1.078c.064.159.325.09.26-.072Z" transform="translate(-1019.477 -435.57)" fill="#faad00"/>
        </g>
      </g>
      <g id="Group_923" data-name="Group 923" transform="translate(69.858 33.809)">
        <g id="Group_922" data-name="Group 922">
          <path id="Path_551" data-name="Path 551" d="M1015.978,451.426a.887.887,0,0,1,.9-.422c.36.062.524.35.787.564a.986.986,0,0,0,1.277-.128,2.9,2.9,0,0,0,.952-1.218,4.39,4.39,0,0,0,.231-1.607,1.518,1.518,0,0,1,.267-.96,1.692,1.692,0,0,1,1.01-.439,1.561,1.561,0,0,0,1.135-.659.923.923,0,0,0-.3-1.1c-.485-.433-1.161-.521-1.514-1.118-.9-1.52.463-3.037,1.681-3.808.146-.093.011-.326-.136-.233a3.97,3.97,0,0,0-2.061,2.675,2.447,2.447,0,0,0,.227,1.4,2.347,2.347,0,0,0,1.161,1c.393.2.972.585.668,1.1a1.321,1.321,0,0,1-.933.494,1.7,1.7,0,0,0-1.266.694,3.384,3.384,0,0,0-.221,1.55,2.646,2.646,0,0,1-.908,1.9,1.609,1.609,0,0,1-.608.373c-.38.077-.529-.155-.747-.371a1.135,1.135,0,0,0-1.84.186c-.09.148.142.284.233.136Z" transform="translate(-1015.724 -440.271)" fill="#0fbf89"/>
        </g>
      </g>
      <g id="Group_924" data-name="Group 924" transform="translate(5.317 18.457)">
        <path id="Path_552" data-name="Path 552" d="M298.666,272.044a1.325,1.325,0,1,1,1.325-1.325A1.327,1.327,0,0,1,298.666,272.044Zm0-2.381a1.056,1.056,0,1,0,1.056,1.056A1.057,1.057,0,0,0,298.666,269.664Z" transform="translate(-297.341 -269.394)" fill="#0fbf89"/>
      </g>
      <g id="Group_925" data-name="Group 925" transform="translate(13.764 50.014)">
        <path id="Path_553" data-name="Path 553" d="M392.6,623.121a1.237,1.237,0,1,1,1.237-1.237A1.239,1.239,0,0,1,392.6,623.121Zm0-2.2a.968.968,0,1,0,.967.968A.969.969,0,0,0,392.6,620.916Z" transform="translate(-391.359 -620.647)" fill="#0fbf89"/>
      </g>
      <g id="Group_926" data-name="Group 926" transform="translate(78.623 2.986)">
        <path id="Path_554" data-name="Path 554" d="M1114.519,99.679a1.243,1.243,0,1,1,1.243-1.243A1.244,1.244,0,0,1,1114.519,99.679Zm0-2.216a.973.973,0,1,0,.973.973A.974.974,0,0,0,1114.519,97.464Z" transform="translate(-1113.277 -97.194)" fill="#0fbf89"/>
      </g>
      <g id="Group_927" data-name="Group 927" transform="translate(87.371 58.763)">
        <path id="Path_555" data-name="Path 555" d="M1212.484,721.692a1.832,1.832,0,1,1,1.832-1.831A1.834,1.834,0,0,1,1212.484,721.692Zm0-3.393a1.562,1.562,0,1,0,1.562,1.562A1.564,1.564,0,0,0,1212.484,718.3Z" transform="translate(-1210.652 -718.029)" fill="#0fbf89"/>
      </g>
      <g id="Group_928" data-name="Group 928" transform="translate(17.123 55.999)">
        <path id="Path_556" data-name="Path 556" d="M429.889,689.55a1.142,1.142,0,1,1,1.142-1.142A1.144,1.144,0,0,1,429.889,689.55Zm0-2.015a.873.873,0,1,0,.873.873A.874.874,0,0,0,429.889,687.534Z" transform="translate(-428.747 -687.265)" fill="#faad00"/>
      </g>
      <g id="Group_929" data-name="Group 929" transform="translate(70.185 52.209)">
        <path id="Path_557" data-name="Path 557" d="M1020.067,646.5a.711.711,0,1,1,.711-.711A.712.712,0,0,1,1020.067,646.5Zm0-1.153a.442.442,0,1,0,.442.442A.442.442,0,0,0,1020.067,645.348Z" transform="translate(-1019.356 -645.079)" fill="#faad00"/>
      </g>
      <g id="Group_930" data-name="Group 930" transform="translate(69.436 11.26)">
        <path id="Path_558" data-name="Path 558" d="M1012.274,191.8a1.257,1.257,0,1,1,1.257-1.257A1.258,1.258,0,0,1,1012.274,191.8Zm0-2.244a.987.987,0,1,0,.987.987A.989.989,0,0,0,1012.274,189.556Z" transform="translate(-1011.017 -189.286)" fill="#faad00"/>
      </g>
      <g id="Group_931" data-name="Group 931" transform="translate(94.293 14.854)">
        <path id="Path_559" data-name="Path 559" d="M1289.088,232.071a1.39,1.39,0,1,1,1.39-1.39A1.392,1.392,0,0,1,1289.088,232.071Zm0-2.511a1.121,1.121,0,1,0,1.121,1.121A1.122,1.122,0,0,0,1289.088,229.559Z" transform="translate(-1287.698 -229.29)" fill="#faad00"/>
      </g>
      <g id="Group_932" data-name="Group 932" transform="translate(28.886 22.508)">
        <path id="Path_560" data-name="Path 560" d="M560.579,316.289a.9.9,0,1,1,.9-.9A.9.9,0,0,1,560.579,316.289Zm0-1.533a.632.632,0,1,0,.631.632A.632.632,0,0,0,560.579,314.756Z" transform="translate(-559.678 -314.487)" fill="#faad00"/>
      </g>
      <g id="Group_934" data-name="Group 934" transform="translate(61.102 60.012)">
        <g id="Group_933" data-name="Group 933">
          <path id="Path_561" data-name="Path 561" d="M920.274,747.955a6.628,6.628,0,0,1-1.034-1.9,6.5,6.5,0,0,1-.254-1,5.034,5.034,0,0,1-.068-.549,2.05,2.05,0,0,1-.006-.255q-.029-.43.513-.315c.063.146.278.038.246-.1a53.129,53.129,0,0,1-.931-5.512,25.094,25.094,0,0,1-.127-5.552,2.059,2.059,0,0,1,.04-.286q.427-.4.6,0a2.674,2.674,0,0,1,.229.632q.2.672.389,1.346.367,1.307.7,2.624.669,2.677,1.179,5.389c.026.137.224.12.26,0q.471-.029.5.323l.024.134c.036.192.063.387.095.58l.176,1.078c.028.171.287.1.26-.072l-.216-1.327a1.9,1.9,0,0,0-.255-.9.475.475,0,0,0-.841.11h.26q-.472-2.5-1.074-4.964-.3-1.233-.638-2.458a24.584,24.584,0,0,0-.692-2.382c-.125-.324-.406-.766-.816-.653-.5.137-.451.873-.478,1.263a28.159,28.159,0,0,0,.163,5.112,53.742,53.742,0,0,0,.941,5.584l.246-.1a.49.49,0,0,0-.719-.187c-.383.24-.307.812-.261,1.186a6.761,6.761,0,0,0,1.363,3.295c.1.136.338,0,.233-.136Z" transform="translate(-918.255 -731.924)" fill="#e8e8e8"/>
        </g>
      </g>
    </g>
    <g id="wheel_back" data-name="wheel back" transform="translate(277.553 125.075)">
      <g id="Group_935" data-name="Group 935" transform="translate(0)">
        <ellipse id="Ellipse_66" data-name="Ellipse 66" cx="4.472" cy="14.025" rx="4.472" ry="14.025" transform="translate(0.135 0.135)"/>
        <path id="Path_562" data-name="Path 562" d="M681.266,772.55c-1.258,0-2.427-1.492-3.291-4.2a38.326,38.326,0,0,1,0-19.917c.864-2.709,2.033-4.2,3.291-4.2s2.427,1.492,3.291,4.2a38.329,38.329,0,0,1,0,19.917C683.693,771.058,682.524,772.55,681.266,772.55Zm0-28.05c-1.115,0-2.221,1.463-3.034,4.014a38.065,38.065,0,0,0,0,19.753c.813,2.551,1.919,4.014,3.034,4.014s2.221-1.463,3.034-4.014a38.061,38.061,0,0,0,0-19.753C683.487,745.963,682.381,744.5,681.266,744.5Z" transform="translate(-676.659 -744.23)" fill="#161616"/>
      </g>
      <g id="Group_936" data-name="Group 936" transform="translate(0.708 2.073)">
        <ellipse id="Ellipse_67" data-name="Ellipse 67" cx="3.741" cy="12.199" rx="3.741" ry="12.199" transform="translate(0.135 0.135)" fill="#fff"/>
        <path id="Path_563" data-name="Path 563" d="M688.419,791.968c-2.173,0-3.876-5.418-3.876-12.334s1.7-12.334,3.876-12.334,3.876,5.418,3.876,12.334S690.592,791.968,688.419,791.968Zm0-24.4c-.921,0-1.839,1.268-2.516,3.478a34.37,34.37,0,0,0,0,17.174c.678,2.21,1.595,3.478,2.516,3.478s1.839-1.268,2.517-3.478a34.374,34.374,0,0,0,0-17.174C690.258,768.837,689.34,767.569,688.419,767.569Z" transform="translate(-684.543 -767.3)" fill="#161616"/>
      </g>
      <g id="Group_938" data-name="Group 938" transform="translate(4.102 2.262)">
        <g id="Group_937" data-name="Group 937">
          <path id="Path_564" data-name="Path 564" d="M722.318,769.541v24.238a.135.135,0,0,0,.27,0V769.541a.135.135,0,0,0-.27,0Z" transform="translate(-722.318 -769.411)" fill="#161616"/>
        </g>
      </g>
      <g id="Group_940" data-name="Group 940" transform="translate(0.667 14.337)">
        <g id="Group_939" data-name="Group 939">
          <path id="Path_565" data-name="Path 565" d="M684.213,904.078h7.039a.135.135,0,0,0,0-.27h-7.039a.135.135,0,0,0,0,.27Z" transform="translate(-684.082 -903.808)" fill="#161616"/>
        </g>
      </g>
      <g id="Group_942" data-name="Group 942" transform="translate(0.916 8.221)">
        <g id="Group_941" data-name="Group 941">
          <path id="Path_566" data-name="Path 566" d="M687.1,848.7q3.252-6.5,6.939-12.763a.135.135,0,0,0-.233-.136q-3.685,6.262-6.94,12.763c-.077.155.155.291.233.136Z" transform="translate(-686.854 -835.733)" fill="#161616"/>
        </g>
      </g>
      <g id="Group_944" data-name="Group 944" transform="translate(0.766 8.204)">
        <g id="Group_943" data-name="Group 943">
          <path id="Path_567" data-name="Path 567" d="M685.2,835.749l6.728,13.956c.075.156.308.02.233-.136l-6.728-13.956c-.075-.156-.308-.02-.233.136Z" transform="translate(-685.187 -835.544)" fill="#161616"/>
        </g>
      </g>
    </g>
    <g id="leg_left" data-name="leg left" transform="translate(285.318 102.509)">
      <g id="Group_945" data-name="Group 945" transform="translate(2.01 40.82)">
        <path id="Path_568" data-name="Path 568" d="M786.536,948c-.243.368-.029.612-.292,1.533-.285,1-.639,1.075-.755,1.853a4.123,4.123,0,0,0,.2,1.631c.253,1.072.438,1.061.726,2.168a7.347,7.347,0,0,1,.348,2.11c-.006.548-.086.725.046,1.052a2.148,2.148,0,0,0,1.371,1.064,2.919,2.919,0,0,0,1.714.015,20.681,20.681,0,0,0-.165-2.085c-.11-.847-.222-1.3-.325-1.911a18.95,18.95,0,0,1-.239-3.155,24.866,24.866,0,0,1,.4-4.756C787.515,947.209,786.8,947.591,786.536,948Z" transform="translate(-785.464 -947.404)"/>
      </g>
      <g id="Group_946" data-name="Group 946">
        <path id="Path_569" data-name="Path 569" d="M771.78,494.1c.067,1.8.132,4.469.082,7.709-.031,2.021-.093,3.378-.255,6.777-.6,12.506-.621,12.328-.585,13.192a83.557,83.557,0,0,1,.31,9.573c-.076,1.627-.2,2.966-.306,3.868a5.636,5.636,0,0,1-2.114.562,6.18,6.18,0,0,1-4.286-1.524c-.1-1.71-.2-3.869-.26-6.368-.123-4.93-.038-8.82.022-10.817.124-4.146.414-9.246,1.051-15.1-2.059-1.682-2.834-4.276-2.04-6.132C764.462,493.353,768.423,491.978,771.78,494.1Z" transform="translate(-763.094 -493.053)" fill="#fff"/>
      </g>
      <g id="Group_947" data-name="Group 947" transform="translate(4.565 0.777)" opacity="0.2">
        <path id="Path_570" data-name="Path 570" d="M817.566,501.7c-.27,1.236-.653,3.128-.99,5.453a78.648,78.648,0,0,0-.8,13,151.991,151.991,0,0,1-1.876,23.319,6.278,6.278,0,0,0,3.444-.375,75.83,75.83,0,0,0,.26-7.732c-.042-2.469-.175-3.341-.237-5.836-.028-1.138-.046-2.8.234-8.842.354-7.607.53-8.129.5-11.015A68.6,68.6,0,0,0,817.566,501.7Z" transform="translate(-813.905 -501.696)" fill="#adadad"/>
      </g>
      <g id="Group_949" data-name="Group 949" transform="translate(7.803 1.022)">
        <g id="Group_948" data-name="Group 948">
          <path id="Path_571" data-name="Path 571" d="M850.512,504.558c.974,10.659-.994,21.31-.471,31.978a49.042,49.042,0,0,1-.014,9.012c-.023.169.237.243.26.072a41.781,41.781,0,0,0,.088-7.862c-.144-2.691-.2-5.376-.125-8.07.143-5.34.633-10.665.772-16.005a78,78,0,0,0-.239-9.123c-.016-.171-.285-.173-.27,0Z" transform="translate(-849.951 -504.429)" fill="#161616"/>
        </g>
      </g>
      <g id="Group_951" data-name="Group 951" transform="translate(1.023 7.267)">
        <g id="Group_950" data-name="Group 950">
          <path id="Path_572" data-name="Path 572" d="M774.515,574.066a12.718,12.718,0,0,0,.726,2.591,10.811,10.811,0,0,1-.021,3.276c-.157,2.252-.3,4.505-.421,6.76-.238,4.506-.373,9.019-.3,13.531q.065,3.827.354,7.645c.013.172.283.173.27,0a186.505,186.505,0,0,1,.3-27.047,23.734,23.734,0,0,0,.178-3.58c-.1-1.108-.785-2.063-.822-3.176-.006-.173-.275-.174-.27,0Z" transform="translate(-774.483 -573.936)" fill="#161616"/>
        </g>
      </g>
      <g id="Group_953" data-name="Group 953" transform="translate(1.516 41.178)">
        <g id="Group_952" data-name="Group 952">
          <path id="Path_573" data-name="Path 573" d="M780.025,951.647a6.717,6.717,0,0,0,6.424.845c.159-.068.022-.3-.136-.233a6.454,6.454,0,0,1-6.151-.845c-.145-.1-.281.137-.136.233Z" transform="translate(-779.963 -951.391)" fill="#161616"/>
        </g>
      </g>
      <g id="Group_955" data-name="Group 955" transform="translate(5.576 42.594)">
        <g id="Group_954" data-name="Group 954">
          <path id="Path_574" data-name="Path 574" d="M825.272,967.284a27.9,27.9,0,0,0,.772,9.4.135.135,0,0,0,.26-.072,27.678,27.678,0,0,1-.763-9.332c.015-.173-.254-.172-.269,0Z" transform="translate(-825.164 -967.155)" fill="#161616"/>
        </g>
      </g>
      <g id="Group_957" data-name="Group 957" transform="translate(1.882 42.201)">
        <g id="Group_956" data-name="Group 956">
          <path id="Path_575" data-name="Path 575" d="M784.913,962.906a6.281,6.281,0,0,1-.721,1.967,3.179,3.179,0,0,0,.024,2.019c.4,1.455,1.151,2.847,1.112,4.391a2.06,2.06,0,0,0,.32,1.551,2.919,2.919,0,0,0,1.329.739,1.79,1.79,0,0,0,1.617.018.77.77,0,0,0,.225-1.047c-.1-.142-.332-.007-.233.136.308.444-.222.815-.627.831a2.723,2.723,0,0,1-.911-.2,2.393,2.393,0,0,1-1.268-.75c-.353-.5-.153-1.179-.192-1.751a7.206,7.206,0,0,0-.311-1.57,14.581,14.581,0,0,1-.979-3.367c-.049-1.089.85-1.894.884-2.968.006-.173-.264-.173-.27,0Z" transform="translate(-784.037 -962.775)" fill="#161616"/>
        </g>
      </g>
    </g>
    <g id="leg_right" data-name="leg right" transform="translate(278.344 101.296)">
      <g id="Group_958" data-name="Group 958" transform="translate(0.498 23.583)">
        <path id="Path_576" data-name="Path 576" d="M693.594,743.239c-.646.634-.3.809-1.432,3.413-.8,1.839-1.276,2.447-1.125,3.521a8.08,8.08,0,0,0,.483,1.626c.268.688.367.723.759,1.567.71,1.527.609,1.893,1.157,2.387a2.917,2.917,0,0,0,1.328.641c.782.2,2.188.292,2.5-.3.285-.537-.348-1.641-1.641-2.563.006-.521,0-1.33-.044-2.322-.093-1.933-.257-2.437-.032-3.384a11.193,11.193,0,0,1,1.037-2.205c1.351-2.671,1.424-2.92,1.294-3.136C697.437,741.758,694.955,741.9,693.594,743.239Z" transform="translate(-691.01 -742.052)"/>
      </g>
      <g id="Group_959" data-name="Group 959" transform="translate(0.101)">
        <path id="Path_577" data-name="Path 577" d="M690.229,480.256c-.38.494-.219.993-.779,2.2a17.011,17.011,0,0,1-1.068,1.684,7.814,7.814,0,0,0-.959,3.957,8.771,8.771,0,0,0,.559,2.6,18.412,18.412,0,0,0,2.6,4.958q-.621,1.459-1.346,2.983c-.863,1.81-1.753,3.5-2.645,5.06a4.685,4.685,0,0,0,.979,1.354,5.735,5.735,0,0,0,3.656,1.38,5.582,5.582,0,0,0,3.164-.436,4.725,4.725,0,0,0,.776-.482c.52-1.808,1.035-3.238,1.4-4.191a37.188,37.188,0,0,0,2.155-6.769,5.3,5.3,0,0,0,.067-1.795,6.345,6.345,0,0,0-1.334-2.855,43.759,43.759,0,0,1-2.373-3.9,10.569,10.569,0,0,1-1-6.256C691.565,479.283,690.623,479.744,690.229,480.256Z" transform="translate(-686.587 -479.557)" fill="#fff"/>
      </g>
      <g id="Group_960" data-name="Group 960" transform="translate(0.101 9.029)" opacity="0.16">
        <path id="Path_578" data-name="Path 578" d="M687.461,580.055q.417.829.923,1.694a29.94,29.94,0,0,0,3.651,4.955c-.227.984-.468,1.785-.652,2.347a26.994,26.994,0,0,1-2.739,5.868c-.434.7-.821,1.246-1.079,1.6l-.979-1.354q.752-1.549,1.537-3.116,1.3-2.593,2.608-5.086a19.248,19.248,0,0,1-3.271-6.91Z" transform="translate(-686.587 -580.055)" fill="#adadad"/>
      </g>
      <g id="Group_962" data-name="Group 962" transform="translate(0.803 0.565)">
        <g id="Group_961" data-name="Group 961">
          <path id="Path_579" data-name="Path 579" d="M697.222,485.909a32.1,32.1,0,0,0-1.8,3.754,12.02,12.02,0,0,0-1.023,3.99,7.678,7.678,0,0,0,1.024,3.785c.691,1.348,1.429,2.673,2.145,4.007.082.153.315.017.233-.136-.665-1.239-1.338-2.473-1.994-3.717a7.825,7.825,0,0,1-1.138-3.938,11.84,11.84,0,0,1,1.014-3.918,31.49,31.49,0,0,1,1.77-3.689.135.135,0,0,0-.233-.136Z" transform="translate(-694.398 -485.843)" fill="#161616"/>
        </g>
      </g>
      <g id="Group_964" data-name="Group 964" transform="translate(0 15.876)">
        <g id="Group_963" data-name="Group 963">
          <path id="Path_580" data-name="Path 580" d="M689.519,656.361c-.922,2.685-2.746,4.917-3.892,7.5a1.13,1.13,0,0,0,.117,1.336,6.024,6.024,0,0,0,1.206,1.211,6.09,6.09,0,0,0,3.241,1.224,6.193,6.193,0,0,0,4.017-1.162c.14-.1.005-.334-.136-.233a5.854,5.854,0,0,1-8.177-1.288c-.318-.487-.065-.9.159-1.373.178-.372.369-.737.568-1.1.373-.679.773-1.342,1.167-2.009a22.164,22.164,0,0,0,1.991-4.033c.056-.164-.2-.235-.26-.072Z" transform="translate(-685.463 -656.269)" fill="#161616"/>
        </g>
      </g>
      <g id="Group_966" data-name="Group 966" transform="translate(8.455 6.319)">
        <g id="Group_965" data-name="Group 965">
          <path id="Path_581" data-name="Path 581" d="M779.592,550.086c.919,1.51,1.844,3.016,2.758,4.53a6.147,6.147,0,0,1,.931,2.166,6.3,6.3,0,0,1-.308,2.735c-.475,1.628-1.061,3.229-1.6,4.837L779.7,569.4c-.055.165.205.236.26.072l1.737-5.213c.569-1.707,1.241-3.415,1.675-5.161a6.1,6.1,0,0,0,.2-2.221,5.86,5.86,0,0,0-.9-2.257c-.934-1.563-1.894-3.111-2.841-4.667-.09-.148-.323-.013-.233.136Z" transform="translate(-779.572 -549.886)" fill="#161616"/>
        </g>
      </g>
      <g id="Group_968" data-name="Group 968" transform="translate(0.393 26.336)">
        <g id="Group_967" data-name="Group 967">
          <path id="Path_582" data-name="Path 582" d="M691.72,772.781l-1.11,2.892a6.086,6.086,0,0,0-.756,2.712,8.437,8.437,0,0,0,1.021,2.475l1.38,2.847c.076.156.308.019.233-.136l-1.226-2.531a9.25,9.25,0,0,1-1.137-2.692,6.491,6.491,0,0,1,.809-2.769l1.047-2.727c.062-.162-.2-.232-.26-.072Z" transform="translate(-689.839 -772.69)" fill="#161616"/>
        </g>
      </g>
      <g id="Group_970" data-name="Group 970" transform="translate(4.825 27.019)">
        <g id="Group_969" data-name="Group 969">
          <path id="Path_583" data-name="Path 583" d="M740.324,780.336c-1.446,1.482-1.169,3.682-1.052,5.569a7.482,7.482,0,0,0,.384,2.827c.382.764,1.219,1.194,1.524,2,.061.161.321.091.26-.072a5.393,5.393,0,0,0-1.189-1.545,4.509,4.509,0,0,1-.687-2.862c-.117-1.893-.512-4.23.951-5.731.121-.124-.069-.315-.191-.191Z" transform="translate(-739.171 -780.295)" fill="#161616"/>
        </g>
      </g>
      <g id="Group_972" data-name="Group 972" transform="translate(2.851 37.173)">
        <g id="Group_971" data-name="Group 971">
          <path id="Path_584" data-name="Path 584" d="M717.23,893.547a1.814,1.814,0,0,0,.917.525,4.908,4.908,0,0,0,1.444.271c.413,0,1.78-.141,1.692-.767-.024-.171-.284-.1-.26.072s-.74.354-.887.382a3.064,3.064,0,0,1-1,0,2.8,2.8,0,0,1-1.713-.677c-.109-.135-.3.057-.191.191Z" transform="translate(-717.198 -893.311)" fill="#161616"/>
        </g>
      </g>
    </g>
    <g id="bicycle_front" data-name="bicycle front" transform="translate(277.154 104.844)">
      <g id="Group_973" data-name="Group 973" transform="translate(2.512 33.911)">
        <path id="Path_585" data-name="Path 585" d="M711.406,899.392l-5.924.414-1.47-1.195,6.34-.551Z" transform="translate(-703.669 -897.92)" fill="#fff"/>
        <path id="Path_586" data-name="Path 586" d="M701.959,898.52l-1.77-1.438,6.745-.587,1.258,1.59Zm-1.083-1.227,1.171.951,5.616-.392-.851-1.075Z" transform="translate(-700.189 -896.496)" fill="#161616"/>
      </g>
      <g id="Group_974" data-name="Group 974" transform="translate(7.351 0.219)">
        <path id="Path_587" data-name="Path 587" d="M754.78,523.843l1.785-.137q2.189,1.122,4.388,2.268l1.7.886v28.179l1.592-1.816q-.1-13.12-.2-26.24l5.718-2.361,3.483.785-.593-2.557-.814-.244-8.121,2.767a38.638,38.638,0,0,0-7.982-3.421q-.852-.256-1.678-.462Z" transform="translate(-754.051 -521.49)" fill="#fff"/>
      </g>
      <g id="Group_975" data-name="Group 975" transform="translate(0.084 0.134)">
        <path id="Path_588" data-name="Path 588" d="M673.207,521.913a1.344,1.344,0,0,0,.146,1.053c.407.554,1.362.47,1.83.431,1.589-.133,3.835-.278,6.659-.472l-1-2.386q-1,.212-2.024.411Q675.945,521.508,673.207,521.913Z" transform="translate(-673.164 -520.538)"/>
      </g>
      <g id="Group_976" data-name="Group 976" transform="translate(24.858 1.32)">
        <path id="Path_589" data-name="Path 589" d="M949.253,533.741q-.174,1.219-.348,2.437c.844.217,1.739.422,2.683.6,1.233.239,2.406.413,3.506.539l.643-1.314Z" transform="translate(-948.905 -533.741)"/>
      </g>
      <g id="Group_978" data-name="Group 978" transform="translate(0.011 1.475)">
        <g id="Group_977" data-name="Group 977">
          <path id="Path_590" data-name="Path 590" d="M672.351,535.6a3.029,3.029,0,0,0,.178,1.133c.121.249.344.278.6.314a13.7,13.7,0,0,0,2.925-.009q3.076-.234,6.152-.473c.172-.013.173-.283,0-.27l-5.173.4c-.822.063-1.646.145-2.471.158a9.576,9.576,0,0,1-1.224-.048c-.384-.043-.5-.059-.629-.439a2.722,2.722,0,0,1-.087-.764c-.007-.173-.277-.174-.269,0Z" transform="translate(-672.351 -535.468)" fill="#161616"/>
        </g>
      </g>
      <g id="Group_980" data-name="Group 980" transform="translate(9.809 2.312)">
        <g id="Group_979" data-name="Group 979">
          <path id="Path_591" data-name="Path 591" d="M781.477,545.031q3.312,1.788,6.691,3.446c.155.076.292-.156.136-.233q-3.379-1.658-6.691-3.446c-.153-.083-.289.15-.136.233Z" transform="translate(-781.41 -544.78)" fill="#161616"/>
        </g>
      </g>
      <g id="Group_982" data-name="Group 982" transform="translate(0 0)">
        <g id="Group_981" data-name="Group 981">
          <path id="Path_592" data-name="Path 592" d="M672.353,520.691q3.863-.517,7.667-1.379c.169-.038.1-.3-.072-.26q-3.766.855-7.6,1.37c-.169.023-.172.292,0,.27Z" transform="translate(-672.225 -519.048)" fill="#161616"/>
        </g>
      </g>
      <g id="Group_984" data-name="Group 984" transform="translate(7.7 0.03)">
        <g id="Group_983" data-name="Group 983">
          <path id="Path_593" data-name="Path 593" d="M758,519.625l8.665,3.8c.157.069.295-.163.136-.233l-8.665-3.8c-.157-.069-.295.163-.136.233Z" transform="translate(-757.931 -519.38)" fill="#161616"/>
        </g>
      </g>
      <g id="Group_986" data-name="Group 986" transform="translate(22.924 3.217)">
        <g id="Group_985" data-name="Group 985">
          <path id="Path_594" data-name="Path 594" d="M935.986,555.287c-.057.327-.118,1.023-.484,1.121a3.084,3.084,0,0,1-1.041-.045,23.19,23.19,0,0,1-2.375-.477l-4.539-1.023c-.169-.038-.241.222-.072.26,1.8.406,3.6.817,5.407,1.219a10.177,10.177,0,0,0,2.445.34c.254-.007.468-.009.614-.24a3.109,3.109,0,0,0,.3-1.084c.029-.17-.23-.243-.26-.072Z" transform="translate(-927.379 -554.86)" fill="#161616"/>
        </g>
      </g>
      <g id="Group_988" data-name="Group 988" transform="translate(16.548 3.223)">
        <g id="Group_987" data-name="Group 987">
          <path id="Path_595" data-name="Path 595" d="M862.784,554.93q-3.112,1.369-6.278,2.608c-.16.063-.09.323.072.26q3.2-1.252,6.343-2.635c.159-.07.021-.3-.136-.233Z" transform="translate(-856.416 -554.917)" fill="#161616"/>
        </g>
      </g>
      <g id="Group_990" data-name="Group 990" transform="translate(25.08 1.18)">
        <g id="Group_989" data-name="Group 989">
          <path id="Path_596" data-name="Path 596" d="M958.024,534.455a67.977,67.977,0,0,1-6.484-2.267c-.16-.065-.23.2-.072.26a67.953,67.953,0,0,0,6.484,2.267.135.135,0,0,0,.072-.26Z" transform="translate(-951.378 -532.178)" fill="#161616"/>
        </g>
      </g>
      <g id="Group_992" data-name="Group 992" transform="translate(16.92 1.198)">
        <g id="Group_991" data-name="Group 991">
          <path id="Path_597" data-name="Path 597" d="M868.737,532.387l-8.084,2.739c-.163.055-.093.316.072.26l8.084-2.739c.163-.055.093-.316-.072-.26Z" transform="translate(-860.561 -532.379)" fill="#161616"/>
        </g>
      </g>
      <g id="Group_994" data-name="Group 994" transform="translate(15.814 5.459)">
        <g id="Group_993" data-name="Group 993">
          <path id="Path_598" data-name="Path 598" d="M848.244,579.935v34.593a.135.135,0,0,0,.27,0V579.935a.135.135,0,0,0-.27,0Z" transform="translate(-848.244 -579.805)" fill="#161616"/>
        </g>
      </g>
      <g id="Group_996" data-name="Group 996" transform="translate(15.347 40.007)">
        <g id="Group_995" data-name="Group 995">
          <path id="Path_599" data-name="Path 599" d="M843.427,964.407a1.988,1.988,0,0,0-.363,1.384c.032.281.148.855.509.9.415.052.564-.547.605-.844a2,2,0,0,0-.335-1.394c-.1-.143-.33-.009-.233.136a1.761,1.761,0,0,1,.312.852c.009.121-.038,1.145-.445.836-.183-.139-.172-.694-.151-.892a1.759,1.759,0,0,1,.332-.842c.1-.142-.133-.277-.233-.136Z" transform="translate(-843.051 -964.348)" fill="#161616"/>
        </g>
      </g>
      <g id="Group_997" data-name="Group 997" transform="translate(10.184 23.078)">
        <ellipse id="Ellipse_68" data-name="Ellipse 68" cx="5.629" cy="17.654" rx="5.629" ry="17.654" transform="translate(0.135 0.135)"/>
        <path id="Path_600" data-name="Path 600" d="M791.348,811.494c-1.567,0-3.027-1.87-4.109-5.265a48.21,48.21,0,0,1,0-25.048c1.083-3.395,2.542-5.265,4.109-5.265s3.027,1.87,4.109,5.265a48.214,48.214,0,0,1,0,25.048C794.375,809.624,792.915,811.494,791.348,811.494Zm0-35.308c-1.419,0-2.823,1.85-3.852,5.077a47.945,47.945,0,0,0,0,24.885c1.029,3.227,2.433,5.077,3.852,5.077s2.823-1.85,3.852-5.077a47.95,47.95,0,0,0,0-24.885C794.172,778.036,792.768,776.186,791.348,776.186Z" transform="translate(-785.584 -775.916)" fill="#161616"/>
      </g>
      <g id="Group_998" data-name="Group 998" transform="translate(11.076 25.687)">
        <ellipse id="Ellipse_69" data-name="Ellipse 69" cx="4.709" cy="15.356" rx="4.709" ry="15.356" transform="translate(0.135 0.135)" fill="#fff"/>
        <path id="Path_601" data-name="Path 601" d="M800.353,835.937c-1.322,0-2.55-1.631-3.459-4.593a43.562,43.562,0,0,1,0-21.8c.908-2.962,2.137-4.593,3.459-4.593s2.55,1.631,3.459,4.593a43.564,43.564,0,0,1,0,21.8C802.9,834.306,801.675,835.937,800.353,835.937Zm0-30.712c-1.176,0-2.343,1.6-3.2,4.4a43.3,43.3,0,0,0,0,21.638c.858,2.8,2.025,4.4,3.2,4.4s2.343-1.6,3.2-4.4a43.3,43.3,0,0,0,0-21.638C802.7,806.829,801.529,805.224,800.353,805.224Z" transform="translate(-795.509 -804.955)" fill="#161616"/>
      </g>
      <g id="Group_999" data-name="Group 999" transform="translate(7.798 30.976)">
        <ellipse id="Ellipse_70" data-name="Ellipse 70" cx="1.863" cy="3.813" rx="1.863" ry="3.813" transform="translate(0.135 0.135)"/>
        <path id="Path_602" data-name="Path 602" d="M761.015,871.727c-1.121,0-2-1.734-2-3.948s.878-3.948,2-3.948,2,1.734,2,3.948S762.136,871.727,761.015,871.727Zm0-7.627c-.937,0-1.729,1.685-1.729,3.679s.792,3.679,1.729,3.679,1.728-1.685,1.728-3.679S761.952,864.1,761.015,864.1Z" transform="translate(-759.017 -863.831)" fill="#161616"/>
      </g>
      <g id="Group_1000" data-name="Group 1000" transform="translate(5.689 34.779)">
        <path id="Path_603" data-name="Path 603" d="M737.053,909.6v4.671l4.073-4.587-.424-.853-2.5,2.87q-.031-1.05-.062-2.1Z" transform="translate(-736.918 -908.595)" fill="#fff"/>
        <path id="Path_604" data-name="Path 604" d="M735.553,912.195v-5.16H736.9l.055,1.887,2.411-2.763.555,1.115Zm.27-4.891v4.181l3.777-4.254-.294-.591-2.6,2.978-.068-2.314Z" transform="translate(-735.553 -906.159)" fill="#161616"/>
      </g>
      <g id="Group_1002" data-name="Group 1002" transform="translate(17.323 5.939)">
        <g id="Group_1001" data-name="Group 1001">
          <path id="Path_605" data-name="Path 605" d="M865.045,585.288V605a.135.135,0,0,0,.27,0v-19.71a.135.135,0,0,0-.27,0Z" transform="translate(-865.045 -585.158)" fill="#161616"/>
        </g>
      </g>
      <g id="Group_1003" data-name="Group 1003" transform="translate(14.891 39.965)">
        <ellipse id="Ellipse_71" data-name="Ellipse 71" cx="0.544" cy="1.167" rx="0.544" ry="1.167" transform="translate(0.045 0.045)" fill="#161616"/>
        <path id="Path_606" data-name="Path 606" d="M838.566,966.308c-.33,0-.589-.532-.589-1.212s.259-1.212.589-1.212.589.533.589,1.212S838.9,966.308,838.566,966.308Zm0-2.335c-.271,0-.5.514-.5,1.122s.229,1.123.5,1.123.5-.514.5-1.123S838.837,963.974,838.566,963.974Z" transform="translate(-837.977 -963.884)" fill="#161616"/>
      </g>
      <g id="Group_1005" data-name="Group 1005" transform="translate(15.433 26.079)">
        <g id="Group_1004" data-name="Group 1004">
          <path id="Path_607" data-name="Path 607" d="M844.008,809.459v30.664a.135.135,0,0,0,.27,0V809.459a.135.135,0,0,0-.27,0Z" transform="translate(-844.008 -809.328)" fill="#161616"/>
        </g>
      </g>
      <g id="Group_1007" data-name="Group 1007" transform="translate(11.517 31.918)">
        <g id="Group_1006" data-name="Group 1006">
          <path id="Path_608" data-name="Path 608" d="M808.741,874.389a136.36,136.36,0,0,1-8.3,15.7c-.091.148.142.284.233.136a136.388,136.388,0,0,0,8.3-15.7c.07-.157-.162-.294-.233-.136Z" transform="translate(-800.422 -874.319)" fill="#161616"/>
        </g>
      </g>
      <g id="Group_1009" data-name="Group 1009" transform="translate(11.613 31.877)">
        <g id="Group_1008" data-name="Group 1008">
          <path id="Path_609" data-name="Path 609" d="M801.5,874.021q3.663,9.313,8.17,18.262c.078.155.311.019.233-.136q-4.487-8.906-8.143-18.2c-.063-.16-.323-.09-.26.072Z" transform="translate(-801.486 -873.859)" fill="#161616"/>
        </g>
      </g>
      <g id="Group_1011" data-name="Group 1011" transform="translate(10.972 40.995)">
        <g id="Group_1010" data-name="Group 1010">
          <path id="Path_610" data-name="Path 610" d="M794.477,975.613h9.955a.135.135,0,0,0,0-.27h-9.955a.135.135,0,0,0,0,.27Z" transform="translate(-794.346 -975.343)" fill="#161616"/>
        </g>
      </g>
    </g>
    <g id="hand_left" data-name="hand left" transform="translate(294.906 83.14)">
      <g id="Group_1012" data-name="Group 1012" transform="translate(0.167 0)">
        <path id="Path_611" data-name="Path 611" d="M872.221,283.984c.048.069.449.635,1.044,1.334.478.561.8.879,1.093,1.191a15.924,15.924,0,0,1,1.77,2.294c.138.659.357,1.64.674,2.82.35,1.3.635,2.164.839,2.819a46.991,46.991,0,0,1,1.282,5.193,2.922,2.922,0,0,1-.879.576c-.456.19-.665.133-.911.364a1.608,1.608,0,0,0-.38.906,4.034,4.034,0,0,0-.092,1.073l.844-.235-1.011,2.176a.56.56,0,0,0,.334.287c.341.076.7-.363,1.051-.813.4-.514.918-1.229,1.5-2.146l-.651,3.151,1.133-.016.905.089a15.079,15.079,0,0,0,.85-1.687c.206-.482.373-.941.509-1.368l-.207,2.488a1.078,1.078,0,0,0,.677-.156,1.453,1.453,0,0,0,.5-1.018,14.828,14.828,0,0,0,.279-1.973c.031-.587.059-1.284.074-2.072l-1.654.144c-.057-.961-.109-1.747-.144-2.277a51.208,51.208,0,0,0-.856-7.44,11.684,11.684,0,0,0-.431-1.574,13.8,13.8,0,0,0-1.366-2.679,31.557,31.557,0,0,0-1.879-2.84,25.067,25.067,0,0,0-3.42-3.794c-.638-.573-1.206-1.021-1.627-1.336C871.985,277.885,871.129,282.413,872.221,283.984Z" transform="translate(-871.671 -277.464)" fill="#fff"/>
      </g>
      <g id="Group_1013" data-name="Group 1013" transform="translate(1.087 6.879)" opacity="0.35">
        <path id="Path_612" data-name="Path 612" d="M882.338,354.031a9.982,9.982,0,0,1,3.422,3.141c.254.742.617,1.87.977,3.267.333,1.293.514,2.234.631,2.817.279,1.388.736,3.413,1.5,6.062l-.625,0c-.288-1.361-.573-2.459-.778-3.2-.626-2.274-1.079-3.34-1.6-5.585-.212-.909-.353-1.658-.437-2.137-.332-.487-.7-.991-1.117-1.505a23.376,23.376,0,0,0-2.4-2.555Z" transform="translate(-881.91 -354.031)" fill="#adadad"/>
      </g>
      <g id="Group_1015" data-name="Group 1015" transform="translate(0.659 0.003)">
        <g id="Group_1014" data-name="Group 1014">
          <path id="Path_613" data-name="Path 613" d="M877.192,277.716a28.627,28.627,0,0,1,8.238,10.96c.068.159.3.022.233-.136a28.792,28.792,0,0,0-8.28-11.015c-.133-.109-.325.081-.19.191Z" transform="translate(-877.146 -277.493)" fill="#161616"/>
        </g>
      </g>
      <g id="Group_1017" data-name="Group 1017" transform="translate(0 6.196)">
        <g id="Group_1016" data-name="Group 1016">
          <path id="Path_614" data-name="Path 614" d="M869.853,346.653a26.849,26.849,0,0,1,4.464,4.986c.1.142.332.007.233-.136a27.135,27.135,0,0,0-4.507-5.04c-.13-.113-.322.077-.19.191Z" transform="translate(-869.809 -346.427)" fill="#161616"/>
        </g>
      </g>
      <g id="Group_1019" data-name="Group 1019" transform="translate(4.57 9.892)">
        <g id="Group_1018" data-name="Group 1018">
          <path id="Path_615" data-name="Path 615" d="M920.909,387.663c-.695,1.891.308,3.973.842,5.78q.942,3.189,1.641,6.443c.037.169.3.1.26-.072q-.665-3.082-1.544-6.111c-.282-.967-.61-1.922-.875-2.893a4.977,4.977,0,0,1-.064-3.075c.06-.163-.2-.233-.26-.072Z" transform="translate(-920.673 -387.571)" fill="#161616"/>
        </g>
      </g>
      <g id="Group_1021" data-name="Group 1021" transform="translate(8.968 10.843)">
        <g id="Group_1020" data-name="Group 1020">
          <path id="Path_616" data-name="Path 616" d="M969.627,398.323q.824,5.337,1.2,10.727c.012.172.281.173.269,0q-.377-5.423-1.208-10.8c-.026-.171-.286-.1-.26.072Z" transform="translate(-969.625 -398.154)" fill="#161616"/>
        </g>
      </g>
      <g id="Group_1023" data-name="Group 1023" transform="translate(5.048 22.331)">
        <g id="Group_1022" data-name="Group 1022">
          <path id="Path_617" data-name="Path 617" d="M926.249,528.36a1.1,1.1,0,0,0,.092-.612.828.828,0,0,1,.426-.905,9.34,9.34,0,0,0,1.367-.6c.137-.107-.055-.3-.191-.191-.453.354-1.084.336-1.53.707a.955.955,0,0,0-.335.507c-.078.319.085.65-.063.96-.074.156.158.293.233.136Z" transform="translate(-926.002 -526.019)" fill="#161616"/>
        </g>
      </g>
      <g id="Group_1025" data-name="Group 1025" transform="translate(4.828 21.662)">
        <g id="Group_1024" data-name="Group 1024">
          <path id="Path_618" data-name="Path 618" d="M923.8,523.943l2.14-4.332c.123-.249.164-.306.436-.361a5.315,5.315,0,0,1,.536-.051l1.251-.118,2.5-.237-.135-.135a10.894,10.894,0,0,1-.074,2.072c-.023.171.247.17.27,0a10.924,10.924,0,0,0,.075-2.072.136.136,0,0,0-.135-.135l-2.681.254-1.43.135c-.212.02-.485-.018-.652.117a2.322,2.322,0,0,0-.311.63l-.234.473-.622,1.26-1.167,2.363c-.077.155.156.292.233.136Z" transform="translate(-923.55 -518.575)" fill="#161616"/>
        </g>
      </g>
      <g id="Group_1027" data-name="Group 1027" transform="translate(4.85 24.231)">
        <g id="Group_1026" data-name="Group 1026">
          <path id="Path_619" data-name="Path 619" d="M923.806,550.01c.242.628.946.392,1.284-.01.681-.81,1.239-1.762,1.844-2.63.1-.143-.134-.277-.233-.136l-1.076,1.543c-.163.234-1.239,1.99-1.559,1.161-.062-.16-.322-.091-.26.072Z" transform="translate(-923.796 -547.175)" fill="#161616"/>
        </g>
      </g>
      <g id="Group_1029" data-name="Group 1029" transform="translate(7.087 24.291)">
        <g id="Group_1028" data-name="Group 1028">
          <path id="Path_620" data-name="Path 620" d="M949.3,547.969l-.55,2.52c-.131.6-.088.743.542.807a.957.957,0,0,0,.627-.05c.241-.165.329-.637.426-.888q.455-1.167.846-2.358c.054-.165-.206-.236-.26-.072-.175.529-.357,1.055-.55,1.577-.146.4-.381,1.464-.84,1.538a2.3,2.3,0,0,1-.543-.058c-.075-.086,0-.324.013-.425.045-.281.123-.562.183-.84l.366-1.68c.037-.169-.223-.241-.26-.072Z" transform="translate(-948.689 -547.835)" fill="#161616"/>
        </g>
      </g>
      <g id="Group_1031" data-name="Group 1031" transform="translate(8.367 24.401)">
        <g id="Group_1030" data-name="Group 1030">
          <path id="Path_621" data-name="Path 621" d="M962.995,552.285a.872.872,0,0,0,1.324-.418,26.644,26.644,0,0,0,1-2.641c.061-.163-.2-.233-.26-.072l-.64,1.723c-.192.516-.506,1.731-1.285,1.175-.142-.1-.276.133-.136.233Z" transform="translate(-962.936 -549.063)" fill="#161616"/>
        </g>
      </g>
      <g id="Group_1033" data-name="Group 1033" transform="translate(10.276 23.526)">
        <g id="Group_1032" data-name="Group 1032">
          <path id="Path_622" data-name="Path 622" d="M984.371,540.4l-.189,2.412a.135.135,0,0,0,.1.13,1.086,1.086,0,0,0,1.213-.768,5.379,5.379,0,0,0,.232-1.206l.208-1.476c.024-.17-.236-.243-.26-.072q-.129.912-.257,1.824c-.081.568-.246,1.6-1.064,1.439l.1.13.189-2.412c.014-.173-.256-.172-.27,0Z" transform="translate(-984.182 -539.321)" fill="#161616"/>
        </g>
      </g>
    </g>
    <g id="torso" transform="translate(281.858 81.458)">
      <path id="Path_623" data-name="Path 623" d="M725.05,260.937a12.7,12.7,0,0,1,4.189-1.853,12.342,12.342,0,0,1,5.448-.082,11.676,11.676,0,0,1,3.816,1.613,14.227,14.227,0,0,1,.644,6.686c-.056.35-.071.346-.725,3.383-.5,2.331-.752,3.5-.886,4.189a54.508,54.508,0,0,0-.806,5.961,9.7,9.7,0,0,1-3.947,1.45,8.789,8.789,0,0,1-5.961-1.208,7.886,7.886,0,0,1-1.853-1.692,13.266,13.266,0,0,0,1.008-6.207,29.464,29.464,0,0,0-1.008-4.346A18.461,18.461,0,0,1,725.05,260.937Z" transform="translate(-724.585 -258.74)" fill="#0fbf89"/>
    </g>
    <g id="hand_right" data-name="hand right" transform="translate(274.622 83.133)">
      <g id="Group_1034" data-name="Group 1034" transform="translate(0.157 0.138)">
        <path id="Path_624" data-name="Path 624" d="M653.914,278.915a12.941,12.941,0,0,0-1.392,1.073,16.518,16.518,0,0,0-2.719,3.306c-.261.381-1.091,1.79-2.742,4.594a7.756,7.756,0,0,0-1.237,3.205,4.648,4.648,0,0,0,.047,1.468,5.06,5.06,0,0,0,.966,1.991c1.038,1.48,1.926,2.537,1.926,2.537.6.713,1.434,1.755,2.387,3.108l-.487.363a12.052,12.052,0,0,0,1.112,3.734l.449-.467a5.081,5.081,0,0,1,.051-1.791,5.956,5.956,0,0,1,.474,1.948.7.7,0,0,0,.386.462.64.64,0,0,0,.5-.012c.046.036.369.283.587.159a.5.5,0,0,0,.186-.373,6.271,6.271,0,0,0,.072-1.612c-.066-.478-.149-1.1-.257-1.985a11.776,11.776,0,0,1,.546,1.216,11.941,11.941,0,0,1,.586,2.078.8.8,0,0,0,.478-.32.909.909,0,0,0,.109-.553,6.27,6.27,0,0,0-.138-1.619,3.394,3.394,0,0,0-.441-.878,1.566,1.566,0,0,0,.743.423c.174.041.417.1.528-.035s.03-.439-.1-.617-.239-.192-.514-.344c-.143-.078-.352-.23-.772-.534-.614-.445-.585-.487-.735-.534-.24-.076-.62-.064-1.213.382-.167-.258-.385-.607-.625-1.031a18.013,18.013,0,0,1-1.066-2.176c-.574-1.455-.38-1.841-.919-3.435a13.8,13.8,0,0,0-.808-1.909c.194-.225.472-.561.781-.986a21.675,21.675,0,0,0,1.84-3.32,40.81,40.81,0,0,0,1.772-3.82,3.908,3.908,0,0,0,.324-1.327A4.076,4.076,0,0,0,653.914,278.915Z" transform="translate(-645.79 -278.915)" fill="#fff"/>
      </g>
      <g id="Group_1035" data-name="Group 1035" transform="translate(3.651 1.798)" opacity="0.32">
        <path id="Path_625" data-name="Path 625" d="M689.968,297.394q-.63,1.093-1.254,2.216-2.177,3.917-4.027,7.716c.087.257.221.662.379,1.16,1.053,3.338,1.087,4.414,1.94,5.854a8.319,8.319,0,0,0,1.526,1.875,22.326,22.326,0,0,1-.926-2.067,18.261,18.261,0,0,1-1.2-3.742,5.837,5.837,0,0,0-.739-2.255,4.871,4.871,0,0,0-.37-.528c.262-.326.629-.807,1.029-1.415a28.077,28.077,0,0,0,1.674-3.13,17.509,17.509,0,0,0,1.684-3.647A9.62,9.62,0,0,0,689.968,297.394Z" transform="translate(-684.686 -297.394)" fill="#adadad"/>
      </g>
      <g id="Group_1037" data-name="Group 1037" transform="translate(0.072 0.047)">
        <g id="Group_1036" data-name="Group 1036">
          <path id="Path_626" data-name="Path 626" d="M652.9,277.922a10.289,10.289,0,0,0-2.525,2.373,33.149,33.149,0,0,0-2.152,2.885,33.867,33.867,0,0,0-3.369,6.532c-.063.162.2.232.26.072a33.619,33.619,0,0,1,3.257-6.338,32.407,32.407,0,0,1,2.1-2.841,10.422,10.422,0,0,1,2.569-2.45.135.135,0,0,0-.136-.233Z" transform="translate(-644.846 -277.902)" fill="#161616"/>
        </g>
      </g>
      <g id="Group_1039" data-name="Group 1039" transform="translate(4.319)">
        <g id="Group_1038" data-name="Group 1038">
          <path id="Path_627" data-name="Path 627" d="M695.984,277.617c1.558,1.694.092,4.245-.718,5.928a61.543,61.543,0,0,1-3.128,5.7c-.092.148.142.283.233.136a61.477,61.477,0,0,0,3.49-6.464c.771-1.66,1.781-3.9.314-5.49-.118-.128-.308.063-.191.191Z" transform="translate(-692.117 -277.384)" fill="#161616"/>
        </g>
      </g>
      <g id="Group_1041" data-name="Group 1041" transform="translate(3.523 11.594)">
        <g id="Group_1040" data-name="Group 1040">
          <path id="Path_628" data-name="Path 628" d="M683.381,406.706c.791.081,1.058,1.5,1.253,2.113.24.755.447,1.52.672,2.279a13.049,13.049,0,0,0,1.852,4.13c.1.138.336,0,.233-.136a15.015,15.015,0,0,1-2.073-4.922c-.239-.83-.478-1.662-.786-2.47-.211-.555-.487-1.2-1.151-1.265-.172-.018-.171.252,0,.27Z" transform="translate(-683.252 -406.436)" fill="#161616"/>
        </g>
      </g>
      <g id="Group_1043" data-name="Group 1043" transform="translate(0 11.651)">
        <g id="Group_1042" data-name="Group 1042">
          <path id="Path_629" data-name="Path 629" d="M644.274,407.153c-.7,1.722.311,3.406,1.331,4.747,1.272,1.673,2.56,3.333,3.84,5,.1.136.339,0,.233-.136l-3.541-4.61c-1.066-1.388-2.346-3.091-1.6-4.929.065-.161-.2-.231-.26-.072Z" transform="translate(-644.043 -407.063)" fill="#161616"/>
        </g>
      </g>
      <g id="Group_1045" data-name="Group 1045" transform="translate(4.89 21.265)">
        <g id="Group_1044" data-name="Group 1044">
          <path id="Path_630" data-name="Path 630" d="M699.27,514.1c-.412.28-.911.161-.779.831.187.945.46,1.886.73,2.81.1.333.393,1.007.865.682.207-.143.213-.423.224-.648.023-.492.019-.985.007-1.477a.135.135,0,0,0-.27,0c.006.261.01.521.008.782,0,.169.073.66-.018.782l-.413.2-.083-.191c-.045-.12-.073-.248-.109-.371q-.108-.38-.211-.763-.194-.722-.369-1.449c-.073-.3-.17-.625.163-.8a3.087,3.087,0,0,0,.391-.159c.143-.1.008-.331-.136-.233Z" transform="translate(-698.469 -514.076)" fill="#161616"/>
        </g>
      </g>
      <g id="Group_1047" data-name="Group 1047" transform="translate(6.55 19.948)">
        <g id="Group_1046" data-name="Group 1046">
          <path id="Path_631" data-name="Path 631" d="M717.157,500.642l1.241-.674a1.274,1.274,0,0,1,.755-.253c.307.03.444.225.657.425a1.9,1.9,0,0,0,.755.456c.32.1.626.1.712.483a1.656,1.656,0,0,1-.007.545c-.02.172.25.171.27,0a1.164,1.164,0,0,0-.241-1.066,1.71,1.71,0,0,0-.662-.222,2.126,2.126,0,0,1-.824-.575.929.929,0,0,0-1.054-.281,14.941,14.941,0,0,0-1.738.928c-.152.083-.016.316.136.233Z" transform="translate(-716.954 -499.414)" fill="#161616"/>
        </g>
      </g>
      <g id="Group_1049" data-name="Group 1049" transform="translate(9.055 20.776)">
        <g id="Group_1048" data-name="Group 1048">
          <path id="Path_632" data-name="Path 632" d="M744.861,508.827a4.481,4.481,0,0,1,1,3.709.135.135,0,0,0,.26.072,4.727,4.727,0,0,0-1.031-3.917c-.1-.142-.332-.007-.233.136Z" transform="translate(-744.836 -508.631)" fill="#161616"/>
        </g>
      </g>
      <g id="Group_1051" data-name="Group 1051" transform="translate(6.512 22.226)">
        <g id="Group_1050" data-name="Group 1050">
          <path id="Path_633" data-name="Path 633" d="M716.528,525.795a9.5,9.5,0,0,0,.511,2.087.8.8,0,0,0,.913.5c.165-.055.179-.113.2-.266a4.859,4.859,0,0,0-.013-1.09,9.1,9.1,0,0,0-.437-2.165c-.054-.164-.314-.094-.26.072a8.786,8.786,0,0,1,.451,2.848c0,.208.052.233-.178.273s-.332-.1-.434-.3a2.456,2.456,0,0,1-.177-.6q-.161-.718-.319-1.437c-.038-.169-.3-.1-.26.072Z" transform="translate(-716.524 -524.771)" fill="#161616"/>
        </g>
      </g>
      <g id="Group_1053" data-name="Group 1053" transform="translate(7.995 21.879)">
        <g id="Group_1052" data-name="Group 1052">
          <path id="Path_634" data-name="Path 634" d="M733.094,524.787c.51.319.919-.223.945-.7a9.079,9.079,0,0,0-.119-1.377l-.17-1.674c-.017-.171-.287-.173-.269,0l.179,1.762c.027.264.054.529.08.793.012.119.03.24.03.36,0,.2-.048.912-.54.6-.147-.092-.283.141-.136.233Z" transform="translate(-733.031 -520.906)" fill="#161616"/>
        </g>
      </g>
      <g id="Group_1055" data-name="Group 1055" transform="translate(8.495 21.865)">
        <g id="Group_1054" data-name="Group 1054">
          <path id="Path_635" data-name="Path 635" d="M738.612,520.961a8.267,8.267,0,0,1,.651,1.469c.152.466.2.947.332,1.415.171.623.7.432.834-.094a.135.135,0,0,0-.26-.072q.012.19-.172.105-.187.055-.165-.127a2.469,2.469,0,0,1-.085-.464,8.105,8.105,0,0,0-.225-.834,8.646,8.646,0,0,0-.678-1.533.135.135,0,0,0-.233.136Z" transform="translate(-738.593 -520.758)" fill="#161616"/>
        </g>
      </g>
      <g id="Group_1057" data-name="Group 1057" transform="translate(9.744 21.753)">
        <g id="Group_1056" data-name="Group 1056">
          <path id="Path_636" data-name="Path 636" d="M752.539,519.733a1.487,1.487,0,0,0,.992.381.135.135,0,0,0,0-.27,1.2,1.2,0,0,1-.8-.3c-.13-.114-.321.076-.191.191Z" transform="translate(-752.495 -519.508)" fill="#161616"/>
        </g>
      </g>
    </g>
    <g id="head" transform="translate(284.416 67.079)">
      <g id="Group_1058" data-name="Group 1058" transform="translate(0.164 2.216)">
        <path id="Path_637" data-name="Path 637" d="M756.724,124.551a5.054,5.054,0,0,0-.993,2.245,5.119,5.119,0,0,0-.029,1.578,1.068,1.068,0,0,0-.465,1.839,1.366,1.366,0,0,0,1.12.387q.607,1.533,1.273,3.1.315.741.633,1.467a1.315,1.315,0,0,0,.027,1.144c.27.4.805.426,1.326.453a3.628,3.628,0,0,0,1.564-.274l-.045-1.622a8.4,8.4,0,0,0,2.324-1.212,5.823,5.823,0,0,0,2.417-2.979,5.245,5.245,0,0,0-.345-3.583,6.108,6.108,0,0,0-3.237-3.281C760.558,123.117,758,123.1,756.724,124.551Z" transform="translate(-754.882 -123.354)" fill="#fff"/>
      </g>
      <g id="Group_1059" data-name="Group 1059" transform="translate(5.434 3.97)" opacity="0.3">
        <path id="Path_638" data-name="Path 638" d="M816.023,142.925c-.028.037-.032.115.086.3a10.582,10.582,0,0,1,.345,2.46,9.184,9.184,0,0,1-.388,3.065,8.574,8.574,0,0,1-2.529,3.8l.414.084.043,1.9.57-.275q.038-1.072.077-2.144c.346-.368.909-.952,1.64-1.64a11.406,11.406,0,0,0,2.029-2.029,3.874,3.874,0,0,0,.734-2.72,3.37,3.37,0,0,0-.647-1.468C817.575,143.19,816.179,142.717,816.023,142.925Z" transform="translate(-813.537 -142.877)" fill="#adadad"/>
      </g>
      <g id="Group_1060" data-name="Group 1060" transform="translate(0 0)">
        <path id="Path_639" data-name="Path 639" d="M754.425,105.906a3.889,3.889,0,0,1,.843-3.035,3.631,3.631,0,0,1,3.325-1.247,4.073,4.073,0,0,1,2.521,1.87,5.621,5.621,0,0,1,.958,2.219,1.128,1.128,0,0,1,1.062.414,1.251,1.251,0,0,1-.022,1.29,1.508,1.508,0,0,1-1.1.7,8.781,8.781,0,0,1-.652,1.536,6.39,6.39,0,0,1-1.272,1.734,5.68,5.68,0,0,1-.646.525l0,.912a10.889,10.889,0,0,0,2.086.809c1.328.362,4.515,1.233,7.28-.6a7.763,7.763,0,0,0,3.139-4.946c.229-1.131.549-2.657-.238-3.919-1.146-1.841-3.2-1.016-7.3-2.672-3.645-1.471-4.216-3-6.532-2.791a5.586,5.586,0,0,0-3.8,2.078,6.116,6.116,0,0,0-.641,5.515Z" transform="translate(-753.052 -98.694)" fill="#faad00"/>
      </g>
      <g id="Group_1061" data-name="Group 1061" transform="translate(0.271 9.106)">
        <path id="Path_640" data-name="Path 640" d="M756.731,200.239c-.888.588-.641,2.185-.622,2.3a3.228,3.228,0,0,0,.831,1.663,3.44,3.44,0,0,0,2.4,1.009,2.49,2.49,0,0,0-.035-1.5c-.273-.73-.738-.7-1.181-1.469-.6-1.036-.278-2-.768-2.174A.767.767,0,0,0,756.731,200.239Z" transform="translate(-756.063 -200.045)" fill="#faad00"/>
      </g>
      <g id="Group_1063" data-name="Group 1063" transform="translate(1.202 5.621)">
        <g id="Group_1062" data-name="Group 1062">
          <path id="Path_641" data-name="Path 641" d="M766.441,161.393a11.277,11.277,0,0,0,.849,5.277,5.067,5.067,0,0,0,3.224,2.759c.168.041.24-.218.072-.26a4.844,4.844,0,0,1-3.12-2.753,11.234,11.234,0,0,1-.755-5.023.135.135,0,0,0-.27,0Z" transform="translate(-766.435 -161.263)" fill="#161616"/>
        </g>
      </g>
      <g id="Group_1065" data-name="Group 1065" transform="translate(5.302 6.891)">
        <g id="Group_1064" data-name="Group 1064">
          <path id="Path_642" data-name="Path 642" d="M812.233,182.275a4.973,4.973,0,0,0,2.94-2.71,7.044,7.044,0,0,0,.745-4.046c-.02-.17-.289-.172-.27,0A6.783,6.783,0,0,1,815,179.3a4.8,4.8,0,0,1-2.843,2.713c-.169.039-.1.3.072.26Z" transform="translate(-812.065 -175.39)" fill="#161616"/>
        </g>
      </g>
      <g id="Group_1067" data-name="Group 1067" transform="translate(0.031 7.074)">
        <g id="Group_1066" data-name="Group 1066">
          <path id="Path_643" data-name="Path 643" d="M754.864,179.527a.937.937,0,1,1-.125-1.827c.173.013.172-.257,0-.27a1.206,1.206,0,1,0,.2,2.356c.169-.039.1-.3-.072-.26Z" transform="translate(-753.397 -177.427)" fill="#161616"/>
        </g>
      </g>
      <g id="Group_1069" data-name="Group 1069" transform="translate(8.833 6.992)">
        <g id="Group_1068" data-name="Group 1068">
          <path id="Path_644" data-name="Path 644" d="M851.5,179.092a1.379,1.379,0,0,0,1.37-1.361,1.294,1.294,0,0,0-.224-.961,1.061,1.061,0,0,0-1.032-.209c-.171.028-.1.287.072.26.386-.062.77-.047.887.394a1.5,1.5,0,0,1-.02.763,1.039,1.039,0,0,1-1.053.845c-.173-.011-.173.259,0,.27Z" transform="translate(-851.367 -176.522)" fill="#161616"/>
        </g>
      </g>
      <g id="Group_1071" data-name="Group 1071" transform="translate(3.381 12.641)">
        <g id="Group_1070" data-name="Group 1070">
          <path id="Path_645" data-name="Path 645" d="M790.688,239.522l.032,1.374a4.905,4.905,0,0,0,.03,1.1c.059.21.2.243.4.3a6.923,6.923,0,0,0,1.068.231c.432.054,1.349.116,1.637-.322.148-.225.056-.583.044-.833l-.067-1.405c-.008-.173-.278-.174-.27,0a15.842,15.842,0,0,1,.084,1.756c-.013.2.014.323-.185.43a1.594,1.594,0,0,1-.529.126,3.344,3.344,0,0,1-.918-.054,4.093,4.093,0,0,1-.792-.189c-.31-.126-.218-.422-.225-.718l-.042-1.8a.135.135,0,0,0-.27,0Z" transform="translate(-790.687 -239.392)" fill="#161616"/>
        </g>
      </g>
      <g id="Group_1073" data-name="Group 1073" transform="translate(4.913 4.816)">
        <g id="Group_1072" data-name="Group 1072">
          <path id="Path_646" data-name="Path 646" d="M807.755,156.114a12.792,12.792,0,0,0,.811,1.377.136.136,0,0,0,.251-.068l-.134-4.994a.135.135,0,0,0-.27,0l.134,4.994.251-.068a12.8,12.8,0,0,1-.811-1.377c-.079-.155-.311-.018-.233.136Z" transform="translate(-807.739 -152.298)" fill="#161616"/>
        </g>
      </g>
      <g id="Group_1075" data-name="Group 1075" transform="translate(4.993 9.708)">
        <g id="Group_1074" data-name="Group 1074">
          <path id="Path_647" data-name="Path 647" d="M808.721,208.335a1.682,1.682,0,0,0,2-1.413c.025-.17-.235-.243-.26-.072a1.417,1.417,0,0,1-1.671,1.225c-.17-.03-.242.23-.072.26Z" transform="translate(-808.624 -206.752)" fill="#161616"/>
        </g>
      </g>
      <g id="Group_1077" data-name="Group 1077" transform="translate(3.106 8.882)">
        <g id="Group_1076" data-name="Group 1076">
          <path id="Path_648" data-name="Path 648" d="M787.749,197.822a.135.135,0,0,0,0-.27.135.135,0,0,0,0,.27Z" transform="translate(-787.618 -197.552)" fill="#161616"/>
        </g>
      </g>
      <g id="Group_1079" data-name="Group 1079" transform="translate(4.134 8.676)">
        <g id="Group_1078" data-name="Group 1078">
          <path id="Path_649" data-name="Path 649" d="M799.191,195.534a.135.135,0,0,0,0-.27.135.135,0,0,0,0,.27Z" transform="translate(-799.061 -195.264)" fill="#161616"/>
        </g>
      </g>
      <g id="Group_1081" data-name="Group 1081" transform="translate(3.969 9.498)">
        <g id="Group_1080" data-name="Group 1080">
          <path id="Path_650" data-name="Path 650" d="M797.36,204.687a.135.135,0,0,0,0-.27.135.135,0,0,0,0,.27Z" transform="translate(-797.23 -204.417)" fill="#161616"/>
        </g>
      </g>
      <g id="Group_1083" data-name="Group 1083" transform="translate(7.049 8.389)">
        <g id="Group_1082" data-name="Group 1082">
          <path id="Path_651" data-name="Path 651" d="M831.745,192.379l.082-.082a.135.135,0,0,0-.19-.191l-.082.082a.135.135,0,1,0,.191.191Z" transform="translate(-831.516 -192.068)" fill="#161616"/>
        </g>
      </g>
      <g id="Group_1085" data-name="Group 1085" transform="translate(7.912 8.182)">
        <g id="Group_1084" data-name="Group 1084">
          <path id="Path_652" data-name="Path 652" d="M841.118,189.9v.041a.135.135,0,1,0,.269,0V189.9a.135.135,0,1,0-.269,0Z" transform="translate(-841.118 -189.77)" fill="#161616"/>
        </g>
      </g>
      <g id="Group_1087" data-name="Group 1087" transform="translate(7.711 9.375)">
        <g id="Group_1086" data-name="Group 1086">
          <path id="Path_653" data-name="Path 653" d="M839.011,203.314a.135.135,0,0,0,0-.27.135.135,0,0,0,0,.27Z" transform="translate(-838.88 -203.044)" fill="#161616"/>
        </g>
      </g>
      <g id="Group_1088" data-name="Group 1088" transform="translate(3.811 6.385)">
        <ellipse id="Ellipse_72" data-name="Ellipse 72" cx="0.226" cy="0.699" rx="0.226" ry="0.699" fill="#161616"/>
      </g>
      <g id="Group_1089" data-name="Group 1089" transform="translate(6.914 6.32)">
        <ellipse id="Ellipse_73" data-name="Ellipse 73" cx="0.226" cy="0.699" rx="0.226" ry="0.699" fill="#161616"/>
      </g>
      <g id="Group_1091" data-name="Group 1091" transform="translate(3.02 4.277)">
        <g id="Group_1090" data-name="Group 1090">
          <path id="Path_654" data-name="Path 654" d="M786.939,147.377a.855.855,0,0,1,1.437-.587c.129.115.321-.075.191-.191a1.129,1.129,0,0,0-1.9.778c-.012.173.258.172.27,0Z" transform="translate(-786.669 -146.297)" fill="#161616"/>
        </g>
      </g>
      <g id="Group_1093" data-name="Group 1093" transform="translate(6.403 4.35)">
        <g id="Group_1092" data-name="Group 1092">
          <path id="Path_655" data-name="Path 655" d="M824.545,147.661a1,1,0,0,1,1.542.215c.109.135.3-.057.19-.191a1.258,1.258,0,0,0-1.923-.215c-.117.128.073.319.191.191Z" transform="translate(-824.317 -147.109)" fill="#161616"/>
        </g>
      </g>
    </g>
  </g>
</svg>
