<svg xmlns="http://www.w3.org/2000/svg" width="131.206" height="100" viewBox="0 0 131.206 100">
  <g id="Group_3127" data-name="Group 3127" transform="translate(0 0)">
    <g id="ground" transform="translate(0.345 79.132)">
      <g id="Group_2864" data-name="Group 2864" transform="translate(112.182 2.698)">
        <g id="Group_2863" data-name="Group 2863" transform="translate(0)">
          <g id="Group_2862" data-name="Group 2862">
            <path id="Path_1507" data-name="Path 1507" d="M1187.579,572.391c-.212-.122-.435-.245-.646-.368-.19-.1-.023-.39.167-.289.212.122.435.245.646.367a.167.167,0,0,1-.167.289Z" transform="translate(-1186.85 -571.714)" fill="#161616"/>
          </g>
        </g>
      </g>
      <g id="Group_2867" data-name="Group 2867" transform="translate(91.004)">
        <g id="Group_2866" data-name="Group 2866" transform="translate(0)">
          <g id="Group_2865" data-name="Group 2865">
            <path id="Path_1508" data-name="Path 1508" d="M1203.949,570.051l-6.113-2.606c-2.037-.868-3.942-1.726-6.224-1.492a24.784,24.784,0,0,0-6.08,1.737,60.641,60.641,0,0,0-5.968,2.617c-.378.19-.724-.39-.334-.579a58.452,58.452,0,0,1,9.587-3.864,11.729,11.729,0,0,1,4.922-.546,19.128,19.128,0,0,1,4.743,1.681q2.906,1.236,5.8,2.483c.4.156.056.735-.334.568Z" transform="translate(-1179.058 -565.239)" fill="#161616"/>
          </g>
        </g>
      </g>
      <g id="Group_2870" data-name="Group 2870" transform="translate(60.752 9.021)">
        <g id="Group_2869" data-name="Group 2869">
          <g id="Group_2868" data-name="Group 2868">
            <path id="Path_1509" data-name="Path 1509" d="M1261.089,587.557h-35.932a.334.334,0,0,1,0-.668h35.932a.334.334,0,0,1,0,.668Z" transform="translate(-1224.83 -586.889)" fill="#161616"/>
          </g>
        </g>
      </g>
      <g id="Group_2873" data-name="Group 2873" transform="translate(21.746 11.203)">
        <g id="Group_2872" data-name="Group 2872">
          <g id="Group_2871" data-name="Group 2871">
            <path id="Path_1510" data-name="Path 1510" d="M1342,592.8h-45.018a.334.334,0,0,1,0-.668H1342a.335.335,0,0,1,0,.668Z" transform="translate(-1296.657 -592.127)" fill="#161616"/>
          </g>
        </g>
      </g>
      <g id="Group_2876" data-name="Group 2876" transform="translate(0 8.765)">
        <g id="Group_2875" data-name="Group 2875">
          <g id="Group_2874" data-name="Group 2874">
            <path id="Path_1511" data-name="Path 1511" d="M1386.83,586.943h-50.263a.334.334,0,0,1,0-.668h50.263a.334.334,0,0,1,0,.668Z" transform="translate(-1336.242 -586.275)" fill="#161616"/>
          </g>
        </g>
      </g>
      <g id="Group_2879" data-name="Group 2879" transform="translate(83.795 5.247)">
        <g id="Group_2878" data-name="Group 2878">
          <g id="Group_2877" data-name="Group 2877">
            <path id="Path_1512" data-name="Path 1512" d="M1247.966,578.5q-2.973,1.052-5.9,2.238c-.4.167-.568-.479-.178-.646q2.923-1.186,5.9-2.238c.4-.145.579.5.178.646Z" transform="translate(-1241.665 -577.833)" fill="#161616"/>
          </g>
        </g>
      </g>
      <g id="Group_2882" data-name="Group 2882" transform="translate(99.112 10.647)">
        <g id="Group_2881" data-name="Group 2881" transform="translate(0)">
          <g id="Group_2880" data-name="Group 2880">
            <path id="Path_1513" data-name="Path 1513" d="M1197.822,591.459h-15.377a.334.334,0,0,1,0-.668h15.377a.334.334,0,0,1,0,.668Z" transform="translate(-1182.119 -590.791)" fill="#161616"/>
          </g>
        </g>
      </g>
      <g id="Group_2885" data-name="Group 2885" transform="translate(49.194 17.873)">
        <g id="Group_2884" data-name="Group 2884">
          <g id="Group_2883" data-name="Group 2883">
            <path id="Path_1514" data-name="Path 1514" d="M1311.727,608.8h-19.575a.334.334,0,0,1,0-.668h19.575a.334.334,0,0,1,0,.668Z" transform="translate(-1291.827 -608.135)" fill="#161616"/>
          </g>
        </g>
      </g>
    </g>
    <g id="background" transform="translate(0 0)">
      <g id="Group_2888" data-name="Group 2888" transform="translate(124.515 80.339)">
        <g id="Group_2887" data-name="Group 2887" transform="translate(0)">
          <g id="Group_2886" data-name="Group 2886">
            <path id="Path_1515" data-name="Path 1515" d="M1145.5,578.288a12.085,12.085,0,0,0,4.042-4.743,20.345,20.345,0,0,0,1.292-3.251,7.1,7.1,0,0,0,.445-1.559c.011-.223.089-.189-.145-.2a1.761,1.761,0,0,0-.412.122c-.312.089-.612.19-.924.278-.212.067-.29-.256-.089-.323.379-.111.757-.234,1.136-.345a1.057,1.057,0,0,1,.613-.111c.312.1.211.423.156.668a26.137,26.137,0,0,1-1.348,3.975,13.091,13.091,0,0,1-4.6,5.779c-.178.122-.345-.167-.167-.29Z" transform="translate(-1145.429 -568.136)" fill="#e8e8e8"/>
          </g>
        </g>
      </g>
      <g id="Group_2891" data-name="Group 2891" transform="translate(129.067 67.808)">
        <g id="Group_2890" data-name="Group 2890" transform="translate(0)">
          <g id="Group_2889" data-name="Group 2889">
            <path id="Path_1516" data-name="Path 1516" d="M1144.384,551.014c1.659-4.053,1.726-8.474,1.782-12.794.1.045.189.078.29.122l-.947.947c-.156.156-.39-.089-.234-.234l.947-.946a.174.174,0,0,1,.289.122c-.045,4.343-.123,8.8-1.792,12.883-.089.19-.412.1-.334-.1Z" transform="translate(-1144.372 -538.063)" fill="#e8e8e8"/>
          </g>
        </g>
      </g>
      <g id="Group_2894" data-name="Group 2894" transform="translate(120.133 60.338)">
        <g id="Group_2893" data-name="Group 2893" transform="translate(0)">
          <g id="Group_2892" data-name="Group 2892">
            <path id="Path_1517" data-name="Path 1517" d="M1156.467,528.507a38.822,38.822,0,0,0-.924-8.173c.078.033.167.067.245.1-3.185,2.26-4.432,6.28-5.59,9.821a63.255,63.255,0,0,0-2.906,12.816c-.133,1.214-.211,2.427-.245,3.652a13,13,0,0,0,.245,3.83.167.167,0,0,1-.323.089,12.054,12.054,0,0,1-.267-3.285q.017-1.67.167-3.34a53.756,53.756,0,0,1,1.035-6.659c.5-2.294,1.125-4.554,1.848-6.781a46.481,46.481,0,0,1,2.1-5.645,12.09,12.09,0,0,1,3.764-4.777.17.17,0,0,1,.245.1,39.636,39.636,0,0,1,.935,8.262.167.167,0,0,1-.334-.011Z" transform="translate(-1146.697 -520.134)" fill="#e8e8e8"/>
          </g>
        </g>
      </g>
      <g id="Group_2897" data-name="Group 2897" transform="translate(114.223 60.655)">
        <g id="Group_2896" data-name="Group 2896" transform="translate(0)">
          <g id="Group_2895" data-name="Group 2895">
            <path id="Path_1518" data-name="Path 1518" d="M1173.06,534.5c-1.637-4.833-5.178-8.7-7.2-13.34.1-.033.211-.056.312-.089-.2,2.171-.368,4.354-.523,6.536-.078,1.091-.134,2.182-.2,3.274-.022.512-.056,1.013-.078,1.525-.023.39-.045.49.256.746a7.061,7.061,0,0,0,.746.468c.178.111.011.4-.167.29-.367-.234-.746-.468-1.113-.7a.162.162,0,0,1-.078-.145c.189-4,.456-8.006.824-11.992.011-.145.234-.256.312-.089,2.049,4.677,5.59,8.563,7.238,13.418a.169.169,0,0,1-.323.1Z" transform="translate(-1165.008 -520.894)" fill="#e8e8e8"/>
          </g>
        </g>
      </g>
      <g id="Group_2900" data-name="Group 2900" transform="translate(114.432 73.318)">
        <g id="Group_2899" data-name="Group 2899" transform="translate(0)">
          <g id="Group_2898" data-name="Group 2898">
            <path id="Path_1519" data-name="Path 1519" d="M1173.785,551.623c-1.559-.089-.535,3.274-.357,4.1.29,1.359.635,2.706,1.036,4.031a47.485,47.485,0,0,0,3.14,7.773c.1.189-.189.356-.29.167a48.544,48.544,0,0,1-3.519-9.019,46.67,46.67,0,0,1-1.057-4.766c-.145-.891-.4-2.706,1.035-2.617.222.011.222.345.011.334Z" transform="translate(-1172.622 -551.285)" fill="#e8e8e8"/>
          </g>
        </g>
      </g>
      <g id="Group_2903" data-name="Group 2903" transform="translate(115.17 61.143)">
        <g id="Group_2902" data-name="Group 2902" transform="translate(0)">
          <g id="Group_2901" data-name="Group 2901">
            <path id="Path_1520" data-name="Path 1520" d="M1168.984,522.23c.835,6.792,3.8,13.039,5.578,19.586a.168.168,0,0,1-.323.089c-1.792-6.581-4.743-12.861-5.59-19.675-.022-.222.312-.212.334,0Z" transform="translate(-1168.649 -522.067)" fill="#e8e8e8"/>
          </g>
        </g>
      </g>
      <g id="Group_2906" data-name="Group 2906" transform="translate(121.549 60.389)">
        <g id="Group_2905" data-name="Group 2905" transform="translate(0)">
          <g id="Group_2904" data-name="Group 2904">
            <path id="Path_1521" data-name="Path 1521" d="M1156.61,520.461a189.186,189.186,0,0,0-6.258,23.684c-.445,2.272-.846,4.565-1.214,6.848-.033.211-.356.122-.323-.089A186.821,186.821,0,0,1,1154.193,527q.986-3.341,2.093-6.637c.067-.189.39-.1.323.1Z" transform="translate(-1148.813 -520.257)" fill="#e8e8e8"/>
          </g>
        </g>
      </g>
      <g id="Group_2909" data-name="Group 2909" transform="translate(123.973 70.479)">
        <g id="Group_2908" data-name="Group 2908" transform="translate(0)">
          <g id="Group_2907" data-name="Group 2907">
            <path id="Path_1522" data-name="Path 1522" d="M1151.737,544.786a17.349,17.349,0,0,0-6.692,7.538c-.089.2-.378.022-.29-.167a17.731,17.731,0,0,1,6.815-7.661c.178-.111.356.178.167.29Z" transform="translate(-1144.739 -544.472)" fill="#e8e8e8"/>
          </g>
        </g>
      </g>
      <g id="Group_2912" data-name="Group 2912" transform="translate(122.166 82.384)">
        <g id="Group_2911" data-name="Group 2911" transform="translate(0)">
          <g id="Group_2910" data-name="Group 2910">
            <path id="Path_1523" data-name="Path 1523" d="M1154.637,573.379c-2.906,1.025-6.08,2.2-7.661,5.044-.1.189-.39.022-.29-.167,1.637-2.917,4.877-4.142,7.861-5.2.2-.078.29.245.089.323Z" transform="translate(-1146.666 -573.044)" fill="#e8e8e8"/>
          </g>
        </g>
      </g>
      <g id="Group_2915" data-name="Group 2915" transform="translate(125.769 64.236)">
        <g id="Group_2914" data-name="Group 2914" transform="translate(0)">
          <g id="Group_2913" data-name="Group 2913">
            <path id="Path_1524" data-name="Path 1524" d="M1155.894,529.612a35.959,35.959,0,0,1,.445,5.133.167.167,0,0,1-.334,0,34.712,34.712,0,0,0-.434-5.044c-.033-.211.29-.3.323-.089Z" transform="translate(-1155.569 -529.491)" fill="#e8e8e8"/>
          </g>
        </g>
      </g>
      <g id="Group_2918" data-name="Group 2918" transform="translate(119.055 69.242)">
        <g id="Group_2917" data-name="Group 2917" transform="translate(0)">
          <g id="Group_2916" data-name="Group 2916">
            <path id="Path_1525" data-name="Path 1525" d="M1171.872,541.719c-.289,2-.568,4.009-.857,6.024-.033.211-.356.122-.323-.089.29-2,.568-4.009.857-6.024.034-.222.357-.122.323.089Z" transform="translate(-1170.689 -541.504)" fill="#e8e8e8"/>
          </g>
        </g>
      </g>
      <g id="Group_2921" data-name="Group 2921" transform="translate(114.623 67.169)">
        <g id="Group_2920" data-name="Group 2920" transform="translate(0)">
          <g id="Group_2919" data-name="Group 2919">
            <path id="Path_1526" data-name="Path 1526" d="M1179.651,540.086a13.594,13.594,0,0,1-2.706-3.307.167.167,0,0,1,.29-.167,13.5,13.5,0,0,0,2.65,3.24c.167.145-.078.379-.234.234Z" transform="translate(-1176.921 -536.529)" fill="#e8e8e8"/>
          </g>
        </g>
      </g>
      <g id="Group_2924" data-name="Group 2924" transform="translate(9.172 62.2)">
        <g id="Group_2923" data-name="Group 2923">
          <g id="Group_2922" data-name="Group 2922">
            <path id="Path_1527" data-name="Path 1527" d="M1421,550.088a33.283,33.283,0,0,0,1.737-9.331c.089.045.167.1.256.145-.557.323-1.1.657-1.659.98a.169.169,0,0,1-.245-.189,7.462,7.462,0,0,0,.212-4.387,19.259,19.259,0,0,0-1.971-4.131c-1.5-2.773-3.017-5.545-4.521-8.318a2.888,2.888,0,0,0,.3-.045c-.357,2.193-.713,4.4-1.069,6.592-.178,1.08-.356,2.16-.523,3.24-.089.535-.334,1.214-.011,1.7a2.632,2.632,0,0,0,1.192.813c.145.067.078.256-.045.3a2.33,2.33,0,0,0-1.292.947c-.256.557.056,1.358.2,1.938q.417,1.7,1,3.374a35.86,35.86,0,0,0,3.017,6.414.167.167,0,0,1-.29.167,36.46,36.46,0,0,1-3.362-7.45c-.2-.635-.39-1.28-.557-1.926a12.342,12.342,0,0,1-.423-1.9c-.089-1.035.8-1.525,1.626-1.87a2.829,2.829,0,0,1-.045.3c-.657-.289-1.425-.7-1.5-1.5a7.026,7.026,0,0,1,.2-1.6c.1-.646.212-1.292.312-1.948.412-2.561.835-5.111,1.248-7.672a.167.167,0,0,1,.3-.045q2.422,4.443,4.844,8.9a14.674,14.674,0,0,1,1.793,4.109,7.733,7.733,0,0,1-.323,4.086c-.078-.067-.167-.122-.245-.189.557-.323,1.1-.657,1.659-.98a.169.169,0,0,1,.256.145,33.136,33.136,0,0,1-1.748,9.42c-.067.212-.39.122-.323-.078Z" transform="translate(-1412.946 -524.604)" fill="#e8e8e8"/>
          </g>
        </g>
      </g>
      <g id="Group_2927" data-name="Group 2927" transform="translate(2.636 62.272)">
        <g id="Group_2926" data-name="Group 2926">
          <g id="Group_2925" data-name="Group 2925">
            <path id="Path_1528" data-name="Path 1528" d="M1438.874,532.395q-3.474-3.641-6.893-7.349c.089-.056.189-.112.278-.167a21.634,21.634,0,0,1,.423,5.356c-.044.924-.178,1.826-.29,2.739a11.653,11.653,0,0,0-.111,1.247c-.011.222-.045.568.2.713a3.242,3.242,0,0,0,.946.112c.123.011.245.189.123.289-1.3,1.036-.178,2.929.368,4.087.59,1.258,1.225,2.483,1.915,3.686a50.587,50.587,0,0,0,4.81,6.959c.134.167-.1.4-.234.234a51.722,51.722,0,0,1-5.256-7.705,47.078,47.078,0,0,1-2.1-4.253c-.446-1.047-.78-2.405.256-3.229.044.1.078.189.122.29-.623-.067-1.4.033-1.481-.735a16.461,16.461,0,0,1,.3-3.129,20.865,20.865,0,0,0-.312-6.547.17.17,0,0,1,.278-.167q3.424,3.708,6.892,7.349c.156.145-.078.378-.234.223Z" transform="translate(-1431.931 -524.775)" fill="#e8e8e8"/>
          </g>
        </g>
      </g>
      <g id="Group_2930" data-name="Group 2930" transform="translate(3.95 64.385)">
        <g id="Group_2929" data-name="Group 2929">
          <g id="Group_2928" data-name="Group 2928">
            <path id="Path_1529" data-name="Path 1529" d="M1430.493,529.931c1.637,3.352,1.926,7.2,3.073,10.723a67.7,67.7,0,0,0,4.766,10.756c.1.189-.19.356-.29.167a70.654,70.654,0,0,1-4.666-10.445,54.609,54.609,0,0,1-1.459-5.49,24.068,24.068,0,0,0-1.715-5.545c-.089-.19.189-.357.29-.167Z" transform="translate(-1430.186 -529.848)" fill="#e8e8e8"/>
          </g>
        </g>
      </g>
      <g id="Group_2933" data-name="Group 2933" transform="translate(11.383 64.288)">
        <g id="Group_2932" data-name="Group 2932" transform="translate(0)">
          <g id="Group_2931" data-name="Group 2931">
            <path id="Path_1530" data-name="Path 1530" d="M1422.391,529.772c.312,7.193,3.173,13.952,3.786,21.1.023.212-.312.212-.334,0-.612-7.149-3.474-13.907-3.786-21.1a.167.167,0,0,1,.334,0Z" transform="translate(-1422.057 -529.614)" fill="#e8e8e8"/>
          </g>
        </g>
      </g>
      <g id="Group_2936" data-name="Group 2936" transform="translate(14.397 73.33)">
        <g id="Group_2935" data-name="Group 2935" transform="translate(0)">
          <g id="Group_2934" data-name="Group 2934">
            <path id="Path_1531" data-name="Path 1531" d="M1420.6,551.518a35.025,35.025,0,0,1-2.605,5.645.167.167,0,0,1-.29-.167,34.518,34.518,0,0,0,2.572-5.568c.067-.2.39-.111.323.089Z" transform="translate(-1417.681 -551.316)" fill="#e8e8e8"/>
          </g>
        </g>
      </g>
      <g id="Group_2939" data-name="Group 2939" transform="translate(12.434 67.109)">
        <g id="Group_2938" data-name="Group 2938" transform="translate(0)">
          <g id="Group_2937" data-name="Group 2937">
            <path id="Path_1532" data-name="Path 1532" d="M1427.279,536.595c-.4,1.514-.791,3.029-1.192,4.543a.167.167,0,0,1-.323-.089c.4-1.515.791-3.029,1.192-4.543a.168.168,0,0,1,.323.089Z" transform="translate(-1425.758 -536.385)" fill="#e8e8e8"/>
          </g>
        </g>
      </g>
      <g id="Group_2942" data-name="Group 2942" transform="translate(10.382 66.39)">
        <g id="Group_2941" data-name="Group 2941" transform="translate(0)">
          <g id="Group_2940" data-name="Group 2940">
            <path id="Path_1533" data-name="Path 1533" d="M1430.283,534.742c.5.924.991,1.86,1.492,2.784.1.189-.19.356-.29.167-.5-.924-.991-1.86-1.492-2.784-.1-.189.189-.356.29-.167Z" transform="translate(-1429.972 -534.658)" fill="#e8e8e8"/>
          </g>
        </g>
      </g>
      <g id="Group_2945" data-name="Group 2945" transform="translate(7.239 67.884)">
        <g id="Group_2944" data-name="Group 2944" transform="translate(0)">
          <g id="Group_2943" data-name="Group 2943">
            <path id="Path_1534" data-name="Path 1534" d="M1440.392,538.4q-.25,3.674-.746,7.338c-.033.212-.345.122-.323-.089q.484-3.607.735-7.249c.011-.212.345-.212.334,0Z" transform="translate(-1439.322 -538.245)" fill="#e8e8e8"/>
          </g>
        </g>
      </g>
      <g id="Group_2948" data-name="Group 2948" transform="translate(3.309 67.118)">
        <g id="Group_2947" data-name="Group 2947">
          <g id="Group_2946" data-name="Group 2946">
            <path id="Path_1535" data-name="Path 1535" d="M1447.034,539.793c-.111-.646-.724-1.147-1.147-1.626s-.88-.98-1.314-1.47c-.145-.156.089-.4.234-.234.534.59,1.057,1.18,1.592,1.77a3.184,3.184,0,0,1,.958,1.459c.034.222-.289.312-.323.1Z" transform="translate(-1444.528 -536.408)" fill="#e8e8e8"/>
          </g>
        </g>
      </g>
      <g id="Group_2951" data-name="Group 2951" transform="translate(35.108 55.803)">
        <g id="Group_2950" data-name="Group 2950">
          <g id="Group_2949" data-name="Group 2949">
            <path id="Path_1536" data-name="Path 1536" d="M1241.151,511.826c-2.962-.134-5.723-1.214-8.6-1.826a21.512,21.512,0,0,0-9.487.39c-3.073.724-6.1,1.659-9.153,2.461s-6.124,1.581-9.2,2.316c-12.371,2.962-24.9,5.345-37.491,7.138q-10.589,1.5-21.257,2.438c-.212.022-.212-.312,0-.334q19.108-1.687,37.981-5.178,9.437-1.754,18.785-3.942c6.157-1.448,12.26-3.107,18.362-4.755a25.418,25.418,0,0,1,10.166-1.125c3.341.479,6.481,1.915,9.877,2.06.223.022.223.356.011.356Z" transform="translate(-1145.811 -509.251)" fill="#e8e8e8"/>
          </g>
        </g>
      </g>
      <g id="Group_2954" data-name="Group 2954" transform="translate(0 53.274)">
        <g id="Group_2953" data-name="Group 2953">
          <g id="Group_2952" data-name="Group 2952">
            <path id="Path_1537" data-name="Path 1537" d="M1351.224,515.589a189.219,189.219,0,0,1-29.7-5.278c-4.9-1.281-9.71-2.84-14.531-4.388a57.928,57.928,0,0,0-7.093-1.893,31.408,31.408,0,0,0-7.85-.434c-2.928.189-5.857.568-8.774.891s-5.868.635-8.8.958c-.212.022-.212-.312,0-.334,5.233-.568,10.467-1.2,15.711-1.7a34.759,34.759,0,0,1,7.683-.022,42.968,42.968,0,0,1,7.093,1.57c4.843,1.437,9.609,3.129,14.486,4.465s9.777,2.472,14.732,3.407c5.634,1.069,11.324,1.882,17.036,2.427.212.022.212.356,0,.334Z" transform="translate(-1274.323 -503.181)" fill="#e8e8e8"/>
          </g>
        </g>
      </g>
      <g id="Group_2957" data-name="Group 2957" transform="translate(44.952 70.392)">
        <g id="Group_2956" data-name="Group 2956">
          <g id="Group_2955" data-name="Group 2955">
            <path id="Path_1538" data-name="Path 1538" d="M1309.276,555.811c-8.574-.055-15.222-6.3-22.76-9.453a22.31,22.31,0,0,0-6.87-1.759c-.212-.011-.212-.345,0-.334,8.485.635,14.921,6.9,22.6,9.8a20.527,20.527,0,0,0,7.026,1.414.167.167,0,0,1,0,.334Z" transform="translate(-1279.488 -544.264)" fill="#e8e8e8"/>
          </g>
        </g>
      </g>
      <g id="Group_2960" data-name="Group 2960" transform="translate(11.413 54.411)">
        <g id="Group_2959" data-name="Group 2959">
          <g id="Group_2958" data-name="Group 2958">
            <path id="Path_1539" data-name="Path 1539" d="M1385.69,521.7c-9.342-2.015-16.312-9.131-24.764-13.1a26.321,26.321,0,0,0-7.705-2.36c-.212-.033-.212-.367,0-.334,9.565,1.27,16.769,8.4,25.042,12.672a30.284,30.284,0,0,0,7.516,2.806c.212.033.123.356-.089.312Z" transform="translate(-1353.062 -505.91)" fill="#e8e8e8"/>
          </g>
        </g>
      </g>
      <g id="Group_2963" data-name="Group 2963" transform="translate(39.883 22.382)">
        <g id="Group_2962" data-name="Group 2962" transform="translate(0)">
          <g id="Group_2961" data-name="Group 2961">
            <path id="Path_1540" data-name="Path 1540" d="M1344.822,429.894c-4.131-1.9-8.8,1.837-12.85-.534a.167.167,0,0,1,.167-.29c4.009,2.35,8.707-1.37,12.85.535.2.089.033.378-.167.289Z" transform="translate(-1331.889 -429.04)" fill="#e8e8e8"/>
          </g>
        </g>
      </g>
      <g id="Group_2966" data-name="Group 2966" transform="translate(38.231 1.826)">
        <g id="Group_2965" data-name="Group 2965">
          <g id="Group_2964" data-name="Group 2964">
            <path id="Path_1541" data-name="Path 1541" d="M1319.233,380.349c-4.51-.958-9.008.456-13.34,1.648a45.832,45.832,0,0,1-13.162,1.837,42.573,42.573,0,0,1-7.516-.846c-.211-.045-.122-.368.089-.323a41.285,41.285,0,0,0,13.941.457c4.443-.624,8.63-2.26,13.028-3.051a18.1,18.1,0,0,1,7.049-.033c.2.033.111.356-.089.312Z" transform="translate(-1285.095 -379.705)" fill="#e8e8e8"/>
          </g>
        </g>
      </g>
      <g id="Group_2969" data-name="Group 2969" transform="translate(90.409 13.289)">
        <g id="Group_2968" data-name="Group 2968">
          <g id="Group_2967" data-name="Group 2967">
            <path id="Path_1542" data-name="Path 1542" d="M1194.132,409.5a15.4,15.4,0,0,0-13.084-.857c-2.182.813-4.265,1.815-6.514,2.438a30.73,30.73,0,0,1-6.592,1.08,31.081,31.081,0,0,1-7.661-.568c-.212-.045-.123-.367.089-.323a30.173,30.173,0,0,0,14.164-.535c2.282-.646,4.4-1.67,6.614-2.483a15.981,15.981,0,0,1,6.458-1.013,15.494,15.494,0,0,1,6.681,1.971c.2.1.033.39-.156.289Z" transform="translate(-1160.161 -407.217)" fill="#e8e8e8"/>
          </g>
        </g>
      </g>
      <g id="Group_2972" data-name="Group 2972" transform="translate(3.334)">
        <g id="Group_2971" data-name="Group 2971">
          <g id="Group_2970" data-name="Group 2970">
            <path id="Path_1543" data-name="Path 1543" d="M1425.678,389.573a9.419,9.419,0,0,0,2.149-8.251,8.719,8.719,0,0,0-1.96-3.986,4.043,4.043,0,0,0-2.416-1.358,17.075,17.075,0,0,0-3.017-.323,7.908,7.908,0,0,0-7.884,5.623,7.069,7.069,0,0,0,.746,5.2,10.047,10.047,0,0,0,3.53,3.942,7.878,7.878,0,0,0,9.3-1.169c.156-.156.39.089.234.234a8.23,8.23,0,0,1-8.763,1.681,8.827,8.827,0,0,1-3.875-3.374,8.38,8.38,0,0,1-1.7-5.345,7.953,7.953,0,0,1,6.781-7,11.325,11.325,0,0,1,3.129-.023,8.54,8.54,0,0,1,2.839.613,6.914,6.914,0,0,1,2.962,3.8,9.82,9.82,0,0,1-1.826,9.977c-.134.156-.367-.078-.223-.234Z" transform="translate(-1411.995 -375.323)" fill="#e8e8e8"/>
          </g>
        </g>
      </g>
      <g id="Group_2975" data-name="Group 2975" transform="translate(36.438 48.366)">
        <g id="Group_2974" data-name="Group 2974">
          <g id="Group_2973" data-name="Group 2973">
            <path id="Path_1544" data-name="Path 1544" d="M1264.489,491.859c-5.022-.69-9.843,1.325-14.542,2.806a31.173,31.173,0,0,1-7.1,1.559,18.559,18.559,0,0,1-7.427-1.114,61.311,61.311,0,0,0-7.728-2.505,30.913,30.913,0,0,0-7.583-.479c-5.167.256-10.222,1.4-15.31,2.227-5.456.868-11.09,1.37-16.491-.122a.168.168,0,0,1,.089-.323c10.032,2.772,20.243-1.214,30.265-2.015a35.138,35.138,0,0,1,7.416.111,34.369,34.369,0,0,1,7.561,2.1,22.9,22.9,0,0,0,7.828,1.837,25.184,25.184,0,0,0,7.372-1.28c5.111-1.525,10.277-3.875,15.745-3.118.212.022.111.345-.089.312Z" transform="translate(-1188.183 -491.401)" fill="#e8e8e8"/>
          </g>
        </g>
      </g>
      <g id="Group_2978" data-name="Group 2978" transform="translate(6.826 34.338)">
        <g id="Group_2977" data-name="Group 2977">
          <g id="Group_2976" data-name="Group 2976">
            <path id="Path_1545" data-name="Path 1545" d="M1348.4,467.555a19.039,19.039,0,0,0-6.48-2.294,14.884,14.884,0,0,0-6.636,1.036,52.271,52.271,0,0,1-6.458,1.9,36,36,0,0,1-6.559.7,36.646,36.646,0,0,1-13.206-2.316c-4.265-1.57-8.3-3.708-12.482-5.456-4.755-1.993-9.877-3.5-15.077-2.94-.211.022-.211-.312,0-.334,9.4-1,17.671,4.41,26.022,7.783a37.94,37.94,0,0,0,13.518,2.928,35.75,35.75,0,0,0,6.892-.534,42.087,42.087,0,0,0,6.581-1.826,16.708,16.708,0,0,1,7.2-1.292,19.135,19.135,0,0,1,6.848,2.36c.189.089.022.379-.167.279Z" transform="translate(-1281.345 -457.735)" fill="#e8e8e8"/>
          </g>
        </g>
      </g>
      <g id="Group_2981" data-name="Group 2981" transform="translate(66.447 21.032)">
        <g id="Group_2980" data-name="Group 2980" transform="translate(0)">
          <g id="Group_2979" data-name="Group 2979">
            <path id="Path_1546" data-name="Path 1546" d="M1255.822,427.258c-3.73-2.238-8.118-.6-11.9.579a34.162,34.162,0,0,1-18.974.568.167.167,0,0,1,.089-.323,33.934,33.934,0,0,0,12.705.79,35.991,35.991,0,0,0,6.38-1.459,32.355,32.355,0,0,1,5.879-1.525,9.368,9.368,0,0,1,5.98,1.069c.189.122.022.412-.156.3Z" transform="translate(-1224.824 -425.799)" fill="#e8e8e8"/>
          </g>
        </g>
      </g>
    </g>
    <g id="cat" transform="translate(36.641 81.998)">
      <g id="back_leg_right" data-name="back leg right" transform="translate(1.439 4.917)">
        <g id="Group_2982" data-name="Group 2982">
          <path id="Path_1547" data-name="Path 1547" d="M1356.939,586.371c0,.857-.8,1.481-1.726,2.216a9.685,9.685,0,0,1-4.231,1.915c-.323,1.113-.991,3.263-1.436,3.151-.367-.089-.534-1.815-.323-3.218a4.2,4.2,0,0,1,.434-1.514c.657-1.147,1.515-.768,2.439-1.67,1.158-1.135.713-2.628,1.6-3.162C1354.846,583.4,1356.939,584.968,1356.939,586.371Z" transform="translate(-1349.13 -583.921)" fill="#161616"/>
        </g>
      </g>
      <g id="back_leg_left" data-name="back leg left" transform="translate(2.032 7.078)">
        <g id="Group_2983" data-name="Group 2983">
          <path id="Path_1548" data-name="Path 1548" d="M1356.339,591.066c.1.835-.635,1.6-1.481,2.505a10.106,10.106,0,0,1-3.886,2.617c-.223,1.57-.624,3.852-1.069,3.841-.412-.011-.846-1.9-.757-3.552a4.376,4.376,0,0,1,.267-1.57c.545-1.3,1.514-.991,2.238-2.094.813-1.258.122-2.494.8-3.262C1353.433,588.439,1356.161,589.586,1356.339,591.066Z" transform="translate(-1349.134 -589.106)" fill="#161616"/>
        </g>
      </g>
      <g id="front_paw_right" data-name="front paw right" transform="translate(19.321 5.93)">
        <g id="Group_2984" data-name="Group 2984" transform="translate(0)">
          <path id="Path_1549" data-name="Path 1549" d="M1307.926,586.353c.412-.045.6.813,1.347,2.16a10.611,10.611,0,0,0,3,3.675c1.225.824,2.294.835,2.282,1.225-.011.29-.612.479-.935.523a2,2,0,0,1-1.57-.579,21.175,21.175,0,0,1-2.95-2.272c-1.737-1.592-1.937-2.283-1.971-2.795C1307.069,587.388,1307.492,586.4,1307.926,586.353Z" transform="translate(-1307.12 -586.351)" fill="#161616"/>
        </g>
      </g>
      <g id="body" transform="translate(5.04 4.652)">
        <g id="Group_2985" data-name="Group 2985">
          <path id="Path_1550" data-name="Path 1550" d="M1335.715,583.4a13.017,13.017,0,0,1-2.572,1.047,13.721,13.721,0,0,1-6.068.145c-3.6-.635-4.51-1.9-5.49-.969-1.025.98-1.225,3.585-.457,5.145.468.946,1.425,1.314,3.329,2.06a11.387,11.387,0,0,0,4.209,1.047,10.1,10.1,0,0,0,4.075-.813c1.693-.679,3.174-1.27,3.753-2.973a4.746,4.746,0,0,0,.223-1.86C1336.372,585.277,1336.038,584.331,1335.715,583.4Z" transform="translate(-1320.662 -583.285)" fill="#161616"/>
        </g>
      </g>
      <g id="tail" transform="translate(0 0)">
        <g id="Group_2986" data-name="Group 2986">
          <path id="Path_1551" data-name="Path 1551" d="M1359.044,578.363c-.089-.646-.835-.813-1.481-1.225-1.7-1.1-1.47-3.207-2.639-3.5-.991-.245-1.414,1.214-2.416.935-1.18-.334-1.515-2.605-1.926-2.45-.3.111-.479,1.514,0,2.394s1.514.991,2.683,1.1,1.258-.156,1.748.111c.9.513.735,1.5,1.837,2.561.624.6,1.6,1.191,2.015.757A.906.906,0,0,0,1359.044,578.363Z" transform="translate(-1350.285 -572.12)" fill="#161616"/>
        </g>
      </g>
      <g id="front_paw_left" data-name="front paw left" transform="translate(18.808 7.233)">
        <g id="Group_2987" data-name="Group 2987" transform="translate(0)">
          <path id="Path_1552" data-name="Path 1552" d="M1309.155,589.48c.412-.045.6.813,1.348,2.16a10.607,10.607,0,0,0,3,3.675c1.225.824,2.294.835,2.282,1.225-.011.29-.613.479-.935.523a2,2,0,0,1-1.57-.579,21.191,21.191,0,0,1-2.951-2.272c-1.737-1.592-1.937-2.282-1.971-2.8C1308.3,590.515,1308.721,589.524,1309.155,589.48Z" transform="translate(-1308.349 -589.478)" fill="#161616"/>
        </g>
      </g>
      <g id="head" transform="translate(18.155 2.295)">
        <g id="Group_2988" data-name="Group 2988" transform="translate(0)">
          <path id="Path_1553" data-name="Path 1553" d="M1316.756,580.93c-.267,1.67-.022,2.015-.434,2.561a2.929,2.929,0,0,1-1.993.969c-.868.089-1-.267-1.937-.167-1.047.111-1.214.568-1.737.4-.768-.245-.991-1.459-1.058-1.837a.273.273,0,0,1-.011-.089,3.564,3.564,0,0,1,.334-1.937,7.784,7.784,0,0,0,2.828-1.993c.557-.635.9-1.28,1.2-1.2.334.089.378,1.013.368,1.737l1.2.334c1.035-1.047,1.392-1.125,1.537-1.036C1317.291,578.8,1316.99,579.427,1316.756,580.93Z" transform="translate(-1309.562 -577.628)" fill="#161616"/>
        </g>
        <g id="Group_2991" data-name="Group 2991" transform="translate(4.469 4.748)">
          <g id="Group_2990" data-name="Group 2990" transform="translate(0)">
            <g id="Group_2989" data-name="Group 2989">
              <path id="Path_1554" data-name="Path 1554" d="M1315.86,589.069a.76.76,0,0,1-.79.568.045.045,0,0,1,0-.089.654.654,0,0,0,.7-.5c.022-.045.1-.022.089.022Z" transform="translate(-1315.027 -589.023)" fill="#fff"/>
            </g>
          </g>
        </g>
        <g id="Group_2994" data-name="Group 2994" transform="translate(5.245 4.73)">
          <g id="Group_2993" data-name="Group 2993" transform="translate(0)">
            <g id="Group_2992" data-name="Group 2992">
              <path id="Path_1555" data-name="Path 1555" d="M1314.19,589.022a1.724,1.724,0,0,0,.033.412.5.5,0,0,0,.067.178s.156.222.178.189.1,0,.067.045c-.067.122-.234-.067-.278-.122a1.184,1.184,0,0,1-.156-.7c.011-.056.089-.056.089,0Z" transform="translate(-1314.101 -588.981)" fill="#fff"/>
            </g>
          </g>
        </g>
        <g id="Group_2997" data-name="Group 2997" transform="translate(5.179 4.626)">
          <g id="Group_2996" data-name="Group 2996" transform="translate(0)">
            <g id="Group_2995" data-name="Group 2995">
              <path id="Path_1556" data-name="Path 1556" d="M1314.926,588.832c.022.033-.033.011-.022.022.034.022.034-.022,0-.033s-.033.045-.022.056.011.011.022.011.022,0,.022-.011v-.011c.011,0,.022,0,.022-.011.045-.033.089.045.045.067s-.156.033-.156-.056a.085.085,0,0,1,.145-.056.092.092,0,0,1-.044.156.118.118,0,1,1-.023-.234.116.116,0,0,1,.089.156.109.109,0,0,1-.156.022.089.089,0,0,1,.011-.145c.056-.033.145,0,.145.067s-.123.089-.156.022c-.023-.033.055-.078.078-.022Z" transform="translate(-1314.792 -588.73)" fill="#fff"/>
            </g>
          </g>
        </g>
        <g id="Group_3000" data-name="Group 3000" transform="translate(5.708 3.882)">
          <g id="Group_2999" data-name="Group 2999" transform="translate(0)">
            <g id="Group_2998" data-name="Group 2998">
              <path id="Path_1557" data-name="Path 1557" d="M1312.9,587.2a.413.413,0,0,0-.612-.078c-.045.034-.1-.022-.055-.055a.5.5,0,0,1,.746.1c.022.033-.056.078-.078.033Z" transform="translate(-1312.214 -586.944)" fill="#fff"/>
            </g>
          </g>
        </g>
        <g id="Group_3003" data-name="Group 3003" transform="translate(4.002 3.497)">
          <g id="Group_3002" data-name="Group 3002" transform="translate(0)">
            <g id="Group_3001" data-name="Group 3001">
              <path id="Path_1558" data-name="Path 1558" d="M1316.864,586.326a.6.6,0,0,0-.724-.178c-.045.022-.089-.045-.045-.067a.69.69,0,0,1,.835.212c.033.033-.033.067-.067.033Z" transform="translate(-1316.077 -586.02)" fill="#fff"/>
            </g>
          </g>
        </g>
        <g id="Group_3006" data-name="Group 3006" transform="translate(3.752 0.578)">
          <g id="Group_3005" data-name="Group 3005" transform="translate(0)">
            <g id="Group_3004" data-name="Group 3004">
              <path id="Path_1559" data-name="Path 1559" d="M1318.222,579.078a2.785,2.785,0,0,0-.289.891c-.011.056-.089.033-.078-.022a3.275,3.275,0,0,1,.3-.913c.011-.045.089,0,.067.045Z" transform="translate(-1317.853 -579.015)" fill="#fff"/>
            </g>
          </g>
        </g>
        <g id="Group_3009" data-name="Group 3009" transform="translate(3.967 1.153)">
          <g id="Group_3008" data-name="Group 3008" transform="translate(0)">
            <g id="Group_3007" data-name="Group 3007">
              <path id="Path_1560" data-name="Path 1560" d="M1317.506,580.763a.709.709,0,0,1-.156.245c-.033.033-.089-.011-.067-.055a.652.652,0,0,0,.067-.29l.044.045c-.067,0-.133-.011-.189-.011a.051.051,0,0,1-.045-.056c.022-.067.033-.145.056-.211a.188.188,0,0,0,.045.055h-.223a.045.045,0,0,1,0-.089h.223a.051.051,0,0,1,.044.056c-.022.067-.033.145-.055.212a.2.2,0,0,0-.045-.056c.067,0,.134.011.189.011a.048.048,0,0,1,.045.045.7.7,0,0,1-.078.334c-.022-.023-.045-.034-.067-.056a.831.831,0,0,0,.145-.234c.022-.033.089.011.067.055Z" transform="translate(-1316.996 -580.395)" fill="#fff"/>
            </g>
          </g>
        </g>
        <g id="Group_3012" data-name="Group 3012" transform="translate(5.737 4.642)">
          <g id="Group_3011" data-name="Group 3011" transform="translate(0)">
            <g id="Group_3010" data-name="Group 3010">
              <path id="Path_1561" data-name="Path 1561" d="M1312.239,589.109a3.536,3.536,0,0,0,.646-.334c.045-.033.089.045.045.067a4.689,4.689,0,0,1-.668.345c-.056.023-.078-.055-.022-.078Z" transform="translate(-1312.207 -588.767)" fill="#fff"/>
            </g>
          </g>
        </g>
        <g id="Group_3015" data-name="Group 3015" transform="translate(5.901 5.15)">
          <g id="Group_3014" data-name="Group 3014" transform="translate(0)">
            <g id="Group_3013" data-name="Group 3013">
              <path id="Path_1562" data-name="Path 1562" d="M1312.675,589.988a1.078,1.078,0,0,1,.334.112.04.04,0,1,1-.045.067.789.789,0,0,0-.312-.1c-.045-.011-.022-.089.022-.078Z" transform="translate(-1312.628 -589.987)" fill="#fff"/>
            </g>
          </g>
        </g>
        <g id="Group_3018" data-name="Group 3018" transform="translate(3.969 4.152)">
          <g id="Group_3017" data-name="Group 3017" transform="translate(0)">
            <g id="Group_3016" data-name="Group 3016">
              <path id="Path_1563" data-name="Path 1563" d="M1317.034,588.156a7.811,7.811,0,0,0-.7-.49c-.045-.022,0-.1.045-.067a8.482,8.482,0,0,1,.724.5c.033.034-.022.089-.067.056Z" transform="translate(-1316.315 -587.591)" fill="#fff"/>
            </g>
          </g>
        </g>
        <g id="Group_3021" data-name="Group 3021" transform="translate(3.71 4.637)">
          <g id="Group_3020" data-name="Group 3020" transform="translate(0)">
            <g id="Group_3019" data-name="Group 3019">
              <path id="Path_1564" data-name="Path 1564" d="M1317.612,589.026c-.256-.067-.512-.133-.757-.189-.056-.011-.033-.089.022-.078.256.067.512.134.757.189.056.011.034.1-.022.078Z" transform="translate(-1316.823 -588.757)" fill="#fff"/>
            </g>
          </g>
        </g>
        <g id="Group_3024" data-name="Group 3024" transform="translate(5.257 4.719)">
          <g id="Group_3023" data-name="Group 3023" transform="translate(0)">
            <g id="Group_3022" data-name="Group 3022">
              <path id="Path_1565" data-name="Path 1565" d="M1314.329,589.886a.876.876,0,0,1-.479-.891c0-.056.078-.056.089,0,.022.312.089.679.423.8.045.022.022.111-.033.089Z" transform="translate(-1313.851 -588.953)" fill="#fff"/>
            </g>
          </g>
        </g>
        <g id="Group_3027" data-name="Group 3027" transform="translate(5.323 5.118)">
          <g id="Group_3026" data-name="Group 3026" transform="translate(0)">
            <g id="Group_3025" data-name="Group 3025">
              <path id="Path_1566" data-name="Path 1566" d="M1314.294,590.445a.643.643,0,0,1-.412-.479c-.011-.056.067-.078.078-.023a.523.523,0,0,0,.345.423c.056.022.033.1-.011.078Z" transform="translate(-1313.882 -589.912)" fill="#fff"/>
            </g>
          </g>
        </g>
        <g id="Group_3030" data-name="Group 3030" transform="translate(6.611 1.555)">
          <g id="Group_3029" data-name="Group 3029" transform="translate(0)">
            <g id="Group_3028" data-name="Group 3028">
              <path id="Path_1567" data-name="Path 1567" d="M1310.936,581.425a2.853,2.853,0,0,0-.579.946c-.023.045-.1.034-.078-.022a2.881,2.881,0,0,1,.6-.98c.033-.033.089.023.055.056Z" transform="translate(-1310.275 -581.359)" fill="#fff"/>
            </g>
          </g>
        </g>
        <g id="Group_3033" data-name="Group 3033" transform="translate(6.785 2.232)">
          <g id="Group_3032" data-name="Group 3032" transform="translate(0)">
            <g id="Group_3031" data-name="Group 3031">
              <path id="Path_1568" data-name="Path 1568" d="M1310.828,582.987c.067.011.134.011.2.022.033,0,.056.045.033.067a.144.144,0,0,0-.055.156c.011.044.055.067.055.111a.079.079,0,0,1-.033.067c-.022.022-.067.033-.067.056a.045.045,0,0,1-.089,0c0-.045.023-.056.045-.089.011-.011.045-.022.045-.033.011-.033-.023-.056-.033-.078a.223.223,0,0,1,.067-.256l.033.067c-.067-.011-.133-.011-.2-.022a.034.034,0,1,1,0-.067Z" transform="translate(-1310.786 -582.986)" fill="#fff"/>
            </g>
          </g>
        </g>
      </g>
    </g>
    <g id="Group_3034" data-name="Group 3034" transform="translate(31.957 72.964)">
      <path id="Path_1569" data-name="Path 1569" d="M1358.354,553.99c-2.539.712-5.077,1.436-7.616,2.149a13.589,13.589,0,0,1-3.418,2.438c-2.706,1.347-5.98,1.8-6.247,1.169-.122-.278.568-.9,1.948-2.149,1.18-1.057,1.7-1.38,2.539-2.149a17.834,17.834,0,0,0,2.338-2.639,17.891,17.891,0,0,0,8.73-2.372C1357.207,551.629,1357.786,552.81,1358.354,553.99Z" transform="translate(-1341.059 -550.438)" fill="#161616"/>
    </g>
    <g id="Group_3035" data-name="Group 3035" transform="translate(44.454 45.236)">
      <path id="Path_1570" data-name="Path 1570" d="M1309.582,487.032c1.7,2.639.457,5.924-.924,9.531a30.2,30.2,0,0,1-6.547,10.222c-6.926,7.193-15.433,10.266-20.332,11.6-.5-2.294-.991-4.6-1.492-6.892a38.14,38.14,0,0,0,7.583-5.4c2.862-2.617,7.65-6.993,9.654-13.785,1.236-4.209.456-6.113,2.294-7.472C1302.378,482.968,1307.6,483.948,1309.582,487.032Z" transform="translate(-1280.286 -483.89)" fill="#0fbf89"/>
    </g>
    <g id="Group_3036" data-name="Group 3036" transform="translate(44.487 49.626)" opacity="0.14" style="isolation: isolate">
      <path id="Path_1571" data-name="Path 1571" d="M1322.8,494.425a10.7,10.7,0,0,1,1.77,6.815c-.4,3.285-2.628,5.367-7.928,10.044-4.655,4.1-8.518,7.427-11.224,9.732-.234-1.125-.456-2.238-.69-3.362a44.985,44.985,0,0,0,6.5-4.465,37.149,37.149,0,0,0,5.467-5.378,26.577,26.577,0,0,0,4.81-7.984A24.461,24.461,0,0,0,1322.8,494.425Z" transform="translate(-1304.727 -494.425)" fill="#6d6c6c"/>
    </g>
    <g id="Group_3037" data-name="Group 3037" transform="translate(44.453 58.923)" opacity="0.14" style="isolation: isolate">
      <path id="Path_1572" data-name="Path 1572" d="M1331.5,516.739a18.094,18.094,0,0,1-1.8,4.165c-.846,1.425-2.037,2.984-6.2,6.525-1.659,1.4-3.864,3.2-6.592,5.167-.156-.635-.3-1.269-.457-1.9a41.327,41.327,0,0,0,3.653-2.26,43.711,43.711,0,0,0,5.723-4.777c.69-.668,1.448-1.414,2.394-2.483A38.04,38.04,0,0,0,1331.5,516.739Z" transform="translate(-1316.446 -516.739)" fill="#6d6c6c"/>
    </g>
    <g id="Group_3038" data-name="Group 3038" transform="translate(74.095 70.247)">
      <path id="Path_1573" data-name="Path 1573" d="M1267.7,547.346l-4.243,3.808c1.547,5.612,2.016,8.529,1.392,8.785q-1.119.451-6.959-10.756c2.517-1.76,5.022-3.519,7.538-5.267C1266.2,545.053,1266.958,546.2,1267.7,547.346Z" transform="translate(-1257.894 -543.917)" fill="#161616"/>
    </g>
    <g id="Group_3039" data-name="Group 3039" transform="translate(63.841 44.654)">
      <path id="Path_1574" data-name="Path 1574" d="M1241.979,483.69c4.966,3.541,8.63,6.169,10.456,7.471,6.692,4.788,10.044,7.238,10.345,9.654.579,4.71-4.755,9.587-6.2,10.912a21,21,0,0,1-3.563,2.639,8.368,8.368,0,0,1-6.547-6.659l5.657-5.289c-3.719-1.826-6.77-3.229-8.863-4.165a29.215,29.215,0,0,1-5.579-2.839c-2.016-1.414-4.7-3.34-5.456-6.659-.189-.835-.7-3.04.457-4.6C1234.128,482.2,1237.914,481.875,1241.979,483.69Z" transform="translate(-1231.947 -482.493)" fill="#0fbf89"/>
    </g>
    <g id="Group_3040" data-name="Group 3040" transform="translate(65.002 48.311)" opacity="0.12" style="isolation: isolate">
      <path id="Path_1575" data-name="Path 1575" d="M1248.682,491.271c-.379.268-3.708,2.7-3.151,5.022.067.256.234.79,1.792,2.149a24.211,24.211,0,0,0,5.022,3.374c2.093,1.08,3.608,1.726,5.089,2.372,1.726.746,4.209,1.86,7.237,3.3-1.915,1.77-3.819,3.541-5.735,5.312a7.429,7.429,0,0,0,.5,1.859,8.078,8.078,0,0,0,1.5,2.372,23.049,23.049,0,0,1,8.607-9.108,49.671,49.671,0,0,1-20.867-16.647Z" transform="translate(-1245.468 -491.271)" fill="#6d6c6c"/>
    </g>
    <g id="Group_3041" data-name="Group 3041" transform="translate(65.291 52.76)" opacity="0.19" style="isolation: isolate">
      <path id="Path_1576" data-name="Path 1576" d="M1253.452,502.043c.557-.6,4.131,1.826,5.868,2.984,3.274,2.193,8.073,5.255,14.553,8.963-2.505,1.726-5.011,3.463-7.516,5.189,1.915-1.826,3.842-3.653,5.757-5.478-.613-.3-1.648-.8-2.94-1.414-2.171-1.036-4.51-2.116-7.65-3.585-.545-.256-2.149-1.013-4.175-2.149a8.071,8.071,0,0,1-3.474-3.051C1253.63,503.067,1253.207,502.31,1253.452,502.043Z" transform="translate(-1253.378 -501.949)" fill="#6d6c6c"/>
    </g>
    <g id="hand_right" data-name="hand right" transform="translate(69.498 18.433)">
      <g id="Group_3042" data-name="Group 3042" transform="translate(0 0)">
        <path id="Path_1577" data-name="Path 1577" d="M1249.243,425.813c.557-.6,1.714-.356,2.294-.234,1.993.412,3.118,1.6,4.977,3.24,1,.88,2.461,2.093,4.343,3.474.557-2.505,1.1-5,1.659-7.5a3.435,3.435,0,0,1-.713-1.581,3.066,3.066,0,0,1,.735-2.706,2.888,2.888,0,0,1,3.9.178c.9,1.035.435,2.617.212,3.374a5.439,5.439,0,0,1-.79,1.615,21.292,21.292,0,0,1,.078,3.318,13.058,13.058,0,0,1-.869,4.665c-.568,1.348-1.247,2.962-2.683,3.552-1.559.646-3.173-.278-6.324-2.138-4.944-2.918-6.124-5.334-6.4-5.924C1249.354,428.508,1248.5,426.626,1249.243,425.813Z" transform="translate(-1248.833 -419.719)" fill="#fff"/>
        <path id="Path_1578" data-name="Path 1578" d="M1261.2,437.365a2.753,2.753,0,0,0,1.071-.213c1.477-.607,2.178-2.27,2.742-3.607a13.262,13.262,0,0,0,.879-4.708,21.343,21.343,0,0,0-.075-3.293,5.574,5.574,0,0,0,.782-1.614c.23-.782.706-2.4-.234-3.479a2.79,2.79,0,0,0-1.965-.883,2.848,2.848,0,0,0-2.093.7,3.139,3.139,0,0,0-.769,2.806,3.534,3.534,0,0,0,.7,1.59q-.412,1.853-.818,3.7-.4,1.792-.792,3.585c-1.5-1.108-2.913-2.24-4.2-3.367q-.333-.294-.638-.567c-1.513-1.352-2.607-2.33-4.39-2.7-.583-.124-1.8-.38-2.4.267h0c-.544.592-.411,1.754.393,3.452.927,1.965,3.156,4.03,6.447,5.972C1258.273,436.439,1259.843,437.365,1261.2,437.365Zm3.023-17.579c.055,0,.11,0,.165,0a2.569,2.569,0,0,1,1.809.807c.86.987.407,2.525.19,3.265a5.36,5.36,0,0,1-.776,1.586l-.025.034,0,.042a21.17,21.17,0,0,1,.077,3.3,13.077,13.077,0,0,1-.86,4.629c-.578,1.371-1.231,2.92-2.623,3.492-1.475.61-2.974-.212-6.226-2.131-3.2-1.892-5.463-3.978-6.358-5.875-.949-2-.758-2.85-.431-3.207.514-.555,1.645-.315,2.189-.2,1.725.357,2.8,1.317,4.287,2.646.2.183.417.372.639.568,1.328,1.166,2.792,2.337,4.351,3.48l.137.1.037-.166q.417-1.879.83-3.753t.829-3.752l.012-.052-.033-.042a3.315,3.315,0,0,1-.689-1.53,2.921,2.921,0,0,1,.7-2.606A2.588,2.588,0,0,1,1264.223,419.786Z" transform="translate(-1248.678 -419.563)" fill="#161616"/>
      </g>
      <g id="Group_3045" data-name="Group 3045" transform="translate(13.529 2.081)">
        <g id="Group_3044" data-name="Group 3044" transform="translate(0)">
          <g id="Group_3043" data-name="Group 3043">
            <path id="Path_1579" data-name="Path 1579" d="M1256.607,426.455a2.534,2.534,0,0,0,.913-1.192c.056-.223.1-.534-.312-.479a.951.951,0,0,0-.323.19,3.779,3.779,0,0,0-.635.557c-.078.078-.189-.045-.123-.123.245-.267,1.236-1.292,1.537-.635s-.513,1.425-.947,1.781a.075.075,0,1,1-.111-.1Z" transform="translate(-1256.108 -424.558)" fill="#161616"/>
          </g>
        </g>
      </g>
      <g id="Group_3048" data-name="Group 3048" transform="translate(16.283 1.098)">
        <g id="Group_3047" data-name="Group 3047">
          <g id="Group_3046" data-name="Group 3046">
            <path id="Path_1580" data-name="Path 1580" d="M1251.34,422.273c-.056.813-.312,2.049-1.4,1.87-.112-.022-.056-.178.044-.156.969.156,1.147-1.025,1.192-1.715.011-.1.178-.1.167,0Z" transform="translate(-1249.876 -422.197)" fill="#161616"/>
          </g>
        </g>
      </g>
      <g id="Group_3051" data-name="Group 3051" transform="translate(16.009 0.356)">
        <g id="Group_3050" data-name="Group 3050" transform="translate(0)">
          <g id="Group_3049" data-name="Group 3049">
            <path id="Path_1581" data-name="Path 1581" d="M1253.133,420.544a2.424,2.424,0,0,0-.323,2.249c.034.1-.123.145-.156.045a2.6,2.6,0,0,1,.345-2.383c.055-.089.2,0,.133.089Z" transform="translate(-1252.508 -420.418)" fill="#161616"/>
          </g>
        </g>
      </g>
      <g id="Group_3054" data-name="Group 3054" transform="translate(14.958 0.082)">
        <g id="Group_3053" data-name="Group 3053" transform="translate(0)">
          <g id="Group_3052" data-name="Group 3052">
            <path id="Path_1582" data-name="Path 1582" d="M1255.308,419.882a2.089,2.089,0,0,0,.256,2.383c.067.078-.045.2-.122.122a2.255,2.255,0,0,1-.278-2.583c.045-.1.189-.011.145.078Z" transform="translate(-1254.879 -419.759)" fill="#161616"/>
          </g>
        </g>
      </g>
      <g id="Group_3057" data-name="Group 3057" transform="translate(13.736 0.639)">
        <g id="Group_3056" data-name="Group 3056" transform="translate(0)">
          <g id="Group_3055" data-name="Group 3055">
            <path id="Path_1583" data-name="Path 1583" d="M1258.479,421.229a1.055,1.055,0,0,0,.245,1.214c.078.078-.044.19-.122.122a1.242,1.242,0,0,1-.279-1.425c.056-.1.2-.011.156.089Z" transform="translate(-1258.209 -421.096)" fill="#161616"/>
          </g>
        </g>
      </g>
      <g id="Group_3058" data-name="Group 3058" transform="translate(0.12 0.227)" opacity="0.17" style="isolation: isolate">
        <path id="Path_1584" data-name="Path 1584" d="M1265.464,420.185a.978.978,0,0,0-.646-.033,1.521,1.521,0,0,0-.334,2.127,1.333,1.333,0,0,0,.7.423c-.011.189-.022.5-.044.891,0,0-.056,1.035-.122,1.915a21.8,21.8,0,0,1-1.314,6.948,13.636,13.636,0,0,1-1.681,2.973,13.047,13.047,0,0,1-2.405-.757c-6.069-2.572-9.12-9.409-10.2-8.853a1.217,1.217,0,0,0-.39.557,2.127,2.127,0,0,0,.056,1.481,9.994,9.994,0,0,0,1.191,2.505,12.079,12.079,0,0,0,1.447,1.781,13.984,13.984,0,0,0,2.606,1.96,34.673,34.673,0,0,0,4.175,2.483c1.559.635,2.884,1.18,4.109.6a3.973,3.973,0,0,0,1.637-1.826,12.45,12.45,0,0,0,1.514-5.523,23.565,23.565,0,0,0,.056-3.975,7.312,7.312,0,0,0,.98-2.472,3.142,3.142,0,0,0-.055-2.049A2.341,2.341,0,0,0,1265.464,420.185Z" transform="translate(-1248.917 -420.109)" fill="#6d6c6c"/>
      </g>
      <g id="Group_3059" data-name="Group 3059" transform="translate(0.167 1.785)" opacity="0.2" style="isolation: isolate">
        <path id="Path_1585" data-name="Path 1585" d="M1249.259,429.114c.123-.056.5.523.9,1.125a16.285,16.285,0,0,1,1.347,2.327c1.348,2.828,5.835,5.111,6.414,5.412a17.947,17.947,0,0,0,3.919,1.425,11.767,11.767,0,0,0,3.029-4.287,12.686,12.686,0,0,0,.646-2.472,14.152,14.152,0,0,0,.145-2.1,23.387,23.387,0,0,0-.089-2.494,15.336,15.336,0,0,0,.7-1.537,15.638,15.638,0,0,0,.779-2.661,7.327,7.327,0,0,1-.98,4.231,18.292,18.292,0,0,1,0,4.376,19.012,19.012,0,0,1-1.592,5.211,3.588,3.588,0,0,1-1.125,1.458,3.363,3.363,0,0,1-1.9.613c-.445.011-.958-.055-2.995-1.125A39.764,39.764,0,0,1,1255,436.6c-.858-.557-1.281-.846-1.737-1.2a11.1,11.1,0,0,1-3.4-3.975A4.664,4.664,0,0,1,1249.259,429.114Z" transform="translate(-1249.217 -423.847)" fill="#6d6c6c"/>
      </g>
    </g>
    <g id="torso" transform="translate(60.388 21.219)">
      <g id="Group_3060" data-name="Group 3060" transform="translate(0)">
        <path id="Path_1586" data-name="Path 1586" d="M1284.474,427.085a14.3,14.3,0,0,1,5.857,7.315c.8,2.572.278,4.3.39,8.452a57.317,57.317,0,0,0,1.18,10.021,11.384,11.384,0,0,1-8.262,3.541,10.776,10.776,0,0,1-5.9-1.971,34.525,34.525,0,0,0,.2-9.832c-.523-4.087-1.882-6.458-1.871-11.113a25.328,25.328,0,0,1,.579-5.367,8.09,8.09,0,0,1,3.3-1.481A8.4,8.4,0,0,1,1284.474,427.085Z" transform="translate(-1275.956 -426.404)" fill="#fff"/>
        <path id="Path_1587" data-name="Path 1587" d="M1283.709,456.374a11.453,11.453,0,0,0,8.094-3.579l.04-.042-.012-.057a57.681,57.681,0,0,1-1.178-10c-.038-1.431,0-2.564.031-3.563a13.586,13.586,0,0,0-.425-4.918,14.235,14.235,0,0,0-5.9-7.375l-.022-.012a8.552,8.552,0,0,0-4.593-.44,8.224,8.224,0,0,0-3.343,1.5l-.033.025-.009.04a24.557,24.557,0,0,0,.419,12.25,35.487,35.487,0,0,1,.871,4.268,34.745,34.745,0,0,1-.2,9.8l-.011.069.057.04a10.854,10.854,0,0,0,5.963,1.991C1283.542,456.373,1283.626,456.374,1283.709,456.374Zm7.892-3.69a11.186,11.186,0,0,1-8.139,3.464,10.62,10.62,0,0,1-5.783-1.911,34.943,34.943,0,0,0,.19-9.794,35.548,35.548,0,0,0-.876-4.294,24.324,24.324,0,0,1-.426-12.108,8,8,0,0,1,3.218-1.436,8.331,8.331,0,0,1,4.458.424,14.012,14.012,0,0,1,5.8,7.25,13.411,13.411,0,0,1,.416,4.845c-.033,1-.07,2.139-.031,3.577A57.872,57.872,0,0,0,1291.6,452.684Z" transform="translate(-1275.777 -426.25)" fill="#161616"/>
      </g>
      <g id="Group_3061" data-name="Group 3061" transform="translate(0.018 0.268)" opacity="0.13" style="isolation: isolate">
        <path id="Path_1588" data-name="Path 1588" d="M1288.9,426.894a40.309,40.309,0,0,0,.156,4.61,50.42,50.42,0,0,0,2.639,11.558,120.514,120.514,0,0,0,4.755,12.382,9.8,9.8,0,0,1-3.018,1.057,10.888,10.888,0,0,1-5.89-.757,13.173,13.173,0,0,1-2.115-1.058,36.115,36.115,0,0,0,.456-4.61,39.093,39.093,0,0,0-.6-7.85c-.635-3.742-1.135-3.942-1.436-6.425a20.785,20.785,0,0,1,.523-7.55,8.151,8.151,0,0,1,2.572-1.136A8.573,8.573,0,0,1,1288.9,426.894Z" transform="translate(-1283.71 -426.894)" fill="#6d6c6c"/>
      </g>
      <g id="Group_3062" data-name="Group 3062" transform="translate(0.31 0.569)" opacity="0.15" style="isolation: isolate">
        <path id="Path_1589" data-name="Path 1589" d="M1293.411,427.615a62.069,62.069,0,0,0,.078,7.928,53.025,53.025,0,0,0,1.136,8.006,43.566,43.566,0,0,0,5.434,13.139,10.284,10.284,0,0,1-3.4.223,10.393,10.393,0,0,1-4.755-1.737,35.678,35.678,0,0,0-.078-11.024c-.412-2.427-.891-3.63-1.214-6.269a32.218,32.218,0,0,1,.223-9.142,4.525,4.525,0,0,1,1.28-.835A5.24,5.24,0,0,1,1293.411,427.615Z" transform="translate(-1290.391 -427.615)" fill="#6d6c6c"/>
      </g>
    </g>
    <g id="hand_left" data-name="hand left" transform="translate(48.652 23.147)">
      <g id="Group_3063" data-name="Group 3063" transform="translate(0 0)">
        <path id="Path_1590" data-name="Path 1590" d="M1318.445,431.143a23.926,23.926,0,0,0-12.972,3.842,14.439,14.439,0,0,0-.579,8.24,13.67,13.67,0,0,0,1.838,4.354,4.5,4.5,0,0,1-.468,2.361c-.289.568-.735,1.08-.557,1.559a.952.952,0,0,0,.479.479.659.659,0,0,0,1.058.2,1.224,1.224,0,0,0,.813.334,1.193,1.193,0,0,0,.868-.368,1.164,1.164,0,0,0,.646.056,1.2,1.2,0,0,0,.7-.445,2.364,2.364,0,0,0,.891-1.592,2.2,2.2,0,0,0-.223-1.035,6.882,6.882,0,0,0-1.648-2.338,19.929,19.929,0,0,1-.4-5.323,20.47,20.47,0,0,1,.39-2.906,27.82,27.82,0,0,1,6.224-1.514,25.085,25.085,0,0,1,2.784-.19,3.451,3.451,0,0,0,1.871-3.741A3.4,3.4,0,0,0,1318.445,431.143Z" transform="translate(-1304.427 -431.032)" fill="#fff"/>
        <path id="Path_1591" data-name="Path 1591" d="M1307.923,452.467a1.284,1.284,0,0,0,.868-.35,1.268,1.268,0,0,0,1.393-.432l.006-.007a2.452,2.452,0,0,0,.924-1.665,2.314,2.314,0,0,0-.231-1.085,7.036,7.036,0,0,0-1.649-2.353,19.777,19.777,0,0,1-.392-5.26,20.532,20.532,0,0,1,.375-2.829,27.785,27.785,0,0,1,6.142-1.487,24.88,24.88,0,0,1,2.772-.188h.028l.024-.013a3.543,3.543,0,0,0,1.925-3.867,3.468,3.468,0,0,0-1.77-2.041l-.025-.013h-.029a24.043,24.043,0,0,0-13.033,3.859l-.031.02-.013.035a14.5,14.5,0,0,0-.583,8.3,13.751,13.751,0,0,0,1.836,4.363,4.454,4.454,0,0,1-.456,2.274c-.068.134-.146.265-.22.392-.255.434-.5.843-.342,1.258a1.02,1.02,0,0,0,.5.52.822.822,0,0,0,.5.395.8.8,0,0,0,.638-.131,1.286,1.286,0,0,0,.815.3Zm.817-.612-.054.054a1.076,1.076,0,0,1-.787.335,1.1,1.1,0,0,1-.726-.293l-.1-.08-.072.072a.548.548,0,0,1-.874-.159l-.016-.038-.037-.023a.849.849,0,0,1-.427-.418c-.118-.316.088-.665.325-1.068.077-.13.155-.264.226-.4a4.684,4.684,0,0,0,.48-2.415v-.03l-.016-.026a13.528,13.528,0,0,1-1.823-4.318,14.268,14.268,0,0,1,.562-8.141,23.824,23.824,0,0,1,12.853-3.8,3.237,3.237,0,0,1,1.635,1.89,3.359,3.359,0,0,1-1.793,3.6,25.236,25.236,0,0,0-2.768.19,28.04,28.04,0,0,0-6.249,1.52l-.058.021-.013.061a20.7,20.7,0,0,0-.392,2.922,20.012,20.012,0,0,0,.4,5.353l.007.033.025.024a6.821,6.821,0,0,1,1.622,2.3,2.082,2.082,0,0,1,.215.985,2.275,2.275,0,0,1-.85,1.514l-.028.03a1.071,1.071,0,0,1-.624.393,1.038,1.038,0,0,1-.58-.048Z" transform="translate(-1304.266 -430.876)" fill="#161616"/>
      </g>
      <g id="Group_3066" data-name="Group 3066" transform="translate(5.695 18.189)">
        <g id="Group_3065" data-name="Group 3065" transform="translate(0)">
          <g id="Group_3064" data-name="Group 3064">
            <path id="Path_1592" data-name="Path 1592" d="M1327.848,474.59a3,3,0,0,1-.334,2.505c-.067.089-.212,0-.145-.089a2.822,2.822,0,0,0,.323-2.372c-.022-.1.134-.156.156-.045Z" transform="translate(-1327.352 -474.529)" fill="#161616"/>
          </g>
        </g>
      </g>
      <g id="Group_3069" data-name="Group 3069" transform="translate(4.368 18.556)">
        <g id="Group_3068" data-name="Group 3068" transform="translate(0)">
          <g id="Group_3067" data-name="Group 3067">
            <path id="Path_1593" data-name="Path 1593" d="M1330.838,475.494a3.979,3.979,0,0,1-.7,2.483c-.067.078-.189-.033-.122-.122a3.821,3.821,0,0,0,.657-2.361.084.084,0,0,1,.167,0Z" transform="translate(-1329.995 -475.411)" fill="#161616"/>
          </g>
        </g>
      </g>
      <g id="Group_3072" data-name="Group 3072" transform="translate(2.758 18.701)">
        <g id="Group_3071" data-name="Group 3071" transform="translate(0)">
          <g id="Group_3070" data-name="Group 3070">
            <path id="Path_1594" data-name="Path 1594" d="M1334.1,475.842a3.246,3.246,0,0,1-1.147,2.394c-.089.056-.178-.089-.089-.145a3.117,3.117,0,0,0,1.069-2.249c.011-.111.178-.111.167,0Z" transform="translate(-1332.827 -475.759)" fill="#161616"/>
          </g>
        </g>
      </g>
      <g id="Group_3075" data-name="Group 3075" transform="translate(1.701 18.776)">
        <g id="Group_3074" data-name="Group 3074">
          <g id="Group_3073" data-name="Group 3073">
            <path id="Path_1595" data-name="Path 1595" d="M1336.529,476.046a3.464,3.464,0,0,1-1.2,2.116c-.078.067-.2-.045-.122-.122a3.3,3.3,0,0,0,1.158-2.038c.023-.111.178-.067.167.045Z" transform="translate(-1335.179 -475.937)" fill="#161616"/>
          </g>
        </g>
      </g>
      <g id="Group_3076" data-name="Group 3076" transform="translate(0.122 0.082)" opacity="0.17" style="isolation: isolate">
        <path id="Path_1596" data-name="Path 1596" d="M1320.665,432.716a19.746,19.746,0,0,0-13.74,4.02c-.679,6.4.278,9.131,1.358,10.411a4.813,4.813,0,0,1,1.27,2.761c.089,1.114-.3,2.472-.846,2.55-.223.033-.434-.156-.6-.345a.837.837,0,0,1-.657.2c-.078-.011-.189-.045-.613-.367a2.772,2.772,0,0,1-.534-.457c-.212-.412.367-.969.746-1.693a4.377,4.377,0,0,0,.457-2.227,14.522,14.522,0,0,1-2.227-7.616,14.256,14.256,0,0,1,.9-5.022,19.01,19.01,0,0,1,2.516-1.4c.167-.078.189-.1,2.929-1.114a14.166,14.166,0,0,1,1.815-.612c.6-.145.635-.1,2.016-.334.712-.122,1.425-.212,2.137-.334a3.574,3.574,0,0,1,1.526.045,2.154,2.154,0,0,1,.534.245,2.958,2.958,0,0,1,.457.412A5.89,5.89,0,0,1,1320.665,432.716Z" transform="translate(-1305.276 -431.072)" fill="#6d6c6c"/>
      </g>
      <g id="Group_3077" data-name="Group 3077" transform="translate(0.135 4.097)" opacity="0.14" style="isolation: isolate">
        <path id="Path_1597" data-name="Path 1597" d="M1335.277,440.71a38.978,38.978,0,0,0-.212,4.888,16.008,16.008,0,0,0,.345,3.7,18.148,18.148,0,0,0,1.1,3.185,12.408,12.408,0,0,1,.59,1.236c.267.724.8,2.138.167,3.229-.078.145-.523.913-1.147.846-.579-.055-.88-.812-.891-.846a10.289,10.289,0,0,0,.8-1.737,10.124,10.124,0,0,0,.423-1.659,14.365,14.365,0,0,1-1.871-4.543A14.741,14.741,0,0,1,1335.277,440.71Z" transform="translate(-1334.276 -440.71)" fill="#6d6c6c"/>
      </g>
    </g>
    <g id="Group_3078" data-name="Group 3078" transform="translate(66.577 14.261)">
      <path id="Path_1598" data-name="Path 1598" d="M1284.259,409.583c2.45.39,3.185,3.842,3.262,4.187a4.847,4.847,0,0,1-.746,4.332,4.49,4.49,0,0,1-3.63,1.3,4.271,4.271,0,0,1-2.65-1.214c-1.625-1.659-1.448-4.6-.145-6.47C1280.507,411.509,1282.133,409.249,1284.259,409.583Z" transform="translate(-1279.325 -409.549)" fill="#faad00"/>
    </g>
    <g id="Group_3079" data-name="Group 3079" transform="translate(64.003 16.273)">
      <path id="Path_1599" data-name="Path 1599" d="M1296.861,416.952c.056.479-.178.724-.8,2.027-.49,1.024-.813,1.882-1.013,2.428a4.339,4.339,0,0,1-2.639-.223,4.233,4.233,0,0,1-1.581-1.158,13.233,13.233,0,0,0,1.225-2.539c.613-1.693.468-2.35,1.025-2.684C1294.188,414.168,1296.705,415.515,1296.861,416.952Z" transform="translate(-1290.688 -414.532)" fill="#fff"/>
      <path id="Path_1600" data-name="Path 1600" d="M1293.927,421.474a4.68,4.68,0,0,0,1.013-.112l.059-.013.021-.057c.146-.4.487-1.326,1.009-2.418.166-.346.305-.62.417-.839.311-.611.44-.864.4-1.248a2.95,2.95,0,0,0-1.723-2.006,2.5,2.5,0,0,0-2.229-.227c-.38.228-.47.593-.619,1.2a13.894,13.894,0,0,1-.455,1.544,13.073,13.073,0,0,1-1.215,2.518l-.042.069.053.062a4.35,4.35,0,0,0,3.316,1.53Zm.905-.318a4.2,4.2,0,0,1-2.512-.229,4.069,4.069,0,0,1-1.487-1.067,13.212,13.212,0,0,0,1.192-2.49,14.291,14.291,0,0,0,.462-1.566c.144-.585.216-.88.515-1.059a2.287,2.287,0,0,1,2.015.233,2.73,2.73,0,0,1,1.6,1.833h0c.037.317-.066.52-.372,1.121-.112.221-.252.5-.419.845C1295.376,419.723,1295.06,420.541,1294.833,421.156Z" transform="translate(-1290.558 -414.378)" fill="#161616"/>
    </g>
    <g id="Group_3080" data-name="Group 3080" transform="translate(61.962 5.58)">
      <path id="Path_1601" data-name="Path 1601" d="M1288.768,389.657c.869.6,1.18,1.5,1.782,3.251a23.173,23.173,0,0,1,1.236,4.933.407.407,0,0,1-.267.423,4.552,4.552,0,0,1-.846.122,6.149,6.149,0,0,1-.468,2.127,6.446,6.446,0,0,1-2.439,2.906,6.735,6.735,0,0,1-4.142-.9,5.967,5.967,0,0,1-1.86-1.782,5.893,5.893,0,0,1-.947-3.218,2.279,2.279,0,0,1-1.1-.368c-.846-.568-1.481-1.882-.947-2.605a1.956,1.956,0,0,1,2.349-.2,6.518,6.518,0,0,1,.312-1.637,6.849,6.849,0,0,1,1.169-2.171A5.123,5.123,0,0,1,1288.768,389.657Z" transform="translate(-1278.461 -388.87)" fill="#fff"/>
      <path id="Path_1602" data-name="Path 1602" d="M1286.9,403.41c.26,0,.5-.013.723-.035l.027,0,.022-.014a6.52,6.52,0,0,0,2.482-2.958,6.236,6.236,0,0,0,.471-2.07l.154-.014a2.46,2.46,0,0,0,.625-.1.521.521,0,0,0,.338-.541,23.252,23.252,0,0,0-1.241-4.955c-.595-1.73-.923-2.683-1.823-3.307a5.219,5.219,0,0,0-6.315.9,6.372,6.372,0,0,0-1.178,2.173l-.013.036a6.789,6.789,0,0,0-.307,1.506,2.022,2.022,0,0,0-2.338.3,1.289,1.289,0,0,0-.193,1.01,2.848,2.848,0,0,0,1.166,1.755,2.314,2.314,0,0,0,1.054.376,5.966,5.966,0,0,0,.964,3.178,6.062,6.062,0,0,0,1.894,1.815A6.645,6.645,0,0,0,1286.9,403.41Zm.675-.254a6.573,6.573,0,0,1-4.047-.889,5.832,5.832,0,0,1-1.823-1.746,5.754,5.754,0,0,1-.929-3.159v-.1l-.1-.008a2.144,2.144,0,0,1-1.05-.349,2.652,2.652,0,0,1-1.071-1.609,1.073,1.073,0,0,1,.152-.839,1.845,1.845,0,0,1,2.21-.167l.152.075.009-.169a6.439,6.439,0,0,1,.307-1.609l.012-.035a6.135,6.135,0,0,1,1.134-2.1,4.976,4.976,0,0,1,6.021-.863h0c.841.582,1.141,1.455,1.74,3.2a23.027,23.027,0,0,1,1.23,4.907.3.3,0,0,1-.2.309,2.336,2.336,0,0,1-.565.09c-.1.008-.185.015-.259.026l-.091.014,0,.092a6.017,6.017,0,0,1-.459,2.088A6.293,6.293,0,0,1,1287.572,403.157Z" transform="translate(-1278.305 -388.716)" fill="#161616"/>
    </g>
    <g id="Group_3083" data-name="Group 3083" transform="translate(66.54 18.842)">
      <g id="Group_3082" data-name="Group 3082" transform="translate(0)">
        <g id="Group_3081" data-name="Group 3081">
          <path id="Path_1603" data-name="Path 1603" d="M1295.072,422.165a4.644,4.644,0,0,1-2.884-1.336c-.156-.156.089-.39.234-.234a4.26,4.26,0,0,0,2.65,1.247c.211,0,.222.334,0,.323Z" transform="translate(-1292.138 -420.544)" fill="#161616"/>
        </g>
      </g>
    </g>
    <g id="Group_3086" data-name="Group 3086" transform="translate(66.277 18.664)">
      <g id="Group_3085" data-name="Group 3085" transform="translate(0)">
        <g id="Group_3084" data-name="Group 3084">
          <path id="Path_1604" data-name="Path 1604" d="M1295.461,422.194a6.489,6.489,0,0,1-2.984-1.793c-.145-.156.089-.39.234-.234a6.079,6.079,0,0,0,2.828,1.7.166.166,0,1,1-.078.323Z" transform="translate(-1292.431 -420.116)" fill="#161616"/>
        </g>
      </g>
    </g>
    <g id="Group_3087" data-name="Group 3087" transform="translate(54.36 3.655)">
      <path id="Path_1605" data-name="Path 1605" d="M1297.632,391.417a3.611,3.611,0,0,0-.891-5.98,4.36,4.36,0,0,0-3.151-.368,6.405,6.405,0,0,0-2.595-.924,6.563,6.563,0,0,0-3.708.635,5.9,5.9,0,0,0-2.65,1.593c-1.214,1.3-.935,2.383-2.182,4.576a36.142,36.142,0,0,1-2.327,3.085c-1.67,2.238-2.505,3.374-2.639,4.2a5.687,5.687,0,0,0,1.893,4.777c2.338,2.138,6.5,2.227,8.485.078,1.637-1.77,1.269-4.487,1.158-5.356a8.49,8.49,0,0,0-1.158-3.263,1.916,1.916,0,0,1-.8,0,1.9,1.9,0,0,1-1.481-1.436c-.011-.056-.167-1.147.613-1.559a1.382,1.382,0,0,1,1.581.29,7.206,7.206,0,0,0,2.394-1.336,7.082,7.082,0,0,0,1.7-2.138,4.139,4.139,0,0,1,2.161-.312,4.526,4.526,0,0,1,3.084,2.037C1297.286,390.471,1297.465,390.938,1297.632,391.417Z" transform="translate(-1277.44 -384.096)" fill="#faad00"/>
    </g>
    <g id="Group_3090" data-name="Group 3090" transform="translate(71.783 11.011)">
      <g id="Group_3089" data-name="Group 3089" transform="translate(0 0)">
        <g id="Group_3088" data-name="Group 3088">
          <path id="Path_1606" data-name="Path 1606" d="M1285.692,402.751a1.092,1.092,0,0,0,.056-.323,1.2,1.2,0,0,0-.011-.2c-.011-.067-.045-.1.011-.145.078-.055.033.056.022.1v.178c0,.055,0,.312.056.345-.045-.011-.089-.011-.134-.022-.033.044-.045.044-.033,0s.011-.056.011-.089a1.14,1.14,0,0,0,.022-.19.61.61,0,0,0-.078-.345.167.167,0,0,1,.29-.167,1.037,1.037,0,0,1,.123.523.892.892,0,0,1-.111.512.225.225,0,0,1-.357,0,.987.987,0,0,1-.145-.568.779.779,0,0,1,.078-.5.256.256,0,0,1,.368-.056c.278.212.223.757.134,1.047-.033.19-.356.1-.3-.1Z" transform="translate(-1285.406 -401.75)" fill="#161616"/>
        </g>
      </g>
    </g>
    <g id="Group_3093" data-name="Group 3093" transform="translate(70.963 10.101)">
      <g id="Group_3092" data-name="Group 3092" transform="translate(0 0)">
        <g id="Group_3091" data-name="Group 3091">
          <path id="Path_1607" data-name="Path 1607" d="M1285.778,400.052a1.163,1.163,0,0,0-1.648.234c-.089.134-.312,0-.212-.122a1.43,1.43,0,0,1,2.049-.289c.111.1-.067.278-.189.178Z" transform="translate(-1283.893 -399.566)" fill="#161616"/>
        </g>
      </g>
    </g>
    <g id="Group_3096" data-name="Group 3096" transform="translate(72.015 15.099)">
      <g id="Group_3095" data-name="Group 3095" transform="translate(0 0)">
        <g id="Group_3094" data-name="Group 3094">
          <path id="Path_1608" data-name="Path 1608" d="M1283.488,412.962a3.879,3.879,0,0,1-1.8-1.18c-.1-.122.067-.3.178-.178a3.637,3.637,0,0,0,1.693,1.125c.156.034.089.278-.067.234Z" transform="translate(-1281.653 -411.562)" fill="#161616"/>
        </g>
      </g>
    </g>
    <g id="Group_3099" data-name="Group 3099" transform="translate(72.023 12.899)">
      <g id="Group_3098" data-name="Group 3098" transform="translate(0)">
        <g id="Group_3097" data-name="Group 3097">
          <path id="Path_1609" data-name="Path 1609" d="M1285.743,406.474c0-.033.011-.022.033.045.022.011.045.011.067.022h-.011c.022-.011.045-.011.067-.022l.011-.011c.011-.022.022-.033.033-.055v-.011c-.011-.023-.011-.045-.023-.067h0l-.044-.045h0c-.034,0-.067-.011-.1-.011h.011a.127.127,0,0,1,.067.245.142.142,0,0,1-.122-.245.172.172,0,0,1,.178-.023.189.189,0,0,1,.078.167.123.123,0,1,1-.245.011Z" transform="translate(-1285.686 -406.281)" fill="#161616"/>
        </g>
      </g>
    </g>
    <g id="Group_3102" data-name="Group 3102" transform="translate(70.794 12.07)">
      <g id="Group_3101" data-name="Group 3101" transform="translate(0 0)">
        <g id="Group_3100" data-name="Group 3100">
          <path id="Path_1610" data-name="Path 1610" d="M1288.849,404.389a.011.011,0,0,1-.011-.011h-.067a.077.077,0,0,0-.044.122l.044.045c.011,0,.023.011.045.011s.045-.011.067-.022l.011-.011c.011-.022.022-.033.033-.056a.094.094,0,0,0-.022-.078c-.022-.011-.033-.022-.056-.033h-.022c.067-.011.123.067.123.122,0,.078-.056.111-.123.122a.155.155,0,0,1-.156-.167.15.15,0,0,1,.2-.134c.189.078.022.4-.145.278a.126.126,0,0,1-.045-.167.146.146,0,0,1,.167-.022Z" transform="translate(-1288.666 -404.291)" fill="#161616"/>
        </g>
      </g>
    </g>
    <g id="Group_3105" data-name="Group 3105" transform="translate(70.935 13.232)">
      <g id="Group_3104" data-name="Group 3104" transform="translate(0)">
        <g id="Group_3103" data-name="Group 3103">
          <path id="Path_1611" data-name="Path 1611" d="M1288.315,407.219a.063.063,0,0,0,0,.111,1.662,1.662,0,0,0,.189-.111v.1c-.056-.045-.1-.078-.156-.123-.011.022-.011.033-.023.045a.132.132,0,0,1,.123-.122.117.117,0,0,1,.123.122.2.2,0,0,1-.156.189.127.127,0,0,1-.156-.122v-.1a.129.129,0,0,1,.189-.111.188.188,0,0,1,0,.323c-.156.089-.278-.122-.133-.2Z" transform="translate(-1288.25 -407.081)" fill="#161616"/>
        </g>
      </g>
    </g>
    <g id="Group_3106" data-name="Group 3106" transform="translate(54.427 7.814)" opacity="0.15" style="isolation: isolate">
      <path id="Path_1612" data-name="Path 1612" d="M1302.993,394.077a20.648,20.648,0,0,0-.612,2.527c-.4,2.216-.791,4.22,0,6.225a8.073,8.073,0,0,0,2.872,3.585,11.823,11.823,0,0,1-2.773-.445,13.884,13.884,0,0,1-1.37-.479,8.76,8.76,0,0,0-.312,2.294,9.082,9.082,0,0,0,.167,1.7,2.5,2.5,0,0,1-1.058-.167,2.741,2.741,0,0,1-.824-.546,5.522,5.522,0,0,1-1.091.858,6.152,6.152,0,0,1-4.131.679,6.666,6.666,0,0,1-4.209-2.561,4.856,4.856,0,0,1-1.091-3.318,4.621,4.621,0,0,1,1.336-2.806,4.65,4.65,0,0,0,1.637,2.049,4.59,4.59,0,0,0,3.619.679,4.7,4.7,0,0,0,3.285-4.064,2.031,2.031,0,0,1-.757-.134,1.793,1.793,0,0,1-.958-.957,1.628,1.628,0,0,1,0-1.236,1.368,1.368,0,0,1,.991-.824,1.33,1.33,0,0,1,1.091.379,7.333,7.333,0,0,0,2.873-1.7A6.626,6.626,0,0,0,1302.993,394.077Z" transform="translate(-1288.547 -394.077)" fill="#6d6c6c"/>
    </g>
    <g id="Group_3107" data-name="Group 3107" transform="translate(63.572 13.548)" opacity="0.23" style="isolation: isolate">
      <path id="Path_1613" data-name="Path 1613" d="M1295.628,408.152c.423-.1.846-.2,1.269-.312a10.2,10.2,0,0,1,.646,1.024,20.972,20.972,0,0,1,1.058,2.494,7.094,7.094,0,0,0,1.637,2.26c-.513-.178-1.025-.367-1.537-.545a5.355,5.355,0,0,0-.546,2.772,4.91,4.91,0,0,0,.345,1.5c-.5-.167-1-.345-1.5-.512a5.642,5.642,0,0,0,.824-1.5,6.528,6.528,0,0,0,.312-2.494,9.93,9.93,0,0,0-1.236-4.443,2.025,2.025,0,0,1-.713-.033A2.093,2.093,0,0,1,1295.628,408.152Z" transform="translate(-1295.628 -407.84)" fill="#6d6c6c"/>
    </g>
    <g id="Group_3108" data-name="Group 3108" transform="translate(68.271 16.8)" opacity="0.25" style="isolation: isolate">
      <path id="Path_1614" data-name="Path 1614" d="M1285.289,415.643a3.635,3.635,0,0,1-.1,2.917c-.523,1.013-1.782,2.1-3.073,1.77a2.594,2.594,0,0,1-1.492-1.236l-1.27,3.04a3.637,3.637,0,0,0,.513.345,4.554,4.554,0,0,0,3.485.289,4.068,4.068,0,0,0,2.127-1.615,4.539,4.539,0,0,0,.535-2.917A6.381,6.381,0,0,0,1285.289,415.643Z" transform="translate(-1279.354 -415.643)" fill="#6d6c6c"/>
    </g>
    <g id="speed_lines" data-name="speed lines" transform="translate(6.493 6.138)">
      <g id="Group_3111" data-name="Group 3111" transform="translate(96.549 37.679)">
        <g id="Group_3110" data-name="Group 3110" transform="translate(0)">
          <g id="Group_3109" data-name="Group 3109">
            <path id="Path_1615" data-name="Path 1615" d="M1172.82,480.837c-3.753-.189-7.3,1.136-10.668,2.65a75.723,75.723,0,0,1-10.333,4.231,40.408,40.408,0,0,1-6.514,1.28c-.212.022-.212-.312,0-.334a40.383,40.383,0,0,0,11.6-3.14c3.307-1.447,6.5-3.2,9.977-4.231a17.563,17.563,0,0,1,5.935-.79.167.167,0,1,1,0,.334Z" transform="translate(-1145.147 -480.484)" fill="#161616"/>
          </g>
        </g>
      </g>
      <g id="Group_3114" data-name="Group 3114" transform="translate(74.908 39.644)">
        <g id="Group_3113" data-name="Group 3113" transform="translate(0)">
          <g id="Group_3112" data-name="Group 3112">
            <path id="Path_1616" data-name="Path 1616" d="M1225.03,485.5c-6.6,2.951-14.019,2.583-20.989,1.358-2.183-.379-4.354-.835-6.514-1.3-.212-.045-.122-.367.089-.323,7.071,1.5,14.387,3.029,21.6,1.7a24.809,24.809,0,0,0,5.634-1.726c.2-.078.367.212.178.29Z" transform="translate(-1197.406 -485.2)" fill="#161616"/>
          </g>
        </g>
      </g>
      <g id="Group_3117" data-name="Group 3117" transform="translate(12.436 57.314)">
        <g id="Group_3116" data-name="Group 3116">
          <g id="Group_3115" data-name="Group 3115">
            <path id="Path_1617" data-name="Path 1617" d="M1359.637,534.336c-4.755,1.848-9.865.323-14.364-1.514-2.427-.991-4.821-2.082-7.327-2.9a41.564,41.564,0,0,0-7.806-1.7,42.1,42.1,0,0,0-8.863-.089c-.211.022-.211-.312,0-.334a41.785,41.785,0,0,1,15.177,1.325c5,1.4,9.531,4.153,14.609,5.267a14.784,14.784,0,0,0,8.485-.379c.2-.078.29.245.089.323Z" transform="translate(-1321.119 -527.607)" fill="#161616"/>
          </g>
        </g>
      </g>
      <g id="Group_3120" data-name="Group 3120" transform="translate(0 51.155)">
        <g id="Group_3119" data-name="Group 3119">
          <g id="Group_3118" data-name="Group 3118">
            <path id="Path_1618" data-name="Path 1618" d="M1415.463,514.458a32.224,32.224,0,0,0-19.608.479c-.2.067-.29-.256-.089-.323a32.627,32.627,0,0,1,19.787-.479.168.168,0,0,1-.089.323Z" transform="translate(-1395.652 -512.828)" fill="#161616"/>
          </g>
        </g>
      </g>
      <g id="Group_3123" data-name="Group 3123" transform="translate(23.876)">
        <g id="Group_3122" data-name="Group 3122">
          <g id="Group_3121" data-name="Group 3121">
            <path id="Path_1619" data-name="Path 1619" d="M1335.322,391.7a63.424,63.424,0,0,0-7.227-1.2,26.437,26.437,0,0,0-7.26.4c-4.61.891-9.1,2.338-13.8,2.806a25.918,25.918,0,0,1-7.705-.3c-.211-.045-.123-.367.089-.323,4.733.957,9.554.2,14.2-.858,4.621-1.047,9.142-2.45,13.941-2.116a60.358,60.358,0,0,1,7.85,1.258.173.173,0,0,1-.089.334Z" transform="translate(-1299.213 -390.055)" fill="#161616"/>
          </g>
        </g>
      </g>
      <g id="Group_3126" data-name="Group 3126" transform="translate(15.411 3.301)">
        <g id="Group_3125" data-name="Group 3125">
          <g id="Group_3124" data-name="Group 3124">
            <path id="Path_1620" data-name="Path 1620" d="M1365.332,398.3c-7.4,2.427-15.177,4.543-23.049,3.675a28.8,28.8,0,0,1-6.191-1.381c-.2-.067-.112-.39.089-.323,7.382,2.572,15.344,1.625,22.737-.367,2.127-.568,4.232-1.236,6.314-1.915.212-.078.3.245.1.312Z" transform="translate(-1335.979 -397.976)" fill="#161616"/>
          </g>
        </g>
      </g>
    </g>
  </g>
</svg>
