<svg xmlns="http://www.w3.org/2000/svg" width="132.704" height="100" viewBox="0 0 132.704 100">
  <g id="Group_1317" data-name="Group 1317" transform="translate(-123.1 -46.825)">
    <g id="background" transform="translate(123.1 46.825)">
      <g id="Group_659" data-name="Group 659" transform="translate(24.318 79.041)">
        <g id="Group_658" data-name="Group 658" transform="translate(0 0)">
          <path id="Path_420" data-name="Path 420" d="M389.383,906.345a12.9,12.9,0,0,1-2.926-3.228,12.571,12.571,0,0,1-1.029-1.994c-.108-.267-.533-1.193.114-1.033.311.077.537.418.825.563a.142.142,0,0,0,.171-.221,2.207,2.207,0,0,1-.516-1.84l-.207.084.691.414a.142.142,0,0,0,.193-.193l-2.829-5.427c-.885-1.7-1.852-3.474-1.716-5.451l-.241.1a13.536,13.536,0,0,1,2.514,3.115q1.184,1.808,2.357,3.624,2.371,3.67,4.7,7.37c.1.153.34.012.243-.142q-2.374-3.777-4.795-7.524-1.2-1.849-2.4-3.691a12.941,12.941,0,0,0-2.413-2.951.143.143,0,0,0-.241.1,10.111,10.111,0,0,0,1.583,5.264q1.5,2.879,3,5.756l.193-.193-.691-.414a.142.142,0,0,0-.207.084,2.517,2.517,0,0,0,.588,2.114l.171-.221c-.386-.2-1.059-1.013-1.529-.446-.23.278-.044.663.065.95a12.959,12.959,0,0,0,4.139,5.63c.141.111.342-.087.2-.2Z" transform="translate(-381.859 -887.882)" fill="#e8e8e8"/>
        </g>
      </g>
      <g id="Group_661" data-name="Group 661" transform="translate(31.459 80.625)">
        <g id="Group_660" data-name="Group 660" transform="translate(0 0)">
          <path id="Path_421" data-name="Path 421" d="M458.368,914.029l-.239-1.471-.1.173c.549-.2,1.033.725,1.286,1.067s.515.712.762,1.075q.766,1.126,1.441,2.309c.092.161.315.02.243-.142-.622-1.412-1.166-2.857-1.656-4.32q-.342-1.021-.654-2.053-.157-.515-.308-1.032c-.057-.2-.122-.391-.17-.589a1.664,1.664,0,0,1-.062-.328q.136-.64.436-.265l.277-.038a5.3,5.3,0,0,1-.162-3.495l-.258.034q3.236,6.766,6.378,13.577c.076.165.319.022.243-.142q-3.142-6.81-6.379-13.576c-.059-.122-.217-.066-.258.034a5.552,5.552,0,0,0,.162,3.645.142.142,0,0,0,.277-.037c0-.439-.6-.548-.857-.24a1.081,1.081,0,0,0-.051.98c.147.548.319,1.092.485,1.635a57.087,57.087,0,0,0,2.313,6.354l.243-.142a35.072,35.072,0,0,0-1.944-3.029c-.373-.519-1.046-1.846-1.862-1.551a.146.146,0,0,0-.1.173l.239,1.471c.029.179.3.1.272-.075Z" transform="translate(-457.854 -904.742)" fill="#e8e8e8"/>
        </g>
      </g>
      <g id="Group_663" data-name="Group 663" transform="translate(78.9 79.932)">
        <g id="Group_662" data-name="Group 662" transform="translate(0 0)">
          <path id="Path_422" data-name="Path 422" d="M963.788,912.966a6.148,6.148,0,0,1-.54-5.026l-.236.062a4.5,4.5,0,0,1,.953,2.241c.021.156.293.121.277-.037a22.114,22.114,0,0,1,.59-7.8l-.236.062a1.53,1.53,0,0,1,.493.842c.034.152.3.122.277-.037a8.673,8.673,0,0,1,1.284-5.7h-.243a7.507,7.507,0,0,1,.659,3.477q.065,1.971.13,3.941.13,3.941.259,7.882c.006.181.288.182.282,0q-.136-4.129-.272-8.258c-.045-1.356-.08-2.713-.135-4.069a6.851,6.851,0,0,0-.68-3.115.142.142,0,0,0-.243,0,8.918,8.918,0,0,0-1.323,5.838l.277-.037a1.759,1.759,0,0,0-.566-.966.143.143,0,0,0-.236.062,22.34,22.34,0,0,0-.6,7.876l.277-.037a4.754,4.754,0,0,0-1.026-2.366c-.071-.088-.206-.029-.236.062a6.431,6.431,0,0,0,.569,5.243.141.141,0,0,0,.243-.142Z" transform="translate(-962.661 -897.364)" fill="#e8e8e8"/>
        </g>
      </g>
      <g id="Group_665" data-name="Group 665" transform="translate(83.551 78.452)">
        <g id="Group_664" data-name="Group 664">
          <path id="Path_423" data-name="Path 423" d="M1012.505,893.071a5.317,5.317,0,0,1,.691-3.663h-.244l.392.767c.069.135.251.056.263-.071a23.327,23.327,0,0,1,.873-4.561q.323-1.082.75-2.129a6.935,6.935,0,0,1,.523-1.145c.091-.141.313-.471.536-.285.083.069.076.609.085.741a27.978,27.978,0,0,1-.309,4.647l-.5,4.916c-.019.182.258.176.282,0a12.892,12.892,0,0,1,.774-3.015,12.565,12.565,0,0,1,.651-1.4c.226-.417.641-1.374,1.247-1.165l-.1-.173-1.729,11.061c-.028.177.242.254.272.075a11.257,11.257,0,0,1,.789-2.7c.192-.437,1.192-2.7,1.791-1.87a1.615,1.615,0,0,1,.109,1.082c-.063.509-.151,1.016-.255,1.518a20.684,20.684,0,0,1-.821,2.862c-.062.171.21.244.272.075a20.511,20.511,0,0,0,.995-3.81c.095-.6.38-1.842-.379-2.173-.8-.346-1.374,1.01-1.636,1.512a11.346,11.346,0,0,0-1.136,3.426l.272.075,1.729-11.061a.146.146,0,0,0-.1-.173c-1.013-.348-1.672,1.45-1.972,2.113a13.283,13.283,0,0,0-1.057,3.736h.282l.556-5.473a17.935,17.935,0,0,0,.126-5.078.139.139,0,0,0-.1-.1c-.58-.15-.907.418-1.115.869a22.015,22.015,0,0,0-.926,2.38,23.644,23.644,0,0,0-1.065,5.217l.263-.071-.391-.767a.142.142,0,0,0-.244,0,5.619,5.619,0,0,0-.719,3.88c.031.179.3.1.272-.075Z" transform="translate(-1012.148 -881.614)" fill="#e8e8e8"/>
        </g>
      </g>
      <g id="Group_667" data-name="Group 667" transform="translate(14.713 52.248)">
        <g id="Group_666" data-name="Group 666">
          <path id="Path_424" data-name="Path 424" d="M279.792,603.077a94.347,94.347,0,0,1,18.391,1.761c6.089,1.1,12.119,2.5,18.2,3.623a148.324,148.324,0,0,0,18.189,2.249,144.533,144.533,0,0,0,36.66-2.494q1.15-.228,2.3-.475c.177-.038.1-.31-.075-.272a144.108,144.108,0,0,1-55.225,1.04c-6.066-1.063-12.067-2.452-18.117-3.6a105.892,105.892,0,0,0-17.991-2.118q-1.166-.019-2.332,0a.141.141,0,0,0,0,.282Z" transform="translate(-279.656 -602.783)" fill="#e8e8e8"/>
        </g>
      </g>
      <g id="Group_669" data-name="Group 669" transform="translate(67.943 44.895)">
        <g id="Group_668" data-name="Group 668">
          <path id="Path_425" data-name="Path 425" d="M846.2,539.869c8.552-1.1,16.8-3.689,24.955-6.406,8.2-2.732,16.38-5.608,24.877-7.268a67.434,67.434,0,0,1,14.659-1.348.141.141,0,0,0,0-.282c-8.674-.223-17.23,1.607-25.507,4.053s-16.339,5.518-24.633,7.886a98.144,98.144,0,0,1-14.351,3.083c-.177.023-.18.305,0,.282Z" transform="translate(-846.067 -524.547)" fill="#e8e8e8"/>
        </g>
      </g>
      <g id="Group_671" data-name="Group 671" transform="translate(0 0.848)">
        <g id="Group_670" data-name="Group 670">
          <path id="Path_426" data-name="Path 426" d="M123.143,62.187a18.557,18.557,0,0,0,8.439,4.326A59.427,59.427,0,0,0,142.007,68a32.954,32.954,0,0,0,10.9-.933,38.834,38.834,0,0,0,9.465-4.042,58.94,58.94,0,0,0,9.4-6.933c.136-.121-.064-.32-.2-.2-5.076,4.515-10.868,8.463-17.4,10.514a31.226,31.226,0,0,1-10.417,1.4,62.9,62.9,0,0,1-10.709-1.246,19.441,19.441,0,0,1-9.7-4.572c-.131-.126-.331.074-.2.2Z" transform="translate(-123.1 -55.852)" fill="#e8e8e8"/>
        </g>
      </g>
      <g id="Group_673" data-name="Group 673" transform="translate(64.127)">
        <g id="Group_672" data-name="Group 672">
          <path id="Path_427" data-name="Path 427" d="M805.5,47.065a47.436,47.436,0,0,0,22.124,11.829,69.307,69.307,0,0,0,13.98,1.853,53.673,53.673,0,0,0,13.848-.968,38.5,38.5,0,0,0,13.291-5.849c.148-.1.008-.347-.142-.243a38.269,38.269,0,0,1-11.636,5.423,48.5,48.5,0,0,1-13.576,1.4c-9.014-.131-18.125-1.694-26.277-5.669A43.285,43.285,0,0,1,805.7,46.866c-.13-.127-.329.072-.2.2Z" transform="translate(-805.458 -46.825)" fill="#e8e8e8"/>
        </g>
      </g>
      <g id="Group_674" data-name="Group 674" transform="translate(6.663 11.334)">
        <circle id="Ellipse_40" data-name="Ellipse 40" cx="1.052" cy="1.052" r="1.052" fill="#faad00"/>
      </g>
      <g id="Group_675" data-name="Group 675" transform="translate(15.608 12.721)">
        <circle id="Ellipse_41" data-name="Ellipse 41" cx="1.052" cy="1.052" r="1.052" fill="#faad00"/>
      </g>
      <g id="Group_676" data-name="Group 676" transform="translate(27.481 12.23)">
        <circle id="Ellipse_42" data-name="Ellipse 42" cx="1.052" cy="1.052" r="1.052" fill="#faad00"/>
      </g>
      <g id="Group_677" data-name="Group 677" transform="translate(39.813 7.135)">
        <circle id="Ellipse_43" data-name="Ellipse 43" cx="1.052" cy="1.052" r="1.052" fill="#faad00"/>
      </g>
      <g id="Group_678" data-name="Group 678" transform="translate(65.224 2.367)">
        <circle id="Ellipse_44" data-name="Ellipse 44" cx="1.052" cy="1.052" r="1.052" fill="#faad00"/>
      </g>
      <g id="Group_679" data-name="Group 679" transform="translate(75.272 8.631)">
        <circle id="Ellipse_45" data-name="Ellipse 45" cx="1.052" cy="1.052" r="1.052" fill="#faad00"/>
      </g>
      <g id="Group_680" data-name="Group 680" transform="translate(88.131 12.721)">
        <circle id="Ellipse_46" data-name="Ellipse 46" cx="1.052" cy="1.052" r="1.052" fill="#faad00"/>
      </g>
      <g id="Group_681" data-name="Group 681" transform="translate(103.951 13.773)">
        <circle id="Ellipse_47" data-name="Ellipse 47" cx="1.052" cy="1.052" r="1.052" fill="#faad00"/>
      </g>
      <g id="Group_682" data-name="Group 682" transform="translate(120.515 10.429)">
        <circle id="Ellipse_48" data-name="Ellipse 48" cx="1.052" cy="1.052" r="1.052" fill="#faad00"/>
      </g>
      <g id="Group_683" data-name="Group 683" transform="translate(0.768 9.238)">
        <circle id="Ellipse_49" data-name="Ellipse 49" cx="1.121" cy="1.121" r="1.121" fill="#0fbf89"/>
      </g>
      <g id="Group_684" data-name="Group 684" transform="translate(11.564 12.316)">
        <circle id="Ellipse_50" data-name="Ellipse 50" cx="1.121" cy="1.121" r="1.121" fill="#0fbf89"/>
      </g>
      <g id="Group_685" data-name="Group 685" transform="translate(22.112 12.964)">
        <circle id="Ellipse_51" data-name="Ellipse 51" cx="1.121" cy="1.121" r="1.121" fill="#0fbf89"/>
      </g>
      <g id="Group_686" data-name="Group 686" transform="translate(34.332 10.36)">
        <circle id="Ellipse_52" data-name="Ellipse 52" cx="1.121" cy="1.121" r="1.121" fill="#0fbf89"/>
      </g>
      <g id="Group_687" data-name="Group 687" transform="translate(44.543 3.855)">
        <circle id="Ellipse_53" data-name="Ellipse 53" cx="1.121" cy="1.121" r="1.121" fill="#0fbf89"/>
      </g>
      <g id="Group_688" data-name="Group 688" transform="translate(70.133 6.013)">
        <circle id="Ellipse_54" data-name="Ellipse 54" cx="1.121" cy="1.121" r="1.121" fill="#0fbf89"/>
      </g>
      <g id="Group_689" data-name="Group 689" transform="translate(81.43 11.412)">
        <circle id="Ellipse_55" data-name="Ellipse 55" cx="1.121" cy="1.121" r="1.121" fill="#0fbf89"/>
      </g>
      <g id="Group_690" data-name="Group 690" transform="translate(95.3 13.438)">
        <circle id="Ellipse_56" data-name="Ellipse 56" cx="1.121" cy="1.121" r="1.121" fill="#0fbf89"/>
      </g>
      <g id="Group_691" data-name="Group 691" transform="translate(111.587 13.212)">
        <circle id="Ellipse_57" data-name="Ellipse 57" cx="1.121" cy="1.121" r="1.121" fill="#0fbf89"/>
      </g>
      <g id="Group_692" data-name="Group 692" transform="translate(125.856 7.509)">
        <circle id="Ellipse_58" data-name="Ellipse 58" cx="1.121" cy="1.121" r="1.121" fill="#0fbf89"/>
      </g>
      <g id="Group_694" data-name="Group 694" transform="translate(98.94 67.837)">
        <g id="Group_693" data-name="Group 693" transform="translate(0 0)">
          <path id="Path_428" data-name="Path 428" d="M1177.032,770.92a1.125,1.125,0,1,1,1.125-1.125A1.126,1.126,0,0,1,1177.032,770.92Zm0-2.062a.937.937,0,1,0,.937.937A.938.938,0,0,0,1177.032,768.858Z" transform="translate(-1175.907 -768.67)" fill="#0fbf89"/>
        </g>
      </g>
      <g id="Group_696" data-name="Group 696" transform="translate(35.407 31.51)">
        <g id="Group_695" data-name="Group 695">
          <path id="Path_429" data-name="Path 429" d="M500.3,383a.443.443,0,1,1,.443-.443A.444.444,0,0,1,500.3,383Zm0-.793a.35.35,0,1,0,.349.349A.35.35,0,0,0,500.3,382.206Z" transform="translate(-499.857 -382.112)" fill="#0fbf89"/>
        </g>
      </g>
      <g id="Group_697" data-name="Group 697" transform="translate(15.608 63.229)">
        <circle id="Ellipse_59" data-name="Ellipse 59" cx="1.052" cy="1.052" r="1.052" fill="#0fbf89"/>
      </g>
      <g id="Group_698" data-name="Group 698" transform="translate(35.85 36.72)">
        <circle id="Ellipse_60" data-name="Ellipse 60" cx="0.866" cy="0.866" r="0.866" fill="#faad00"/>
      </g>
      <g id="Group_699" data-name="Group 699" transform="translate(95.804 30.81)">
        <circle id="Ellipse_61" data-name="Ellipse 61" cx="0.572" cy="0.572" r="0.572" fill="#faad00"/>
      </g>
      <g id="Group_700" data-name="Group 700" transform="translate(108.551 27.191)">
        <circle id="Ellipse_62" data-name="Ellipse 62" cx="1.048" cy="1.048" r="1.048" fill="#faad00"/>
      </g>
      <g id="Group_702" data-name="Group 702" transform="translate(23.12 42.857)">
        <g id="Group_701" data-name="Group 701">
          <path id="Path_430" data-name="Path 430" d="M369.381,503.574a.983.983,0,0,1,1.634.033c.261.294.517.628.941.661.83.064,1.185-.943,1.918-1.111.919-.211,1.5,1.767,2.514,1.047.225-.161.29-.484.528-.625a1.071,1.071,0,0,1,.991.143,2.086,2.086,0,0,0,1.449.441c.178-.035.1-.307-.075-.272-.721.144-1.241-.591-1.936-.66-.468-.047-.661.177-.929.51-.667.827-1.25-.307-1.762-.668a1.018,1.018,0,0,0-1.062-.109,5.646,5.646,0,0,0-.967.754.9.9,0,0,1-.724.259c-.3-.064-.495-.353-.686-.569a1.261,1.261,0,0,0-2.077.024c-.1.151.143.293.243.142Z" transform="translate(-369.113 -502.861)" fill="#faad00"/>
        </g>
      </g>
      <g id="Group_704" data-name="Group 704" transform="translate(31.877 45.727)">
        <g id="Group_703" data-name="Group 703">
          <path id="Path_431" data-name="Path 431" d="M462.561,533.867c.507-.728,1.493.565,1.922.816a.925.925,0,0,0,1.245-.186c.1-.1.173-.223.276-.318a.763.763,0,0,1,.947-.019,7.565,7.565,0,0,1,.812.659,1.25,1.25,0,0,0,1.475.25c.151-.1.01-.344-.142-.244-.8.532-1.575-.786-2.268-1.038-.623-.226-.888.116-1.3.509-.8.76-1.378-.451-2.067-.767a.857.857,0,0,0-1.144.195c-.1.149.14.29.243.142Z" transform="translate(-462.292 -533.402)" fill="#faad00"/>
        </g>
      </g>
      <g id="Group_706" data-name="Group 706" transform="translate(87.962 23.59)">
        <g id="Group_705" data-name="Group 705">
          <path id="Path_432" data-name="Path 432" d="M1059.3,298.586c.8-.4,1.661.667,2.448.776a1.173,1.173,0,0,0,.969-.319c.434-.387.766-1.1,1.462-.785.67.3,1.526,1.73,2.364.859.161-.167.247-.387.395-.563a1.234,1.234,0,0,1,.928-.422,3.192,3.192,0,0,1,1.977.911c.142.11.342-.088.2-.2-.822-.637-1.977-1.418-3.018-.747a1.5,1.5,0,0,0-.428.45,1.794,1.794,0,0,1-.292.416.674.674,0,0,1-.8-.009c-.518-.284-.822-.875-1.418-1.033-1.122-.3-1.368,1.454-2.5,1.119-.8-.237-1.54-1.136-2.429-.7-.163.081-.02.324.142.243Z" transform="translate(-1059.089 -297.838)" fill="#faad00"/>
        </g>
      </g>
      <g id="Group_708" data-name="Group 708" transform="translate(16.307 30.557)">
        <g id="Group_707" data-name="Group 707">
          <path id="Path_433" data-name="Path 433" d="M296.9,373.083a1.2,1.2,0,0,1,1.2-.826c.54.03.843.539,1.325.709.863.3,1.452-.737,2.266-.575.761.152,1.032,1.144,1.937.816.47-.171.8-.53,1.323-.592a1.827,1.827,0,0,1,1.543.562c.126.131.325-.069.2-.2a2.1,2.1,0,0,0-2.516-.4c-.32.176-.652.49-1.05.411a1.729,1.729,0,0,1-.7-.479,1.281,1.281,0,0,0-1.04-.4,6.32,6.32,0,0,0-1.245.554c-.71.268-1.046-.372-1.629-.6a1.466,1.466,0,0,0-1.886.943c-.054.174.218.248.272.075Z" transform="translate(-296.623 -371.974)" fill="#e8e8e8"/>
        </g>
      </g>
      <g id="Group_710" data-name="Group 710" transform="translate(24.26 27.128)">
        <g id="Group_709" data-name="Group 709">
          <path id="Path_434" data-name="Path 434" d="M381.526,336.927c-.057-.783,1.032-.454,1.4-.287a2.014,2.014,0,0,0,1.188.277c.9-.148,1.883-1.6,2.839-1.038.511.3.851,1.1,1.533.618a2.86,2.86,0,0,1,.618-.448,1.478,1.478,0,0,1,.9-.015,4.5,4.5,0,0,1,1.474.759c.149.1.29-.14.142-.243-.737-.52-1.845-1.186-2.76-.7-.228.12-.533.533-.79.527-.285-.007-.492-.324-.679-.5a1.216,1.216,0,0,0-1.082-.366,3.94,3.94,0,0,0-1.472.788,1.7,1.7,0,0,1-1.006.359,3.293,3.293,0,0,1-1.03-.382c-.552-.23-1.611-.182-1.55.656.013.18.3.181.282,0Z" transform="translate(-381.241 -335.489)" fill="#e8e8e8"/>
        </g>
      </g>
      <g id="Group_712" data-name="Group 712" transform="translate(107.221 39.144)">
        <g id="Group_711" data-name="Group 711">
          <path id="Path_435" data-name="Path 435" d="M1264.3,465.072c.058-.494.673-.592,1.071-.519a4.915,4.915,0,0,1,1.088.483,1.733,1.733,0,0,0,1.468.084,8.007,8.007,0,0,0,1.443-1.07,1.433,1.433,0,0,1,1.815-.04,3.933,3.933,0,0,0,1.446.82,1.58,1.58,0,0,0,1.289-.522,3.275,3.275,0,0,1,.745-.589c.523-.24.995.075,1.489.219a1.142,1.142,0,0,0,1.348-.34c.1-.152-.144-.293-.243-.142-.452.682-1.428-.026-2-.1a1.455,1.455,0,0,0-1.141.4c-.421.346-.819.883-1.429.8a3.416,3.416,0,0,1-1.312-.751,1.742,1.742,0,0,0-2.252.086,9.384,9.384,0,0,1-1.147.9,1.816,1.816,0,0,1-1.827-.215c-.678-.345-2.006-.574-2.133.507-.021.18.261.178.282,0Z" transform="translate(-1264.016 -463.347)" fill="#e8e8e8"/>
        </g>
      </g>
      <g id="Group_714" data-name="Group 714" transform="translate(111.923 35.149)">
        <g id="Group_713" data-name="Group 713">
          <path id="Path_436" data-name="Path 436" d="M1314.335,422.014c.034-.486.584-.66.994-.586a3.479,3.479,0,0,1,.913.383,2.192,2.192,0,0,0,1.3.321c.523-.082.7-.5,1.071-.813.405-.344.878-.171,1.3.051.617.326,1.295.894,2.042.765.488-.084.828-.5,1.258-.716a2.9,2.9,0,0,1,2.066-.183.141.141,0,0,0,.075-.272,3.21,3.21,0,0,0-1.765.007,3.08,3.08,0,0,0-.777.352c-.32.2-.59.512-.99.546-.937.08-1.636-.912-2.542-1.024a1.1,1.1,0,0,0-.947.349c-.3.3-.474.66-.965.671a2.272,2.272,0,0,1-1.05-.334,2.178,2.178,0,0,0-1.5-.369.945.945,0,0,0-.76.851c-.013.181.269.18.282,0Z" transform="translate(-1314.053 -420.836)" fill="#e8e8e8"/>
        </g>
      </g>
      <g id="Group_716" data-name="Group 716" transform="translate(112.871 23.044)">
        <g id="Group_715" data-name="Group 715">
          <path id="Path_437" data-name="Path 437" d="M1324.344,292.724c.738-.478,1.635.339,2.343.559a2.478,2.478,0,0,0,2.118-.562,2.116,2.116,0,0,1,1.778-.223,11.419,11.419,0,0,0,1.352.388,1.661,1.661,0,0,0,1.764-.641.141.141,0,0,0-.243-.142c-.56.943-1.842.411-2.634.172a2.615,2.615,0,0,0-2.391.345,2.234,2.234,0,0,1-1.248.476,3.3,3.3,0,0,1-1.239-.442,1.712,1.712,0,0,0-1.745-.172c-.152.1-.01.343.142.243Z" transform="translate(-1324.137 -292.034)" fill="#e8e8e8"/>
        </g>
      </g>
      <g id="Group_718" data-name="Group 718" transform="translate(7.598 75.486)">
        <g id="Group_717" data-name="Group 717" transform="translate(0 0)">
          <path id="Path_438" data-name="Path 438" d="M204.2,852.433c.68-1.439,2.449-1.461,3.722-.869.932.433,1.987,1.439,3.051.761a3.738,3.738,0,0,0,.885-.953,2.234,2.234,0,0,1,1.678-1.022c1.374-.1,2.613.731,3.989.677.181-.007.182-.289,0-.282-1.444.058-2.754-.861-4.208-.654a2.23,2.23,0,0,0-1.376.733,6.381,6.381,0,0,1-1.111,1.257c-.748.48-1.537-.068-2.19-.45a4.984,4.984,0,0,0-1.9-.709,2.651,2.651,0,0,0-2.783,1.369c-.077.163.166.306.243.142Z" transform="translate(-203.945 -850.06)" fill="#e8e8e8"/>
        </g>
      </g>
    </g>
    <g id="swing" transform="translate(164.294 48.353)">
      <g id="Group_719" data-name="Group 719" transform="translate(0.18 64.731)">
        <path id="Path_439" data-name="Path 439" d="M563.351,757.943c.792-.275,1.9-.674,3.209-1.2a51.975,51.975,0,0,0,6.074-2.785c.885-.485,2.072-1.174,3.433-2.09,1.376.222,3.283.5,5.565.746a83.985,83.985,0,0,0,11.873.627c2.882-.076,4.093-.29,7.193-.152,1.957.087,3.567.265,4.652.407a38.088,38.088,0,0,1-3.218,3.763,16.057,16.057,0,0,1-4.251,3.54,11.171,11.171,0,0,1-5.372,1.063C588.206,761.825,577.469,760.488,563.351,757.943Z" transform="translate(-563.351 -751.87)" fill="#fff"/>
      </g>
      <g id="Group_720" data-name="Group 720" transform="translate(0.335 70.689)">
        <path id="Path_440" data-name="Path 440" d="M565,815.274q.046,1.27.093,2.54c.543.181,1.358.44,2.36.708a46.355,46.355,0,0,0,10.138,1.42c10.31.635,9.876,1.155,13.829.925a47.9,47.9,0,0,0,8.126-1.176L599.3,817.6c-4.435.188-9.238.2-14.359-.05A156.751,156.751,0,0,1,565,815.274Z" transform="translate(-565 -815.274)" fill="#161616"/>
      </g>
      <g id="Group_721" data-name="Group 721" transform="translate(34.661 66.378)">
        <path id="Path_441" data-name="Path 441" d="M930.255,776.253q.109.937.219,1.874a30.869,30.869,0,0,0,7.8-7.423q-.075-.653-.149-1.306a28.644,28.644,0,0,1-7.872,6.854Z" transform="translate(-930.255 -769.398)" fill="#161616"/>
      </g>
      <g id="Group_723" data-name="Group 723" transform="translate(7.238 0.12)">
        <g id="Group_722" data-name="Group 722">
          <path id="Path_442" data-name="Path 442" d="M638.456,64.492v59.426a.141.141,0,0,0,.282,0V64.492a.141.141,0,0,0-.282,0Z" transform="translate(-638.456 -64.355)" fill="#161616"/>
        </g>
      </g>
      <g id="Group_725" data-name="Group 725" transform="translate(0.189 59.564)">
        <g id="Group_724" data-name="Group 724">
          <path id="Path_443" data-name="Path 443" d="M570.316,696.955q-3.264,5.589-6.841,10.986c-.1.152.144.293.244.142q3.576-5.4,6.841-10.986a.141.141,0,0,0-.243-.142Z" transform="translate(-563.451 -696.887)" fill="#161616"/>
        </g>
      </g>
      <g id="Group_727" data-name="Group 727" transform="translate(7.311 59.578)">
        <g id="Group_726" data-name="Group 726">
          <path id="Path_444" data-name="Path 444" d="M639.271,697.285c1.695,1.775,3.487,3.459,5.249,5.166.13.126.33-.073.2-.2-1.763-1.707-3.554-3.39-5.249-5.166-.126-.132-.325.068-.2.2Z" transform="translate(-639.231 -697.043)" fill="#161616"/>
        </g>
      </g>
      <g id="Group_729" data-name="Group 729" transform="translate(39.881)">
        <g id="Group_728" data-name="Group 728">
          <path id="Path_445" data-name="Path 445" d="M985.8,63.219V123a.141.141,0,0,0,.282,0V63.219a.141.141,0,0,0-.282,0Z" transform="translate(-985.799 -63.083)" fill="#161616"/>
        </g>
      </g>
      <g id="Group_731" data-name="Group 731" transform="translate(34.667 60.031)">
        <g id="Group_730" data-name="Group 730">
          <path id="Path_446" data-name="Path 446" d="M935.584,701.935q-2.81,6.2-5.256,12.547c-.065.169.207.243.272.075q2.432-6.315,5.228-12.48c.074-.164-.169-.308-.244-.142Z" transform="translate(-930.317 -701.861)" fill="#161616"/>
        </g>
      </g>
      <g id="Group_733" data-name="Group 733" transform="translate(40.01 60.261)">
        <g id="Group_732" data-name="Group 732">
          <path id="Path_447" data-name="Path 447" d="M987.186,704.475q1.065,3.06,2.332,6.042c.071.167.314.023.244-.142q-1.251-2.948-2.3-5.975c-.059-.17-.332-.1-.272.075Z" transform="translate(-987.177 -704.304)" fill="#161616"/>
        </g>
      </g>
      <g id="Group_735" data-name="Group 735" transform="translate(0 70.67)">
        <g id="Group_734" data-name="Group 734">
          <path id="Path_448" data-name="Path 448" d="M561.509,815.327a19.8,19.8,0,0,0,5.892,1.279q3.443.341,6.891.632c4.645.4,9.3.7,13.969.679,2.607-.009,5.213-.121,7.809-.363.179-.017.181-.3,0-.282-9.087.848-18.208.04-27.263-.814a23.616,23.616,0,0,1-7.156-1.374c-.165-.07-.309.172-.142.244Z" transform="translate(-561.435 -815.071)" fill="#161616"/>
        </g>
      </g>
      <g id="Group_737" data-name="Group 737" transform="translate(12.757 64.593)">
        <g id="Group_736" data-name="Group 736">
          <path id="Path_449" data-name="Path 449" d="M697.286,750.675a109.865,109.865,0,0,0,11.332,1.216c3.808.208,7.6.152,11.411.04a28.923,28.923,0,0,1,6.54.372c.177.035.253-.236.075-.272-3.68-.735-7.47-.294-11.191-.263a108.719,108.719,0,0,1-11.441-.508q-3.338-.325-6.651-.856c-.177-.028-.254.243-.075.272Z" transform="translate(-697.184 -750.401)" fill="#161616"/>
        </g>
      </g>
      <g id="Group_739" data-name="Group 739" transform="translate(0.088 64.768)">
        <g id="Group_738" data-name="Group 738">
          <path id="Path_450" data-name="Path 450" d="M562.546,758.486a66.049,66.049,0,0,0,12.625-5.955.141.141,0,0,0-.142-.244,65.674,65.674,0,0,1-12.557,5.927c-.17.059-.1.332.075.272Z" transform="translate(-562.374 -752.266)" fill="#161616"/>
        </g>
      </g>
      <g id="Group_741" data-name="Group 741" transform="translate(34.764 66.452)">
        <g id="Group_740" data-name="Group 740" transform="translate(0 0)">
          <path id="Path_451" data-name="Path 451" d="M931.566,776.853a25.825,25.825,0,0,0,7.4-6.416c.111-.141-.087-.342-.2-.2a25.62,25.62,0,0,1-7.34,6.372.141.141,0,0,0,.142.243Z" transform="translate(-931.355 -770.188)" fill="#161616"/>
        </g>
      </g>
      <g id="Group_743" data-name="Group 743" transform="translate(34.739 73.057)">
        <g id="Group_742" data-name="Group 742" transform="translate(0 0)">
          <path id="Path_452" data-name="Path 452" d="M931.09,840.607v1.913a.141.141,0,0,0,.282,0v-1.913a.141.141,0,0,0-.282,0Z" transform="translate(-931.09 -840.471)" fill="#161616"/>
        </g>
      </g>
      <g id="Group_745" data-name="Group 745" transform="translate(34.998 67.546)">
        <g id="Group_744" data-name="Group 744" transform="translate(0 0)">
          <path id="Path_453" data-name="Path 453" d="M934.049,789.321c2.838-2.08,5.74-4.238,7.6-7.289.095-.155-.149-.3-.244-.142-1.837,3.009-4.7,5.137-7.5,7.188-.145.106,0,.351.142.243Z" transform="translate(-933.846 -781.822)" fill="#161616"/>
        </g>
      </g>
      <g id="Group_747" data-name="Group 747" transform="translate(42.392 66.242)">
        <g id="Group_746" data-name="Group 746" transform="translate(0 0)">
          <path id="Path_454" data-name="Path 454" d="M1012.518,768.084v1.435a.141.141,0,0,0,.282,0v-1.435a.141.141,0,0,0-.282,0Z" transform="translate(-1012.518 -767.948)" fill="#161616"/>
        </g>
      </g>
      <g id="Group_749" data-name="Group 749" transform="translate(0.039 70.668)">
        <g id="Group_748" data-name="Group 748">
          <path id="Path_455" data-name="Path 455" d="M561.848,815.182l.157,2.509c.011.18.293.181.282,0l-.157-2.509c-.011-.18-.293-.181-.282,0Z" transform="translate(-561.848 -815.047)" fill="#161616"/>
        </g>
      </g>
      <g id="Group_751" data-name="Group 751" transform="translate(0.295 73.083)">
        <g id="Group_750" data-name="Group 750" transform="translate(0 0)">
          <path id="Path_456" data-name="Path 456" d="M564.67,841.03c4.119,1.54,8.7,1.5,13.032,1.779,4.565.294,9.152.736,13.729.754a33.532,33.532,0,0,0,7.537-.731c.177-.04.1-.312-.075-.272-4.407,1-8.947.753-13.42.467-4.512-.289-9.033-.524-13.54-.882a26.336,26.336,0,0,1-7.189-1.387c-.17-.064-.244.209-.075.272Z" transform="translate(-564.575 -840.748)" fill="#161616"/>
        </g>
      </g>
    </g>
    <g id="girl" transform="translate(171.138 71.438)">
      <g id="arm_right" data-name="arm right" transform="translate(6.648 14.816)">
        <g id="Group_752" data-name="Group 752" transform="translate(0.082 0.141)">
          <path id="Path_457" data-name="Path 457" d="M713.272,467.883a19.137,19.137,0,0,0-1.615,1.837,24.256,24.256,0,0,0-2.569,4.39c-1.744,3.46-1.018,2.8-2.248,5.057a5.5,5.5,0,0,0-.965,3.055,2.532,2.532,0,0,0,.655,1.765,2.86,2.86,0,0,0,2.547.435c1.777-.458,2.655-2.3,3.059-3.18.874-1.9.776-3.374.817-6.316C712.976,473.24,713.048,470.832,713.272,467.883Z" transform="translate(-705.87 -467.883)" fill="#fff"/>
        </g>
        <g id="Group_754" data-name="Group 754">
          <g id="Group_753" data-name="Group 753">
            <path id="Path_458" data-name="Path 458" d="M712.383,466.422a24.984,24.984,0,0,0-4.4,6.644c-.58,1.23-1.091,2.494-1.564,3.773a31.964,31.964,0,0,0-1.41,4.223c-.04.186.234.265.274.079a30.8,30.8,0,0,1,1.315-3.964c.49-1.344,1.022-2.671,1.63-3.961a24.723,24.723,0,0,1,4.36-6.584c.129-.135-.072-.345-.2-.21Z" transform="translate(-705.001 -466.378)" fill="#161616"/>
          </g>
        </g>
      </g>
      <g id="Group_755" data-name="Group 755" transform="translate(12.073 12.948)">
        <path id="Path_459" data-name="Path 459" d="M764.936,448.57a13.263,13.263,0,0,1,2.96-1.385,12.069,12.069,0,0,1,6.612-.378,11.414,11.414,0,0,1,3.338,1.386,31.07,31.07,0,0,1,.252,3.527,42.027,42.027,0,0,1-.378,5.416,72.931,72.931,0,0,0-.567,7.746,34.213,34.213,0,0,0,.378,4.66,27.822,27.822,0,0,1-3.967.819,28.444,28.444,0,0,1-10.076-.5,38.491,38.491,0,0,0,.315-11.021,7.907,7.907,0,0,1-1.071-4.093,9.185,9.185,0,0,1,.567-2.771A14.1,14.1,0,0,1,764.936,448.57Z" transform="translate(-762.729 -446.505)" fill="#faad00"/>
      </g>
      <g id="arm_left" data-name="arm left" transform="translate(25.37 14.335)">
        <g id="Group_756" data-name="Group 756" transform="translate(0.131 0.178)">
          <path id="Path_460" data-name="Path 460" d="M906.879,463.187c-.169.056-.392.221-.78,1.684a10.925,10.925,0,0,0-.472,2.4,9.019,9.019,0,0,0,.344,2.917c.518,1.921,1.952,6.119,4.1,11.563a2.431,2.431,0,0,0,1.639-.32c1.2-.775,1.582-2.906.641-5.164-.224-.6-.572-1.553-.951-2.747a63.23,63.23,0,0,1-1.948-6.7,5.109,5.109,0,0,0-1.117-2.852C908.192,463.8,907.457,462.994,906.879,463.187Z" transform="translate(-905.615 -463.157)" fill="#fff"/>
        </g>
        <g id="Group_758" data-name="Group 758" transform="translate(0 0.077)">
          <g id="Group_757" data-name="Group 757">
            <path id="Path_461" data-name="Path 461" d="M905.5,462.159a9.259,9.259,0,0,0-1.278,4.534,18.937,18.937,0,0,0,.935,4.782,64.106,64.106,0,0,0,3.533,9.377c.077.164.32.021.243-.142a63.648,63.648,0,0,1-3.405-8.97,21.242,21.242,0,0,1-1.009-4.7,7.452,7.452,0,0,1,.212-2.376,12.117,12.117,0,0,1,1.013-2.364c.083-.161-.16-.3-.244-.142Z" transform="translate(-904.223 -462.088)" fill="#161616"/>
          </g>
        </g>
        <g id="Group_760" data-name="Group 760" transform="translate(1.25)">
          <g id="Group_759" data-name="Group 759">
            <path id="Path_462" data-name="Path 462" d="M917.736,461.6c1.115-.471,1.813,1.81,2.041,2.508.367,1.122.71,2.253,1.047,3.385q1.012,3.4,1.878,6.846a.141.141,0,0,0,.272-.075q-1.026-4.068-2.251-8.082a23.564,23.564,0,0,0-1.2-3.506c-.344-.7-1.016-1.7-1.928-1.319-.166.07-.023.313.142.243Z" transform="translate(-917.52 -461.267)" fill="#161616"/>
          </g>
        </g>
      </g>
      <g id="guitar" transform="translate(9.446 13.252)">
        <g id="Group_761" data-name="Group 761" transform="translate(0.059 0.592)">
          <path id="Path_463" data-name="Path 463" d="M743.247,466.813a16.018,16.018,0,0,0-2.145-.7,6.118,6.118,0,0,0-1.917-.314,4.257,4.257,0,0,0-2.8,1.493,4.561,4.561,0,0,0-.89,2.219,10.405,10.405,0,0,0,.3,3.971,9.161,9.161,0,0,0,.85,3.076,4.231,4.231,0,0,0,2.7,2.074,4.5,4.5,0,0,0,3.166-.958c1.249-.806,1.158-1.345,2.7-2.335a3.9,3.9,0,0,1,2.176-.852,10.545,10.545,0,0,1,1.876.43,8.3,8.3,0,0,0,1.856.314,4.158,4.158,0,0,0,2.656-1.223,4.439,4.439,0,0,0,1.08-2.154,6.154,6.154,0,0,0,.029-2.876c.426-.23,1.086-.579,1.9-.987,2.256-1.128,3.374-1.535,7.95-3.435,2.665-1.106,4.731-1.983,6.038-2.542.79-.338,1.441-.617,1.875-.8l-.061-.636a1.433,1.433,0,0,0,.673.43,1.682,1.682,0,0,0,1.269-.234c.607-.337.466-.617.937-.836.527-.245.776.073,1.808-.088a2.311,2.311,0,0,0,.85-.24,2.154,2.154,0,0,0,.959-1.234,1.941,1.941,0,0,0-.12-1.576,1.52,1.52,0,0,0-.909-.734c-.434-.1-.647.138-1.788.633a7,7,0,0,1-1.6.572c-.819.146-1.022-.055-1.506.121a2.331,2.331,0,0,0-1.275,1.441l-.454-.011-16.5,6.678a3.669,3.669,0,0,1-.89-.34c-.645-.349-.758-.668-1.358-1.146a3.525,3.525,0,0,0-1.79-.871,3.02,3.02,0,0,0-1.563.337,14.058,14.058,0,0,0-2.737,1.864,8.159,8.159,0,0,1-1.645,1.031A6.03,6.03,0,0,1,743.247,466.813Z" transform="translate(-735.401 -456.041)" fill="#fff"/>
        </g>
        <g id="Group_762" data-name="Group 762" transform="translate(0.856 19.235)" opacity="0.23">
          <path id="Path_464" data-name="Path 464" d="M743.884,654.771a4.252,4.252,0,0,0,1.809,1.694c1.5.7,3.05.18,4.5-.307a11.585,11.585,0,0,0,3.285-1.745,33.894,33.894,0,0,1-2.743,2.6,5.024,5.024,0,0,1-2.118,1.288,3.852,3.852,0,0,1-2.051-.059,3.789,3.789,0,0,1-1.832-1.318A4.117,4.117,0,0,1,743.884,654.771Z" transform="translate(-743.884 -654.413)" fill="#a9a9aa"/>
        </g>
        <g id="Group_763" data-name="Group 763" transform="translate(12.053 13.529)" opacity="0.19">
          <path id="Path_465" data-name="Path 465" d="M863.023,599.205a7.27,7.27,0,0,0,2.142.044,6.759,6.759,0,0,0,2.856-1.009,6.444,6.444,0,0,0,2.5-4.543,6.292,6.292,0,0,1-.029,2.876,4.45,4.45,0,0,1-1.08,2.154,3.9,3.9,0,0,1-1.1.8,4.686,4.686,0,0,1-2.115.377A8.1,8.1,0,0,1,863.023,599.205Z" transform="translate(-863.023 -593.697)" fill="#a9a9aa"/>
        </g>
        <g id="Group_765" data-name="Group 765" transform="translate(0 7.548)">
          <g id="Group_764" data-name="Group 764">
            <path id="Path_466" data-name="Path 466" d="M735.056,536.988a4.01,4.01,0,0,1,1.782-3.383,3.82,3.82,0,0,1,2.184-.619,6.707,6.707,0,0,1,2.371.706c3.015,1.228,4.863-1.819,7.278-2.971a3.419,3.419,0,0,1,4.46,1.38c.1.15.346.009.243-.142a3.833,3.833,0,0,0-3.405-1.895c-1.537.118-2.757,1.234-3.915,2.14a7.653,7.653,0,0,1-2.263,1.364,3.655,3.655,0,0,1-2.737-.327,4.44,4.44,0,0,0-4.359.12,4.3,4.3,0,0,0-1.922,3.626.141.141,0,0,0,.282,0Z" transform="translate(-734.774 -530.055)" fill="#161616"/>
          </g>
        </g>
        <g id="Group_766" data-name="Group 766" transform="translate(4.138 14.361)">
          <circle id="Ellipse_63" data-name="Ellipse 63" cx="2.327" cy="2.327" r="2.327" fill="#161616"/>
        </g>
        <g id="Group_767" data-name="Group 767" transform="translate(19.862 1.618)">
          <path id="Path_467" data-name="Path 467" d="M946.194,476.061l-.072-.174c2.541-1.054,5.1-2.125,7.57-3.162,4.548-1.906,9.252-3.877,13.929-5.769l.07.174c-4.676,1.892-9.379,3.862-13.927,5.768C951.292,473.935,948.735,475.006,946.194,476.061Z" transform="translate(-946.122 -466.956)" fill="#161616"/>
        </g>
        <g id="Group_768" data-name="Group 768" transform="translate(5.537 10.548)">
          <path id="Path_468" data-name="Path 468" d="M793.769,567.921l-.073-.173,1.027-.432c1.157-.488,2.251-.949,3.422-1.418,1.418-.558,2.837-1.125,4.209-1.672,1.854-.74,3.771-1.505,5.669-2.244l.068.175c-1.9.739-3.813,1.5-5.667,2.243-1.372.548-2.792,1.114-4.209,1.673-1.169.468-2.262.928-3.419,1.416Z" transform="translate(-793.696 -561.981)" fill="#161616"/>
        </g>
        <g id="Group_769" data-name="Group 769" transform="translate(6.034 2.311)">
          <rect id="Rectangle_28" data-name="Rectangle 28" width="38.214" height="0.188" transform="translate(0 14.273) rotate(-21.931)" fill="#161616"/>
        </g>
        <g id="Group_770" data-name="Group 770" transform="translate(6.047 2.986)">
          <rect id="Rectangle_29" data-name="Rectangle 29" width="38.564" height="0.188" transform="translate(0 14.591) rotate(-22.233)" fill="#161616"/>
        </g>
        <g id="Group_772" data-name="Group 772" transform="translate(19.696 5.663)">
          <g id="Group_771" data-name="Group 771">
            <path id="Path_469" data-name="Path 469" d="M944.569,517.713q8.649-3.813,17.384-7.425c.165-.068.093-.341-.075-.272q-8.769,3.625-17.451,7.453c-.166.073-.022.316.142.244Z" transform="translate(-944.353 -510.005)" fill="#161616"/>
          </g>
        </g>
        <g id="Group_774" data-name="Group 774" transform="translate(18.431 3.145)">
          <g id="Group_773" data-name="Group 773">
            <path id="Path_470" data-name="Path 470" d="M930.9,489.515a.731.731,0,0,0,.874.7,4.175,4.175,0,0,0,1.111-.376l1.21-.483,4.842-1.931,9.857-3.931c.167-.066.094-.339-.075-.272l-8.646,3.449-4.323,1.724-2.075.828c-.4.16-2.5,1.236-2.493.3a.141.141,0,0,0-.282,0Z" transform="translate(-930.895 -483.208)" fill="#161616"/>
          </g>
        </g>
        <g id="Group_776" data-name="Group 776" transform="translate(36.151 3.139)">
          <g id="Group_775" data-name="Group 775">
            <path id="Path_471" data-name="Path 471" d="M1119.549,483.42c.81.286.881,1.644.924,2.342.011.18.293.182.282,0-.053-.875-.15-2.268-1.131-2.614-.171-.06-.245.212-.075.272Z" transform="translate(-1119.452 -483.139)" fill="#161616"/>
          </g>
        </g>
        <g id="Group_778" data-name="Group 778" transform="translate(17.91 8.91)">
          <g id="Group_777" data-name="Group 777">
            <path id="Path_472" data-name="Path 472" d="M925.426,544.813c.381.177.5.638.876.823a.576.576,0,0,0,.768-.142c.1-.149-.14-.29-.244-.142-.222.318-.628-.154-.755-.319a1.39,1.39,0,0,0-.5-.463c-.163-.076-.307.167-.142.243Z" transform="translate(-925.353 -544.555)" fill="#161616"/>
          </g>
        </g>
        <g id="Group_780" data-name="Group 780" transform="translate(19.345 13.176)">
          <g id="Group_779" data-name="Group 779">
            <path id="Path_473" data-name="Path 473" d="M941.018,589.952c-.258.061-.342.288-.367.533-.052.5-.007,1.024-.009,1.524a.141.141,0,0,0,.282,0l0-.931c0-.189-.088-.794.166-.854.176-.042.1-.314-.075-.272Z" transform="translate(-940.625 -589.948)" fill="#161616"/>
          </g>
        </g>
        <g id="Group_782" data-name="Group 782" transform="translate(36.457 0.434)">
          <g id="Group_781" data-name="Group 781">
            <path id="Path_474" data-name="Path 474" d="M1122.969,457.379c.272-.535.609-1.2,1.216-1.407a3.105,3.105,0,0,1,1.148.016,2.066,2.066,0,0,0,.833-.154c1.057-.415,2.9-2.212,3.645-.365a2.081,2.081,0,0,1-.449,2.2,1.759,1.759,0,0,1-1.049.5c-.39.042-.775-.076-1.165-.039-.588.055-.955.49-1.419.8a2.516,2.516,0,0,1-2.127.3.141.141,0,0,0-.075.272,2.811,2.811,0,0,0,1.725-.024,11.708,11.708,0,0,0,1.476-.929c.674-.348,1.474.06,2.187-.246a2.147,2.147,0,0,0,1.1-1.088,2.075,2.075,0,0,0-.733-2.721c-1.258-.556-2.306.809-3.4,1.146-.7.216-1.413-.2-2.077.208a3.282,3.282,0,0,0-1.082,1.394c-.082.161.161.3.244.142Z" transform="translate(-1122.709 -454.358)" fill="#161616"/>
          </g>
        </g>
        <g id="Group_784" data-name="Group 784" transform="translate(39.947)">
          <g id="Group_783" data-name="Group 783">
            <path id="Path_475" data-name="Path 475" d="M1160.508,451.03c-.183-.184-.447-.577-.359-.86.092-.3.38.057.453.161a1.716,1.716,0,0,1,.216.434c.059.171.331.1.272-.075-.116-.339-.566-1.209-1.051-.87-.46.322-.01,1.128.27,1.41a.141.141,0,0,0,.2-.2Z" transform="translate(-1159.842 -449.742)" fill="#161616"/>
          </g>
        </g>
        <g id="Group_786" data-name="Group 786" transform="translate(39.227 0.827)">
          <g id="Group_785" data-name="Group 785">
            <path id="Path_476" data-name="Path 476" d="M1152.65,459.413c-.095-.134-.27-.359-.154-.529.162-.236.348.169.391.29.06.17.333.1.272-.075a.9.9,0,0,0-.3-.474.425.425,0,0,0-.485-.019c-.349.238-.163.68.027.95.1.147.348.006.244-.142Z" transform="translate(-1152.183 -458.538)" fill="#161616"/>
          </g>
        </g>
        <g id="Group_788" data-name="Group 788" transform="translate(40.903 0.804)">
          <g id="Group_787" data-name="Group 787">
            <path id="Path_477" data-name="Path 477" d="M1170.022,458.478a26.083,26.083,0,0,0,1.015,3.353c.064.168.336.1.272-.075a26.08,26.08,0,0,1-1.015-3.353c-.041-.177-.313-.1-.272.075Z" transform="translate(-1170.018 -458.302)" fill="#161616"/>
          </g>
        </g>
        <g id="Group_790" data-name="Group 790" transform="translate(0.697 15.205)">
          <g id="Group_789" data-name="Group 789">
            <path id="Path_478" data-name="Path 478" d="M760.908,611.666a3.994,3.994,0,0,1-2.24,3.958,4.089,4.089,0,0,1-3.049.089,5.263,5.263,0,0,0-2.4-.463c-3.182.43-5.222,5.923-8.809,3.733a4.149,4.149,0,0,1-1.944-3.281c-.011-.18-.293-.182-.282,0a4.448,4.448,0,0,0,1.542,3.13,3.6,3.6,0,0,0,4.365.285c1.622-1,2.75-2.848,4.605-3.458,1.146-.377,2.085.127,3.168.427a4.163,4.163,0,0,0,5.322-4.421c-.015-.18-.3-.181-.282,0Z" transform="translate(-742.189 -611.531)" fill="#161616"/>
          </g>
        </g>
      </g>
      <g id="hand_right" data-name="hand right" transform="translate(6.943 25.641)">
        <g id="Group_791" data-name="Group 791" transform="translate(0.057 0.133)">
          <path id="Path_479" data-name="Path 479" d="M708.83,587.47a1.969,1.969,0,0,1,.03-1.2c.419-.981,1.914-1.074,2.025-1.08.615-.031.832.153,2.17.651a8.752,8.752,0,0,0,3.438.875,3.667,3.667,0,0,0,2.024-.595,9.2,9.2,0,0,0,1.5-1.4c.259-.3.486-.6.868-.645.295-.034.652.088.71.291.069.242-.281.622-.9.9a3.125,3.125,0,0,0,1.207-.008,3.441,3.441,0,0,0,1.012-.407,8.19,8.19,0,0,0,1.84-1.394c.278-.294.441-.519.545-.473.152.067.048.653-.028.918a3.716,3.716,0,0,1-2.467,2.034,2.636,2.636,0,0,0,.931-.046,3.036,3.036,0,0,0,.945-.431c1.033-.633,1.359-1.072,1.519-.974s.024.691-.177,1.118a3.514,3.514,0,0,1-1.952,1.67c.444-.173,1.55-.577,1.737-.288.138.214-.251.77-.688,1.089a2.952,2.952,0,0,1-1.555.441,13.694,13.694,0,0,1-2.07.068c-.527.188-1.254.431-2.133.676a20.515,20.515,0,0,1-3.124.7,13.614,13.614,0,0,1-4.205-.123c-1.8-.34-2.359-.838-2.633-1.178A3.094,3.094,0,0,1,708.83,587.47Z" transform="translate(-708.75 -582.98)" fill="#fff"/>
        </g>
        <g id="Group_792" data-name="Group 792" transform="translate(0.137 4.143)" opacity="0.19">
          <path id="Path_480" data-name="Path 480" d="M709.605,626.124a11.854,11.854,0,0,0,2.19.867c1.15.327,3.044.674,9.22-.277.816-.126,2.01-.32,3.458-.6l1.951-.471a1.38,1.38,0,0,1-.245.841,1.429,1.429,0,0,1-.76.5,13.448,13.448,0,0,1-3.038.239,13.734,13.734,0,0,0-2.008.626,20.918,20.918,0,0,1-3.359.765,10.409,10.409,0,0,1-3.04.085,6.13,6.13,0,0,1-2.916-1.015A5.379,5.379,0,0,1,709.605,626.124Z" transform="translate(-709.605 -625.643)" fill="#a9a9aa"/>
        </g>
        <g id="Group_794" data-name="Group 794" transform="translate(0 4.48)">
          <g id="Group_793" data-name="Group 793">
            <path id="Path_481" data-name="Path 481" d="M708.16,629.448c.886,1.83,2.932,2.542,4.842,2.672a20.957,20.957,0,0,0,7.982-1.491c.171-.057.1-.33-.075-.272a22.073,22.073,0,0,1-7.379,1.5c-1.973-.04-4.2-.639-5.127-2.555-.079-.163-.322-.02-.243.142Z" transform="translate(-708.145 -629.234)" fill="#161616"/>
          </g>
        </g>
        <g id="Group_796" data-name="Group 796" transform="translate(2.244 2.191)">
          <g id="Group_795" data-name="Group 795">
            <path id="Path_482" data-name="Path 482" d="M732.154,605.161a4.949,4.949,0,0,1,1.685.554,14.04,14.04,0,0,0,1.428.508,14.564,14.564,0,0,0,3.029.547c.181.014.18-.268,0-.282a14.184,14.184,0,0,1-3.286-.64,11.387,11.387,0,0,0-2.855-.969c-.181-.008-.181.275,0,.282Z" transform="translate(-732.018 -604.879)" fill="#161616"/>
          </g>
        </g>
        <g id="Group_798" data-name="Group 798" transform="translate(8.481 1.074)">
          <g id="Group_797" data-name="Group 797">
            <path id="Path_483" data-name="Path 483" d="M798.606,595.978a7.234,7.234,0,0,0,1.9-1.212,8,8,0,0,0,.789-.827c.308-.365.851-.975,1.344-.488.129.128.329-.072.2-.2-.637-.628-1.36.032-1.789.543a7.06,7.06,0,0,1-2.591,1.94c-.166.073-.022.316.142.244Z" transform="translate(-798.39 -592.994)" fill="#161616"/>
          </g>
        </g>
        <g id="Group_800" data-name="Group 800" transform="translate(11.823)">
          <g id="Group_799" data-name="Group 799">
            <path id="Path_484" data-name="Path 484" d="M834.054,584.153c1.788.466,3.565-1.284,4.784-2.351l-.236-.062c.466,1.3-1.537,2.264-2.444,2.733-.161.083-.019.327.142.244,1.021-.528,3.1-1.579,2.574-3.052a.143.143,0,0,0-.236-.062,17.122,17.122,0,0,1-1.984,1.572,3.29,3.29,0,0,1-2.526.707.141.141,0,0,0-.075.272Z" transform="translate(-833.953 -581.563)" fill="#161616"/>
          </g>
        </g>
        <g id="Group_802" data-name="Group 802" transform="translate(12.777 4.193)">
          <g id="Group_801" data-name="Group 801">
            <path id="Path_485" data-name="Path 485" d="M844.239,627.851c1.587-.036,3.548.212,4.4-1.455.082-.161-.161-.3-.243-.142-.79,1.553-2.68,1.282-4.153,1.315a.141.141,0,0,0,0,.282Z" transform="translate(-844.103 -626.183)" fill="#161616"/>
          </g>
        </g>
        <g id="Group_804" data-name="Group 804" transform="translate(13.973 1.401)">
          <g id="Group_803" data-name="Group 803">
            <path id="Path_486" data-name="Path 486" d="M856.934,598.3a3.736,3.736,0,0,0,2.885-1.142c.019-.016.315-.269.309-.276.059.072-.079.25-.111.3a3.416,3.416,0,0,1-.53.688,3.545,3.545,0,0,1-1.544.906.141.141,0,0,0,.075.272,3.855,3.855,0,0,0,1.62-.929c.292-.284.925-.951.869-1.409-.07-.583-.677.065-.824.191a3.533,3.533,0,0,1-2.675,1.123c-.177-.029-.254.242-.075.272Z" transform="translate(-856.832 -596.473)" fill="#161616"/>
          </g>
        </g>
        <g id="Group_806" data-name="Group 806" transform="translate(15.038 1.801)">
          <g id="Group_805" data-name="Group 805">
            <path id="Path_487" data-name="Path 487" d="M868.3,603.461a2.857,2.857,0,0,0,2.5-2.594c.016-.181-.266-.18-.282,0a2.576,2.576,0,0,1-2.223,2.312.141.141,0,0,0,0,.282Z" transform="translate(-868.163 -600.731)" fill="#161616"/>
          </g>
        </g>
        <g id="Group_808" data-name="Group 808" transform="translate(15.232 3.992)">
          <g id="Group_807" data-name="Group 807">
            <path id="Path_488" data-name="Path 488" d="M870.246,624.551c.172.246.482.164.744.127a2.378,2.378,0,0,0,.5-.116c.1-.037.5-.3.568-.207l-.036-.137-.017.072c-.042.177.23.252.272.075.057-.244-.135-.366-.365-.308-.214.054-.4.2-.608.27-.126.039-.723.206-.81.081-.1-.147-.348-.007-.243.142Z" transform="translate(-870.221 -624.043)" fill="#161616"/>
          </g>
        </g>
        <g id="Group_810" data-name="Group 810" transform="translate(11.867 1.39)">
          <g id="Group_809" data-name="Group 809">
            <path id="Path_489" data-name="Path 489" d="M834.627,597.5c.248-.158.515-.3.748-.485a.512.512,0,0,0,.215-.572c-.059-.171-.331-.1-.272.075.071.2-.186.326-.326.415l-.507.324c-.152.1-.011.341.142.244Z" transform="translate(-834.419 -596.349)" fill="#161616"/>
          </g>
        </g>
      </g>
      <g id="hand_left" data-name="hand left" transform="translate(29.878 18.934)">
        <g id="Group_811" data-name="Group 811" transform="translate(0.089 0.121)">
          <path id="Path_490" data-name="Path 490" d="M953.189,525.542a2.6,2.6,0,0,1,.227-1.679,2.566,2.566,0,0,1,.94-1.01,3.179,3.179,0,0,1,.041-1.046c.112-.53.33-.859,1.241-2.058a13.054,13.054,0,0,0,1.458-2.176,1.781,1.781,0,0,0,.3-1.078c-.058-.43-.338-.745-.858-1.332-.456-.514-.637-.6-.782-.947a1.846,1.846,0,0,1-.1-.975l.7.4a1.469,1.469,0,0,1,.638-.324,1.451,1.451,0,0,1,.5-.024.791.791,0,0,1,.3-.3,1.334,1.334,0,0,1,1.475.429,2.526,2.526,0,0,1-.57-1.071,2.5,2.5,0,0,1-.058-.868,7.449,7.449,0,0,1,.942.724,10.7,10.7,0,0,1,1.043,1.122c.1.123.185.225.241.295a1.031,1.031,0,0,1,.418.223,1.433,1.433,0,0,1,.367,1.1,3.233,3.233,0,0,1-.322,1.361,16.26,16.26,0,0,1-.87,1.741,25.065,25.065,0,0,0-1.212,2.687,11.073,11.073,0,0,1-.947,2.118,11.616,11.616,0,0,1-1.064,1.285,6.529,6.529,0,0,1-1.66,1.522,2.167,2.167,0,0,1-1.317.367A1.921,1.921,0,0,1,953.189,525.542Z" transform="translate(-953.139 -511.482)" fill="#fff"/>
        </g>
        <g id="Group_812" data-name="Group 812" transform="translate(0.881 0.841)" opacity="0.25">
          <path id="Path_491" data-name="Path 491" d="M967.2,519.155a15.349,15.349,0,0,1,.689,1.68,4.831,4.831,0,0,1-.328,2.745,20.093,20.093,0,0,1-2.09,4.835,19.018,19.018,0,0,1-3.914,4.5,3.331,3.331,0,0,0,1.282-.119,4.53,4.53,0,0,0,2.348-2.08,20.171,20.171,0,0,0,1.816-3.333c.59-1.263,1.1-2.567,1.793-3.778a3.446,3.446,0,0,0,.481-1.937,1.442,1.442,0,0,0-.375-.87,1.268,1.268,0,0,0-.44-.288C967.494,519.318,967.25,519.122,967.2,519.155Z" transform="translate(-961.56 -519.152)" fill="#a9a9aa"/>
        </g>
        <g id="Group_814" data-name="Group 814" transform="translate(1.107 1.858)">
          <g id="Group_813" data-name="Group 813">
            <path id="Path_492" data-name="Path 492" d="M964.312,539.309c-.242-.475.209-1.144.442-1.541a12.265,12.265,0,0,1,.706-1.048,18.838,18.838,0,0,0,1.441-2.081c.337-.617.639-1.252.221-1.9-.238-.368-.509-.718-.781-1.061s-1.072-1-.854-1.5c.072-.165-.171-.308-.244-.142-.325.742.589,1.441.994,1.961.366.471.961,1.058.779,1.7a5.235,5.235,0,0,1-.7,1.364c-.5.77-1.109,1.47-1.608,2.244-.363.563-.986,1.454-.636,2.141.082.162.326.019.243-.142Z" transform="translate(-963.966 -529.97)" fill="#161616"/>
          </g>
        </g>
        <g id="Group_816" data-name="Group 816" transform="translate(2.465 1.74)">
          <g id="Group_815" data-name="Group 815">
            <path id="Path_493" data-name="Path 493" d="M978.519,528.99a3.048,3.048,0,0,1,1.036.68c.3.242.6.494.886.751.135.12.335-.078.2-.2-.362-.322-.732-.633-1.114-.931a2.65,2.65,0,0,0-.933-.572.141.141,0,0,0-.075.272Z" transform="translate(-978.419 -528.713)" fill="#161616"/>
          </g>
        </g>
        <g id="Group_818" data-name="Group 818" transform="translate(3.366 1.78)">
          <g id="Group_817" data-name="Group 817">
            <path id="Path_494" data-name="Path 494" d="M988.249,529.663c.687-.628,1.529.061,2.052.545.133.123.333-.076.2-.2-.652-.6-1.633-1.293-2.45-.545-.134.123.066.322.2.2Z" transform="translate(-988.005 -529.137)" fill="#161616"/>
          </g>
        </g>
        <g id="Group_820" data-name="Group 820" transform="translate(4.338 1.467)">
          <g id="Group_819" data-name="Group 819">
            <path id="Path_495" data-name="Path 495" d="M998.564,526.188c.705-.328,1.378.163,1.914.582.141.111.342-.088.2-.2-.654-.512-1.415-1.017-2.256-.626-.164.076-.021.32.142.243Z" transform="translate(-998.349 -525.805)" fill="#161616"/>
          </g>
        </g>
        <g id="Group_822" data-name="Group 822" transform="translate(5.287)">
          <g id="Group_821" data-name="Group 821">
            <path id="Path_496" data-name="Path 496" d="M1009.853,512.469c-.283-.4-.581-.8-.849-1.215-.063-.1-.433-.637-.172-.738.079-.031.616.507.684.569a3.486,3.486,0,0,1,1.488,2.682.141.141,0,0,0,.282,0,4.362,4.362,0,0,0-2.244-3.445c-.352-.243-.643-.127-.595.325.077.72.768,1.4,1.163,1.963.1.147.348.007.243-.142Z" transform="translate(-1008.442 -510.198)" fill="#161616"/>
          </g>
        </g>
        <g id="Group_824" data-name="Group 824" transform="translate(0 2.12)">
          <g id="Group_823" data-name="Group 823">
            <path id="Path_497" data-name="Path 497" d="M952.227,544.918c1.016,1.062,2.475.324,3.371-.488a12.08,12.08,0,0,0,2.6-3.708c.764-1.558,1.422-3.17,2.118-4.759.4-.92,1.24-2.777-.28-3.2a.141.141,0,0,0-.075.272c.841.234.743,1.225.506,1.863-.265.713-.605,1.4-.91,2.1-.524,1.2-1.027,2.407-1.6,3.581a13.059,13.059,0,0,1-2.011,3.112c-.806.881-2.389,2.2-3.512,1.027-.126-.131-.325.068-.2.2Z" transform="translate(-952.187 -532.757)" fill="#161616"/>
          </g>
        </g>
      </g>
      <g id="leg_right" data-name="leg right" transform="translate(0 36.176)">
        <g id="Group_825" data-name="Group 825" transform="translate(0.113 0.123)">
          <path id="Path_498" data-name="Path 498" d="M648.179,694.976c-2.011,1.159-3.647,2.226-4.855,3.051-4.017,2.747-2.568,2.34-5.684,4.559A4.562,4.562,0,0,0,635.9,704.6a4.23,4.23,0,0,0-.213,2.186c.331,2.5-.189,5.042-.19,7.565,0,6.1-.1,6.191.043,8a49.775,49.775,0,0,0,.64,5.007,9.688,9.688,0,0,0,2.936-.484,9.317,9.317,0,0,0,2.663-1.369,8.629,8.629,0,0,0,1.575-1.551q-.211-2.328-.384-4.714-.44-6.053-.593-11.784c.36-.065,1-.191,1.793-.41.75-.209,2.493-.742,6.966-3.2.458-.251,1.162-.642,2.021-1.138a19.35,19.35,0,0,0,1.375-7,28.887,28.887,0,0,1-6.349-.739Z" transform="translate(-635.461 -694.976)" fill="#fff"/>
        </g>
        <g id="Group_826" data-name="Group 826" transform="translate(4.549 8.063)" opacity="0.21">
          <path id="Path_499" data-name="Path 499" d="M695.707,779.463l-10.558,3.648A24.809,24.809,0,0,0,683.9,787.4a36.979,36.979,0,0,0-.448,7.434,55.111,55.111,0,0,1-.784,8.289,7.984,7.984,0,0,0,3.479-2.717,98.087,98.087,0,0,1-.847-10.262c-.06-2.025-.055-3.97,0-5.827q2.3-.947,4.713-2.057C692.013,781.343,693.911,780.4,695.707,779.463Z" transform="translate(-682.668 -779.463)" fill="#a9a9aa"/>
        </g>
        <g id="Group_827" data-name="Group 827" transform="translate(6.349 28.208)">
          <path id="Path_500" data-name="Path 500" d="M701.816,993.819" transform="translate(-701.816 -993.819)" fill="#a9a9aa"/>
        </g>
        <g id="Group_829" data-name="Group 829">
          <g id="Group_828" data-name="Group 828">
            <path id="Path_501" data-name="Path 501" d="M647.172,693.684a55.44,55.44,0,0,0-6.27,3.923q-1.445,1.046-2.822,2.184a29.033,29.033,0,0,0-2.7,2.4,4.216,4.216,0,0,0-.9,2.934c-.077,1.369-.127,2.739-.161,4.109-.066,2.711-.063,5.423-.055,8.134a45.164,45.164,0,0,0,.565,8.739c.036.178.307.1.272-.075a39.719,39.719,0,0,1-.551-7.651c-.01-2.613-.019-5.227.025-7.839.022-1.309.057-2.617.114-3.924q.04-.934.1-1.867a3.8,3.8,0,0,1,.449-1.936,6.623,6.623,0,0,1,1.14-1.175q.685-.622,1.391-1.22,1.4-1.185,2.873-2.274a55.4,55.4,0,0,1,6.677-4.221c.16-.086.018-.329-.142-.244Z" transform="translate(-634.261 -693.666)" fill="#161616"/>
          </g>
        </g>
        <g id="Group_831" data-name="Group 831" transform="translate(6.892 11.825)">
          <g id="Group_830" data-name="Group 830">
            <path id="Path_502" data-name="Path 502" d="M707.961,819.582a9.321,9.321,0,0,0-.309,3.922q.078,2.215.205,4.428.255,4.425.707,8.836c.018.179.3.181.282,0q-.441-4.318-.7-8.652-.124-2.12-.2-4.243a10.071,10.071,0,0,1,.286-4.216c.069-.167-.2-.24-.272-.075Z" transform="translate(-707.593 -819.489)" fill="#161616"/>
          </g>
        </g>
        <g id="Group_833" data-name="Group 833" transform="translate(0.556 28.861)">
          <g id="Group_832" data-name="Group 832">
            <path id="Path_503" data-name="Path 503" d="M640.248,1004.488c1.313.556,2.883-.053,4.082-.65a9.927,9.927,0,0,0,3.415-2.814c.11-.142-.088-.343-.2-.2a9.747,9.747,0,0,1-2.96,2.56c-1.157.645-2.882,1.416-4.2.86-.165-.07-.309.173-.142.243Z" transform="translate(-640.174 -1000.775)" fill="#161616"/>
          </g>
        </g>
        <g id="Group_835" data-name="Group 835" transform="translate(7.076 7.923)">
          <g id="Group_834" data-name="Group 834">
            <path id="Path_504" data-name="Path 504" d="M709.723,783.034a100.724,100.724,0,0,0,10.414-4.8c.16-.085.018-.329-.142-.243a100.059,100.059,0,0,1-10.346,4.767c-.167.066-.094.339.075.272Z" transform="translate(-709.553 -777.978)" fill="#161616"/>
          </g>
        </g>
        <g id="Group_836" data-name="Group 836" transform="translate(0.279 30.655)">
          <path id="Path_505" data-name="Path 505" d="M643.378,1019.855l.96,4.4c-5.494,3.279-6.882,3.7-7.081,3.423s.7-1.313,1.489-2.226a16.2,16.2,0,0,1,2.435-2.3l-.844-1.631a5.037,5.037,0,0,0,3.041-1.666Z" transform="translate(-637.23 -1019.855)" fill="#161616"/>
        </g>
      </g>
      <g id="leg_left" data-name="leg left" transform="translate(9.168 35.735)">
        <g id="Group_837" data-name="Group 837" transform="translate(0.228 0.133)">
          <path id="Path_506" data-name="Path 506" d="M744.962,691.547a4.956,4.956,0,0,0-1.306,1.271c-.869,1.245-.908,2.627-1,4.769a19.7,19.7,0,0,0,.04,2.314c-.259.435-.639,1.083-1.085,1.876-1.028,1.828-2.119,3.92-4.193,8.445-.869,1.9-1.96,4.327-3.188,7.192a8.293,8.293,0,0,0,.641.978,6.54,6.54,0,0,0,2.667,2.265,5.6,5.6,0,0,0,3.448.228c.391-.826.976-2.051,1.7-3.53,1.4-2.858,2.664-5.458,4.37-8.651.673-1.258,1.33-2.452,2.347-4.451a32.982,32.982,0,0,0,1.753-3.831,18.159,18.159,0,0,0,1.013-3.584,12.774,12.774,0,0,0,.148-3.837,11.842,11.842,0,0,0-.627-2.614,20.952,20.952,0,0,1-6.726,1.158Z" transform="translate(-734.232 -690.389)" fill="#fff"/>
        </g>
        <g id="Group_838" data-name="Group 838" transform="translate(3.125 0.249)" opacity="0.29">
          <path id="Path_507" data-name="Path 507" d="M778.457,691.934a17.668,17.668,0,0,1,.217,3.052,20.4,20.4,0,0,1-2.768,9.469,156.923,156.923,0,0,1-10.844,17.174,4.852,4.852,0,0,0,1.354.506,4.976,4.976,0,0,0,2.5-.13c1.073-2.3,1.994-4.165,2.625-5.417,3.49-6.922,5.563-10.772,5.563-10.772a29.679,29.679,0,0,0,2.076-4.54,16.155,16.155,0,0,0,1.092-4.616,13.661,13.661,0,0,0-.633-5.036Z" transform="translate(-765.062 -691.626)" fill="#a9a9aa"/>
        </g>
        <g id="Group_840" data-name="Group 840" transform="translate(6.846)">
          <g id="Group_839" data-name="Group 839">
            <path id="Path_508" data-name="Path 508" d="M815.362,689.146c1.527,4.058.292,8.413-1.485,12.169-.9,1.9-1.926,3.735-2.9,5.594q-1.543,2.94-3.029,5.909-1.672,3.34-3.272,6.716c-.077.163.166.306.243.142q2.925-6.167,6.087-12.217c1.959-3.747,4.314-7.5,5.083-11.722a12.52,12.52,0,0,0-.454-6.667c-.063-.168-.336-.1-.272.075Z" transform="translate(-804.66 -688.976)" fill="#161616"/>
          </g>
        </g>
        <g id="Group_842" data-name="Group 842" transform="translate(0.193 5.248)">
          <g id="Group_841" data-name="Group 841">
            <path id="Path_509" data-name="Path 509" d="M734.149,766.671q2.062-5.076,4.455-10.009,1.171-2.412,2.42-4.785a26.984,26.984,0,0,1,2.626-4.442,5.279,5.279,0,0,1,4.916-2.262c.177.034.253-.238.075-.272-3.5-.665-5.647,2.714-7.062,5.335q-2.759,5.113-5.153,10.412-1.332,2.949-2.549,5.949c-.068.168.2.241.272.075Z" transform="translate(-733.866 -744.816)" fill="#161616"/>
          </g>
        </g>
        <g id="Group_844" data-name="Group 844" transform="translate(0.085 27.02)">
          <g id="Group_843" data-name="Group 843">
            <path id="Path_510" data-name="Path 510" d="M732.736,976.7a8.622,8.622,0,0,0,2.816,3.068,5.317,5.317,0,0,0,4.16.433.141.141,0,0,0-.075-.272,5.013,5.013,0,0,1-4.067-.482,8.478,8.478,0,0,1-2.59-2.89.141.141,0,0,0-.243.142Z" transform="translate(-732.715 -976.492)" fill="#161616"/>
          </g>
        </g>
        <g id="Group_845" data-name="Group 845" transform="translate(0 29.462)">
          <path id="Path_511" data-name="Path 511" d="M733.853,1002.474l-2.042,4.475a16.721,16.721,0,0,0,1.509,2.344c1.362,1.771,3.483,3.692,4,3.326.328-.232-.07-1.334-.645-2.925a22.2,22.2,0,0,0-1.289-2.9l1.473-2.95a5.82,5.82,0,0,1-3.005-1.367Z" transform="translate(-731.811 -1002.474)" fill="#161616"/>
        </g>
        <g id="Group_847" data-name="Group 847" transform="translate(8.422 7.192)">
          <g id="Group_846" data-name="Group 846">
            <path id="Path_512" data-name="Path 512" d="M821.753,765.832l.038-.15-.272-.075a6.227,6.227,0,0,0,.04,2.389c.038.177.309.1.272-.075a5.833,5.833,0,0,1-.04-2.24c.031-.175-.226-.254-.272-.075l-.038.15a.141.141,0,0,0,.272.075Z" transform="translate(-821.423 -765.506)" fill="#161616"/>
          </g>
        </g>
      </g>
      <g id="head" transform="translate(9.048 0)">
        <g id="Group_848" data-name="Group 848" transform="translate(1.642 2.178)">
          <path id="Path_513" data-name="Path 513" d="M748.721,334.122a5.628,5.628,0,0,0-.67,3.62,7.467,7.467,0,0,0,2.279,5.027c1.188,1.076,3.4,2.267,4.558,1.475a1.576,1.576,0,0,0,.536-.67l1.461,1.484a11.88,11.88,0,0,0,1.842-1.518,6.246,6.246,0,0,0,1.388-1.777,5.58,5.58,0,0,0,.4-2.547,7.677,7.677,0,0,0-.737-4.156,6.164,6.164,0,0,0-1.475-1.743C755.7,331.255,750.548,331.369,748.721,334.122Z" transform="translate(-748.014 -331.897)" fill="#fff"/>
        </g>
        <g id="Group_849" data-name="Group 849" transform="translate(9.337 3.633)" opacity="0.43">
          <path id="Path_514" data-name="Path 514" d="M830.063,348.991c-.115.595.242.965.586,1.715a7.783,7.783,0,0,1,.544,3.514,6.629,6.629,0,0,1-1.295,3.371l1.585-1.365,1.3,1.471a4.141,4.141,0,0,0,.912-.964,4.885,4.885,0,0,0,.716-2.1,16.058,16.058,0,0,0,.335-4.016c-.08-1.466-.13-2.209-.627-2.677a2.617,2.617,0,0,0-2.719-.335C831.263,347.67,830.234,348.11,830.063,348.991Z" transform="translate(-829.898 -347.381)" fill="#a9a9aa"/>
        </g>
        <g id="Group_850" data-name="Group 850" transform="translate(4.72)">
          <path id="Path_515" data-name="Path 515" d="M780.77,310.891a3.471,3.471,0,0,0,.912,2.372c1.616,1.812,4.514,1.143,4.637,1.112a1.528,1.528,0,0,1,1.5-.962,1.642,1.642,0,0,1,1.238,1.12,1.954,1.954,0,0,1-.153,1.583,2.075,2.075,0,0,1-.931.864,8.368,8.368,0,0,0-.029,2.731c.194,1.239.517,3.309,2.129,4.076,1.688.8,3.555-.411,3.695-.505a4.269,4.269,0,0,0,1.9-4c-.2-1.261-1.024-1.4-3.042-3.771s-1.678-2.807-3.224-4.2a9.581,9.581,0,0,0-4.5-2.372c-.863-.173-2.8-.565-3.672.479A2.4,2.4,0,0,0,780.77,310.891Z" transform="translate(-780.767 -308.727)" fill="#0fbf89"/>
        </g>
        <g id="Group_851" data-name="Group 851" transform="translate(0 0.031)">
          <path id="Path_516" data-name="Path 516" d="M737.03,309.307c.654.719-.632,3.369-2.555,4.806a6.589,6.589,0,0,1-1.7.913,7.09,7.09,0,0,0,1.239,5.293,7.169,7.169,0,0,0,5.023,2.857c.064-.073.536-.6.873-.477.354.129.36.956.285,1.391-.319,1.839-3.35,3.731-5.944,3.026a4.683,4.683,0,0,1-2.334-1.554c-.946-1.138-1.068-2.441-1.272-5a20.263,20.263,0,0,1,.122-4.988c.314-2.045.486-3.057,1.217-4.076C733.4,309.515,736.366,308.575,737.03,309.307Z" transform="translate(-730.544 -309.06)" fill="#0fbf89"/>
        </g>
        <g id="Group_853" data-name="Group 853" transform="translate(2.002 5.588)">
          <g id="Group_852" data-name="Group 852">
            <path id="Path_517" data-name="Path 517" d="M751.989,368.289a7.129,7.129,0,0,0,6.255,8.578c.18.021.179-.262,0-.282a6.849,6.849,0,0,1-5.983-8.221c.035-.177-.236-.253-.272-.075Z" transform="translate(-751.845 -368.187)" fill="#161616"/>
          </g>
        </g>
        <g id="Group_855" data-name="Group 855" transform="translate(8.348 8.063)">
          <g id="Group_854" data-name="Group 854">
            <path id="Path_518" data-name="Path 518" d="M819.586,400.732a5.608,5.608,0,0,0,3.239-6.1c-.031-.178-.3-.1-.272.075a5.328,5.328,0,0,1-3.109,5.785c-.166.074-.022.317.142.243Z" transform="translate(-819.37 -394.528)" fill="#161616"/>
          </g>
        </g>
        <g id="Group_857" data-name="Group 857" transform="translate(10.135 4.567)">
          <g id="Group_856" data-name="Group 856">
            <path id="Path_519" data-name="Path 519" d="M839.952,361.086c.669.25,1.107-.426,1.329-.964a2.249,2.249,0,0,0-.051-2,1.561,1.561,0,0,0-2.822.209c-.075.164.168.307.243.142a1.275,1.275,0,0,1,2.2-.4,1.756,1.756,0,0,1,.306,1.512c-.1.467-.471,1.474-1.131,1.227-.17-.064-.244.209-.075.272Z" transform="translate(-838.394 -357.322)" fill="#161616"/>
          </g>
        </g>
        <g id="Group_859" data-name="Group 859" transform="translate(11.6 8.111)">
          <g id="Group_858" data-name="Group 858">
            <path id="Path_520" data-name="Path 520" d="M853.984,395.17a9.169,9.169,0,0,0,1.178,4.838.141.141,0,0,0,.244-.142,8.88,8.88,0,0,1-1.14-4.7c.006-.182-.275-.181-.282,0Z" transform="translate(-853.978 -395.033)" fill="#161616"/>
          </g>
        </g>
        <g id="Group_861" data-name="Group 861" transform="translate(9.223 12.821)">
          <g id="Group_860" data-name="Group 860">
            <path id="Path_521" data-name="Path 521" d="M828.7,446.068a8.629,8.629,0,0,0,1.029,1.565c.236.251.4.174.682,0a5.315,5.315,0,0,0,2.023-2.269c.078-.163-.166-.306-.243-.142a5.088,5.088,0,0,1-1.513,1.888,1.805,1.805,0,0,1-.472.318q-.178.178-.335-.074-.1-.138-.2-.277c-.26-.373-.5-.758-.73-1.15a.141.141,0,0,0-.243.142Z" transform="translate(-828.682 -445.148)" fill="#161616"/>
          </g>
        </g>
        <g id="Group_863" data-name="Group 863" transform="translate(9.342 11.137)">
          <g id="Group_862" data-name="Group 862">
            <path id="Path_522" data-name="Path 522" d="M830.216,430.166a6.967,6.967,0,0,0,1.87-2.722l-.258-.109c-.1.249-1.365,2.867-1.664,2.644l.029.221.58-.626c.123-.133-.076-.333-.2-.2l-.58.626a.144.144,0,0,0,.028.221c.42.312.836-.524,1.014-.786a10.715,10.715,0,0,0,1.065-2.027c.059-.147-.19-.253-.258-.109a6.8,6.8,0,0,1-1.826,2.665c-.143.111.058.309.2.2Z" transform="translate(-829.954 -427.233)" fill="#161616"/>
          </g>
        </g>
        <g id="Group_865" data-name="Group 865" transform="translate(4.795 7.772)">
          <g id="Group_864" data-name="Group 864">
            <path id="Path_523" data-name="Path 523" d="M781.578,391.6a22.036,22.036,0,0,0,1.807,3.925.142.142,0,0,0,.263-.071l-.041-1.69a.141.141,0,0,0-.282,0l.041,1.69.263-.071a21.669,21.669,0,0,1-1.779-3.858c-.059-.17-.331-.1-.272.075Z" transform="translate(-781.57 -391.425)" fill="#161616"/>
          </g>
        </g>
        <g id="Group_867" data-name="Group 867" transform="translate(6.94 10.902)">
          <g id="Group_866" data-name="Group 866">
            <path id="Path_524" data-name="Path 524" d="M804.57,426.4a2.453,2.453,0,0,0,1.829-1.45c.071-.165-.172-.309-.243-.142a2.2,2.2,0,0,1-1.66,1.32c-.178.032-.1.3.075.272Z" transform="translate(-804.393 -424.73)" fill="#161616"/>
          </g>
        </g>
        <g id="Group_869" data-name="Group 869" transform="translate(8.483 9.363)">
          <g id="Group_868" data-name="Group 868">
            <path id="Path_525" data-name="Path 525" d="M820.948,408.636a.141.141,0,0,0,0-.282.141.141,0,0,0,0,.282Z" transform="translate(-820.811 -408.354)" fill="#161616"/>
          </g>
        </g>
        <g id="Group_871" data-name="Group 871" transform="translate(9.086 8.994)">
          <g id="Group_870" data-name="Group 870">
            <path id="Path_526" data-name="Path 526" d="M827.366,404.713a.141.141,0,0,0,0-.282.141.141,0,0,0,0,.282Z" transform="translate(-827.23 -404.431)" fill="#161616"/>
          </g>
        </g>
        <g id="Group_873" data-name="Group 873" transform="translate(9.053 9.664)">
          <g id="Group_872" data-name="Group 872">
            <path id="Path_527" data-name="Path 527" d="M827.01,411.846a.141.141,0,0,0,0-.282.141.141,0,0,0,0,.282Z" transform="translate(-826.874 -411.564)" fill="#161616"/>
          </g>
        </g>
        <g id="Group_875" data-name="Group 875" transform="translate(4.691 11.407)">
          <g id="Group_874" data-name="Group 874">
            <path id="Path_528" data-name="Path 528" d="M780.6,430.39h.034a.141.141,0,0,0,0-.282H780.6a.141.141,0,1,0,0,.282Z" transform="translate(-780.461 -430.108)" fill="#161616"/>
          </g>
        </g>
        <g id="Group_877" data-name="Group 877" transform="translate(5.165 11.072)">
          <g id="Group_876" data-name="Group 876">
            <path id="Path_529" data-name="Path 529" d="M785.642,426.824a.141.141,0,0,0,0-.282.141.141,0,0,0,0,.282Z" transform="translate(-785.506 -426.542)" fill="#161616"/>
          </g>
        </g>
        <g id="Group_879" data-name="Group 879" transform="translate(5.362 11.675)">
          <g id="Group_878" data-name="Group 878">
            <path id="Path_530" data-name="Path 530" d="M787.877,433.134V433.1a.141.141,0,1,0-.282,0v.034a.141.141,0,1,0,.282,0Z" transform="translate(-787.595 -432.96)" fill="#161616"/>
          </g>
        </g>
        <g id="Group_880" data-name="Group 880" transform="translate(3.98 9.015)">
          <ellipse id="Ellipse_64" data-name="Ellipse 64" cx="0.244" cy="0.688" rx="0.244" ry="0.688" transform="translate(0 0.244) rotate(-30)" fill="#161616"/>
        </g>
        <g id="Group_881" data-name="Group 881" transform="translate(6.694 7.753)">
          <ellipse id="Ellipse_65" data-name="Ellipse 65" cx="0.244" cy="0.688" rx="0.244" ry="0.688" transform="translate(0 0.244) rotate(-30)" fill="#161616"/>
        </g>
        <g id="Group_883" data-name="Group 883" transform="translate(2.626 7.196)">
          <g id="Group_882" data-name="Group 882">
            <path id="Path_531" data-name="Path 531" d="M758.76,386.3a.941.941,0,0,1,1.343-.644c.173.057.247-.215.075-.272a1.218,1.218,0,0,0-1.69.841c-.038.177.234.253.272.075Z" transform="translate(-758.485 -385.298)" fill="#161616"/>
          </g>
        </g>
        <g id="Group_885" data-name="Group 885" transform="translate(5.87 5.7)">
          <g id="Group_884" data-name="Group 884">
            <path id="Path_532" data-name="Path 532" d="M793.292,370.294c.33-.807,1.287-.73,1.942-.423.163.077.306-.166.142-.243-.842-.395-1.952-.4-2.356.591-.069.168.2.241.272.075Z" transform="translate(-793.009 -369.38)" fill="#161616"/>
          </g>
        </g>
        <g id="Group_887" data-name="Group 887" transform="translate(9.195 9.868)">
          <g id="Group_886" data-name="Group 886">
            <path id="Path_533" data-name="Path 533" d="M828.412,417.779a1.737,1.737,0,0,0,.3.393.143.143,0,0,0,.2,0,7.81,7.81,0,0,0,2.182-4.261c.029-.178-.243-.254-.272-.075a7.555,7.555,0,0,1-2.11,4.137h.2a1.009,1.009,0,0,1-.258-.336.141.141,0,0,0-.243.142Z" transform="translate(-828.392 -413.733)" fill="#161616"/>
          </g>
        </g>
      </g>
    </g>
  </g>
</svg>
