<svg xmlns="http://www.w3.org/2000/svg" width="125.159" height="101.609" viewBox="0 0 125.159 101.609">
  <g id="Group_2374" data-name="Group 2374" transform="translate(-760.252 -407.44)">
    <g id="Group_2084" data-name="Group 2084" transform="translate(771.289 465.873)">
      <g id="Group_2083" data-name="Group 2083" transform="translate(0)">
        <path id="Path_1166" data-name="Path 1166" d="M780.27,517.013c.938-2.464,3.641-3.445,6.091-3.489,2.59-.047,5.166.583,7.751.723a42.023,42.023,0,0,0,15.085-1.969c.162-.052.093-.308-.07-.256a41.752,41.752,0,0,1-16.978,1.805c-3.979-.407-10.257-1.818-12.134,3.115-.061.16.2.229.256.07Z" transform="translate(-780.004 -512.016)" fill="#e8e8e8"/>
      </g>
    </g>
    <g id="Group_2086" data-name="Group 2086" transform="translate(768.748 436.461)">
      <g id="Group_2085" data-name="Group 2085" transform="translate(0)">
        <path id="Path_1167" data-name="Path 1167" d="M775.62,468.349c5.593-1.679,11.32.067,16.832,1.218a35.409,35.409,0,0,0,8.058.934,31.844,31.844,0,0,0,8.071-1.364c5.559-1.61,10.82-4.092,16.366-5.753a89.446,89.446,0,0,1,37.942-2.9c.167.023.239-.232.07-.256a90.077,90.077,0,0,0-35.08,2.055c-5.759,1.506-11.178,3.867-16.8,5.78a39.02,39.02,0,0,1-8.69,2.052,30.047,30.047,0,0,1-8.641-.561c-5.967-1.143-12.143-3.283-18.2-1.465a.133.133,0,0,0,.07.256Z" transform="translate(-775.456 -459.378)" fill="#e8e8e8"/>
      </g>
    </g>
    <g id="Group_2088" data-name="Group 2088" transform="translate(816.699 429.803)">
      <g id="Group_2087" data-name="Group 2087">
        <path id="Path_1168" data-name="Path 1168" d="M861.4,451.088c9.583.161,18.723-3.779,28.326-3.338,9.32.428,18.23,4.089,27.619,3.765a23.175,23.175,0,0,0,12.581-3.783c.139-.1.007-.327-.133-.229-7.281,5.069-16.666,4.063-24.883,2.436a120.019,120.019,0,0,0-13.842-2.37,51.768,51.768,0,0,0-13.8,1.135c-5.246,1-10.491,2.209-15.864,2.119a.133.133,0,0,0,0,.265Z" transform="translate(-861.272 -447.462)" fill="#e8e8e8"/>
      </g>
    </g>
    <g id="Group_2090" data-name="Group 2090" transform="translate(825.969 440.497)">
      <g id="Group_2089" data-name="Group 2089">
        <path id="Path_1169" data-name="Path 1169" d="M878.028,470.612c14.8-2.51,29.731,2.531,44.528-.094a34.536,34.536,0,0,0,10.677-3.67c.15-.083.016-.312-.134-.23-13.02,7.176-28.369,3.6-42.406,3.066a61.9,61.9,0,0,0-12.735.672c-.168.029-.1.284.07.256Z" transform="translate(-877.862 -466.601)" fill="#e8e8e8"/>
      </g>
    </g>
    <g id="Group_2092" data-name="Group 2092" transform="translate(760.252 427.286)">
      <g id="Group_2091" data-name="Group 2091">
        <path id="Path_1170" data-name="Path 1170" d="M760.453,445.019a16.245,16.245,0,0,1,9.5-1.658c3.282.434,6.2,2.07,9.3,3.123a48.944,48.944,0,0,0,18.861,2.076A99.155,99.155,0,0,0,808.96,447.2c.168-.03.1-.286-.071-.256a75.7,75.7,0,0,1-20.026,1.268,41.463,41.463,0,0,1-9.848-2.084c-3.01-1.052-5.848-2.607-9.047-3.029a16.517,16.517,0,0,0-9.649,1.694c-.152.078-.018.307.134.229Z" transform="translate(-760.252 -442.958)" fill="#e8e8e8"/>
      </g>
    </g>
    <g id="Group_2094" data-name="Group 2094" transform="translate(789.243 418.724)">
      <g id="Group_2093" data-name="Group 2093">
        <path id="Path_1171" data-name="Path 1171" d="M812.231,434.385c11.406,2.534,22.462-2.449,33.367-5.031a50.908,50.908,0,0,1,10.031-1.453c.17-.006.172-.271,0-.265-11.515.383-22.021,5.973-33.43,7.023a32.01,32.01,0,0,1-9.9-.529c-.167-.037-.238.219-.07.256Z" transform="translate(-812.135 -427.635)" fill="#e8e8e8"/>
      </g>
    </g>
    <g id="Group_2096" data-name="Group 2096" transform="translate(827.645 409.82)">
      <g id="Group_2095" data-name="Group 2095">
        <path id="Path_1172" data-name="Path 1172" d="M881.028,414.192a72.79,72.79,0,0,1,21.242-2.146,71.947,71.947,0,0,1,10.618,1.3,60.374,60.374,0,0,0,10.43,1.568,57.476,57.476,0,0,0,11.858-1.209c.168-.032.1-.287-.07-.256a59.086,59.086,0,0,1-11.1,1.209,57.664,57.664,0,0,1-11.047-1.568,72.567,72.567,0,0,0-32,.849.133.133,0,0,0,.071.256Z" transform="translate(-880.862 -411.7)" fill="#e8e8e8"/>
      </g>
    </g>
    <g id="Group_2097" data-name="Group 2097" transform="translate(781.72 407.783)">
      <circle id="Ellipse_107" data-name="Ellipse 107" cx="1.084" cy="1.084" r="1.084" fill="#faad00"/>
    </g>
    <g id="Group_2098" data-name="Group 2098" transform="translate(793.345 437.444)">
      <circle id="Ellipse_108" data-name="Ellipse 108" cx="0.637" cy="0.637" r="0.637" fill="#faad00"/>
    </g>
    <g id="Group_2099" data-name="Group 2099" transform="translate(779.054 454.921)">
      <path id="Path_1173" data-name="Path 1173" d="M795.019,494.65a1.118,1.118,0,1,1,1.118-1.118A1.12,1.12,0,0,1,795.019,494.65Zm0-2.059a.941.941,0,1,0,.941.941A.942.942,0,0,0,795.019,492.591Z" transform="translate(-793.901 -492.414)" fill="#faad00"/>
    </g>
    <g id="Group_2100" data-name="Group 2100" transform="translate(862.785 424.581)">
      <path id="Path_1174" data-name="Path 1174" d="M944.688,439.994a.938.938,0,1,1,.939-.939A.94.94,0,0,1,944.688,439.994Zm0-1.7a.761.761,0,1,0,.762.761A.762.762,0,0,0,944.688,438.294Z" transform="translate(-943.75 -438.117)" fill="#faad00"/>
    </g>
    <g id="Group_2101" data-name="Group 2101" transform="translate(816.738 411.177)">
      <path id="Path_1175" data-name="Path 1175" d="M862.277,415.995a.933.933,0,1,1,.933-.933A.935.935,0,0,1,862.277,415.995Zm0-1.69a.756.756,0,1,0,.757.757A.757.757,0,0,0,862.277,414.305Z" transform="translate(-861.343 -414.128)" fill="#faad00"/>
    </g>
    <g id="Group_2102" data-name="Group 2102" transform="translate(825.089 425.867)">
      <circle id="Ellipse_109" data-name="Ellipse 109" cx="1.002" cy="1.002" r="1.002" fill="#faad00"/>
    </g>
    <g id="Group_2103" data-name="Group 2103" transform="translate(788.572 435.637)">
      <circle id="Ellipse_110" data-name="Ellipse 110" cx="0.633" cy="0.633" r="0.633" fill="#0fbf89"/>
    </g>
    <g id="Group_2104" data-name="Group 2104" transform="translate(783.235 421.337)">
      <path id="Path_1176" data-name="Path 1176" d="M802.434,434.411a1.05,1.05,0,1,1,1.05-1.05A1.05,1.05,0,0,1,802.434,434.411Zm0-1.923a.873.873,0,1,0,.873.873A.874.874,0,0,0,802.434,432.488Z" transform="translate(-801.384 -432.311)" fill="#0fbf89"/>
    </g>
    <g id="Group_2105" data-name="Group 2105" transform="translate(812.546 438.824)">
      <circle id="Ellipse_111" data-name="Ellipse 111" cx="0.973" cy="0.973" r="0.973" fill="#0fbf89"/>
    </g>
    <g id="Group_2106" data-name="Group 2106" transform="translate(806.188 417.285)">
      <circle id="Ellipse_112" data-name="Ellipse 112" cx="0.706" cy="0.706" r="0.706" fill="#0fbf89"/>
    </g>
    <g id="Group_2107" data-name="Group 2107" transform="translate(814.745 446.921)">
      <path id="Path_1177" data-name="Path 1177" d="M858.423,479.392a.647.647,0,1,1,.648-.647A.648.648,0,0,1,858.423,479.392Zm0-1.118a.47.47,0,1,0,.471.47A.471.471,0,0,0,858.423,478.274Z" transform="translate(-857.775 -478.097)" fill="#0fbf89"/>
    </g>
    <g id="Group_2108" data-name="Group 2108" transform="translate(867.206 435.549)">
      <path id="Path_1178" data-name="Path 1178" d="M952.384,459.188a.721.721,0,1,1,.721-.721A.723.723,0,0,1,952.384,459.188Zm0-1.266a.545.545,0,1,0,.544.545A.545.545,0,0,0,952.384,457.922Z" transform="translate(-951.662 -457.745)" fill="#0fbf89"/>
    </g>
    <g id="Group_2110" data-name="Group 2110" transform="translate(799.243 419.951)">
      <g id="Group_2109" data-name="Group 2109">
        <path id="Path_1179" data-name="Path 1179" d="M830.288,430.361a.266.266,0,0,0,0-.531.266.266,0,0,0,0,.531Z" transform="translate(-830.031 -429.83)" fill="#0fbf89"/>
      </g>
    </g>
    <g id="Group_2112" data-name="Group 2112" transform="translate(812.759 460.012)">
      <g id="Group_2111" data-name="Group 2111">
        <path id="Path_1180" data-name="Path 1180" d="M854.454,502.2c.429-.34,1.047.178,1.5.211a.922.922,0,0,0,.578-.156c.056-.06.109-.124.159-.189l.8-.091c.211.021.324.158.559.171.545.031,1.7-.763,1.951.1a.133.133,0,0,0,.256-.071.8.8,0,0,0-.8-.586,4.329,4.329,0,0,0-.934.2,3.463,3.463,0,0,1-1.153-.184c-.094-.017-.187-.092-.285-.091-.278,0-.265.089-.482.207-.489.268-.684.42-1.193.253-.428-.14-.771-.265-1.144.031-.134.106.055.293.188.188Z" transform="translate(-854.22 -501.525)" fill="#0fbf89"/>
      </g>
    </g>
    <g id="Group_2114" data-name="Group 2114" transform="translate(816.266 461.369)">
      <g id="Group_2113" data-name="Group 2113">
        <path id="Path_1181" data-name="Path 1181" d="M860.691,504.537c.544-.384.949-.14,1.493.028.124.038.164.113.272.136.4.086.378-.177.706-.286.487-.163.681.21,1.121.229s1.063-.7,1.373-.166a.133.133,0,0,0,.23-.134.629.629,0,0,0-.771-.291c-.548.115-.389.386-1.256.092-.156-.053-.206-.187-.4-.189a.622.622,0,0,0-.268.084c-.328.158-.151.251-.583.279-.344.022-.332-.048-.6-.178a1.381,1.381,0,0,0-1.449.168c-.139.1-.006.327.134.229Z" transform="translate(-860.498 -503.955)" fill="#0fbf89"/>
      </g>
    </g>
    <g id="Group_2116" data-name="Group 2116" transform="translate(857.225 407.44)">
      <g id="Group_2115" data-name="Group 2115">
        <path id="Path_1182" data-name="Path 1182" d="M934,407.875c.483-.26.927.254,1.391.289.286.022.348-.137.572-.225.68-.268.689.159,1.243.271.62.125,1.123-.294,1.711.243.126.115.314-.072.188-.188a1.472,1.472,0,0,0-1.162-.51,2.15,2.15,0,0,1-1.188-.1c-.146-.068-.263-.2-.434-.21a.627.627,0,0,0-.344.082c-.19.072-.15.167-.429.249a.752.752,0,0,1-.676-.064,1.088,1.088,0,0,0-1.006-.062c-.15.081-.016.31.134.229Z" transform="translate(-933.799 -407.44)" fill="#0fbf89"/>
      </g>
    </g>
    <g id="Group_2118" data-name="Group 2118" transform="translate(860.799 408.883)">
      <g id="Group_2117" data-name="Group 2117">
        <path id="Path_1183" data-name="Path 1183" d="M940.457,410.529c.183-.645,1.109.137,1.447.187.409.06.53-.242.9-.257.336-.013.353.274.669.309.087.01.175-.055.257-.056a.46.46,0,0,0,.183-.134.989.989,0,0,1,1.134.31c.121.12.309-.068.188-.188a1.252,1.252,0,0,0-1.269-.486c-.322.056-.024.419-.646.161-.088-.036-.132-.215-.235-.239s-.171-.088-.274-.083c-.074,0-.148.062-.22.077-.4.083.163.179-.619.155-.425-.013-.662-.229-1.062-.259a.59.59,0,0,0-.7.432.133.133,0,0,0,.256.07Z" transform="translate(-940.196 -410.023)" fill="#0fbf89"/>
      </g>
    </g>
    <g id="Group_2120" data-name="Group 2120" transform="translate(773.82 476.299)">
      <g id="Group_2119" data-name="Group 2119" transform="translate(0)">
        <path id="Path_1184" data-name="Path 1184" d="M784.8,531.655c.01-.207,1.129.267,1.378.2.231-.063.294-.259.467-.394.378-.3.606-.1,1.012-.1.583,0,.9-.48,1.557-.235.467.174.726.527,1.258.532a.133.133,0,0,0,0-.265c-.7-.006-1.149-.8-1.845-.706-.44.057-.654.392-1.166.329-.239-.029-.326-.166-.588-.087-.232.07-.3.293-.479.429-.631.475-.7-.069-1.224-.148-.349-.052-.62.1-.635.451-.008.171.258.17.265,0Z" transform="translate(-784.535 -530.674)" fill="#0fbf89"/>
      </g>
    </g>
    <g id="Group_2122" data-name="Group 2122" transform="translate(778.054 477.591)">
      <g id="Group_2121" data-name="Group 2121">
        <path id="Path_1185" data-name="Path 1185" d="M792.309,533.344c.735-.445.622.371,1.039.419.6.068,1.1-.2,1.7.156.471.282.971.473,1.421.071.127-.115-.061-.3-.188-.188-.571.511-1.2-.3-1.7-.44-.4-.115-.7.087-1.083.007-.528-.112-.727-.617-1.328-.254a.133.133,0,0,0,.134.229Z" transform="translate(-792.112 -532.985)" fill="#0fbf89"/>
      </g>
    </g>
    <g id="Group_2124" data-name="Group 2124" transform="translate(818.727 425.322)">
      <g id="Group_2123" data-name="Group 2123">
        <path id="Path_1186" data-name="Path 1186" d="M865.159,439.973a.266.266,0,0,0,0-.531.266.266,0,0,0,0,.531Z" transform="translate(-864.902 -439.442)" fill="#faad00"/>
      </g>
    </g>
    <g id="Group_2126" data-name="Group 2126" transform="translate(792.135 411.764)">
      <g id="Group_2125" data-name="Group 2125">
        <path id="Path_1187" data-name="Path 1187" d="M817.565,415.839c.612-.867,1.119-.161,1.724-.025.268.06.334-.033.573-.108a2.341,2.341,0,0,1,1.2.056c.6.072.938-.4,1.649-.092.155.067.291-.162.134-.229a2.336,2.336,0,0,0-1.383-.072c-.558.06-.957-.184-1.479-.066-.241.054-.486.244-.778.176-.124-.029-.251-.158-.376-.2a1.5,1.5,0,0,0-.5-.1,1.143,1.143,0,0,0-1,.527c-.1.14.131.272.23.134Z" transform="translate(-817.311 -415.178)" fill="#faad00"/>
      </g>
    </g>
    <g id="Group_2128" data-name="Group 2128" transform="translate(795.927 429.063)">
      <g id="Group_2127" data-name="Group 2127">
        <path id="Path_1188" data-name="Path 1188" d="M824.355,446.8c.092-.684,1.216.119,1.53.162a1.134,1.134,0,0,0,.805-.264c.385-.246.317-.317.937-.055.072.031.112.141.2.155.451.074,1.355-.14,1.628.094.128.111.317-.076.188-.188-.459-.394-.726-.292-1.267-.243a1.163,1.163,0,0,1-.7-.153c-.072-.03-.12-.1-.2-.131a.637.637,0,0,0-.432,0c-.663.187-.534.707-1.5.365-.225-.08-.387-.26-.633-.3a.636.636,0,0,0-.812.493c-.022.167.233.239.256.07Z" transform="translate(-824.097 -446.138)" fill="#faad00"/>
      </g>
    </g>
    <g id="Group_2130" data-name="Group 2130" transform="translate(800.634 430.325)">
      <g id="Group_2129" data-name="Group 2129">
        <path id="Path_1189" data-name="Path 1189" d="M832.649,448.837a13.259,13.259,0,0,1,1.529-.126c.612.023.879.346,1.38.531a1.588,1.588,0,0,0,1.438-.21c.143-.093.01-.322-.134-.229-.662.43-1.133.222-1.739-.164a1.091,1.091,0,0,0-.375-.189,7.059,7.059,0,0,0-2.1.121c-.169.014-.17.279,0,.265Z" transform="translate(-832.522 -448.396)" fill="#faad00"/>
      </g>
    </g>
    <g id="Group_2132" data-name="Group 2132" transform="translate(822.931 450.306)">
      <g id="Group_2131" data-name="Group 2131">
        <path id="Path_1190" data-name="Path 1190" d="M897.833,484.157l-24.682,4.151c-.131.022-.121.226,0,.256l3.559.871.035-.26a19.905,19.905,0,0,0-4.222.933.134.134,0,0,0-.059.222,5.151,5.151,0,0,0,2.563,1.232c.167.03.239-.226.07-.256a4.907,4.907,0,0,1-2.446-1.163l-.059.222a19.6,19.6,0,0,1,4.151-.924c.139-.016.192-.222.035-.261l-3.558-.871v.256l24.681-4.151c.168-.029.1-.284-.07-.256Z" transform="translate(-872.425 -484.155)" fill="#e8e8e8"/>
      </g>
    </g>
    <g id="Group_2134" data-name="Group 2134" transform="translate(781.596 457.766)">
      <g id="Group_2133" data-name="Group 2133">
        <path id="Path_1191" data-name="Path 1191" d="M841.815,497.6l-1.166,3.647-.53,1.658-.212.663c-.178.558-.179.76-.751.873a13.811,13.811,0,0,0-2.494.493,9.379,9.379,0,0,0-2.277,1.291,17.976,17.976,0,0,0-3.967,4.649c-1.328,2.036-2.615,4.1-3.919,6.15l-1.021,1.6a10.636,10.636,0,0,1-.929,1.459,4.122,4.122,0,0,1-1.708.826l-1.922.714-3.2,1.19a9.884,9.884,0,0,0-2.563,1.066,7.515,7.515,0,0,0-1.559,2.311q-.955,1.639-1.94,3.259-1.842,3.029-3.789,5.993-4.429,6.739-9.383,13.11c-.1.133.083.322.188.188a204.075,204.075,0,0,0,13.725-20q.765-1.272,1.511-2.555c.627-1.078,1.053-2.025,2.279-2.517,2.006-.806,4.06-1.509,6.086-2.261l1.281-.476a3.735,3.735,0,0,0,1.02-.391,4.727,4.727,0,0,0,.578-.9l.929-1.458,3.528-5.544c2.3-3.617,5.192-8.229,10.112-7.905a.135.135,0,0,0,.128-.1l2.226-6.962c.052-.163-.2-.233-.256-.071Z" transform="translate(-798.449 -497.506)" fill="#e8e8e8"/>
      </g>
    </g>
    <g id="Group_2136" data-name="Group 2136" transform="translate(827.449 457.09)">
      <g id="Group_2135" data-name="Group 2135">
        <path id="Path_1192" data-name="Path 1192" d="M882.815,496.307c-.589.243-1.239.443-1.8.743-.173.092-.4.172-.471.379-.193.555.552.783.934.874a35.32,35.32,0,0,0,7.767.84l-.035-.261-2.431.833a.135.135,0,0,0-.079.2,2.007,2.007,0,0,0,1.751,1.026,36,36,0,0,0,4,.048l8.843.029a.133.133,0,0,0,0-.265l-8.67-.028c-1.3,0-2.635.071-3.934-.027-.388-.029-1.9-.276-1.536-.826.113-.168.858-.294,1.064-.364l1.063-.364a.133.133,0,0,0-.035-.26,39.85,39.85,0,0,1-5.14-.379,8.648,8.648,0,0,1-2.388-.416l-.339-.072q-.376-.834.307-.953a6.053,6.053,0,0,1,1.2-.5c.155-.064.087-.321-.071-.256Z" transform="translate(-880.512 -496.296)" fill="#e8e8e8"/>
      </g>
    </g>
    <g id="Group_2138" data-name="Group 2138" transform="translate(847.518 448.673)">
      <g id="Group_2137" data-name="Group 2137">
        <path id="Path_1193" data-name="Path 1193" d="M916.555,483.143a76.317,76.317,0,0,1,16.315.246.133.133,0,0,0,.128-.168l-.681-1.892-.163.164,7.657,1.548c.088.018.2-.061.163-.163l-.536-1.369-.163.163a23.466,23.466,0,0,0,4.7.953c.17.017.169-.249,0-.265a23.09,23.09,0,0,1-4.631-.944c-.09-.028-.2.068-.163.163l.536,1.369.163-.163-7.657-1.549c-.09-.018-.2.061-.163.164l.4,1.1c.188.521.272.52-.279.537a18.318,18.318,0,0,1-2.076-.211q-2.252-.2-4.514-.257a76.417,76.417,0,0,0-9.034.3c-.168.016-.17.281,0,.265Z" transform="translate(-916.428 -481.233)" fill="#e8e8e8"/>
      </g>
    </g>
    <g id="Group_2140" data-name="Group 2140" transform="translate(847.861 462.003)">
      <g id="Group_2139" data-name="Group 2139">
        <path id="Path_1194" data-name="Path 1194" d="M918.964,505.1a4.643,4.643,0,0,0-1.886,1.159.134.134,0,0,0,.059.222c3.682.725,7.614.178,11.332.007l-.094-.226a3.426,3.426,0,0,1-1.365.843c-.115.039-.137.229,0,.256a60.627,60.627,0,0,0,11.978,1.182.133.133,0,0,0,0-.265A60.3,60.3,0,0,1,927.08,507.1v.256a3.772,3.772,0,0,0,1.482-.911.134.134,0,0,0-.094-.227c-3.691.17-7.607.722-11.261,0l.059.222a4.307,4.307,0,0,1,1.768-1.091c.161-.053.093-.31-.07-.256Z" transform="translate(-917.041 -505.089)" fill="#e8e8e8"/>
      </g>
    </g>
    <g id="Group_2142" data-name="Group 2142" transform="translate(814.648 481.077)">
      <g id="Group_2141" data-name="Group 2141">
        <path id="Path_1195" data-name="Path 1195" d="M857.642,539.449a5.2,5.2,0,0,0,2.2,1.014,3.924,3.924,0,0,1,1.613.881,2.2,2.2,0,0,0,.9.606c.975.285,2.267-.15,3.231-.263a37.159,37.159,0,0,1,3.957-.242.133.133,0,0,0,0-.265c-1.158.012-2.313.069-3.464.188a23.43,23.43,0,0,1-3.183.389c-.94-.037-1.469-.962-2.3-1.314-.938-.4-1.99-.459-2.766-1.182-.125-.116-.313.071-.188.188Z" transform="translate(-857.601 -539.224)" fill="#e8e8e8"/>
      </g>
    </g>
    <g id="Group_2144" data-name="Group 2144" transform="translate(796.371 501.124)">
      <g id="Group_2143" data-name="Group 2143" transform="translate(0 0)">
        <path id="Path_1196" data-name="Path 1196" d="M824.96,575.347a20.264,20.264,0,0,0,3.863,1.4,6.982,6.982,0,0,0,3.431.421,56,56,0,0,1,9.146-1.508c.169-.011.171-.277,0-.265a46.9,46.9,0,0,0-7.971,1.2,9.245,9.245,0,0,1-2.038.44,9,9,0,0,1-2.192-.463,20.757,20.757,0,0,1-4.1-1.453c-.152-.076-.287.153-.134.229Z" transform="translate(-824.892 -575.103)" fill="#e8e8e8"/>
      </g>
    </g>
    <g id="Group_2146" data-name="Group 2146" transform="translate(806.198 495.768)">
      <g id="Group_2145" data-name="Group 2145">
        <path id="Path_1197" data-name="Path 1197" d="M842.569,565.782l4.549,1.671a9.953,9.953,0,0,0,3.912.762c3.106-.076,6.212-.179,9.317-.269.17-.005.171-.27,0-.265q-4.487.129-8.973.259a9.191,9.191,0,0,1-2.329-.113,18.345,18.345,0,0,1-2.182-.749l-4.224-1.552c-.16-.059-.23.2-.07.256Z" transform="translate(-842.479 -565.517)" fill="#e8e8e8"/>
      </g>
    </g>
    <g id="Group_2148" data-name="Group 2148" transform="translate(812.458 481.685)">
      <g id="Group_2147" data-name="Group 2147">
        <path id="Path_1198" data-name="Path 1198" d="M855.305,540.4l-1.615,4.961c-.053.163.2.232.256.07l1.615-4.96c.053-.163-.2-.233-.256-.071Z" transform="translate(-853.683 -540.312)" fill="#e8e8e8"/>
      </g>
    </g>
    <g id="Group_2150" data-name="Group 2150" transform="translate(792.972 502.089)">
      <g id="Group_2149" data-name="Group 2149" transform="translate(0 0)">
        <path id="Path_1199" data-name="Path 1199" d="M821.618,576.9q-1.369,3.035-2.8,6.044c-.073.154.156.288.229.134q1.427-3.009,2.8-6.044c.07-.155-.159-.289-.229-.134Z" transform="translate(-818.808 -576.829)" fill="#e8e8e8"/>
      </g>
    </g>
    <g id="Group_2152" data-name="Group 2152" transform="translate(789.923 500.793)">
      <g id="Group_2151" data-name="Group 2151">
        <path id="Path_1200" data-name="Path 1200" d="M816.468,574.573q-1.5,2.433-3.093,4.8c-.1.142.134.275.229.134q1.6-2.366,3.093-4.8c.089-.146-.14-.279-.229-.134Z" transform="translate(-813.352 -574.51)" fill="#e8e8e8"/>
      </g>
    </g>
    <g id="Group_2154" data-name="Group 2154" transform="translate(822.188 467.83)">
      <g id="Group_2153" data-name="Group 2153">
        <path id="Path_1201" data-name="Path 1201" d="M874.135,515.559l-2.33,2.58c-.277.306-.93.8-.636,1.284.277.455,1.338.46,1.765.55l3.557.744c.167.035.238-.221.071-.256l-2.2-.461a9.211,9.211,0,0,1-2.2-.461q-.544.056-.368-.513a.508.508,0,0,1,.2-.7,5.623,5.623,0,0,1,.7-.774l1.63-1.806c.115-.126-.073-.315-.187-.188Z" transform="translate(-871.095 -515.517)" fill="#e8e8e8"/>
      </g>
    </g>
    <g id="Group_2156" data-name="Group 2156" transform="translate(825.827 484.898)">
      <g id="Group_2155" data-name="Group 2155">
        <path id="Path_1202" data-name="Path 1202" d="M878.746,546.159l-1.134,5.378c-.035.166.221.238.256.071L879,546.23c.035-.167-.221-.238-.256-.071Z" transform="translate(-877.609 -546.063)" fill="#e8e8e8"/>
      </g>
    </g>
    <g id="Group_2158" data-name="Group 2158" transform="translate(830.079 480.622)">
      <g id="Group_2157" data-name="Group 2157">
        <path id="Path_1203" data-name="Path 1203" d="M886.565,538.451c-.264.273-1.376,1.085-1.348,1.5.014.209.127.252.284.363a6.876,6.876,0,0,0,2.122.668c.709.174,1.428.308,2.15.417,3.128.471,6.307.472,9.421,1.057.166.032.238-.224.07-.256-2.4-.451-4.839-.566-7.267-.8a31.25,31.25,0,0,1-4-.6c-.559-.128-1.112-.28-1.656-.461-1.183-.394-.078-1.192.411-1.7.119-.123-.069-.311-.188-.187Z" transform="translate(-885.217 -538.411)" fill="#e8e8e8"/>
      </g>
    </g>
    <g id="Group_2160" data-name="Group 2160" transform="translate(824.451 501.971)">
      <g id="Group_2159" data-name="Group 2159" transform="translate(0 0)">
        <path id="Path_1204" data-name="Path 1204" d="M878.949,576.654l-2.615,2.482c-.349.331-1.327.921-1.173,1.531.11.437.705.533,1.071.559,1.113.081,2.222.065,3.335.194,4.509.522,8.907,1.906,13.486,1.708.17-.007.171-.273,0-.265-3.8.165-7.485-.756-11.2-1.377a33.143,33.143,0,0,0-5.026-.517c-.2,0-.743.064-.884-.042l-.289-.775.249-.236a7.3,7.3,0,0,1,1-.945l2.241-2.127c.124-.118-.064-.306-.188-.188Z" transform="translate(-875.145 -576.617)" fill="#e8e8e8"/>
      </g>
    </g>
    <g id="Group_2162" data-name="Group 2162" transform="translate(851.267 487.221)">
      <g id="Group_2161" data-name="Group 2161">
        <path id="Path_1205" data-name="Path 1205" d="M924.744,550.347c.256,2.431-.531,4.987-.865,7.391q-.479,3.447-.741,6.919c-.013.17.252.17.265,0q.29-3.779.829-7.533c.321-2.212,1.013-4.532.777-6.777-.017-.168-.283-.17-.265,0Z" transform="translate(-923.137 -550.22)" fill="#e8e8e8"/>
      </g>
    </g>
    <g id="Group_2164" data-name="Group 2164" transform="translate(857.397 465.036)">
      <g id="Group_2163" data-name="Group 2163">
        <path id="Path_1206" data-name="Path 1206" d="M934.311,510.645q-.2,4.741-.2,9.487a.133.133,0,0,0,.265,0q0-4.746.2-9.487c.007-.171-.258-.171-.265,0Z" transform="translate(-934.108 -510.516)" fill="#e8e8e8"/>
      </g>
    </g>
    <g id="Group_2166" data-name="Group 2166" transform="translate(834.684 461.808)">
      <g id="Group_2165" data-name="Group 2165">
        <path id="Path_1207" data-name="Path 1207" d="M893.465,504.9a33.49,33.49,0,0,1,1.174,8.883.133.133,0,0,0,.265,0,33.744,33.744,0,0,0-1.184-8.954.133.133,0,0,0-.256.071Z" transform="translate(-893.46 -504.739)" fill="#e8e8e8"/>
      </g>
    </g>
    <g id="Group_2168" data-name="Group 2168" transform="translate(845.394 469.126)">
      <g id="Group_2167" data-name="Group 2167">
        <path id="Path_1208" data-name="Path 1208" d="M912.627,517.964q.321,3.828.885,7.629c.025.168.281.1.256-.07q-.558-3.766-.876-7.558c-.014-.169-.28-.171-.265,0Z" transform="translate(-912.626 -517.837)" fill="#e8e8e8"/>
      </g>
    </g>
    <g id="Group_2170" data-name="Group 2170" transform="translate(867.161 492.908)">
      <g id="Group_2169" data-name="Group 2169">
        <path id="Path_1209" data-name="Path 1209" d="M951.582,560.526q.476,5.181.838,10.37c.012.17.278.171.265,0q-.362-5.19-.838-10.37c-.016-.169-.281-.17-.265,0Z" transform="translate(-951.582 -560.398)" fill="#e8e8e8"/>
      </g>
    </g>
    <g id="Group_2171" data-name="Group 2171" transform="translate(795.387 493.637)">
      <path id="Path_1210" data-name="Path 1210" d="M824.644,561.859l-1.513,4.85q10.557,1.531,10.691.887.113-.541-7.093-2.608l.522-3.286Z" transform="translate(-823.131 -561.703)"/>
    </g>
    <g id="Group_2172" data-name="Group 2172" transform="translate(786.519 470.634)">
      <path id="Path_1211" data-name="Path 1211" d="M808.336,526.806a11.9,11.9,0,0,0,2.525,1.979c1.4.843,3.639,2.414,6.919,4.855q-.4,1.341-.783,2.723-1.013,3.654-1.788,7.132a11.007,11.007,0,0,0,2.6.8A11.229,11.229,0,0,0,822.85,544c.308-1.781.56-3.3.75-4.46.6-3.672.782-5.077.9-6.1s.209-1.889.264-2.48a38.746,38.746,0,0,0-2.578-3.216,23.654,23.654,0,0,0-5.64-5.057,17.932,17.932,0,0,0-5.557-2.154l-3.732,4.985A11.556,11.556,0,0,0,808.336,526.806Z" transform="translate(-807.261 -520.535)" fill="#fff"/>
    </g>
    <g id="Group_2173" data-name="Group 2173" transform="translate(785.781 473.696)" opacity="0.23">
      <path id="Path_1212" data-name="Path 1212" d="M809.636,526.015c.6.729,1.262,1.472,1.99,2.218a35.892,35.892,0,0,0,7.109,5.63q.037,1.5.057,3.015.068,5.149-.059,10.078a4.607,4.607,0,0,1-2.789-.553,4.35,4.35,0,0,1-1.076-.877,39.047,39.047,0,0,1,1.5-7.049c.295-.946.614-1.839.944-2.68-1.858-1.166-3.276-2.047-4.03-2.514-3.488-2.162-4.682-2.866-5.846-4.38a10.913,10.913,0,0,1-1.5-2.661Z" transform="translate(-805.939 -526.015)" fill="#9e9e9e"/>
    </g>
    <g id="Group_2175" data-name="Group 2175" transform="translate(786.381 475.492)">
      <g id="Group_2174" data-name="Group 2174">
        <path id="Path_1213" data-name="Path 1213" d="M807.038,529.423a15.673,15.673,0,0,0,4.307,3.761l6.066,4.22c.14.1.273-.132.134-.229l-5.5-3.828c-1.709-1.189-3.581-2.306-4.776-4.057-.1-.141-.326-.008-.229.134Z" transform="translate(-807.014 -529.23)"/>
      </g>
    </g>
    <g id="Group_2177" data-name="Group 2177" transform="translate(795.685 472.647)">
      <g id="Group_2176" data-name="Group 2176">
        <path id="Path_1214" data-name="Path 1214" d="M823.72,524.393a41.892,41.892,0,0,1,4.416,3.8q.93.924,1.8,1.905c.525.592,2.064,1.947,1.92,2.774-.029.167.227.239.256.07.122-.7-.476-1.233-.889-1.74q-1.121-1.374-2.359-2.649a42.212,42.212,0,0,0-5.012-4.387c-.137-.1-.269.128-.134.229Z" transform="translate(-823.664 -524.138)"/>
      </g>
    </g>
    <g id="Group_2179" data-name="Group 2179" transform="translate(802.176 481.194)">
      <g id="Group_2178" data-name="Group 2178">
        <path id="Path_1215" data-name="Path 1215" d="M837.081,539.53q-.951,6.107-1.8,12.229c-.023.167.232.239.256.07q.847-6.122,1.8-12.229c.026-.167-.23-.239-.256-.07Z" transform="translate(-835.281 -539.434)"/>
      </g>
    </g>
    <g id="Group_2181" data-name="Group 2181" transform="translate(794.58 482.99)">
      <g id="Group_2180" data-name="Group 2180">
        <path id="Path_1216" data-name="Path 1216" d="M824.34,542.712A18.014,18.014,0,0,0,822.9,547.4q-.672,2.7-1.21,5.434c-.034.167.222.238.256.07q.509-2.565,1.129-5.106a19.017,19.017,0,0,1,1.5-4.948.133.133,0,0,0-.229-.134Z" transform="translate(-821.687 -542.648)"/>
      </g>
    </g>
    <g id="Group_2183" data-name="Group 2183" transform="translate(794.752 493.521)">
      <g id="Group_2182" data-name="Group 2182">
        <path id="Path_1217" data-name="Path 1217" d="M822.056,561.747a8.36,8.36,0,0,0,3.62.98,6.3,6.3,0,0,0,3.743-.542c.151-.079.017-.308-.134-.229a6.285,6.285,0,0,1-3.886.467,7.758,7.758,0,0,1-3.21-.906c-.141-.1-.274.134-.133.229Z" transform="translate(-821.996 -561.495)"/>
      </g>
    </g>
    <g id="Group_2184" data-name="Group 2184" transform="translate(814.616 470.761)">
      <path id="Path_1218" data-name="Path 1218" d="M857.841,524.916l2.9.708q4.081-5.155,4.549-4.844.521.344-3.427,7.444l-4.314-1.047Z" transform="translate(-857.545 -520.763)"/>
    </g>
    <g id="Group_2185" data-name="Group 2185" transform="translate(785.246 469.314)">
      <path id="Path_1219" data-name="Path 1219" d="M804.983,523.711a4.315,4.315,0,0,0,.634,1.8,4.764,4.764,0,0,0,2.493,1.86,8,8,0,0,0,4.707.1,107.983,107.983,0,0,0,11.749-3.644c1.564.831,3.274,1.667,5.129,2.473,1.68.73,3.3,1.357,4.827,1.9a9.516,9.516,0,0,0,1.568-3.473,9.359,9.359,0,0,0,.224-2.233l-9.2-4.025a75.671,75.671,0,0,0-10.168-.206,19.254,19.254,0,0,0-4.6.57A15.369,15.369,0,0,0,804.983,523.711Z" transform="translate(-804.983 -518.172)" fill="#fff"/>
    </g>
    <g id="Group_2186" data-name="Group 2186" transform="translate(785.32 473.313)" opacity="0.23">
      <path id="Path_1220" data-name="Path 1220" d="M805.614,526.233a3.869,3.869,0,0,0,1.185,2.055c1.792,1.52,4.7.476,11.508-1.294,1.688-.439,4-1.021,6.771-1.666a13.223,13.223,0,0,0,3.27,2.39,13.7,13.7,0,0,0,7.4,1.424l-1.3,2.475c-1.288-.474-2.645-1.025-4.05-1.668a57.8,57.8,0,0,1-5.572-2.922c-2.508.657-4.5,1.294-5.794,1.733-4.218,1.426-5.733,2.309-8.48,2.179a6.954,6.954,0,0,1-4.22-1.5,2.755,2.755,0,0,1-1.212-2.11A1.936,1.936,0,0,1,805.614,526.233Z" transform="translate(-805.114 -525.329)" fill="#9e9e9e"/>
    </g>
    <g id="Group_2188" data-name="Group 2188" transform="translate(785.368 474.831)">
      <g id="Group_2187" data-name="Group 2187">
        <path id="Path_1221" data-name="Path 1221" d="M805.213,529.2c1.244,2.915,4.723,3.375,7.485,2.811a57.253,57.253,0,0,0,5.807-1.729l6.193-1.968c.162-.051.093-.308-.07-.256-3.473,1.1-6.931,2.287-10.431,3.3-3,.868-7.27,1.183-8.754-2.293-.066-.156-.3-.021-.229.134Z" transform="translate(-805.201 -528.047)"/>
      </g>
    </g>
    <g id="Group_2190" data-name="Group 2190" transform="translate(795.089 469.161)">
      <g id="Group_2189" data-name="Group 2189">
        <path id="Path_1222" data-name="Path 1222" d="M822.725,518.417a66.267,66.267,0,0,1,12.156.057c.17.017.169-.249,0-.265a66.316,66.316,0,0,0-12.156-.058c-.169.015-.17.281,0,.266Z" transform="translate(-822.597 -517.9)"/>
      </g>
    </g>
    <g id="Group_2192" data-name="Group 2192" transform="translate(807.412 469.448)">
      <g id="Group_2191" data-name="Group 2191">
        <path id="Path_1223" data-name="Path 1223" d="M844.741,518.678a74.189,74.189,0,0,1,8.821,4.109c.15.082.284-.147.134-.229a74.748,74.748,0,0,0-8.885-4.136c-.159-.062-.229.194-.07.256Z" transform="translate(-844.652 -518.413)"/>
      </g>
    </g>
    <g id="Group_2194" data-name="Group 2194" transform="translate(804.834 475.103)">
      <g id="Group_2193" data-name="Group 2193">
        <path id="Path_1224" data-name="Path 1224" d="M840.106,528.777c3.106,1.509,6.2,3.228,9.555,4.114a.133.133,0,0,0,.07-.256c-3.334-.88-6.407-2.589-9.491-4.088-.153-.074-.288.155-.134.23Z" transform="translate(-840.039 -528.533)"/>
      </g>
    </g>
    <g id="Group_2196" data-name="Group 2196" transform="translate(814.694 473.5)">
      <g id="Group_2195" data-name="Group 2195">
        <path id="Path_1225" data-name="Path 1225" d="M859.433,525.793a8.771,8.771,0,0,1-1.724,5.4c-.1.138.129.27.229.134a9.006,9.006,0,0,0,1.761-5.538.133.133,0,0,0-.265,0Z" transform="translate(-857.684 -525.664)"/>
      </g>
    </g>
    <g id="Group_2197" data-name="Group 2197" transform="translate(788.572 455.009)">
      <path id="Path_1226" data-name="Path 1226" d="M811.716,493.327a2.866,2.866,0,0,0-.634,1.363,4.778,4.778,0,0,0-.109,1.789c.132.415.34,1.037.625,1.782a26.533,26.533,0,0,0,1.92,4.016c.775,1.318,1.116,1.622,1.451,1.833a3.852,3.852,0,0,0,2,.522c1.351.065,3.1.12,5.171.108a4.085,4.085,0,0,0,2.669.362,3.348,3.348,0,0,0,1.268-.571,3.639,3.639,0,0,0,.79-.837c.418-.562,1.048-1.407.84-1.748-.313-.515-2.438.27-2.812.411-.746-.184-1.335-.356-1.694-.466-2.532-.768-3.535-1.4-4.829-1.033a3.238,3.238,0,0,0-.805.355c-.273-.774-.761-2.161-1.368-3.918-1.152-3.331-1.513-4.455-2.445-4.681A2.305,2.305,0,0,0,811.716,493.327Z" transform="translate(-810.934 -492.573)" fill="#fff"/>
    </g>
    <g id="Group_2198" data-name="Group 2198" transform="translate(788.589 457.256)" opacity="0.23">
      <path id="Path_1227" data-name="Path 1227" d="M810.987,498.252c-.059-.626-.011-1.589.279-1.656.412-.1.921,1.779,2.036,3.516a12.209,12.209,0,0,0,5.07,4.4c4.134,1.85,8.224,0,8.507.953.133.451-.684,1.183-1.459,1.444a2.927,2.927,0,0,1-2.413-.4c-1.914.08-3.526.047-4.742-.01-2.02-.094-2.653-.241-3.28-.618a6.123,6.123,0,0,1-2.089-2.7c-.431-.846-.217-.716-.851-2.147A8.7,8.7,0,0,1,810.987,498.252Z" transform="translate(-810.965 -496.593)" fill="#9e9e9e"/>
    </g>
    <g id="Group_2200" data-name="Group 2200" transform="translate(788.476 458.788)">
      <g id="Group_2199" data-name="Group 2199">
        <path id="Path_1228" data-name="Path 1228" d="M810.769,499.5a30.472,30.472,0,0,0,1.7,4.224,9.676,9.676,0,0,0,2.073,3.294,6.2,6.2,0,0,0,3.492.824c1.623.075,3.258.02,4.882.015a.133.133,0,0,0,0-.265c-1.3,0-2.606.022-3.908.009-1.345-.015-3.182.076-4.291-.8a9.766,9.766,0,0,1-2.09-3.356,29.946,29.946,0,0,1-1.6-4.015c-.052-.162-.308-.093-.256.07Z" transform="translate(-810.762 -499.335)"/>
      </g>
    </g>
    <g id="Group_2202" data-name="Group 2202" transform="translate(792.999 457.919)">
      <g id="Group_2201" data-name="Group 2201">
        <path id="Path_1229" data-name="Path 1229" d="M818.87,497.982c.411.94.8,1.889,1.161,2.85a15.155,15.155,0,0,0,.831,2.1c.083.149.312.015.229-.134a21.072,21.072,0,0,1-1.038-2.645c-.3-.774-.621-1.541-.954-2.3-.068-.156-.3-.021-.229.134Z" transform="translate(-818.858 -497.779)"/>
      </g>
    </g>
    <g id="Group_2204" data-name="Group 2204" transform="translate(795.133 463.138)">
      <g id="Group_2203" data-name="Group 2203">
        <path id="Path_1230" data-name="Path 1230" d="M822.908,507.63c.525-.461,1.65-.135,2.231-.02a15.021,15.021,0,0,1,1.677.448,10.661,10.661,0,0,0,3.127.686.133.133,0,0,0,0-.265c-1.6-.021-3.036-.77-4.58-1.094-.783-.164-1.97-.532-2.643.058-.129.113.06.3.188.188Z" transform="translate(-822.677 -507.119)"/>
      </g>
    </g>
    <g id="Group_2206" data-name="Group 2206" transform="translate(803.106 464.044)">
      <g id="Group_2205" data-name="Group 2205">
        <path id="Path_1231" data-name="Path 1231" d="M837.146,509.29a2.264,2.264,0,0,1,1.655-.231c.108.048.331.239.279.389-.017.046-.262.084-.31.095a3.366,3.366,0,0,1-.873.066c-.171-.006-.17.26,0,.265.363.012,1.915-.018,1.466-.775-.185-.311-.654-.345-.976-.357a2.837,2.837,0,0,0-1.375.319c-.153.076-.019.3.134.229Z" transform="translate(-836.945 -508.741)"/>
      </g>
    </g>
    <g id="Group_2208" data-name="Group 2208" transform="translate(802.392 465.121)">
      <g id="Group_2207" data-name="Group 2207">
        <path id="Path_1232" data-name="Path 1232" d="M837.5,510.671a2.6,2.6,0,0,0-1.52.394c-.225.145-.468.4-.188.61.336.256,1.013.088,1.39.006a1.373,1.373,0,0,0,1.031-.747c.069-.155-.16-.29-.229-.134-.266.6-.979.682-1.56.715-.129.007-.392.064-.31-.221.023-.081.329-.173.393-.2a2.39,2.39,0,0,1,.994-.159c.171.007.17-.259,0-.265Z" transform="translate(-835.667 -510.669)"/>
      </g>
    </g>
    <g id="Group_2210" data-name="Group 2210" transform="translate(802.453 465.862)">
      <g id="Group_2209" data-name="Group 2209">
        <path id="Path_1233" data-name="Path 1233" d="M836.117,512.091c-.408.289-.527.822.084.938a2.16,2.16,0,0,0,1.838-.8c.112-.128-.075-.316-.188-.188a2.13,2.13,0,0,1-.915.633,1.688,1.688,0,0,1-.518.106c-.352,0-.479-.236-.167-.457.138-.1.006-.329-.134-.23Z" transform="translate(-835.777 -511.995)"/>
      </g>
    </g>
    <g id="Group_2212" data-name="Group 2212" transform="translate(802.169 466.626)">
      <g id="Group_2211" data-name="Group 2211">
        <path id="Path_1234" data-name="Path 1234" d="M835.668,513.383c-.273.174-.649.66-.171.862.424.179,1.031-.233,1.381-.426.15-.082.016-.312-.134-.229a6.874,6.874,0,0,1-.682.334.739.739,0,0,1-.317.093c-.135.024-.175-.066-.121-.271a.929.929,0,0,1,.177-.134c.144-.092.011-.321-.134-.229Z" transform="translate(-835.268 -513.362)"/>
      </g>
    </g>
    <g id="Group_2214" data-name="Group 2214" transform="translate(802.244 467.013)">
      <g id="Group_2213" data-name="Group 2213">
        <path id="Path_1235" data-name="Path 1235" d="M835.4,514.41a.476.476,0,0,0,.566.421,1.322,1.322,0,0,0,.839-.583c.1-.139-.131-.272-.229-.134a1.249,1.249,0,0,1-.381.353c-.128.075-.5.222-.53-.057-.018-.168-.284-.17-.265,0Z" transform="translate(-835.403 -514.056)"/>
      </g>
    </g>
    <g id="Group_2215" data-name="Group 2215" transform="translate(783.324 453.796)">
      <path id="Path_1236" data-name="Path 1236" d="M806.126,490.4a22.793,22.793,0,0,0-1.871,2.979c-3.809,7.259-2.764,14.849-1.871,18.779a8.263,8.263,0,0,0,5.544-.277,8.639,8.639,0,0,0,4.712-5.613,12.4,12.4,0,0,1-.693-3.326,15.228,15.228,0,0,1,.208-3.326c.173-1.318.378-3.217.485-5.613Z" transform="translate(-801.542 -490.401)" fill="#0fbf89"/>
    </g>
    <g id="Group_2216" data-name="Group 2216" transform="translate(790.197 446.203)">
      <path id="Path_1237" data-name="Path 1237" d="M818.649,476.86a13.27,13.27,0,0,1,2.525,3.232l-.733.074a5.276,5.276,0,0,1,.708,3.528,2.317,2.317,0,0,1-.49.465,2.751,2.751,0,0,1-.84.372,7.529,7.529,0,0,1-1.309.273l-1.115,1.148-2.224-1.04.538-.933a1.193,1.193,0,0,1-.988.283,1.109,1.109,0,0,1,.091-2.184,4.191,4.191,0,0,1,1.4-4.771A3.584,3.584,0,0,1,818.649,476.86Z" transform="translate(-813.844 -476.812)" fill="#fff"/>
    </g>
    <g id="Group_2217" data-name="Group 2217" transform="translate(790.284 446.328)" opacity="0.22">
      <path id="Path_1238" data-name="Path 1238" d="M818.245,477.054a3.02,3.02,0,0,0-.336.184,3.45,3.45,0,0,0-1.316,1.6,3.227,3.227,0,0,0,.207,2.443c1.081,2.032,4.278,2.057,4.213,2.734-.021.221-.378.349-.9.535a5.267,5.267,0,0,1-2.751.2l-1.1.731-1.022-.478c.6-.9.7-1.12.667-1.144-.05-.038-.338.457-.827.514a1.048,1.048,0,0,1-.975-.506,1.455,1.455,0,0,1,.769-1.8,5.182,5.182,0,0,1-.137-1.307,3.955,3.955,0,0,1,1.252-3.15A3.252,3.252,0,0,1,818.245,477.054Z" transform="translate(-813.998 -477.036)" fill="#9e9e9e"/>
    </g>
    <g id="Group_2218" data-name="Group 2218" transform="translate(785.622 443.03)">
      <path id="Path_1239" data-name="Path 1239" d="M814.907,471.559a1.464,1.464,0,0,1-.343,2.891,7.061,7.061,0,0,0-2.026,1.665,6.985,6.985,0,0,0-.82,1.23v2.414l-.991.1a1.048,1.048,0,0,0,.671,1.92,1.122,1.122,0,0,0,.818-.6.848.848,0,0,1,.5.437c.248.638-.767,1.482-.859,1.559a3.992,3.992,0,0,1-3.235.592,2.728,2.728,0,0,1-2.505-2,2.568,2.568,0,0,1,.415-1.91,1.732,1.732,0,0,1,.736-3.233,3.009,3.009,0,0,1,.443-4.061,2.911,2.911,0,0,1,3.144-.136,3.114,3.114,0,0,1,1.686-1.185A3.157,3.157,0,0,1,814.907,471.559Z" transform="translate(-805.655 -471.134)" fill="#faad00"/>
    </g>
    <g id="Group_2220" data-name="Group 2220" transform="translate(794.872 446.115)">
      <g id="Group_2219" data-name="Group 2219">
        <path id="Path_1240" data-name="Path 1240" d="M822.247,476.885a16.9,16.9,0,0,1,2.5,3.205l.115-.2-.734.042c-.17.01-.171.276,0,.265l.734-.042a.134.134,0,0,0,.115-.2,17.142,17.142,0,0,0-2.546-3.259c-.116-.126-.3.062-.188.188Z" transform="translate(-822.21 -476.655)"/>
      </g>
    </g>
    <g id="Group_2222" data-name="Group 2222" transform="translate(796.661 449.425)">
      <g id="Group_2221" data-name="Group 2221">
        <path id="Path_1241" data-name="Path 1241" d="M825.431,482.777a5.337,5.337,0,0,1,.69,3.461c-.022.169.244.167.265,0a5.572,5.572,0,0,0-.726-3.6.133.133,0,0,0-.229.134Z" transform="translate(-825.412 -482.579)"/>
      </g>
    </g>
    <g id="Group_2224" data-name="Group 2224" transform="translate(792.181 452.963)">
      <g id="Group_2223" data-name="Group 2223">
        <path id="Path_1242" data-name="Path 1242" d="M817.424,489.145a3.493,3.493,0,0,0,4,.853c.161-.053.093-.309-.07-.256a3.242,3.242,0,0,1-3.738-.785c-.106-.134-.293.055-.188.188Z" transform="translate(-817.393 -488.911)"/>
      </g>
    </g>
    <g id="Group_2226" data-name="Group 2226" transform="translate(790.111 451.507)">
      <g id="Group_2225" data-name="Group 2225">
        <path id="Path_1243" data-name="Path 1243" d="M815.646,487.808a.889.889,0,0,1-1.47.218.947.947,0,0,1,.362-1.476c.153-.075.019-.3-.134-.229a1.211,1.211,0,0,0-.416,1.893,1.154,1.154,0,0,0,1.886-.272c.078-.152-.151-.286-.229-.134Z" transform="translate(-813.689 -486.305)"/>
      </g>
    </g>
    <g id="Group_2228" data-name="Group 2228" transform="translate(793.938 454.077)">
      <g id="Group_2227" data-name="Group 2227">
        <path id="Path_1244" data-name="Path 1244" d="M821.228,490.966a7.87,7.87,0,0,1-.656.9c-.109.13.077.318.188.188a8.381,8.381,0,0,0,.7-.953c.091-.145-.139-.278-.23-.134Z" transform="translate(-820.538 -490.904)"/>
      </g>
    </g>
    <g id="Group_2230" data-name="Group 2230" transform="translate(794.415 447.771)">
      <g id="Group_2229" data-name="Group 2229">
        <path id="Path_1245" data-name="Path 1245" d="M821.812,480.033a.649.649,0,0,1-.161-.315l-.163.163a.4.4,0,0,1,.278.31l.093-.163c.006,0-.005,0-.013-.016-.082-.15-.311-.016-.229.134a.281.281,0,0,0,.312.137.135.135,0,0,0,.093-.163.661.661,0,0,0-.464-.5.134.134,0,0,0-.163.164.918.918,0,0,0,.23.432c.117.125.3-.063.188-.188Z" transform="translate(-821.391 -479.619)"/>
      </g>
    </g>
    <g id="Group_2232" data-name="Group 2232" transform="translate(793.217 447.497)">
      <g id="Group_2231" data-name="Group 2231">
        <path id="Path_1246" data-name="Path 1246" d="M819.376,479.394a.133.133,0,0,0,0-.265.133.133,0,0,0,0,.265Z" transform="translate(-819.247 -479.129)"/>
      </g>
    </g>
    <g id="Group_2234" data-name="Group 2234" transform="translate(793.233 446.38)">
      <g id="Group_2233" data-name="Group 2233">
        <path id="Path_1247" data-name="Path 1247" d="M819.542,478.259c0-.339.264-.961.7-.852a.133.133,0,0,0,.071-.256c-.619-.154-1.039.587-1.038,1.108a.133.133,0,0,0,.265,0Z" transform="translate(-819.277 -477.13)"/>
      </g>
    </g>
    <g id="Group_2236" data-name="Group 2236" transform="translate(795.941 450.231)">
      <g id="Group_2235" data-name="Group 2235">
        <path id="Path_1248" data-name="Path 1248" d="M824.186,484.467a1,1,0,0,0,1.26-.213c.109-.13-.078-.319-.188-.188a.73.73,0,0,1-.939.172.133.133,0,0,0-.133.23Z" transform="translate(-824.122 -484.021)"/>
      </g>
    </g>
    <g id="Group_2237" data-name="Group 2237" transform="translate(791.376 452.83)">
      <path id="Path_1249" data-name="Path 1249" d="M816,492.8a4.142,4.142,0,0,1,.185-1.989c.109-.306.674-1.893,1.95-2.116a1.822,1.822,0,0,1,1.267.245,2.078,2.078,0,0,1,.774,1.261,40.639,40.639,0,0,0,2.361,5.767,16.928,16.928,0,0,1,2.114-.861c1.606-.532,2.378-.521,3.828-1.034a13.653,13.653,0,0,0,2.355-1.1,2.292,2.292,0,0,1,1.058-1.376,1.949,1.949,0,0,1,2.459.392,1.98,1.98,0,0,1,1.353.51,1.808,1.808,0,0,1,.4.558c-.327.366-.585.672-.763.888a7.246,7.246,0,0,1-.508.6,2.882,2.882,0,0,1-.907.666c-.72.273-1.124-.334-1.989-.289-.53.028-.846.28-1.663.883-.847.626-1.758,1.167-2.569,1.839a22.847,22.847,0,0,1-5.182,3.08A16.321,16.321,0,0,1,816,492.8Z" transform="translate(-815.953 -488.672)" fill="#fff"/>
    </g>
    <g id="Group_2238" data-name="Group 2238" transform="translate(791.363 453.97)" opacity="0.35">
      <path id="Path_1250" data-name="Path 1250" d="M816.654,490.712c.227.585.552,1.375.981,2.292,1.957,4.181,3.21,6.857,5.007,7.088,1.85.237,2.441-2.456,6.364-4.162a12.976,12.976,0,0,1,3.98-1.01,5.3,5.3,0,0,0,1.076-1c.421-.521.523-.855.816-.911.239-.046.617.091,1.209.953-.2.229-.507.576-.863,1.01a8.565,8.565,0,0,1-.7.841c-.361.306-1.063.51-2.573.01-.621.34-1.541.869-2.615,1.589-.685.458-1.163.814-1.81,1.3-2.38,1.776-3.127,2.562-4.6,2.831a5.374,5.374,0,0,1-.7.08,19.36,19.36,0,0,1-3.5-3.288,18.144,18.144,0,0,1-2.164-3.344,4.293,4.293,0,0,1-.617-1.647A4.063,4.063,0,0,1,816.654,490.712Z" transform="translate(-815.93 -490.712)" fill="#9e9e9e"/>
    </g>
    <g id="Group_2240" data-name="Group 2240" transform="translate(792.049 452.66)">
      <g id="Group_2239" data-name="Group 2239">
        <path id="Path_1251" data-name="Path 1251" d="M817.4,490.039c.454-.869,1.532-2.013,2.522-1a6.8,6.8,0,0,1,1.157,2.291q.812,2,1.568,4.016c.059.158.316.09.256-.07q-.642-1.708-1.32-3.4a10.649,10.649,0,0,0-1.36-2.955c-1.074-1.247-2.462-.148-3.053.983-.079.151.15.285.229.134Z" transform="translate(-817.156 -488.369)"/>
      </g>
    </g>
    <g id="Group_2242" data-name="Group 2242" transform="translate(791.283 456.837)">
      <g id="Group_2241" data-name="Group 2241">
        <path id="Path_1252" data-name="Path 1252" d="M815.8,496a18.663,18.663,0,0,0,6.3,7.993c.139.1.271-.13.134-.229a18.354,18.354,0,0,1-6.18-7.834c-.064-.156-.321-.088-.256.07Z" transform="translate(-815.786 -495.843)"/>
      </g>
    </g>
    <g id="Group_2244" data-name="Group 2244" transform="translate(797.36 456.709)">
      <g id="Group_2243" data-name="Group 2243">
        <path id="Path_1253" data-name="Path 1253" d="M826.86,499.418c2.94-1.772,6.615-1.633,9.488-3.553.141-.094.008-.324-.134-.229-2.87,1.917-6.547,1.78-9.488,3.553a.133.133,0,0,0,.134.229Z" transform="translate(-826.663 -495.614)"/>
      </g>
    </g>
    <g id="Group_2246" data-name="Group 2246" transform="translate(797.566 459.463)">
      <g id="Group_2245" data-name="Group 2245">
        <path id="Path_1254" data-name="Path 1254" d="M827.159,506.107c1.485-.09,2.792-1.267,3.972-2.066q2.324-1.572,4.578-3.243c.136-.1,0-.331-.134-.229q-1.982,1.466-4.015,2.86c-1.242.85-2.844,2.318-4.4,2.412-.17.01-.171.275,0,.265Z" transform="translate(-827.031 -500.543)"/>
      </g>
    </g>
    <g id="Group_2248" data-name="Group 2248" transform="translate(806.114 455.27)">
      <g id="Group_2247" data-name="Group 2247">
        <path id="Path_1255" data-name="Path 1255" d="M842.583,494.968a9.551,9.551,0,0,1,1.082-1.4c.524-.459.921-.1,1.494-.152.169-.015.17-.281,0-.265-.521.046-.977-.3-1.463.035a7.252,7.252,0,0,0-1.342,1.65c-.1.135.127.268.229.134Z" transform="translate(-842.328 -493.038)"/>
      </g>
    </g>
    <g id="Group_2250" data-name="Group 2250" transform="translate(806.056 458.873)">
      <g id="Group_2249" data-name="Group 2249">
        <path id="Path_1256" data-name="Path 1256" d="M842.45,500.4a1.694,1.694,0,0,1,1.135-.653,5.539,5.539,0,0,1,1.194.265,1.4,1.4,0,0,0,1.1-.068c.143-.092.011-.322-.134-.229-.631.406-1.586-.265-2.27-.228a1.867,1.867,0,0,0-1.208.725c-.118.124.069.312.187.188Z" transform="translate(-842.225 -499.487)"/>
      </g>
    </g>
    <g id="Group_2252" data-name="Group 2252" transform="translate(809.058 455.379)">
      <g id="Group_2251" data-name="Group 2251">
        <path id="Path_1257" data-name="Path 1257" d="M847.666,493.478a1.058,1.058,0,0,1,.517.559c.062.158.318.089.256-.07a1.33,1.33,0,0,0-.64-.718c-.152-.076-.287.152-.134.229Z" transform="translate(-847.598 -493.233)"/>
      </g>
    </g>
    <g id="Group_2254" data-name="Group 2254" transform="translate(809.73 456.001)">
      <g id="Group_2253" data-name="Group 2253">
        <path id="Path_1258" data-name="Path 1258" d="M848.9,494.607c.42.1,1.537.4,1.562.955.008.17.273.171.265,0-.034-.741-1.173-1.072-1.757-1.211-.166-.04-.237.216-.07.256Z" transform="translate(-848.801 -494.347)"/>
      </g>
    </g>
    <g id="Group_2256" data-name="Group 2256" transform="translate(809.688 457.027)">
      <g id="Group_2255" data-name="Group 2255">
        <path id="Path_1259" data-name="Path 1259" d="M848.795,496.426a2.687,2.687,0,0,0,1.806.164.133.133,0,0,0-.07-.256,2.392,2.392,0,0,1-1.6-.137c-.155-.07-.289.159-.134.229Z" transform="translate(-848.726 -496.183)"/>
      </g>
    </g>
    <g id="Group_2258" data-name="Group 2258" transform="translate(809.595 457.483)">
      <g id="Group_2257" data-name="Group 2257">
        <path id="Path_1260" data-name="Path 1260" d="M848.649,497.542a1.6,1.6,0,0,0,1.644-.318c.127-.115-.061-.3-.188-.188a1.333,1.333,0,0,1-1.386.25c-.16-.06-.229.2-.07.256Z" transform="translate(-848.559 -497)"/>
      </g>
    </g>
    <g id="Group_2260" data-name="Group 2260" transform="translate(809.049 457.97)">
      <g id="Group_2259" data-name="Group 2259">
        <path id="Path_1261" data-name="Path 1261" d="M847.648,498.356a1.452,1.452,0,0,0,1.737-.258c.12-.122-.068-.31-.188-.188a1.179,1.179,0,0,1-1.415.216c-.15-.082-.284.148-.134.229Z" transform="translate(-847.582 -497.871)"/>
      </g>
    </g>
    <g id="Group_2262" data-name="Group 2262" transform="translate(809.208 458.332)">
      <g id="Group_2261" data-name="Group 2261">
        <path id="Path_1262" data-name="Path 1262" d="M848.068,499.668a3.24,3.24,0,0,0,1.128-.916c.1-.134-.082-.322-.187-.188a3.062,3.062,0,0,1-1.075.874c-.153.075-.019.3.134.23Z" transform="translate(-847.866 -498.518)"/>
      </g>
    </g>
    <g id="Group_2263" data-name="Group 2263" transform="translate(836.609 420.146)">
      <path id="Path_1263" data-name="Path 1263" d="M900.368,430.179a2.664,2.664,0,0,0-1.235.481,2.864,2.864,0,0,0-1,1.479,5.852,5.852,0,0,0,.021,3.018c.122.779.31,2.019.522,3.634a3.5,3.5,0,0,0-.306.638,3.78,3.78,0,0,0-.208,1.471,26.63,26.63,0,0,1-.291,2.732c-.207,1.612-.415,1.56-.7,3.358-.075.465-.48,2.987-.1,3.1.148.042.375-.283.558-.594a2.4,2.4,0,0,0,.914-.418c.144-.107,1.094-.846.9-1.744a1.425,1.425,0,0,0-.577-.831c.226-.41.513-.959.812-1.622a25.215,25.215,0,0,0,.929-2.414,21.784,21.784,0,0,0,.711-7.114A22.852,22.852,0,0,0,900.368,430.179Z" transform="translate(-896.905 -430.179)" fill="#fff"/>
    </g>
    <g id="Group_2264" data-name="Group 2264" transform="translate(837.776 420.869)" opacity="0.23">
      <path id="Path_1264" data-name="Path 1264" d="M901.193,431.473c-.11.023.237,1.4.337,3.227a24.054,24.054,0,0,1-1.088,7.88,37.361,37.361,0,0,1-1.45,4.377,2.647,2.647,0,0,1,.45.873c.285.979-.152,1.737.018,1.817s.878-.57.9-1.4a1.79,1.79,0,0,0-.518-1.24c.236-.449.543-1.065.87-1.815.115-.264.3-.686.484-1.186a18.7,18.7,0,0,0,.927-9.287A10.189,10.189,0,0,0,901.193,431.473Z" transform="translate(-898.993 -431.472)" fill="#9e9e9e"/>
    </g>
    <g id="Group_2266" data-name="Group 2266" transform="translate(837.556 420.449)">
      <g id="Group_2265" data-name="Group 2265">
        <path id="Path_1265" data-name="Path 1265" d="M899.9,430.74a3.288,3.288,0,0,0-1.3,3.165,50.954,50.954,0,0,0,.687,5.161c.024.168.28.1.256-.071-.2-1.4-.43-2.792-.6-4.192-.156-1.3-.237-3.091,1.086-3.834a.133.133,0,0,0-.134-.229Z" transform="translate(-898.599 -430.722)"/>
      </g>
    </g>
    <g id="Group_2268" data-name="Group 2268" transform="translate(837.08 428.277)">
      <g id="Group_2267" data-name="Group 2267">
        <path id="Path_1266" data-name="Path 1266" d="M899.453,444.752c-.908.568-.976,1.558-1.054,2.544a49.089,49.089,0,0,1-.65,4.969c-.03.167.226.239.256.07.2-1.1.368-2.2.495-3.306.141-1.234-.111-3.3,1.087-4.048.144-.091.011-.32-.134-.229Z" transform="translate(-897.747 -444.731)"/>
      </g>
    </g>
    <g id="Group_2270" data-name="Group 2270" transform="translate(838.415 424.933)">
      <g id="Group_2269" data-name="Group 2269">
        <path id="Path_1267" data-name="Path 1267" d="M902.579,438.873a18.522,18.522,0,0,1-2.424,11.3.133.133,0,0,0,.229.134,18.757,18.757,0,0,0,2.461-11.429c-.018-.168-.283-.17-.266,0Z" transform="translate(-900.136 -438.746)"/>
      </g>
    </g>
    <g id="Group_2272" data-name="Group 2272" transform="translate(837.432 436.041)">
      <g id="Group_2271" data-name="Group 2271">
        <path id="Path_1268" data-name="Path 1268" d="M898.438,458.878a1.59,1.59,0,0,1,.59.915,1.187,1.187,0,0,1,.106.42c-.042.215-.429-.084-.523-.15-.14-.1-.273.132-.134.229.182.127.485.372.727.32s.224-.285.186-.469a2.229,2.229,0,0,0-.818-1.494c-.143-.1-.275.134-.134.229Z" transform="translate(-898.378 -458.626)"/>
      </g>
    </g>
    <g id="Group_2274" data-name="Group 2274" transform="translate(836.486 435.739)">
      <g id="Group_2273" data-name="Group 2273">
        <path id="Path_1269" data-name="Path 1269" d="M897.27,458.176a9.289,9.289,0,0,0-.526,2.3c-.045.492-.177,1.329.205,1.743.764.828.7-1.018.648-1.356-.026-.169-.282-.1-.256.07a2.574,2.574,0,0,1,.034.983q-.52-.065-.4-.569a6.384,6.384,0,0,1,.037-.872,9.064,9.064,0,0,1,.517-2.226c.058-.161-.2-.231-.256-.071Z" transform="translate(-896.685 -458.086)"/>
      </g>
    </g>
    <g id="Group_2276" data-name="Group 2276" transform="translate(837.514 438.073)">
      <g id="Group_2275" data-name="Group 2275">
        <path id="Path_1270" data-name="Path 1270" d="M898.793,463.631a1.911,1.911,0,0,1,.152-.909c.012-.025.092-.205.138-.184s.035.193.037.224a3.582,3.582,0,0,1,0,.47c-.01.17.256.17.265,0,.014-.247.085-1.158-.413-.933a.756.756,0,0,0-.338.49,2.238,2.238,0,0,0-.108.843c.009.17.274.171.266,0Z" transform="translate(-898.523 -462.263)"/>
      </g>
    </g>
    <g id="Group_2278" data-name="Group 2278" transform="translate(838.158 437.498)">
      <g id="Group_2277" data-name="Group 2277">
        <path id="Path_1271" data-name="Path 1271" d="M899.943,462.227a1.745,1.745,0,0,1,.28-.793l-.208.027a.512.512,0,0,1,.072.531c-.063.159.194.228.256.07a.774.774,0,0,0-.14-.789.134.134,0,0,0-.208.027,2.029,2.029,0,0,0-.316.928c-.016.17.249.169.265,0Z" transform="translate(-899.677 -461.234)"/>
      </g>
    </g>
    <g id="Group_2280" data-name="Group 2280" transform="translate(838.606 436.774)">
      <g id="Group_2279" data-name="Group 2279">
        <path id="Path_1272" data-name="Path 1272" d="M900.761,460.818a.58.58,0,0,1,.249-.632l-.194-.079a1.438,1.438,0,0,1-.055,1c-.066.158.191.226.256.07a1.665,1.665,0,0,0,.055-1.143.134.134,0,0,0-.195-.079.853.853,0,0,0-.372.932c.04.166.3.1.256-.071Z" transform="translate(-900.479 -459.937)"/>
      </g>
    </g>
    <g id="Group_2282" data-name="Group 2282" transform="translate(837.514 438.571)">
      <g id="Group_2281" data-name="Group 2281">
        <path id="Path_1273" data-name="Path 1273" d="M898.725,464.138a3.964,3.964,0,0,0,1.038-.756.133.133,0,0,0-.188-.188,3.743,3.743,0,0,1-.984.715c-.153.077-.018.306.134.229Z" transform="translate(-898.524 -463.154)"/>
      </g>
    </g>
    <g id="Group_2284" data-name="Group 2284" transform="translate(838.611 437.514)">
      <g id="Group_2283" data-name="Group 2283">
        <path id="Path_1274" data-name="Path 1274" d="M900.738,462.358a3.534,3.534,0,0,0,.41-.931.133.133,0,0,0-.256-.071,3.244,3.244,0,0,1-.384.868c-.091.145.139.278.23.134Z" transform="translate(-900.488 -461.263)"/>
      </g>
    </g>
    <g id="Group_2285" data-name="Group 2285" transform="translate(838.222 450.616)">
      <path id="Path_1275" data-name="Path 1275" d="M905.806,485.534l.1,1.891q-6.208,2.129-6.11,2.473.114.406,8.922-1.648l-.63-3.54Z" transform="translate(-899.791 -484.71)"/>
    </g>
    <g id="Group_2286" data-name="Group 2286" transform="translate(842.08 428.694)">
      <path id="Path_1276" data-name="Path 1276" d="M912.871,446.65a13.882,13.882,0,0,0-1.089,1.668c-.968,1.578-1.576,2.569-2.292,3.992a25.385,25.385,0,0,0-1.688,3.928,25.966,25.966,0,0,0-.7,2.773,30.747,30.747,0,0,0-.143,8.953,4.294,4.294,0,0,0,1.647.622c2.468.372,4.355-1.674,4.578-1.924a14.879,14.879,0,0,1-.128-7.715c.446-.636,1.122-1.584,1.975-2.716,1.24-1.648,1.707-2.162,2.345-3.007,2.333-3.089,3.612-4.782,3.1-6.029C919.686,445.293,914.858,444.773,912.871,446.65Z" transform="translate(-906.696 -445.478)" fill="#fff"/>
    </g>
    <g id="Group_2287" data-name="Group 2287" transform="translate(844.629 433.355)" opacity="0.21">
      <path id="Path_1277" data-name="Path 1277" d="M919.4,453.818q-.791,1.047-1.581,2.126-2.518,3.442-4.72,6.807c.013.664,0,1.361-.05,2.086a24.9,24.9,0,0,1-1.789,7.7,10.543,10.543,0,0,0,3.784-1.872L914.884,463q.623-.95,1.29-1.912c1.536-2.213,3.1-4.251,4.662-6.122Z" transform="translate(-911.257 -453.818)" fill="#9e9e9e"/>
    </g>
    <g id="Group_2289" data-name="Group 2289" transform="translate(842.036 430.232)">
      <g id="Group_2288" data-name="Group 2288">
        <path id="Path_1278" data-name="Path 1278" d="M912.36,448.293a42.216,42.216,0,0,0-4.827,9.454c-1.129,3.6-1.014,7.48-.708,11.2.014.169.279.171.265,0-.3-3.691-.422-7.555.7-11.126a41.949,41.949,0,0,1,4.8-9.391c.091-.146-.139-.279-.229-.134Z" transform="translate(-906.617 -448.23)"/>
      </g>
    </g>
    <g id="Group_2291" data-name="Group 2291" transform="translate(847.677 434.25)">
      <g id="Group_2290" data-name="Group 2290">
        <path id="Path_1279" data-name="Path 1279" d="M923.405,455.465q-3.549,4.183-6.669,8.7c-.1.141.132.274.229.134q3.1-4.487,6.628-8.648c.109-.13-.077-.318-.188-.188Z" transform="translate(-916.713 -455.421)"/>
      </g>
    </g>
    <g id="Group_2293" data-name="Group 2293" transform="translate(847.984 442.345)">
      <g id="Group_2292" data-name="Group 2292">
        <path id="Path_1280" data-name="Path 1280" d="M917.506,470a20.525,20.525,0,0,0,.212,7.472c.036.167.292.1.256-.07a20.155,20.155,0,0,1-.212-7.332c.026-.167-.23-.239-.256-.07Z" transform="translate(-917.261 -469.908)"/>
      </g>
    </g>
    <g id="Group_2295" data-name="Group 2295" transform="translate(842.409 450.073)">
      <g id="Group_2294" data-name="Group 2294">
        <path id="Path_1281" data-name="Path 1281" d="M907.328,485c1.713,1.467,4.614.25,6.054-1.038.127-.115-.061-.3-.188-.188-1.316,1.178-4.092,2.4-5.678,1.038-.129-.111-.318.076-.188.188Z" transform="translate(-907.284 -483.738)"/>
      </g>
    </g>
    <g id="Group_2296" data-name="Group 2296" transform="translate(850.839 451.015)">
      <path id="Path_1282" data-name="Path 1282" d="M927.062,485.871l.8,2.588q-5.664,3.312-5.489,3.659.207.406,8.434-3.258l-1.205-3.436Z" transform="translate(-922.37 -485.425)"/>
    </g>
    <g id="Group_2297" data-name="Group 2297" transform="translate(849.702 425.603)">
      <path id="Path_1283" data-name="Path 1283" d="M920.336,445.118l1.657,1.358.538,1.045c-.059.426-.14,1.033-.229,1.765,0,0-.151,1.243-.249,2.225a34.761,34.761,0,0,0-.12,5.78A42.3,42.3,0,0,0,923.714,465c.249.885.469,1.611.62,2.1.479-.015,1.168-.051,2-.144a10.569,10.569,0,0,0,1.664-.257c.476-.134,2.144-.6,2.568-1.722.262-.693-.089-1.267-.888-3-.415-.9-1-2.223-1.648-3.886.137-.763.359-1.951.66-3.407.469-2.268.975-4.572.975-4.572a14.506,14.506,0,0,0,.624-3.58,6.449,6.449,0,0,0-.863-3.346c-.1-.163-.164-.243-1.115-1.428l-1.453-1.807Z" transform="translate(-920.336 -439.946)" fill="#fff"/>
    </g>
    <g id="Group_2298" data-name="Group 2298" transform="translate(854.637 425.419)" opacity="0.25">
      <path id="Path_1284" data-name="Path 1284" d="M929.168,441.92a22.52,22.52,0,0,1,1.205,3.793,24.147,24.147,0,0,1-.759,12.762,8.765,8.765,0,0,1,1.472,1.83,9.577,9.577,0,0,1,1.2,6.032,4.075,4.075,0,0,0,2.167-1.508l-2.523-7.068a47.562,47.562,0,0,1,1.621-7.8,11.224,11.224,0,0,0,.606-3.267,6.653,6.653,0,0,0-.1-1.656,8.125,8.125,0,0,0-1.432-2.9,22.818,22.818,0,0,0-1.962-2.525Z" transform="translate(-929.168 -439.616)" fill="#9e9e9e"/>
    </g>
    <g id="Group_2300" data-name="Group 2300" transform="translate(849.563 430.649)">
      <g id="Group_2299" data-name="Group 2299">
        <path id="Path_1285" data-name="Path 1285" d="M920.132,449.2l1.657,1.358c.131.107.32-.079.188-.188l-1.657-1.358c-.131-.107-.32.079-.188.188Z" transform="translate(-920.087 -448.976)"/>
      </g>
    </g>
    <g id="Group_2302" data-name="Group 2302" transform="translate(856.23 425.805)">
      <g id="Group_2301" data-name="Group 2301">
        <path id="Path_1286" data-name="Path 1286" d="M932.056,440.536a15.217,15.217,0,0,1,2.6,3.376A6.974,6.974,0,0,1,935,448.76c-.651,3.109-1.324,6.213-1.986,9.319-.036.167.22.238.256.071l1.156-5.426c.368-1.727.837-3.464,1.071-5.215.4-2.958-1.347-5.119-3.253-7.161-.117-.125-.3.063-.188.188Z" transform="translate(-932.019 -440.307)"/>
      </g>
    </g>
    <g id="Group_2304" data-name="Group 2304" transform="translate(851.088 433.053)">
      <g id="Group_2303" data-name="Group 2303">
        <path id="Path_1287" data-name="Path 1287" d="M923.494,453.4a45.321,45.321,0,0,0-.574,10.05,39.053,39.053,0,0,0,2.3,9.056c.055.16.312.092.256-.071a37.824,37.824,0,0,1-2.322-9.325,46.882,46.882,0,0,1,.6-9.71c.022-.169-.244-.167-.265,0Z" transform="translate(-922.818 -453.278)"/>
      </g>
    </g>
    <g id="Group_2306" data-name="Group 2306" transform="translate(857.261 443.61)">
      <g id="Group_2305" data-name="Group 2305">
        <path id="Path_1288" data-name="Path 1288" d="M933.879,472.372a34.6,34.6,0,0,1,2.409,6.374.133.133,0,0,0,.256-.07,34.934,34.934,0,0,0-2.435-6.438c-.076-.153-.305-.019-.23.134Z" transform="translate(-933.864 -472.171)"/>
      </g>
    </g>
    <g id="Group_2308" data-name="Group 2308" transform="translate(853.794 450.506)">
      <g id="Group_2307" data-name="Group 2307">
        <path id="Path_1289" data-name="Path 1289" d="M927.787,486.79c2.073.113,4.831-.246,6.12-2.084.1-.14-.131-.273-.229-.134-1.223,1.743-3.938,2.059-5.891,1.952-.17-.009-.17.256,0,.265Z" transform="translate(-927.66 -484.514)"/>
      </g>
    </g>
    <g id="Group_2309" data-name="Group 2309" transform="translate(839.139 417.285)">
      <path id="Path_1290" data-name="Path 1290" d="M901.563,428.116a3.916,3.916,0,0,0,.074,2.2,6.881,6.881,0,0,0,2.435,3.645c2.11,1.7,3.72,1.171,5.2,2.988a5.536,5.536,0,0,1,.924,1.659,6.576,6.576,0,0,0,2.02.092c3.9-.434,6.084-4.335,6.434-4.984a14.522,14.522,0,0,0-6.761-7.624,9.534,9.534,0,0,0-4.293-1.03C905.555,425.1,902.268,425.907,901.563,428.116Z" transform="translate(-901.432 -425.059)" fill="#faad00"/>
    </g>
    <g id="Group_2310" data-name="Group 2310" transform="translate(835.424 411.266)">
      <path id="Path_1291" data-name="Path 1291" d="M902.26,417.065a6.759,6.759,0,0,0-1.454.22,7.592,7.592,0,0,0-3.983,2.752,1.457,1.457,0,0,1-1.734.263.824.824,0,0,1-.278-.809c.025-.071.074-.155.43-.43.241-.186.449-.326.592-.417a4.674,4.674,0,0,1,.593-2.272,3.8,3.8,0,0,1,2.4-2.012,3.845,3.845,0,0,1,3.4,1.192,3.9,3.9,0,0,1,.934,1.848Z" transform="translate(-894.783 -414.286)" fill="#0fbf89"/>
    </g>
    <g id="Group_2311" data-name="Group 2311" transform="translate(837.883 413.93)">
      <path id="Path_1292" data-name="Path 1292" d="M902.4,419.4c-.081.188.044.38.32.985.213.467.368.853.464,1.1-2.213.008-3.829.941-3.984,1.926a2.44,2.44,0,0,0,.177,1.211,2.549,2.549,0,0,0,.848,1.078,1.914,1.914,0,0,0,1.8,1.789,2.568,2.568,0,0,0,1.622-.579,3.113,3.113,0,0,0,1.6-2.907,4.356,4.356,0,0,0-.252-1.425,35.482,35.482,0,0,0-1.375-3.525C903.351,419.046,902.561,419.035,902.4,419.4Z" transform="translate(-899.185 -419.054)"/>
    </g>
    <g id="Group_2312" data-name="Group 2312" transform="translate(837.618 414.401)">
      <path id="Path_1293" data-name="Path 1293" d="M898.71,422.421a3.548,3.548,0,0,0,.81,1.5l1.688.2a3.947,3.947,0,0,1,.282-.681,4.184,4.184,0,0,1,1.486-1.573L902.2,419.9a9.774,9.774,0,0,0-3.486,2.524Z" transform="translate(-898.71 -419.897)" fill="#fff"/>
    </g>
    <g id="Group_2313" data-name="Group 2313" transform="translate(842.386 414.167)">
      <path id="Path_1294" data-name="Path 1294" d="M907.243,419.479a11.672,11.672,0,0,0,.359,1.112c.32.845.5,1.027.833,1.9a5.437,5.437,0,0,1,.4,1.5,3.416,3.416,0,0,1-.044,1.032,3.135,3.135,0,0,1-1.269,1.8l.592.194a7.311,7.311,0,0,0,.789-.742,6.073,6.073,0,0,0,1.554-2.774,5.13,5.13,0,0,0,.123-.9l-.743-.013a3.706,3.706,0,0,1-1.021-1.4.966.966,0,0,0,.272-1.263.81.81,0,0,0-.616-.249Z" transform="translate(-907.243 -419.479)" fill="#fff"/>
    </g>
    <g id="Group_2314" data-name="Group 2314" transform="translate(838.592 415.954)" opacity="0.31">
      <path id="Path_1295" data-name="Path 1295" d="M900.454,422.678l.3,2.478a1.5,1.5,0,0,1,1.348.412Z" transform="translate(-900.454 -422.678)" fill="#9e9e9e"/>
    </g>
    <g id="Group_2315" data-name="Group 2315" transform="translate(842.562 414.195)" opacity="0.31">
      <path id="Path_1296" data-name="Path 1296" d="M907.559,419.529a11.524,11.524,0,0,1,.9,1.573,10.321,10.321,0,0,1,.831,2.495,3.522,3.522,0,0,1,.069,1.94,2.742,2.742,0,0,1-1.281,1.423l-.349-.2a2.181,2.181,0,0,0,1.11-1.154,2.258,2.258,0,0,0,.1-.728,5.911,5.911,0,0,0-.208-1.94c-.273-.962-.555-1.032-.886-2.056A7.122,7.122,0,0,1,907.559,419.529Z" transform="translate(-907.559 -419.529)" fill="#9e9e9e"/>
    </g>
    <g id="Group_2317" data-name="Group 2317" transform="translate(837.632 416.926)">
      <g id="Group_2316" data-name="Group 2316">
        <path id="Path_1297" data-name="Path 1297" d="M898.738,424.584a3.362,3.362,0,0,0,.46,1.247c.089.145.318.012.229-.134a3.152,3.152,0,0,1-.433-1.183c-.026-.168-.282-.1-.256.071Z" transform="translate(-898.736 -424.417)"/>
      </g>
    </g>
    <g id="Group_2319" data-name="Group 2319" transform="translate(838.781 416.423)">
      <g id="Group_2318" data-name="Group 2318">
        <path id="Path_1298" data-name="Path 1298" d="M900.8,423.72a12.779,12.779,0,0,0,1.333,2.285.135.135,0,0,0,.243-.032,2.871,2.871,0,0,0,.161-.941.133.133,0,0,0-.265,0,2.664,2.664,0,0,1-.151.871l.242-.032a12.723,12.723,0,0,1-1.332-2.285c-.07-.155-.3-.021-.23.134Z" transform="translate(-900.792 -423.517)"/>
      </g>
    </g>
    <g id="Group_2321" data-name="Group 2321" transform="translate(840.061 415.953)">
      <g id="Group_2320" data-name="Group 2320">
        <path id="Path_1299" data-name="Path 1299" d="M903.1,422.874a1.118,1.118,0,0,0,.3.335.133.133,0,0,0,.181-.048.135.135,0,0,0-.047-.182.8.8,0,0,1-.2-.24.133.133,0,0,0-.229.134Z" transform="translate(-903.081 -422.676)"/>
      </g>
    </g>
    <g id="Group_2323" data-name="Group 2323" transform="translate(839.624 415.225)">
      <g id="Group_2322" data-name="Group 2322">
        <path id="Path_1300" data-name="Path 1300" d="M902.5,422.238a1.4,1.4,0,0,0,.606-.706c.064-.159-.193-.227-.256-.07a1.107,1.107,0,0,1-.483.547.133.133,0,0,0,.134.23Z" transform="translate(-902.301 -421.372)"/>
      </g>
    </g>
    <g id="Group_2325" data-name="Group 2325" transform="translate(838.117 418.291)">
      <g id="Group_2324" data-name="Group 2324">
        <path id="Path_1301" data-name="Path 1301" d="M899.731,427.133a5.759,5.759,0,0,1,1.532.129c.166.037.237-.219.07-.256a6.028,6.028,0,0,0-1.6-.138c-.17.008-.171.273,0,.265Z" transform="translate(-899.603 -426.86)"/>
      </g>
    </g>
    <g id="Group_2327" data-name="Group 2327" transform="translate(837.751 417.853)">
      <g id="Group_2326" data-name="Group 2326">
        <path id="Path_1302" data-name="Path 1302" d="M899.053,426.168a2.181,2.181,0,0,0,.254,1.881,6.5,6.5,0,0,1,.726,1.166,3.2,3.2,0,0,0,.462.8c1.094,1.328,2.813.553,3.762-.506.113-.127-.074-.315-.188-.188-1.05,1.172-2.814,1.717-3.691.017a5.416,5.416,0,0,0-.558-1.1,1.985,1.985,0,0,1-.511-2,.133.133,0,0,0-.256-.071Z" transform="translate(-898.949 -426.075)"/>
      </g>
    </g>
    <g id="Group_2329" data-name="Group 2329" transform="translate(840.439 416.413)">
      <g id="Group_2328" data-name="Group 2328">
        <path id="Path_1303" data-name="Path 1303" d="M904.021,425.249a2.862,2.862,0,0,1,1.148-1.5c.142-.094.009-.324-.134-.229a3.157,3.157,0,0,0-1.27,1.658c-.054.163.2.232.256.07Z" transform="translate(-903.758 -423.499)"/>
      </g>
    </g>
    <g id="Group_2331" data-name="Group 2331" transform="translate(841.083 414.492)">
      <g id="Group_2330" data-name="Group 2330">
        <path id="Path_1304" data-name="Path 1304" d="M904.92,420.221l.664,1.749c.06.158.317.089.256-.071l-.664-1.749c-.06-.158-.317-.089-.256.071Z" transform="translate(-904.911 -420.061)"/>
      </g>
    </g>
    <g id="Group_2333" data-name="Group 2333" transform="translate(842.253 414.037)">
      <g id="Group_2332" data-name="Group 2332">
        <path id="Path_1305" data-name="Path 1305" d="M907.01,419.412c.525,2.093,2.962,5.13.641,6.94-.135.105.055.292.188.188,2.427-1.893-.034-5.049-.573-7.2a.133.133,0,0,0-.256.07Z" transform="translate(-907.006 -419.246)"/>
      </g>
    </g>
    <g id="Group_2335" data-name="Group 2335" transform="translate(843.078 414.239)">
      <g id="Group_2334" data-name="Group 2334">
        <path id="Path_1306" data-name="Path 1306" d="M908.746,420.224c.017-.547.7-.379.868-.022.121.251.158.871-.249.908-.169.016-.17.281,0,.265.693-.063.732-1.037.375-1.476a.689.689,0,0,0-1.259.324c-.006.171.26.171.265,0Z" transform="translate(-908.481 -419.608)"/>
      </g>
    </g>
    <g id="Group_2337" data-name="Group 2337" transform="translate(837.469 413.91)">
      <g id="Group_2336" data-name="Group 2336">
        <path id="Path_1307" data-name="Path 1307" d="M898.668,422.114c1.206-1.3,3.78-3.5,5.7-2.647.155.069.29-.16.134-.229-2.083-.921-4.705,1.272-6.025,2.688-.116.125.071.313.188.188Z" transform="translate(-898.443 -419.019)"/>
      </g>
    </g>
    <g id="Group_2339" data-name="Group 2339" transform="translate(835.26 413.361)">
      <g id="Group_2338" data-name="Group 2338">
        <path id="Path_1308" data-name="Path 1308" d="M896.781,421.486c-.322.184-2.325,1.062-1.754-.418.081-.208.492-.442.651-.576a13.462,13.462,0,0,1,1.852-1.348,4.8,4.8,0,0,1,4.721-.377c.151.08.285-.149.134-.23-2.29-1.221-4.7-.009-6.534,1.47-.411.331-1.737,1.151-1.259,1.88s1.805.123,2.323-.173a.133.133,0,0,0-.134-.229Z" transform="translate(-894.489 -418.037)"/>
      </g>
    </g>
    <g id="Group_2341" data-name="Group 2341" transform="translate(836.425 411.268)">
      <g id="Group_2340" data-name="Group 2340">
        <path id="Path_1309" data-name="Path 1309" d="M896.841,418.224a3.753,3.753,0,0,1,3.2-3.635,3.278,3.278,0,0,1,3.651,2.661c.033.167.289.1.256-.07a3.559,3.559,0,0,0-3.943-2.861,4.046,4.046,0,0,0-3.434,3.906c-.011.171.255.17.265,0Z" transform="translate(-896.575 -414.29)"/>
      </g>
    </g>
    <g id="Group_2343" data-name="Group 2343" transform="translate(843.795 415.895)">
      <g id="Group_2342" data-name="Group 2342">
        <path id="Path_1310" data-name="Path 1310" d="M909.785,422.767a6.093,6.093,0,0,0,1.073,1.281c.126.114.315-.073.188-.188a5.844,5.844,0,0,1-1.031-1.227c-.091-.145-.32-.011-.229.134Z" transform="translate(-909.764 -422.571)"/>
      </g>
    </g>
    <g id="Group_2345" data-name="Group 2345" transform="translate(842.606 421.293)">
      <g id="Group_2344" data-name="Group 2344">
        <path id="Path_1311" data-name="Path 1311" d="M907.7,432.479l.349.2a.133.133,0,0,0,.134-.229l-.349-.2a.133.133,0,0,0-.134.229Z" transform="translate(-907.637 -432.231)"/>
      </g>
    </g>
    <g id="Group_2346" data-name="Group 2346" transform="translate(839.914 416.322)">
      <path id="Path_1312" data-name="Path 1312" d="M907.755,426.424a15.7,15.7,0,0,1,2.822,6.933,7.62,7.62,0,0,0-1.168,1.136c-.986,1.192-1.11,2.1-1.937,3.512a11.93,11.93,0,0,1-1.544,2.076q-2.6.775-2.542,1.085.037.21,1.29.206c-.151.278-.39.7-.717,1.188-.673,1.008-1.217,1.557-1.13,1.655.041.047.229,0,.931-.476a1.156,1.156,0,0,0,.515.294c.511.13.9-.551,1.246-.4.185.08.171.3.273.317.158.024.449-.466,1.034-2.595.985-.81,1.822-1.508,2.469-2.051a24.888,24.888,0,0,0,4.049-3.956,4.284,4.284,0,0,0,1.1-2.464,4.205,4.205,0,0,0-.249-1.443c-.335-1.194-.6-2.408-.938-3.6-.838-2.913-.966-3.392-1.559-3.882a2.253,2.253,0,0,0-1.519-.617C909.1,423.409,908.085,424.626,907.755,426.424Z" transform="translate(-902.819 -423.336)" fill="#fff"/>
    </g>
    <g id="Group_2347" data-name="Group 2347" transform="translate(841.021 416.326)" opacity="0.24">
      <path id="Path_1313" data-name="Path 1313" d="M911.049,423.342a12.966,12.966,0,0,1,1.572,2.987,11.455,11.455,0,0,1,.468,7.481c-.731,2.247-2.287,3.752-5.4,6.759a5.626,5.626,0,0,1-.681.6c-1.062.766-1.914.657-1.993,1.177-.064.424.274.671.123,1.161a1.163,1.163,0,0,1-.34.513,1.414,1.414,0,0,0,.965.042,1.384,1.384,0,0,0,.63-.426.55.55,0,0,0,.453.172c.667-.126.709-2.256.71-2.35a52.733,52.733,0,0,0,4.129-3.605c1.151-1.115,2.178-2.213,3.092-3.264a7.152,7.152,0,0,0,.368-1.623,7.628,7.628,0,0,0,.032-1.116,9.13,9.13,0,0,0-.7-2.822c-.969-2.7-.451-3.12-1.278-4.181A4.7,4.7,0,0,0,911.049,423.342Z" transform="translate(-904.8 -423.342)" fill="#9e9e9e"/>
    </g>
    <g id="Group_2349" data-name="Group 2349" transform="translate(844.728 416.128)">
      <g id="Group_2348" data-name="Group 2348">
        <path id="Path_1314" data-name="Path 1314" d="M911.733,426.493a2.716,2.716,0,0,1,1.661-3.048c1.619-.579,2.431.854,2.861,2.144a42.4,42.4,0,0,1,1.858,7.172c.025.169.28.1.256-.07a36.739,36.739,0,0,0-1.32-5.475c-.372-1.2-.66-2.889-1.7-3.736-1.988-1.622-4.257,1.114-3.875,3.083.032.168.288.1.256-.071Z" transform="translate(-911.435 -422.988)"/>
      </g>
    </g>
    <g id="Group_2351" data-name="Group 2351" transform="translate(846.197 421.797)">
      <g id="Group_2350" data-name="Group 2350">
        <path id="Path_1315" data-name="Path 1315" d="M914.074,433.293a31.057,31.057,0,0,1,1.3,3.893.133.133,0,0,0,.256-.071,30.955,30.955,0,0,0-1.3-3.892c-.064-.156-.321-.088-.256.07Z" transform="translate(-914.063 -433.134)"/>
      </g>
    </g>
    <g id="Group_2353" data-name="Group 2353" transform="translate(842.555 426.209)">
      <g id="Group_2352" data-name="Group 2352">
        <path id="Path_1316" data-name="Path 1316" d="M912.6,441.049c-1.166.669-1.774,2.053-2.364,3.2a11.846,11.846,0,0,1-2.641,3.833c-.13.111.058.3.188.188a10.1,10.1,0,0,0,2.306-3.155c.678-1.3,1.319-3.076,2.646-3.837a.133.133,0,0,0-.134-.23Z" transform="translate(-907.546 -441.031)"/>
      </g>
    </g>
    <g id="Group_2355" data-name="Group 2355" transform="translate(843.638 426.24)">
      <g id="Group_2354" data-name="Group 2354">
        <path id="Path_1317" data-name="Path 1317" d="M917.223,441.18c-.473,1.788-2.149,3.137-3.443,4.365-1.355,1.286-2.777,2.5-4.251,3.644-.135.105.055.292.188.188a56.943,56.943,0,0,0,4.713-4.087c1.192-1.158,2.607-2.372,3.049-4.039a.133.133,0,0,0-.256-.071Z" transform="translate(-909.483 -441.086)"/>
      </g>
    </g>
    <g id="Group_2357" data-name="Group 2357" transform="translate(840.363 433.121)">
      <g id="Group_2356" data-name="Group 2356">
        <path id="Path_1318" data-name="Path 1318" d="M905.865,453.4c-.706.107-1.714.248-2.149.9-.112.169-.155.41.055.52.306.162.966-.081,1.271-.154.167-.04.1-.3-.07-.256a2.456,2.456,0,0,1-.846.159c-.179.065-.207-.016-.082-.241l.161-.134a2.068,2.068,0,0,1,.313-.184,4.942,4.942,0,0,1,1.416-.36c.168-.026.1-.281-.07-.256Z" transform="translate(-903.622 -453.401)"/>
      </g>
    </g>
    <g id="Group_2359" data-name="Group 2359" transform="translate(839.762 434.23)">
      <g id="Group_2358" data-name="Group 2358">
        <path id="Path_1319" data-name="Path 1319" d="M904.427,455.476a5.051,5.051,0,0,1-1.194,1.7c-.208.241-.736.757-.683,1.105.129.846,1.776-.907,1.931-1.123.1-.139-.13-.272-.23-.134a3.886,3.886,0,0,1-.562.638c-.079.072-.571.539-.7.489-.25-.1.418-.777.533-.907a4.839,4.839,0,0,0,1.158-1.7c.051-.163-.2-.233-.256-.071Z" transform="translate(-902.546 -455.384)"/>
      </g>
    </g>
    <g id="Group_2361" data-name="Group 2361" transform="translate(840.392 435.937)">
      <g id="Group_2360" data-name="Group 2360">
        <path id="Path_1320" data-name="Path 1320" d="M903.769,459.606c.806.215,1.4-.387,1.851-.976.1-.136-.127-.268-.229-.134-.37.487-.873,1.034-1.552.853a.133.133,0,0,0-.07.256Z" transform="translate(-903.675 -458.44)"/>
      </g>
    </g>
    <g id="Group_2363" data-name="Group 2363" transform="translate(841.233 436.022)">
      <g id="Group_2362" data-name="Group 2362">
        <path id="Path_1321" data-name="Path 1321" d="M905.249,459.7c.76.336,1.32-.335,1.684-.915.091-.145-.139-.279-.229-.134-.269.43-.715,1.088-1.321.82-.155-.068-.29.16-.134.229Z" transform="translate(-905.18 -458.591)"/>
      </g>
    </g>
    <g id="Group_2365" data-name="Group 2365" transform="translate(842.464 434.205)">
      <g id="Group_2364" data-name="Group 2364">
        <path id="Path_1322" data-name="Path 1322" d="M907.406,457.715c-.139.424.374.6.665.352.72-.609.477-1.784.884-2.528.082-.15-.147-.284-.229-.134a3.666,3.666,0,0,0-.275,1.107,4.5,4.5,0,0,1-.177.633,4.206,4.206,0,0,1-.211.486q-.081.26-.4.155c.054-.163-.2-.232-.256-.07Z" transform="translate(-907.382 -455.339)"/>
      </g>
    </g>
    <g id="Group_2367" data-name="Group 2367" transform="translate(778.88 459.099)">
      <g id="Group_2366" data-name="Group 2366">
        <path id="Path_1323" data-name="Path 1323" d="M793.923,528.8c4.942-.807,9.093-4.019,12.391-7.629,3.537-3.873,6.472-8.3,9.549-12.538l6.069-8.354c.2-.277-.259-.542-.458-.268-4.149,5.711-8.187,11.527-12.491,17.121-3.842,4.993-8.688,10.092-15.2,11.156-.336.055-.193.567.141.512Z" transform="translate(-793.59 -499.892)"/>
      </g>
    </g>
    <g id="Group_2369" data-name="Group 2369" transform="translate(810.263 436.764)">
      <g id="Group_2368" data-name="Group 2368">
        <path id="Path_1324" data-name="Path 1324" d="M850.08,479.173c5.606-1.711,11.313-3.583,16.191-6.924a31.428,31.428,0,0,0,6.232-5.815c1.886-2.234,3.746-4.543,6.321-6.018a.265.265,0,0,0-.268-.458,23.618,23.618,0,0,0-6.068,5.673,32.855,32.855,0,0,1-6.25,6c-4.891,3.418-10.643,5.307-16.3,7.033-.326.1-.187.612.141.512Z" transform="translate(-849.754 -459.92)"/>
      </g>
    </g>
    <g id="Group_2371" data-name="Group 2371" transform="translate(838.941 435.816)">
      <g id="Group_2370" data-name="Group 2370">
        <path id="Path_1325" data-name="Path 1325" d="M901.537,459.5a11.577,11.577,0,0,1,.949-.767c.274-.2.01-.659-.268-.459a12.981,12.981,0,0,0-1.057.85c-.255.228.121.6.375.375Z" transform="translate(-901.077 -458.223)"/>
      </g>
    </g>
    <g id="Group_2373" data-name="Group 2373" transform="translate(843.672 409.593)">
      <g id="Group_2372" data-name="Group 2372">
        <path id="Path_1326" data-name="Path 1326" d="M909.949,436.269a26.75,26.75,0,0,0,11.854-11.33c1.3-2.414,2.316-5.164,4.409-7.033.874-.781,2.531-1.843,3.711-1.027.867.6.42,2.216-.433,2.666-.123.065-.82.082-.934-.086-.064-.1.044-.442.069-.548a6.344,6.344,0,0,1,.433-1.131,10.958,10.958,0,0,1,7.037-5.965.266.266,0,0,0-.141-.512,11.478,11.478,0,0,0-7.245,5.977c-.341.7-1.342,2.735-.118,3.181,1.128.411,2.356-1.7,2.362-2.6.007-1.306-1.218-1.865-2.362-1.741a5.836,5.836,0,0,0-3.56,2.232c-2.334,2.7-3.384,6.267-5.455,9.157a26.281,26.281,0,0,1-9.9,8.3c-.307.149-.039.607.268.459Z" transform="translate(-909.545 -411.294)"/>
      </g>
    </g>
  </g>
</svg>
