<svg xmlns="http://www.w3.org/2000/svg" width="132.829" height="89.717" viewBox="0 0 132.829 89.717">
  <g id="Group_2861" data-name="Group 2861" transform="translate(0)">
    <g id="background" transform="translate(4.441 1.768)">
      <g id="Group_2377" data-name="Group 2377" transform="translate(8.997 70.245)">
        <g id="Group_2376" data-name="Group 2376" transform="translate(0)">
          <g id="Group_2375" data-name="Group 2375">
            <path id="Path_1327" data-name="Path 1327" d="M1356.083,884.385a18.1,18.1,0,0,0,2.787-7.445,2.282,2.282,0,0,1,.138.187,1.191,1.191,0,0,0-.886.246c-.148.118-.355-.089-.207-.207a1.483,1.483,0,0,1,1.093-.335.145.145,0,0,1,.138.187,18.254,18.254,0,0,1-2.817,7.514c-.1.157-.355.01-.246-.148Z" transform="translate(-1356.057 -876.825)" fill="#e8e8e8"/>
          </g>
        </g>
      </g>
      <g id="Group_2380" data-name="Group 2380" transform="translate(8.926 60.275)">
        <g id="Group_2379" data-name="Group 2379" transform="translate(0)">
          <g id="Group_2378" data-name="Group 2378">
            <path id="Path_1328" data-name="Path 1328" d="M1366.471,785.944a20.813,20.813,0,0,0-1.556-10.143h.256a2.872,2.872,0,0,0-.345.67c-.059.177-.345.1-.286-.079a3.066,3.066,0,0,1,.374-.739c.059-.079.207-.108.256,0a21.188,21.188,0,0,1,1.6,10.291c-.02.187-.315.2-.3,0Z" transform="translate(-1364.533 -775.583)" fill="#e8e8e8"/>
          </g>
        </g>
      </g>
      <g id="Group_2383" data-name="Group 2383" transform="translate(3.706 56.445)">
        <g id="Group_2382" data-name="Group 2382">
          <g id="Group_2381" data-name="Group 2381">
            <path id="Path_1329" data-name="Path 1329" d="M1391.132,741.278a24.3,24.3,0,0,0-1.162-2.452c-.365-.66-.886-1.989-1.832-1.8s-1.27,1.457-1.477,2.255a12.6,12.6,0,0,0-.354,2.708,49.731,49.731,0,0,0,.2,5.14,33.271,33.271,0,0,0,.758,5.4,27.49,27.49,0,0,0,2.029,5.682c.079.167-.167.325-.256.148a27.417,27.417,0,0,1-2.019-5.584,34.521,34.521,0,0,1-.827-6.027,33.288,33.288,0,0,1-.079-6.105c.148-1.211.5-3.87,2.157-3.949.866-.039,1.32.867,1.684,1.5a24.2,24.2,0,0,1,1.467,3c.069.187-.217.266-.286.089Z" transform="translate(-1385.992 -736.688)" fill="#e8e8e8"/>
          </g>
        </g>
      </g>
      <g id="Group_2386" data-name="Group 2386" transform="translate(0.483 64.375)">
        <g id="Group_2385" data-name="Group 2385">
          <g id="Group_2384" data-name="Group 2384">
            <path id="Path_1330" data-name="Path 1330" d="M1431.143,820.927a9.778,9.778,0,0,0-1.2-1.871c-.227-.276-1.29-1.694-1.714-1.369-.089.069-.118.4-.138.522a4.844,4.844,0,0,0-.118.758,7.766,7.766,0,0,0-.03,1.172,12.627,12.627,0,0,0,.394,2.491,25.7,25.7,0,0,0,3.831,8.321c.108.158-.148.305-.256.148a23.828,23.828,0,0,1-4.166-9.926,9.012,9.012,0,0,1-.039-2.521c.049-.364.118-1.546.719-1.428.276.059.532.374.729.552a11.468,11.468,0,0,1,.9.936,10.16,10.16,0,0,1,1.349,2.058c.089.177-.167.325-.256.158Z" transform="translate(-1427.634 -817.216)" fill="#e8e8e8"/>
          </g>
        </g>
      </g>
      <g id="Group_2389" data-name="Group 2389" transform="translate(81.373 72.906)">
        <g id="Group_2388" data-name="Group 2388" transform="translate(0)">
          <g id="Group_2387" data-name="Group 2387">
            <path id="Path_1331" data-name="Path 1331" d="M617.155,909.118a19.926,19.926,0,0,0,3.181-4.963,1.577,1.577,0,0,1,.049.207,2.474,2.474,0,0,0-1.221-.217c-.187.01-.187-.286,0-.3a2.853,2.853,0,0,1,1.369.256.155.155,0,0,1,.049.207,20.26,20.26,0,0,1-3.23,5.022c-.108.138-.325-.069-.2-.217Z" transform="translate(-617.115 -903.844)" fill="#e8e8e8"/>
          </g>
        </g>
      </g>
      <g id="Group_2392" data-name="Group 2392" transform="translate(79.043 64.36)">
        <g id="Group_2391" data-name="Group 2391" transform="translate(0)">
          <g id="Group_2390" data-name="Group 2390">
            <path id="Path_1332" data-name="Path 1332" d="M618.359,825.493a10.843,10.843,0,0,0,1.408-4.422c.089-.985.266-4.51-1.576-3.545a3.863,3.863,0,0,0-1.359,1.7,20.782,20.782,0,0,0-1.044,2.226,21.166,21.166,0,0,0-1.2,4.3,21.591,21.591,0,0,0-.227,5.288c.02.187-.286.187-.3,0a21.751,21.751,0,0,1,1.763-10.419,15.541,15.541,0,0,1,1.241-2.373,2.441,2.441,0,0,1,1.5-1.172c1.576-.286,1.556,2.088,1.556,3.073a11.118,11.118,0,0,1-1.5,5.495c-.108.148-.364,0-.266-.158Z" transform="translate(-614 -817.06)" fill="#e8e8e8"/>
          </g>
        </g>
      </g>
      <g id="Group_2395" data-name="Group 2395" transform="translate(76.643 66.519)">
        <g id="Group_2394" data-name="Group 2394" transform="translate(0)">
          <g id="Group_2393" data-name="Group 2393">
            <path id="Path_1333" data-name="Path 1333" d="M667.021,842.78c.059-.739-.158-4.107-1.556-3.4-1.113.561-1.349,2.3-1.408,3.407-.069,1.251-.02,2.511.01,3.762a12.142,12.142,0,0,0,.591,3.85c.069.177-.217.256-.286.079a14.2,14.2,0,0,1-.62-4.727,16.292,16.292,0,0,1,.246-4.589c.227-.817,1.034-2.619,2.2-2.078.492.236.709.906.867,1.388a6.194,6.194,0,0,1,.256,2.324.148.148,0,0,1-.3-.02Z" transform="translate(-663.709 -838.987)" fill="#e8e8e8"/>
          </g>
        </g>
      </g>
      <g id="Group_2398" data-name="Group 2398" transform="translate(80.747 64.402)">
        <g id="Group_2397" data-name="Group 2397" transform="translate(0)">
          <g id="Group_2396" data-name="Group 2396">
            <path id="Path_1334" data-name="Path 1334" d="M627.552,817.715a57.591,57.591,0,0,0-3.112,8.764.148.148,0,0,1-.286-.079,57.457,57.457,0,0,1,3.141-8.833c.079-.177.335-.03.256.148Z" transform="translate(-624.149 -817.487)" fill="#e8e8e8"/>
          </g>
        </g>
      </g>
      <g id="Group_2401" data-name="Group 2401" transform="translate(81.269 68.226)">
        <g id="Group_2400" data-name="Group 2400" transform="translate(0)">
          <g id="Group_2399" data-name="Group 2399">
            <path id="Path_1335" data-name="Path 1335" d="M618.684,856.612a6.029,6.029,0,0,0-3.427,3.063c-.089.167-.335.02-.256-.148a6.37,6.37,0,0,1,3.6-3.2c.177-.059.256.227.079.286Z" transform="translate(-614.985 -856.319)" fill="#e8e8e8"/>
          </g>
        </g>
      </g>
      <g id="Group_2404" data-name="Group 2404" transform="translate(81.732 65.852)">
        <g id="Group_2403" data-name="Group 2403" transform="translate(0)">
          <g id="Group_2402" data-name="Group 2402">
            <path id="Path_1336" data-name="Path 1336" d="M641.789,832.321a10.352,10.352,0,0,1,.433,2.679c.01.187-.286.187-.3,0a10.1,10.1,0,0,0-.423-2.6.148.148,0,0,1,.286-.079Z" transform="translate(-641.498 -832.214)" fill="#e8e8e8"/>
          </g>
        </g>
      </g>
      <g id="Group_2407" data-name="Group 2407" transform="translate(77.763 68.262)">
        <g id="Group_2406" data-name="Group 2406" transform="translate(0)">
          <g id="Group_2405" data-name="Group 2405">
            <path id="Path_1337" data-name="Path 1337" d="M668.013,856.942a9.807,9.807,0,0,0-1.979,3.693.148.148,0,0,1-.286-.079,10.059,10.059,0,0,1,2.048-3.821c.128-.148.335.059.217.207Z" transform="translate(-665.743 -856.684)" fill="#e8e8e8"/>
          </g>
        </g>
      </g>
      <g id="Group_2410" data-name="Group 2410" transform="translate(77.803 68.255)">
        <g id="Group_2409" data-name="Group 2409" transform="translate(0)">
          <g id="Group_2408" data-name="Group 2408">
            <path id="Path_1338" data-name="Path 1338" d="M681.725,856.8a31.254,31.254,0,0,0-.2,9.532c.02.187-.276.187-.3,0a31.155,31.155,0,0,1,.207-9.611c.039-.187.325-.108.286.079Z" transform="translate(-680.962 -856.614)" fill="#e8e8e8"/>
          </g>
        </g>
      </g>
      <g id="Group_2413" data-name="Group 2413" transform="translate(97.454 42.697)">
        <g id="Group_2412" data-name="Group 2412" transform="translate(0)">
          <g id="Group_2411" data-name="Group 2411">
            <path id="Path_1339" data-name="Path 1339" d="M486.5,597.215v2.107a.148.148,0,0,1-.3,0v-2.107a.148.148,0,0,1,.3,0Z" transform="translate(-486.2 -597.075)" fill="#e8e8e8"/>
          </g>
        </g>
      </g>
      <g id="Group_2416" data-name="Group 2416" transform="translate(87.131 44.846)">
        <g id="Group_2415" data-name="Group 2415" transform="translate(0)">
          <g id="Group_2414" data-name="Group 2414">
            <path id="Path_1340" data-name="Path 1340" d="M496.745,619.2h-10.33a.148.148,0,0,1,0-.3h10.33a.148.148,0,0,1,0,.3Z" transform="translate(-486.275 -618.9)" fill="#e8e8e8"/>
          </g>
        </g>
      </g>
      <g id="Group_2419" data-name="Group 2419" transform="translate(87.062 42.66)">
        <g id="Group_2418" data-name="Group 2418" transform="translate(0)">
          <g id="Group_2417" data-name="Group 2417">
            <path id="Path_1341" data-name="Path 1341" d="M496.814,597h-10.4a.148.148,0,0,1,0-.3h10.4a.148.148,0,0,1,0,.3Z" transform="translate(-486.275 -596.7)" fill="#e8e8e8"/>
          </g>
        </g>
      </g>
      <g id="Group_2422" data-name="Group 2422" transform="translate(87.055 42.64)">
        <g id="Group_2421" data-name="Group 2421" transform="translate(0)">
          <g id="Group_2420" data-name="Group 2420">
            <path id="Path_1342" data-name="Path 1342" d="M592.1,596.648V598.8a.148.148,0,0,1-.3,0v-2.157a.148.148,0,1,1,.3,0Z" transform="translate(-591.8 -596.5)" fill="#e8e8e8"/>
          </g>
        </g>
      </g>
      <g id="Group_2425" data-name="Group 2425" transform="translate(93.564 44.962)">
        <g id="Group_2424" data-name="Group 2424" transform="translate(0)">
          <g id="Group_2423" data-name="Group 2423">
            <path id="Path_1343" data-name="Path 1343" d="M526,620.215v1.8a.148.148,0,0,1-.3,0v-1.8a.148.148,0,0,1,.3,0Z" transform="translate(-525.7 -620.075)" fill="#e8e8e8"/>
          </g>
        </g>
      </g>
      <g id="Group_2428" data-name="Group 2428" transform="translate(85.309 46.865)">
        <g id="Group_2427" data-name="Group 2427" transform="translate(0)">
          <g id="Group_2426" data-name="Group 2426">
            <path id="Path_1344" data-name="Path 1344" d="M534.283,639.7H526.04a.148.148,0,0,1,0-.3h8.242a.148.148,0,0,1,0,.3Z" transform="translate(-525.9 -639.4)" fill="#e8e8e8"/>
          </g>
        </g>
      </g>
      <g id="Group_2431" data-name="Group 2431" transform="translate(85.201 44.866)">
        <g id="Group_2430" data-name="Group 2430" transform="translate(0)">
          <g id="Group_2429" data-name="Group 2429">
            <path id="Path_1345" data-name="Path 1345" d="M593.982,619.4H592.14a.148.148,0,0,1,0-.3h1.841a.148.148,0,1,1,0,.3Z" transform="translate(-592 -619.1)" fill="#e8e8e8"/>
          </g>
        </g>
      </g>
      <g id="Group_2434" data-name="Group 2434" transform="translate(85.184 44.981)">
        <g id="Group_2433" data-name="Group 2433" transform="translate(0)">
          <g id="Group_2432" data-name="Group 2432">
            <path id="Path_1346" data-name="Path 1346" d="M611.1,620.415v1.841a.148.148,0,0,1-.3,0v-1.841a.148.148,0,0,1,.3,0Z" transform="translate(-610.8 -620.275)" fill="#e8e8e8"/>
          </g>
        </g>
      </g>
      <g id="Group_2437" data-name="Group 2437" transform="translate(86.129 46.904)">
        <g id="Group_2436" data-name="Group 2436" transform="translate(0)">
          <g id="Group_2435" data-name="Group 2435">
            <path id="Path_1347" data-name="Path 1347" d="M601.5,639.948v2a.148.148,0,0,1-.3,0v-2a.148.148,0,0,1,.3,0Z" transform="translate(-601.2 -639.8)" fill="#e8e8e8"/>
          </g>
        </g>
      </g>
      <g id="Group_2440" data-name="Group 2440" transform="translate(79.302 48.913)">
        <g id="Group_2439" data-name="Group 2439" transform="translate(0)">
          <g id="Group_2438" data-name="Group 2438">
            <path id="Path_1348" data-name="Path 1348" d="M608.535,660.5H601.74a.148.148,0,0,1,0-.3h6.795a.148.148,0,0,1,0,.3Z" transform="translate(-601.6 -660.2)" fill="#e8e8e8"/>
          </g>
        </g>
      </g>
      <g id="Group_2443" data-name="Group 2443" transform="translate(79.263 46.884)">
        <g id="Group_2442" data-name="Group 2442" transform="translate(0)">
          <g id="Group_2441" data-name="Group 2441">
            <path id="Path_1349" data-name="Path 1349" d="M617.124,639.9h-5.909a.148.148,0,0,1,0-.3h5.909a.148.148,0,0,1,0,.3Z" transform="translate(-611.075 -639.6)" fill="#e8e8e8"/>
          </g>
        </g>
      </g>
      <g id="Group_2446" data-name="Group 2446" transform="translate(79.275 46.872)">
        <g id="Group_2445" data-name="Group 2445" transform="translate(0)">
          <g id="Group_2444" data-name="Group 2444">
            <path id="Path_1350" data-name="Path 1350" d="M671.1,639.615v1.91a.148.148,0,0,1-.3,0v-1.91a.148.148,0,0,1,.3,0Z" transform="translate(-670.8 -639.475)" fill="#e8e8e8"/>
          </g>
        </g>
      </g>
      <g id="Group_2449" data-name="Group 2449" transform="translate(86.147 48.903)">
        <g id="Group_2448" data-name="Group 2448" transform="translate(0)">
          <g id="Group_2447" data-name="Group 2447">
            <path id="Path_1351" data-name="Path 1351" d="M544.015,660.1h5.643a.148.148,0,0,1,0,.3h-5.643a.148.148,0,0,1,0-.3Z" transform="translate(-543.875 -660.1)" fill="#e8e8e8"/>
          </g>
        </g>
      </g>
      <g id="Group_2452" data-name="Group 2452" transform="translate(91.811 46.99)">
        <g id="Group_2451" data-name="Group 2451" transform="translate(0)">
          <g id="Group_2450" data-name="Group 2450">
            <path id="Path_1352" data-name="Path 1352" d="M543.5,642.716v-1.9a.148.148,0,0,1,.3,0v1.9a.148.148,0,0,1-.3,0Z" transform="translate(-543.5 -640.675)" fill="#e8e8e8"/>
          </g>
        </g>
      </g>
      <g id="Group_2455" data-name="Group 2455" transform="translate(103.658 0.47)">
        <g id="Group_2454" data-name="Group 2454" transform="translate(0)">
          <g id="Group_2453" data-name="Group 2453">
            <path id="Path_1353" data-name="Path 1353" d="M423.5,168.415v21.35a.148.148,0,0,1-.3,0v-21.35a.148.148,0,0,1,.3,0Z" transform="translate(-423.2 -168.275)" fill="#e8e8e8"/>
          </g>
        </g>
      </g>
      <g id="Group_2458" data-name="Group 2458" transform="translate(76.998 21.881)">
        <g id="Group_2457" data-name="Group 2457">
          <g id="Group_2456" data-name="Group 2456">
            <path id="Path_1354" data-name="Path 1354" d="M449.9,386H423.215a.148.148,0,0,1,0-.3H449.9a.148.148,0,0,1,0,.3Z" transform="translate(-423.075 -385.7)" fill="#e8e8e8"/>
          </g>
        </g>
      </g>
      <g id="Group_2461" data-name="Group 2461" transform="translate(77.244 0.315)">
        <g id="Group_2460" data-name="Group 2460" transform="translate(0)">
          <g id="Group_2459" data-name="Group 2459">
            <path id="Path_1355" data-name="Path 1355" d="M450.287,167H423.915a.148.148,0,0,1,0-.3h26.372a.148.148,0,0,1,0,.3Z" transform="translate(-423.775 -166.7)" fill="#e8e8e8"/>
          </g>
        </g>
      </g>
      <g id="Group_2464" data-name="Group 2464" transform="translate(76.932 0.411)">
        <g id="Group_2463" data-name="Group 2463" transform="translate(0)">
          <g id="Group_2462" data-name="Group 2462">
            <path id="Path_1356" data-name="Path 1356" d="M694.9,167.815v21.369a.148.148,0,0,1-.3,0V167.815a.148.148,0,0,1,.3,0Z" transform="translate(-694.6 -167.675)" fill="#e8e8e8"/>
          </g>
        </g>
      </g>
      <g id="Group_2467" data-name="Group 2467" transform="translate(102.201 1.546)">
        <g id="Group_2466" data-name="Group 2466" transform="translate(0)">
          <g id="Group_2465" data-name="Group 2465">
            <path id="Path_1357" data-name="Path 1357" d="M438.3,179.348v19.282a.148.148,0,0,1-.3,0V179.348a.148.148,0,0,1,.3,0Z" transform="translate(-438 -179.2)" fill="#e8e8e8"/>
          </g>
        </g>
      </g>
      <g id="Group_2470" data-name="Group 2470" transform="translate(78.544 20.887)">
        <g id="Group_2469" data-name="Group 2469" transform="translate(0)">
          <g id="Group_2468" data-name="Group 2468">
            <path id="Path_1358" data-name="Path 1358" d="M461.661,375.9H437.978a.148.148,0,0,1,0-.3h23.683a.148.148,0,0,1,0,.3Z" transform="translate(-437.837 -375.6)" fill="#e8e8e8"/>
          </g>
        </g>
      </g>
      <g id="Group_2473" data-name="Group 2473" transform="translate(78.761 1.408)">
        <g id="Group_2472" data-name="Group 2472" transform="translate(0)">
          <g id="Group_2471" data-name="Group 2471">
            <path id="Path_1359" data-name="Path 1359" d="M462.023,178.1H438.615a.148.148,0,0,1,0-.3h23.408a.148.148,0,0,1,0,.3Z" transform="translate(-438.475 -177.8)" fill="#e8e8e8"/>
          </g>
        </g>
      </g>
      <g id="Group_2476" data-name="Group 2476" transform="translate(78.488 1.494)">
        <g id="Group_2475" data-name="Group 2475" transform="translate(0)">
          <g id="Group_2474" data-name="Group 2474">
            <path id="Path_1360" data-name="Path 1360" d="M679.1,178.815v19.3a.148.148,0,0,1-.3,0v-19.3a.148.148,0,0,1,.3,0Z" transform="translate(-678.8 -178.675)" fill="#e8e8e8"/>
          </g>
        </g>
      </g>
      <g id="Group_2479" data-name="Group 2479" transform="translate(90.61 1.576)">
        <g id="Group_2478" data-name="Group 2478" transform="translate(0)">
          <g id="Group_2477" data-name="Group 2477">
            <path id="Path_1361" data-name="Path 1361" d="M556,179.648v9.414a.148.148,0,0,1-.3,0v-9.414a.148.148,0,0,1,.3,0Z" transform="translate(-555.7 -179.5)" fill="#e8e8e8"/>
          </g>
        </g>
      </g>
      <g id="Group_2482" data-name="Group 2482" transform="translate(90.617 10.98)">
        <g id="Group_2481" data-name="Group 2481" transform="translate(0)">
          <g id="Group_2480" data-name="Group 2480">
            <path id="Path_1362" data-name="Path 1362" d="M441.515,275h11.266a.148.148,0,0,1,0,.3H441.515a.148.148,0,0,1,0-.3Z" transform="translate(-441.375 -275)" fill="#e8e8e8"/>
          </g>
        </g>
      </g>
      <g id="Group_2485" data-name="Group 2485" transform="translate(89.143 1.576)">
        <g id="Group_2484" data-name="Group 2484" transform="translate(0)">
          <g id="Group_2483" data-name="Group 2483">
            <path id="Path_1363" data-name="Path 1363" d="M570.9,179.648v9.326a.148.148,0,0,1-.3,0v-9.326a.148.148,0,0,1,.3,0Z" transform="translate(-570.6 -179.5)" fill="#e8e8e8"/>
          </g>
        </g>
      </g>
      <g id="Group_2488" data-name="Group 2488" transform="translate(78.751 11.069)">
        <g id="Group_2487" data-name="Group 2487" transform="translate(0)">
          <g id="Group_2486" data-name="Group 2486">
            <path id="Path_1364" data-name="Path 1364" d="M581.139,276.2h-10.4a.148.148,0,0,1,0-.3h10.4a.148.148,0,0,1,0,.3Z" transform="translate(-570.6 -275.9)" fill="#e8e8e8"/>
          </g>
        </g>
      </g>
      <g id="Group_2491" data-name="Group 2491" transform="translate(90.667 12.447)">
        <g id="Group_2490" data-name="Group 2490" transform="translate(0)">
          <g id="Group_2489" data-name="Group 2489">
            <path id="Path_1365" data-name="Path 1365" d="M451.883,290.2h-11.3a.148.148,0,0,1,0-.3h11.3a.148.148,0,0,1,0,.3Z" transform="translate(-440.437 -289.9)" fill="#e8e8e8"/>
          </g>
        </g>
      </g>
      <g id="Group_2494" data-name="Group 2494" transform="translate(90.659 12.494)">
        <g id="Group_2493" data-name="Group 2493" transform="translate(0)">
          <g id="Group_2492" data-name="Group 2492">
            <path id="Path_1366" data-name="Path 1366" d="M555.5,290.515v8.292a.148.148,0,0,1-.3,0v-8.292a.148.148,0,0,1,.3,0Z" transform="translate(-555.2 -290.375)" fill="#e8e8e8"/>
          </g>
        </g>
      </g>
      <g id="Group_2497" data-name="Group 2497" transform="translate(89.192 12.711)">
        <g id="Group_2496" data-name="Group 2496" transform="translate(0)">
          <g id="Group_2495" data-name="Group 2495">
            <path id="Path_1367" data-name="Path 1367" d="M570.4,292.715v8.075a.148.148,0,0,1-.3,0v-8.075a.148.148,0,0,1,.3,0Z" transform="translate(-570.1 -292.575)" fill="#e8e8e8"/>
          </g>
        </g>
      </g>
      <g id="Group_2500" data-name="Group 2500" transform="translate(78.574 12.753)">
        <g id="Group_2499" data-name="Group 2499" transform="translate(0)">
          <g id="Group_2498" data-name="Group 2498">
            <path id="Path_1368" data-name="Path 1368" d="M580.542,293.3H569.878a.148.148,0,0,1,0-.3h10.665a.148.148,0,0,1,0,.3Z" transform="translate(-569.737 -293)" fill="#e8e8e8"/>
          </g>
        </g>
      </g>
      <g id="Group_2503" data-name="Group 2503" transform="translate(81.766 1.743)">
        <g id="Group_2502" data-name="Group 2502" transform="translate(0)">
          <g id="Group_2501" data-name="Group 2501">
            <path id="Path_1369" data-name="Path 1369" d="M582.581,181.247a97.682,97.682,0,0,1,6.243,7.839c.108.158-.148.305-.256.148a96.209,96.209,0,0,0-6.194-7.78c-.128-.138.079-.355.207-.207Z" transform="translate(-582.334 -181.197)" fill="#e8e8e8"/>
          </g>
        </g>
      </g>
      <g id="Group_2506" data-name="Group 2506" transform="translate(81.791 5.385)">
        <g id="Group_2505" data-name="Group 2505" transform="translate(0)">
          <g id="Group_2504" data-name="Group 2504">
            <path id="Path_1370" data-name="Path 1370" d="M614.484,218.235q1.536,1.861,3.072,3.713c.118.148-.089.355-.207.207q-1.536-1.861-3.072-3.713c-.118-.148.089-.355.207-.207Z" transform="translate(-614.242 -218.184)" fill="#e8e8e8"/>
          </g>
        </g>
      </g>
      <g id="Group_2509" data-name="Group 2509" transform="translate(93.195 12.815)">
        <g id="Group_2508" data-name="Group 2508" transform="translate(0)">
          <g id="Group_2507" data-name="Group 2507">
            <path id="Path_1371" data-name="Path 1371" d="M458.675,301.641q-3.87-3.87-7.74-7.75c-.138-.138.079-.345.207-.207q3.87,3.87,7.74,7.75c.128.128-.079.335-.207.207Z" transform="translate(-450.891 -293.638)" fill="#e8e8e8"/>
          </g>
        </g>
      </g>
      <g id="Group_2512" data-name="Group 2512" transform="translate(93.678 16.459)">
        <g id="Group_2511" data-name="Group 2511" transform="translate(0)">
          <g id="Group_2510" data-name="Group 2510">
            <path id="Path_1372" data-name="Path 1372" d="M499.083,334.091a37.612,37.612,0,0,0-2.8-3.2c-.138-.138.079-.345.207-.207a35.95,35.95,0,0,1,2.8,3.2c.118.148-.089.364-.207.207Z" transform="translate(-496.242 -330.638)" fill="#e8e8e8"/>
          </g>
        </g>
      </g>
      <g id="Group_2515" data-name="Group 2515" transform="translate(28.994 0.145)">
        <g id="Group_2514" data-name="Group 2514" transform="translate(0)">
          <g id="Group_2513" data-name="Group 2513">
            <path id="Path_1373" data-name="Path 1373" d="M1181.7,165.115v21.35a.148.148,0,0,1-.3,0v-21.35a.148.148,0,0,1,.3,0Z" transform="translate(-1181.4 -164.975)" fill="#e8e8e8"/>
          </g>
        </g>
      </g>
      <g id="Group_2518" data-name="Group 2518" transform="translate(2.334 21.556)">
        <g id="Group_2517" data-name="Group 2517">
          <g id="Group_2516" data-name="Group 2516">
            <path id="Path_1374" data-name="Path 1374" d="M1208.1,382.7h-26.687a.148.148,0,0,1,0-.3H1208.1a.148.148,0,0,1,0,.3Z" transform="translate(-1181.275 -382.4)" fill="#e8e8e8"/>
          </g>
        </g>
      </g>
      <g id="Group_2521" data-name="Group 2521" transform="translate(2.58 0)">
        <g id="Group_2520" data-name="Group 2520">
          <g id="Group_2519" data-name="Group 2519">
            <path id="Path_1375" data-name="Path 1375" d="M1208.487,163.8h-26.372a.148.148,0,0,1,0-.3h26.372a.148.148,0,0,1,0,.3Z" transform="translate(-1181.975 -163.5)" fill="#e8e8e8"/>
          </g>
        </g>
      </g>
      <g id="Group_2524" data-name="Group 2524" transform="translate(2.267 0.086)">
        <g id="Group_2523" data-name="Group 2523" transform="translate(0)">
          <g id="Group_2522" data-name="Group 2522">
            <path id="Path_1376" data-name="Path 1376" d="M1453.1,164.515v21.369a.148.148,0,0,1-.3,0V164.515a.148.148,0,0,1,.3,0Z" transform="translate(-1452.8 -164.375)" fill="#e8e8e8"/>
          </g>
        </g>
      </g>
      <g id="Group_2527" data-name="Group 2527" transform="translate(27.536 1.221)">
        <g id="Group_2526" data-name="Group 2526" transform="translate(0)">
          <g id="Group_2525" data-name="Group 2525">
            <path id="Path_1377" data-name="Path 1377" d="M1196.5,176.048v19.282a.148.148,0,0,1-.3,0V176.048a.148.148,0,1,1,.3,0Z" transform="translate(-1196.2 -175.9)" fill="#e8e8e8"/>
          </g>
        </g>
      </g>
      <g id="Group_2530" data-name="Group 2530" transform="translate(3.88 20.562)">
        <g id="Group_2529" data-name="Group 2529">
          <g id="Group_2528" data-name="Group 2528">
            <path id="Path_1378" data-name="Path 1378" d="M1219.824,372.6H1196.14a.148.148,0,0,1,0-.3h23.683a.148.148,0,1,1,0,.3Z" transform="translate(-1196 -372.3)" fill="#e8e8e8"/>
          </g>
        </g>
      </g>
      <g id="Group_2533" data-name="Group 2533" transform="translate(4.097 1.083)">
        <g id="Group_2532" data-name="Group 2532">
          <g id="Group_2531" data-name="Group 2531">
            <path id="Path_1379" data-name="Path 1379" d="M1220.223,174.8h-23.408a.148.148,0,0,1,0-.3h23.408a.148.148,0,0,1,0,.3Z" transform="translate(-1196.675 -174.5)" fill="#e8e8e8"/>
          </g>
        </g>
      </g>
      <g id="Group_2536" data-name="Group 2536" transform="translate(3.823 1.169)">
        <g id="Group_2535" data-name="Group 2535" transform="translate(0)">
          <g id="Group_2534" data-name="Group 2534">
            <path id="Path_1380" data-name="Path 1380" d="M1437.3,175.515v19.3a.148.148,0,0,1-.3,0v-19.3a.148.148,0,0,1,.3,0Z" transform="translate(-1437 -175.375)" fill="#e8e8e8"/>
          </g>
        </g>
      </g>
      <g id="Group_2539" data-name="Group 2539" transform="translate(15.946 1.251)">
        <g id="Group_2538" data-name="Group 2538" transform="translate(0)">
          <g id="Group_2537" data-name="Group 2537">
            <path id="Path_1381" data-name="Path 1381" d="M1314.2,176.348v9.414a.148.148,0,0,1-.3,0v-9.414a.148.148,0,1,1,.3,0Z" transform="translate(-1313.9 -176.2)" fill="#e8e8e8"/>
          </g>
        </g>
      </g>
      <g id="Group_2542" data-name="Group 2542" transform="translate(15.953 10.655)">
        <g id="Group_2541" data-name="Group 2541">
          <g id="Group_2540" data-name="Group 2540">
            <path id="Path_1382" data-name="Path 1382" d="M1199.715,271.7h11.266a.148.148,0,0,1,0,.3h-11.266a.148.148,0,0,1,0-.3Z" transform="translate(-1199.575 -271.7)" fill="#e8e8e8"/>
          </g>
        </g>
      </g>
      <g id="Group_2545" data-name="Group 2545" transform="translate(14.478 1.251)">
        <g id="Group_2544" data-name="Group 2544" transform="translate(0)">
          <g id="Group_2543" data-name="Group 2543">
            <path id="Path_1383" data-name="Path 1383" d="M1329.1,176.348v9.326a.148.148,0,0,1-.3,0v-9.326a.148.148,0,0,1,.3,0Z" transform="translate(-1328.8 -176.2)" fill="#e8e8e8"/>
          </g>
        </g>
      </g>
      <g id="Group_2548" data-name="Group 2548" transform="translate(4.087 10.744)">
        <g id="Group_2547" data-name="Group 2547">
          <g id="Group_2546" data-name="Group 2546">
            <path id="Path_1384" data-name="Path 1384" d="M1339.339,272.9h-10.4a.148.148,0,0,1,0-.3h10.4a.148.148,0,0,1,0,.3Z" transform="translate(-1328.8 -272.6)" fill="#e8e8e8"/>
          </g>
        </g>
      </g>
      <g id="Group_2551" data-name="Group 2551" transform="translate(16.002 12.122)">
        <g id="Group_2550" data-name="Group 2550" transform="translate(0)">
          <g id="Group_2549" data-name="Group 2549">
            <path id="Path_1385" data-name="Path 1385" d="M1210.045,286.9H1198.74a.148.148,0,0,1,0-.3h11.305a.148.148,0,0,1,0,.3Z" transform="translate(-1198.6 -286.6)" fill="#e8e8e8"/>
          </g>
        </g>
      </g>
      <g id="Group_2554" data-name="Group 2554" transform="translate(15.995 12.172)">
        <g id="Group_2553" data-name="Group 2553" transform="translate(0)">
          <g id="Group_2552" data-name="Group 2552">
            <path id="Path_1386" data-name="Path 1386" d="M1313.7,287.248v8.292a.148.148,0,0,1-.3,0v-8.292a.148.148,0,0,1,.3,0Z" transform="translate(-1313.4 -287.1)" fill="#e8e8e8"/>
          </g>
        </g>
      </g>
      <g id="Group_2557" data-name="Group 2557" transform="translate(14.528 12.388)">
        <g id="Group_2556" data-name="Group 2556" transform="translate(0)">
          <g id="Group_2555" data-name="Group 2555">
            <path id="Path_1387" data-name="Path 1387" d="M1328.6,289.448v8.075a.148.148,0,0,1-.3,0v-8.075a.148.148,0,1,1,.3,0Z" transform="translate(-1328.3 -289.3)" fill="#e8e8e8"/>
          </g>
        </g>
      </g>
      <g id="Group_2560" data-name="Group 2560" transform="translate(3.91 12.428)">
        <g id="Group_2559" data-name="Group 2559">
          <g id="Group_2558" data-name="Group 2558">
            <path id="Path_1388" data-name="Path 1388" d="M1338.705,290h-10.665a.148.148,0,0,1,0-.3h10.665a.148.148,0,1,1,0,.3Z" transform="translate(-1327.9 -289.7)" fill="#e8e8e8"/>
          </g>
        </g>
      </g>
      <g id="Group_2563" data-name="Group 2563" transform="translate(7.102 1.422)">
        <g id="Group_2562" data-name="Group 2562">
          <g id="Group_2561" data-name="Group 2561">
            <path id="Path_1389" data-name="Path 1389" d="M1340.781,177.984a97.65,97.65,0,0,1,6.243,7.839c.108.158-.148.305-.256.148a96.183,96.183,0,0,0-6.194-7.78c-.128-.138.079-.345.207-.207Z" transform="translate(-1340.534 -177.938)" fill="#e8e8e8"/>
          </g>
        </g>
      </g>
      <g id="Group_2566" data-name="Group 2566" transform="translate(7.126 5.06)">
        <g id="Group_2565" data-name="Group 2565" transform="translate(0)">
          <g id="Group_2564" data-name="Group 2564">
            <path id="Path_1390" data-name="Path 1390" d="M1372.684,214.935q1.536,1.861,3.073,3.713c.118.148-.089.355-.207.207q-1.536-1.861-3.072-3.713c-.118-.148.089-.355.207-.207Z" transform="translate(-1372.442 -214.884)" fill="#e8e8e8"/>
          </g>
        </g>
      </g>
      <g id="Group_2569" data-name="Group 2569" transform="translate(18.531 12.49)">
        <g id="Group_2568" data-name="Group 2568">
          <g id="Group_2567" data-name="Group 2567">
            <path id="Path_1391" data-name="Path 1391" d="M1216.875,298.341q-3.87-3.87-7.74-7.75c-.138-.138.079-.345.207-.207q3.87,3.87,7.74,7.75c.128.128-.079.335-.207.207Z" transform="translate(-1209.091 -290.338)" fill="#e8e8e8"/>
          </g>
        </g>
      </g>
      <g id="Group_2572" data-name="Group 2572" transform="translate(19.013 16.144)">
        <g id="Group_2571" data-name="Group 2571" transform="translate(0)">
          <g id="Group_2570" data-name="Group 2570">
            <path id="Path_1392" data-name="Path 1392" d="M1257.283,330.891a37.624,37.624,0,0,0-2.8-3.2c-.138-.138.079-.345.207-.207a35.945,35.945,0,0,1,2.8,3.2c.118.138-.089.355-.207.207Z" transform="translate(-1254.442 -327.438)" fill="#e8e8e8"/>
          </g>
        </g>
      </g>
      <g id="Group_2575" data-name="Group 2575" transform="translate(19.242 31.877)">
        <g id="Group_2574" data-name="Group 2574">
          <g id="Group_2573" data-name="Group 2573">
            <path id="Path_1393" data-name="Path 1393" d="M1185.154,487.5h-10.438a.148.148,0,0,1,0-.3h10.438a.148.148,0,0,1,0,.3Z" transform="translate(-1174.575 -487.2)" fill="#e8e8e8"/>
          </g>
        </g>
      </g>
      <g id="Group_2578" data-name="Group 2578" transform="translate(24.424 32.012)">
        <g id="Group_2577" data-name="Group 2577" transform="translate(0)">
          <g id="Group_2576" data-name="Group 2576">
            <path id="Path_1394" data-name="Path 1394" d="M1228.1,488.715v1.97a.148.148,0,0,1-.3,0v-1.97a.148.148,0,0,1,.3,0Z" transform="translate(-1227.8 -488.575)" fill="#e8e8e8"/>
          </g>
        </g>
      </g>
      <g id="Group_2581" data-name="Group 2581" transform="translate(16.229 33.974)">
        <g id="Group_2580" data-name="Group 2580" transform="translate(0)">
          <g id="Group_2579" data-name="Group 2579">
            <path id="Path_1395" data-name="Path 1395" d="M1236.219,508.8h-8.2a.148.148,0,0,1,0-.3h8.2a.148.148,0,0,1,0,.3Z" transform="translate(-1227.875 -508.5)" fill="#e8e8e8"/>
          </g>
        </g>
      </g>
      <g id="Group_2584" data-name="Group 2584" transform="translate(19.107 31.943)">
        <g id="Group_2583" data-name="Group 2583" transform="translate(0)">
          <g id="Group_2582" data-name="Group 2582">
            <path id="Path_1396" data-name="Path 1396" d="M1282.1,488.015v1.9a.148.148,0,0,1-.3,0v-1.9a.148.148,0,0,1,.3,0Z" transform="translate(-1281.8 -487.875)" fill="#e8e8e8"/>
          </g>
        </g>
      </g>
      <g id="Group_2587" data-name="Group 2587" transform="translate(29.673 30.239)">
        <g id="Group_2586" data-name="Group 2586" transform="translate(0)">
          <g id="Group_2585" data-name="Group 2585">
            <path id="Path_1397" data-name="Path 1397" d="M1174.5,472.291v-1.576a.148.148,0,0,1,.3,0v1.576a.148.148,0,0,1-.3,0Z" transform="translate(-1174.5 -470.575)" fill="#e8e8e8"/>
          </g>
        </g>
      </g>
      <g id="Group_2590" data-name="Group 2590" transform="translate(21.94 30.163)">
        <g id="Group_2589" data-name="Group 2589" transform="translate(0)">
          <g id="Group_2588" data-name="Group 2588">
            <path id="Path_1398" data-name="Path 1398" d="M1183.627,470.1h-7.612a.148.148,0,0,1,0-.3h7.612a.148.148,0,0,1,0,.3Z" transform="translate(-1175.875 -469.8)" fill="#e8e8e8"/>
          </g>
        </g>
      </g>
      <g id="Group_2593" data-name="Group 2593" transform="translate(21.864 30.367)">
        <g id="Group_2592" data-name="Group 2592" transform="translate(0)">
          <g id="Group_2591" data-name="Group 2591">
            <path id="Path_1399" data-name="Path 1399" d="M1254.1,472.015v1.507a.148.148,0,0,1-.3,0v-1.507a.148.148,0,0,1,.3,0Z" transform="translate(-1253.8 -471.875)" fill="#e8e8e8"/>
          </g>
        </g>
      </g>
      <g id="Group_2596" data-name="Group 2596" transform="translate(23.969 34.043)">
        <g id="Group_2595" data-name="Group 2595" transform="translate(0)">
          <g id="Group_2594" data-name="Group 2594">
            <path id="Path_1400" data-name="Path 1400" d="M1166,509.5h-7.287a.148.148,0,0,1,0-.3H1166a.148.148,0,0,1,0,.3Z" transform="translate(-1158.575 -509.2)" fill="#e8e8e8"/>
          </g>
        </g>
      </g>
      <g id="Group_2599" data-name="Group 2599" transform="translate(31.318 34.178)">
        <g id="Group_2598" data-name="Group 2598" transform="translate(0)">
          <g id="Group_2597" data-name="Group 2597">
            <path id="Path_1401" data-name="Path 1401" d="M1158.1,510.715v1.645a.148.148,0,0,1-.3,0v-1.645a.148.148,0,0,1,.3,0Z" transform="translate(-1157.8 -510.575)" fill="#e8e8e8"/>
          </g>
        </g>
      </g>
      <g id="Group_2602" data-name="Group 2602" transform="translate(24.363 35.944)">
        <g id="Group_2601" data-name="Group 2601" transform="translate(0)">
          <g id="Group_2600" data-name="Group 2600">
            <path id="Path_1402" data-name="Path 1402" d="M1164.977,528.8h-6.962a.148.148,0,0,1,0-.3h6.962a.148.148,0,0,1,0,.3Z" transform="translate(-1157.875 -528.5)" fill="#e8e8e8"/>
          </g>
        </g>
      </g>
      <g id="Group_2605" data-name="Group 2605" transform="translate(24.356 34.178)">
        <g id="Group_2604" data-name="Group 2604" transform="translate(0)">
          <g id="Group_2603" data-name="Group 2603">
            <path id="Path_1403" data-name="Path 1403" d="M1228.8,510.715v1.7a.148.148,0,0,1-.3,0v-1.7a.148.148,0,0,1,.3,0Z" transform="translate(-1228.5 -510.575)" fill="#e8e8e8"/>
          </g>
        </g>
      </g>
      <g id="Group_2608" data-name="Group 2608" transform="translate(67.151 27.534)">
        <g id="Group_2607" data-name="Group 2607">
          <g id="Group_2606" data-name="Group 2606">
            <path id="Path_1404" data-name="Path 1404" d="M676.386,443.4H663.515a.148.148,0,0,1,0-.3h12.871a.148.148,0,0,1,0,.3Z" transform="translate(-663.375 -443.1)" fill="#e8e8e8"/>
          </g>
        </g>
      </g>
      <g id="Group_2611" data-name="Group 2611" transform="translate(80.073 25.887)">
        <g id="Group_2610" data-name="Group 2610" transform="translate(0)">
          <g id="Group_2609" data-name="Group 2609">
            <path id="Path_1405" data-name="Path 1405" d="M662.7,428.17v-1.654a.148.148,0,0,1,.3,0v1.654a.148.148,0,0,1-.3,0Z" transform="translate(-662.7 -426.375)" fill="#e8e8e8"/>
          </g>
        </g>
      </g>
      <g id="Group_2614" data-name="Group 2614" transform="translate(73.02 25.702)">
        <g id="Group_2613" data-name="Group 2613" transform="translate(0)">
          <g id="Group_2612" data-name="Group 2612">
            <path id="Path_1406" data-name="Path 1406" d="M671.509,424.8h-6.893a.148.148,0,0,1,0-.3h6.893a.148.148,0,0,1,0,.3Z" transform="translate(-664.475 -424.5)" fill="#e8e8e8"/>
          </g>
        </g>
      </g>
      <g id="Group_2617" data-name="Group 2617" transform="translate(73.012 25.879)">
        <g id="Group_2616" data-name="Group 2616" transform="translate(0)">
          <g id="Group_2615" data-name="Group 2615">
            <path id="Path_1407" data-name="Path 1407" d="M734.7,426.448v1.6a.148.148,0,0,1-.3,0v-1.6a.148.148,0,0,1,.3,0Z" transform="translate(-734.4 -426.3)" fill="#e8e8e8"/>
          </g>
        </g>
      </g>
      <g id="Group_2620" data-name="Group 2620" transform="translate(74.893 27.76)">
        <g id="Group_2619" data-name="Group 2619" transform="translate(0)">
          <g id="Group_2618" data-name="Group 2618">
            <path id="Path_1408" data-name="Path 1408" d="M715.6,445.548V447.2a.148.148,0,0,1-.3,0v-1.654a.148.148,0,1,1,.3,0Z" transform="translate(-715.3 -445.4)" fill="#e8e8e8"/>
          </g>
        </g>
      </g>
      <g id="Group_2623" data-name="Group 2623" transform="translate(67.328 29.523)">
        <g id="Group_2622" data-name="Group 2622" transform="translate(0)">
          <g id="Group_2621" data-name="Group 2621">
            <path id="Path_1409" data-name="Path 1409" d="M723.629,463.6h-7.514a.148.148,0,0,1,0-.3h7.514a.148.148,0,0,1,0,.3Z" transform="translate(-715.975 -463.3)" fill="#e8e8e8"/>
          </g>
        </g>
      </g>
      <g id="Group_2626" data-name="Group 2626" transform="translate(67.143 27.709)">
        <g id="Group_2625" data-name="Group 2625" transform="translate(0)">
          <g id="Group_2624" data-name="Group 2624">
            <path id="Path_1410" data-name="Path 1410" d="M794.3,445.015V446.9a.148.148,0,0,1-.3,0v-1.881a.148.148,0,0,1,.3,0Z" transform="translate(-794 -444.875)" fill="#e8e8e8"/>
          </g>
        </g>
      </g>
      <g id="Group_2629" data-name="Group 2629" transform="translate(73.071 29.639)">
        <g id="Group_2628" data-name="Group 2628" transform="translate(0)">
          <g id="Group_2627" data-name="Group 2627">
            <path id="Path_1411" data-name="Path 1411" d="M734.1,464.615v1.536a.148.148,0,0,1-.3,0v-1.536a.148.148,0,0,1,.3,0Z" transform="translate(-733.8 -464.475)" fill="#e8e8e8"/>
          </g>
        </g>
      </g>
      <g id="Group_2632" data-name="Group 2632" transform="translate(73.187 31.286)">
        <g id="Group_2631" data-name="Group 2631" transform="translate(0)">
          <g id="Group_2630" data-name="Group 2630">
            <path id="Path_1412" data-name="Path 1412" d="M666.415,481.2h6.549a.148.148,0,0,1,0,.3h-6.549a.148.148,0,0,1,0-.3Z" transform="translate(-666.275 -481.2)" fill="#e8e8e8"/>
          </g>
        </g>
      </g>
      <g id="Group_2635" data-name="Group 2635" transform="translate(74.556 29.582)">
        <g id="Group_2634" data-name="Group 2634" transform="translate(0)">
          <g id="Group_2633" data-name="Group 2633">
            <path id="Path_1413" data-name="Path 1413" d="M666.915,463.9h5.131a.148.148,0,0,1,0,.3h-5.131a.148.148,0,0,1,0-.3Z" transform="translate(-666.775 -463.9)" fill="#e8e8e8"/>
          </g>
        </g>
      </g>
      <g id="Group_2638" data-name="Group 2638" transform="translate(79.669 29.582)">
        <g id="Group_2637" data-name="Group 2637" transform="translate(0)">
          <g id="Group_2636" data-name="Group 2636">
            <path id="Path_1414" data-name="Path 1414" d="M667.1,464.048V465.7a.148.148,0,0,1-.3,0v-1.654a.148.148,0,1,1,.3,0Z" transform="translate(-666.8 -463.9)" fill="#e8e8e8"/>
          </g>
        </g>
      </g>
      <g id="Group_2641" data-name="Group 2641" transform="translate(3.594 51.68)">
        <g id="Group_2640" data-name="Group 2640">
          <g id="Group_2639" data-name="Group 2639">
            <path id="Path_1415" data-name="Path 1415" d="M1365.24,688.6h-8.124a.148.148,0,0,1,0-.3h8.124a.148.148,0,0,1,0,.3Z" transform="translate(-1356.975 -688.3)" fill="#e8e8e8"/>
          </g>
        </g>
      </g>
      <g id="Group_2644" data-name="Group 2644" transform="translate(7.024 49.777)">
        <g id="Group_2643" data-name="Group 2643" transform="translate(0)">
          <g id="Group_2642" data-name="Group 2642">
            <path id="Path_1416" data-name="Path 1416" d="M1404.5,670.947v-1.832a.148.148,0,0,1,.3,0v1.832a.148.148,0,0,1-.3,0Z" transform="translate(-1404.5 -668.975)" fill="#e8e8e8"/>
          </g>
        </g>
      </g>
      <g id="Group_2647" data-name="Group 2647" transform="translate(0 49.73)">
        <g id="Group_2646" data-name="Group 2646">
          <g id="Group_2645" data-name="Group 2645">
            <path id="Path_1417" data-name="Path 1417" d="M1412.393,668.8h-6.952a.148.148,0,0,1,0-.3h6.952a.148.148,0,1,1,0,.3Z" transform="translate(-1405.3 -668.5)" fill="#e8e8e8"/>
          </g>
        </g>
      </g>
      <g id="Group_2650" data-name="Group 2650" transform="translate(0.003 49.809)">
        <g id="Group_2649" data-name="Group 2649">
          <g id="Group_2648" data-name="Group 2648">
            <path id="Path_1418" data-name="Path 1418" d="M1476.1,669.448v1.566a.148.148,0,0,1-.3,0v-1.566a.148.148,0,0,1,.3,0Z" transform="translate(-1475.8 -669.3)" fill="#e8e8e8"/>
          </g>
        </g>
      </g>
      <g id="Group_2653" data-name="Group 2653" transform="translate(0.118 51.641)">
        <g id="Group_2652" data-name="Group 2652">
          <g id="Group_2651" data-name="Group 2651">
            <path id="Path_1419" data-name="Path 1419" d="M1441.214,688.2h-3.673a.148.148,0,0,1,0-.3h3.673a.148.148,0,0,1,0,.3Z" transform="translate(-1437.4 -687.9)" fill="#e8e8e8"/>
          </g>
        </g>
      </g>
      <g id="Group_2656" data-name="Group 2656" transform="translate(11.869 51.841)">
        <g id="Group_2655" data-name="Group 2655" transform="translate(0)">
          <g id="Group_2654" data-name="Group 2654">
            <path id="Path_1420" data-name="Path 1420" d="M1355.6,690.081v1.408a.148.148,0,0,1-.3,0v-1.408a.148.148,0,0,1,.3,0Z" transform="translate(-1355.3 -689.937)" fill="#e8e8e8"/>
          </g>
        </g>
      </g>
      <g id="Group_2659" data-name="Group 2659" transform="translate(4.146 53.393)">
        <g id="Group_2658" data-name="Group 2658">
          <g id="Group_2657" data-name="Group 2657">
            <path id="Path_1421" data-name="Path 1421" d="M1363.606,706h-7.691a.148.148,0,0,1,0-.3h7.691a.148.148,0,0,1,0,.3Z" transform="translate(-1355.775 -705.7)" fill="#e8e8e8"/>
          </g>
        </g>
      </g>
      <g id="Group_2662" data-name="Group 2662" transform="translate(4.06 51.727)">
        <g id="Group_2661" data-name="Group 2661" transform="translate(0)">
          <g id="Group_2660" data-name="Group 2660">
            <path id="Path_1422" data-name="Path 1422" d="M1434.9,688.915v1.605a.148.148,0,0,1-.3,0v-1.605a.148.148,0,0,1,.3,0Z" transform="translate(-1434.6 -688.775)" fill="#e8e8e8"/>
          </g>
        </g>
      </g>
      <g id="Group_2665" data-name="Group 2665" transform="translate(3.486 47.347)">
        <g id="Group_2664" data-name="Group 2664">
          <g id="Group_2663" data-name="Group 2663">
            <path id="Path_1423" data-name="Path 1423" d="M1372.47,644.6h-7.455a.148.148,0,0,1,0-.3h7.455a.148.148,0,0,1,0,.3Z" transform="translate(-1364.875 -644.3)" fill="#e8e8e8"/>
          </g>
        </g>
      </g>
      <g id="Group_2668" data-name="Group 2668" transform="translate(3.479 47.465)">
        <g id="Group_2667" data-name="Group 2667" transform="translate(0)">
          <g id="Group_2666" data-name="Group 2666">
            <path id="Path_1424" data-name="Path 1424" d="M1440.8,645.648v2.265a.148.148,0,0,1-.3,0v-2.265a.148.148,0,0,1,.3,0Z" transform="translate(-1440.5 -645.5)" fill="#e8e8e8"/>
          </g>
        </g>
      </g>
      <g id="Group_2671" data-name="Group 2671" transform="translate(10.855 47.394)">
        <g id="Group_2670" data-name="Group 2670" transform="translate(0)">
          <g id="Group_2669" data-name="Group 2669">
            <path id="Path_1425" data-name="Path 1425" d="M1365.9,644.915v2.107a.148.148,0,0,1-.3,0v-2.107a.148.148,0,0,1,.3,0Z" transform="translate(-1365.6 -644.775)" fill="#e8e8e8"/>
          </g>
        </g>
      </g>
      <g id="Group_2674" data-name="Group 2674" transform="translate(5.396 49.651)">
        <g id="Group_2673" data-name="Group 2673">
          <g id="Group_2672" data-name="Group 2672">
            <path id="Path_1426" data-name="Path 1426" d="M1373.084,668h-5.268a.148.148,0,0,1,0-.3h5.268a.148.148,0,0,1,0,.3Z" transform="translate(-1367.675 -667.7)" fill="#e8e8e8"/>
          </g>
        </g>
      </g>
    </g>
    <g id="ground" transform="translate(0 79.692)">
      <g id="Group_2677" data-name="Group 2677" transform="translate(92.538 0.276)">
        <g id="Group_2676" data-name="Group 2676" transform="translate(0)">
          <g id="Group_2675" data-name="Group 2675">
            <path id="Path_1427" data-name="Path 1427" d="M537.16,957.9h-4.845a.148.148,0,0,1,0-.3h4.845a.148.148,0,0,1,0,.3Z" transform="translate(-532.175 -957.6)" fill="#161616"/>
          </g>
        </g>
      </g>
      <g id="Group_2680" data-name="Group 2680" transform="translate(1.615)">
        <g id="Group_2679" data-name="Group 2679">
          <g id="Group_2678" data-name="Group 2678">
            <path id="Path_1428" data-name="Path 1428" d="M512.9,955.391H404.863a.3.3,0,0,1,0-.591H512.9a.3.3,0,0,1,0,.591Z" transform="translate(-404.575 -954.8)" fill="#161616"/>
          </g>
        </g>
      </g>
      <g id="Group_2683" data-name="Group 2683" transform="translate(0 1.989)">
        <g id="Group_2682" data-name="Group 2682">
          <g id="Group_2681" data-name="Group 2681">
            <path id="Path_1429" data-name="Path 1429" d="M1330.831,975.591h-20.493a.3.3,0,0,1,0-.591h20.493a.3.3,0,0,1,0,.591Z" transform="translate(-1310.05 -975)" fill="#161616"/>
          </g>
        </g>
      </g>
      <g id="Group_2686" data-name="Group 2686" transform="translate(67.8 9.434)">
        <g id="Group_2685" data-name="Group 2685">
          <g id="Group_2684" data-name="Group 2684">
            <path id="Path_1430" data-name="Path 1430" d="M619.537,1051.191H596.563a.3.3,0,0,1,0-.591h22.974a.3.3,0,0,1,0,.591Z" transform="translate(-596.275 -1050.6)" fill="#161616"/>
          </g>
        </g>
      </g>
      <g id="Group_2689" data-name="Group 2689" transform="translate(116.92 6.549)">
        <g id="Group_2688" data-name="Group 2688" transform="translate(0)">
          <g id="Group_2687" data-name="Group 2687">
            <path id="Path_1431" data-name="Path 1431" d="M190.7,1021.891H175.363a.3.3,0,0,1,0-.591H190.7a.3.3,0,0,1,0,.591Z" transform="translate(-175.075 -1021.3)" fill="#161616"/>
          </g>
        </g>
      </g>
      <g id="Group_2692" data-name="Group 2692" transform="translate(96.88 3.86)">
        <g id="Group_2691" data-name="Group 2691" transform="translate(0)">
          <g id="Group_2690" data-name="Group 2690">
            <path id="Path_1432" data-name="Path 1432" d="M380.673,994.591h-16.81a.3.3,0,0,1,0-.591h16.81a.3.3,0,0,1,0,.591Z" transform="translate(-363.575 -994)" fill="#161616"/>
          </g>
        </g>
      </g>
    </g>
    <g id="rope" transform="translate(62.566 38.793)">
      <g id="Group_2695" data-name="Group 2695" transform="translate(0)">
        <g id="Group_2694" data-name="Group 2694">
          <g id="Group_2693" data-name="Group 2693">
            <path id="Path_1433" data-name="Path 1433" d="M382.7,576.849a234.7,234.7,0,0,1-21.842-13.856c-7.071-4.963-14.013-10.123-21.074-15.106-3.959-2.787-7.957-5.524-12.034-8.134-.158-.1-.01-.354.148-.256,7.277,4.658,14.289,9.71,21.29,14.771s13.984,10.143,21.222,14.84c4.057,2.629,8.183,5.15,12.428,7.474a.15.15,0,0,1-.138.266Z" transform="translate(-327.684 -539.475)" fill="#161616"/>
          </g>
        </g>
      </g>
    </g>
    <g id="dog" transform="translate(103.305 73.388)">
      <g id="Group_2696" data-name="Group 2696" transform="translate(0.238 0.205)">
        <path id="Path_1434" data-name="Path 1434" d="M259.509,893.414a4.62,4.62,0,0,1,1.192.975,3.778,3.778,0,0,1,.7.916,4.97,4.97,0,0,1,.148,2.393c-.059.906-.118.817-.079,1.024.217,1.123,1.448,1.329,1.418,2.088a1.268,1.268,0,0,1-.9.995,1.615,1.615,0,0,1-1.812-.7,3.628,3.628,0,0,1,1.6,1.5c.158.3.364.679.227.867-.236.325-1.31-.059-2.265-.473a.835.835,0,0,1-.1.7c-.384.483-1.517.1-1.812,0a10.9,10.9,0,0,1-1.891-1.123c-.788-.492-1.064-.66-1.517-.995-.384-.286-.679-.532-.9-.719a11.513,11.513,0,0,1-6.539-1.792c-.069.286-.128.581-.2.867.857.532,1.517.926,1.97,1.192.286.167.581.345.551.473-.049.187-.719.177-1.142.177a7.691,7.691,0,0,1-1.142-.1.55.55,0,0,1-.276.345.625.625,0,0,1-.62-.049c0-.02.148-.02.148-.029s-1.073-.02-1.812-.079a11.6,11.6,0,0,1-2.639-.522,7.284,7.284,0,0,1-.227-1.763,4.013,4.013,0,0,0-.03-.768,10.126,10.126,0,0,0-.374-1.241,2.466,2.466,0,0,1,.1-1.32,2.013,2.013,0,0,1-1.29-1.989c.02-.187.039-.433.2-.522.256-.138.7.217.916.473a1.8,1.8,0,0,1,.394,1.241,4.28,4.28,0,0,1,1.713-1.566,3.8,3.8,0,0,1,1.123-.345,11.541,11.541,0,0,1,5.4.817c1.792.65,2.649,1.211,3.752,1.024a2.644,2.644,0,0,0,1.566-.748c.2-.217.217-.345.473-.65a3.543,3.543,0,0,1,1.142-.916A3.381,3.381,0,0,1,259.509,893.414Z" transform="translate(-239.995 -892.87)" fill="#fff"/>
      </g>
      <g id="Group_2699" data-name="Group 2699" transform="translate(14.446 2.452)">
        <g id="Group_2698" data-name="Group 2698" transform="translate(0)">
          <g id="Group_2697" data-name="Group 2697">
            <path id="Path_1435" data-name="Path 1435" d="M315.855,915.767a5,5,0,0,0,.936,1.418c.128.138-.079.345-.207.207a4.94,4.94,0,0,1-.975-1.477c-.089-.177.167-.325.246-.148Z" transform="translate(-315.591 -915.687)" fill="#ec615b"/>
          </g>
        </g>
      </g>
      <g id="Group_2702" data-name="Group 2702" transform="translate(14.279 2.551)">
        <g id="Group_2701" data-name="Group 2701" transform="translate(0)">
          <g id="Group_2700" data-name="Group 2700">
            <path id="Path_1436" data-name="Path 1436" d="M316.285,916.785a4.521,4.521,0,0,0,1.034,1.654c.128.138-.079.345-.207.207A4.952,4.952,0,0,1,316,916.864c-.059-.177.227-.256.286-.079Z" transform="translate(-315.991 -916.685)" fill="#0fbf89"/>
          </g>
        </g>
      </g>
      <g id="Group_2705" data-name="Group 2705" transform="translate(15.279 2.315)">
        <g id="Group_2704" data-name="Group 2704" transform="translate(0)">
          <g id="Group_2703" data-name="Group 2703">
            <path id="Path_1437" data-name="Path 1437" d="M281.727,915.04a11,11,0,0,1-.945,3.535c-.414.788-1.28,1.536-2.206,1.054a2.594,2.594,0,0,1-.985-2.59,4.092,4.092,0,0,1,1.162-2.708c.138-.128.345.079.207.207a3.739,3.739,0,0,0-1.054,2.275c-.1.876-.069,2.147.857,2.58,1.123.512,1.822-.965,2.1-1.792a14.143,14.143,0,0,0,.561-2.639c.049-.187.335-.108.305.079Z" transform="translate(-277.578 -914.291)" fill="#161616"/>
          </g>
        </g>
      </g>
      <g id="Group_2708" data-name="Group 2708" transform="translate(19.583 0.566)">
        <g id="Group_2707" data-name="Group 2707" transform="translate(0)">
          <g id="Group_2706" data-name="Group 2706">
            <path id="Path_1438" data-name="Path 1438" d="M236.453,896.56a4.657,4.657,0,0,1,2.275,3.2,2.989,2.989,0,0,1-.069.985c-.118.463-.374.847-.1,1.32a25.418,25.418,0,0,0,1.566,2.147c.108.158-.148.305-.256.148-.483-.66-.985-1.31-1.448-1.979a1.514,1.514,0,0,1-.1-1.566c.532-1.7-.739-3.112-2.029-4.008-.148-.1,0-.354.158-.246Z" transform="translate(-236.234 -896.534)" fill="#161616"/>
          </g>
        </g>
      </g>
      <g id="Group_2711" data-name="Group 2711" transform="translate(18.531 5.978)">
        <g id="Group_2710" data-name="Group 2710" transform="translate(0)">
          <g id="Group_2709" data-name="Group 2709">
            <path id="Path_1439" data-name="Path 1439" d="M240.892,954.008a2.681,2.681,0,0,1-1.448.837,2.271,2.271,0,0,1-1.457-.532,5.955,5.955,0,0,1-2.038-2.649c-.069-.177.217-.256.286-.079a5.716,5.716,0,0,0,1.576,2.216,2.749,2.749,0,0,0,1.438.748,2.065,2.065,0,0,0,1.438-.758c.138-.118.345.089.207.217Z" transform="translate(-235.938 -951.485)" fill="#161616"/>
          </g>
        </g>
      </g>
      <g id="Group_2714" data-name="Group 2714" transform="translate(20.825 4.793)">
        <g id="Group_2713" data-name="Group 2713" transform="translate(0)">
          <g id="Group_2712" data-name="Group 2712">
            <path id="Path_1440" data-name="Path 1440" d="M256.177,939.674a3.7,3.7,0,0,1-.522.758c-.128.148-.335-.069-.207-.207a3.637,3.637,0,0,0,.473-.7.148.148,0,0,1,.256.148Z" transform="translate(-255.408 -939.452)" fill="#161616"/>
          </g>
        </g>
      </g>
      <g id="Group_2717" data-name="Group 2717" transform="translate(22.502 7.726)">
        <g id="Group_2716" data-name="Group 2716" transform="translate(0)">
          <g id="Group_2715" data-name="Group 2715">
            <path id="Path_1441" data-name="Path 1441" d="M241.121,969.491a1.023,1.023,0,0,0-.227.8c.02.187-.276.187-.3,0a1.291,1.291,0,0,1,.315-1c.128-.138.335.069.207.207Z" transform="translate(-240.591 -969.238)" fill="#161616"/>
          </g>
        </g>
      </g>
      <g id="Group_2720" data-name="Group 2720" transform="translate(22.692 7.973)">
        <g id="Group_2719" data-name="Group 2719" transform="translate(0)">
          <g id="Group_2718" data-name="Group 2718">
            <path id="Path_1442" data-name="Path 1442" d="M238.5,972.184c-.118.089-.227.187-.345.276s-.335-.03-.236-.177a.728.728,0,0,0,.128-.4c.089.029.187.049.276.079a.818.818,0,0,0-.079.118c-.108.158-.364.01-.256-.148a.818.818,0,0,0,.079-.118.151.151,0,0,1,.276.079,1.007,1.007,0,0,1-.167.551l-.236-.177c.118-.089.227-.187.345-.276a.152.152,0,0,1,.207,0,.132.132,0,0,1,.01.2Z" transform="translate(-237.897 -971.746)" fill="#161616"/>
          </g>
        </g>
      </g>
      <g id="Group_2723" data-name="Group 2723" transform="translate(1.275 0.077)">
        <g id="Group_2722" data-name="Group 2722">
          <g id="Group_2721" data-name="Group 2721">
            <path id="Path_1443" data-name="Path 1443" d="M312.773,891.861a3.673,3.673,0,0,0-1.93,1.517c-.492.62-.827.955-1.654.906a22.311,22.311,0,0,1-4.973-1.251c-1.674-.5-3.791-1.054-5.446-.207a3.5,3.5,0,0,0-1.5,4.687c.089.167-.167.315-.256.148a3.812,3.812,0,0,1,3.082-5.515c3.072-.325,5.849,1.5,8.843,1.812a1.441,1.441,0,0,0,1.428-.443c.236-.286.453-.591.7-.867a3.316,3.316,0,0,1,1.645-1.083c.167-.039.246.246.059.3Z" transform="translate(-296.6 -891.562)" fill="#161616"/>
          </g>
        </g>
      </g>
      <g id="Group_2726" data-name="Group 2726" transform="translate(4.514 3.158)">
        <g id="Group_2725" data-name="Group 2725" transform="translate(0)">
          <g id="Group_2724" data-name="Group 2724">
            <path id="Path_1444" data-name="Path 1444" d="M412.816,922.886a2.888,2.888,0,0,1,1.27,2.432,2.543,2.543,0,0,1-1.408,2.1c-.167.089-.315-.167-.148-.256a2.237,2.237,0,0,0,1.26-2.009,2.66,2.66,0,0,0-1.182-2.058c-.148-.108.059-.325.207-.207Z" transform="translate(-412.457 -922.852)" fill="#161616"/>
          </g>
        </g>
      </g>
      <g id="Group_2729" data-name="Group 2729" transform="translate(1.632 5.789)">
        <g id="Group_2728" data-name="Group 2728">
          <g id="Group_2727" data-name="Group 2727">
            <path id="Path_1445" data-name="Path 1445" d="M402.025,951.429a14.01,14.01,0,0,1,1.625.6c.3.138,1.024.335,1.123.7.207.768-1.7.463-1.989.443-.571-.039-1.142-.1-1.713-.187a5.369,5.369,0,0,1-1.635-.335c-.345-.177-.315-.561-.335-.906-.049-.68-.108-1.349-.158-2.029-.02-.187.276-.187.3,0,.03.433.069.857.1,1.29.03.394-.059,1.182.325,1.408a3.275,3.275,0,0,0,1.034.207c.483.079.955.148,1.448.2.4.039.808.069,1.211.079.217.01.433.029.65.02.187-.01.5.059.374-.207-.059-.108-.433-.236-.551-.286-.227-.108-.463-.217-.7-.315-.384-.158-.778-.286-1.172-.4a.142.142,0,1,1,.069-.276Z" transform="translate(-398.941 -949.575)" fill="#161616"/>
          </g>
        </g>
      </g>
      <g id="Group_2732" data-name="Group 2732" transform="translate(13.606 5.483)">
        <g id="Group_2731" data-name="Group 2731" transform="translate(0)">
          <g id="Group_2730" data-name="Group 2730">
            <path id="Path_1446" data-name="Path 1446" d="M271.424,946.6c-.069,1.644,1.28,2.747,2.6,3.456.561.3,2.679.965,1.93,1.97-.66.886-2.285-.03-3-.414a20.749,20.749,0,0,1-3.407-2.452c-.148-.118.059-.325.207-.207a22.966,22.966,0,0,0,2.915,2.157,8.748,8.748,0,0,0,1.684.788,1.573,1.573,0,0,0,1.113.118c.689-.335.118-.837-.276-1.054-1.773-.935-4.166-1.979-4.057-4.372.01-.177.305-.177.3.01Z" transform="translate(-269.492 -946.462)" fill="#161616"/>
          </g>
        </g>
      </g>
      <g id="Group_2735" data-name="Group 2735" transform="translate(20.683 3.952)">
        <g id="Group_2734" data-name="Group 2734" transform="translate(0)">
          <g id="Group_2733" data-name="Group 2733">
            <path id="Path_1447" data-name="Path 1447" d="M256.384,931.985a1.042,1.042,0,0,0-.532-.8c-.167-.089-.02-.345.148-.256a1.308,1.308,0,0,1,.67.975c.03.187-.256.266-.286.079Z" transform="translate(-255.778 -930.913)" fill="#161616"/>
          </g>
        </g>
      </g>
      <g id="Group_2738" data-name="Group 2738" transform="translate(19.789 7.767)">
        <g id="Group_2737" data-name="Group 2737" transform="translate(0)">
          <g id="Group_2736" data-name="Group 2736">
            <path id="Path_1448" data-name="Path 1448" d="M246.452,969.726a2.425,2.425,0,0,0,.709.67,10.253,10.253,0,0,1,.768.7c.3.305.955.837.985,1.3.069,1.142-2.058.158-2.462.03-.177-.059-.1-.345.079-.286.443.148.876.305,1.329.433a1.422,1.422,0,0,0,.394.089c.246-.286.256-.532.049-.719a2.951,2.951,0,0,0-.4-.453,10.061,10.061,0,0,0-.945-.886,2.517,2.517,0,0,1-.748-.729c-.1-.167.158-.315.246-.148Z" transform="translate(-246.183 -969.652)" fill="#161616"/>
          </g>
        </g>
      </g>
      <g id="Group_2741" data-name="Group 2741" transform="translate(5.879 5.559)">
        <g id="Group_2740" data-name="Group 2740">
          <g id="Group_2739" data-name="Group 2739">
            <path id="Path_1449" data-name="Path 1449" d="M342.283,949.968a13.287,13.287,0,0,1-7.74-2.452c-.158-.108-.01-.364.148-.256a13.01,13.01,0,0,0,7.592,2.413c.187-.01.187.286,0,.3Z" transform="translate(-334.475 -947.234)" fill="#161616"/>
          </g>
        </g>
      </g>
      <g id="Group_2744" data-name="Group 2744" transform="translate(6.885 6.359)">
        <g id="Group_2743" data-name="Group 2743">
          <g id="Group_2742" data-name="Group 2742">
            <path id="Path_1450" data-name="Path 1450" d="M376.115,955.544c-.059.167-.108.325-.167.492-.089.246-.167.325.079.473.305.187.67.325.995.483s.67.305.995.483a.694.694,0,0,1,.374.335c.354.945-1.969.414-2.314.305-.177-.059-.1-.345.079-.286a3.935,3.935,0,0,0,.817.187c.177.02.67.128.847.029.473-.266-.286-.482-.443-.561-.246-.118-.492-.246-.748-.364-.276-.138-.945-.3-1.073-.6-.118-.276.2-.807.286-1.064.049-.167.335-.089.276.089Z" transform="translate(-375.528 -955.363)" fill="#161616"/>
          </g>
        </g>
      </g>
      <g id="Group_2747" data-name="Group 2747" transform="translate(0 0.915)">
        <g id="Group_2746" data-name="Group 2746">
          <g id="Group_2745" data-name="Group 2745">
            <path id="Path_1451" data-name="Path 1451" d="M457.2,901.908a1.909,1.909,0,0,0-.266-1.083,1.029,1.029,0,0,0-.374-.394c-.827-.345-.68.433-.611.709a2.681,2.681,0,0,0,1.211,1.477c.167.1.01.355-.148.256a3.058,3.058,0,0,1-1.231-1.339c-.167-.374-.335-.926-.01-1.26a.811.811,0,0,1,1.073.01,1.982,1.982,0,0,1,.64,1.635.143.143,0,0,1-.286-.01Z" transform="translate(-455.585 -900.074)" fill="#161616"/>
          </g>
        </g>
      </g>
      <g id="Group_2750" data-name="Group 2750" transform="translate(17.04 0)">
        <g id="Group_2749" data-name="Group 2749" transform="translate(0)">
          <g id="Group_2748" data-name="Group 2748">
            <path id="Path_1452" data-name="Path 1452" d="M275.28,891.711a2.637,2.637,0,0,0-2.442-.483c-.167.089-.315-.167-.148-.256a2.885,2.885,0,0,1,2.738.483c.158.1.01.354-.148.256Z" transform="translate(-272.616 -890.784)" fill="#161616"/>
          </g>
        </g>
      </g>
      <g id="Group_2751" data-name="Group 2751" transform="translate(14.292 2.335)" opacity="0.09" style="isolation: isolate">
        <path id="Path_1453" data-name="Path 1453" d="M310.142,914.5a3.373,3.373,0,0,0-1.576,1.26,2.541,2.541,0,0,0-.473,2.167,2.33,2.33,0,0,0,1.28,1.329,3.622,3.622,0,0,1-.345-1.28,4.355,4.355,0,0,1,.325-1.822A7.282,7.282,0,0,1,310.142,914.5Z" transform="translate(-308 -914.5)" fill="#6d6c6c"/>
      </g>
      <g id="Group_2752" data-name="Group 2752" transform="translate(18.748 3.241)" opacity="0.13" style="isolation: isolate">
        <path id="Path_1454" data-name="Path 1454" d="M250.54,925.876a5.99,5.99,0,0,0,1.064,2.147,6.716,6.716,0,0,0,1.7,1.625,3.928,3.928,0,0,1-1.477-.522,4.243,4.243,0,0,1-1.408-1.408,4.51,4.51,0,0,1-.522-1.231c.167-.926.325-1.851.492-2.787A5.884,5.884,0,0,0,250.54,925.876Z" transform="translate(-249.9 -923.7)" fill="#6d6c6c"/>
      </g>
      <g id="Group_2753" data-name="Group 2753" transform="translate(1.344 2.07)" opacity="0.07" style="isolation: isolate">
        <path id="Path_1455" data-name="Path 1455" d="M405.207,911.8a5.846,5.846,0,0,0-.049,2.048,6.07,6.07,0,0,0,1.408,2.984,7.079,7.079,0,0,0,3.25,2.2,32.467,32.467,0,0,1-3.742-.325c-.63-.089-1.034-.167-1.28-.492-.414-.551.079-1.142-.148-2.462-.148-.9-.414-.955-.443-1.605A3.249,3.249,0,0,1,405.207,911.8Z" transform="translate(-404.2 -911.8)" fill="#6d6c6c"/>
      </g>
      <g id="Group_2754" data-name="Group 2754" transform="translate(4.755 5.851)" opacity="0.14" style="isolation: isolate">
        <path id="Path_1456" data-name="Path 1456" d="M381.3,950.919a1.018,1.018,0,0,0-.177.817c.03.079.108.256.571.492.788.414,1.231.246,1.605.67.03.03.286.325.2.522s-.483.167-.817.148a4.5,4.5,0,0,1-1.329-.3,8.2,8.2,0,0,0-1.162-.64,8.52,8.52,0,0,0-1.379-.473,1.935,1.935,0,0,1,.276-.522c.266-.354.512-.4.739-.719a1.572,1.572,0,0,0,.276-.719C380.505,950.446,380.909,950.683,381.3,950.919Z" transform="translate(-378.812 -950.2)" fill="#6d6c6c"/>
      </g>
      <g id="Group_2755" data-name="Group 2755" transform="translate(0.266 1.154)" opacity="0.25" style="isolation: isolate">
        <path id="Path_1457" data-name="Path 1457" d="M461.293,902.5a3.7,3.7,0,0,0,.246,1.064c.3.758.739,1.162.67,1.231s-.492-.207-.768-.591a1.692,1.692,0,0,1-.3-.739A1.66,1.66,0,0,1,461.293,902.5Z" transform="translate(-461.127 -902.5)" fill="#6d6c6c"/>
      </g>
    </g>
    <g id="guy" transform="translate(29.378 0)">
      <g id="leg_back" data-name="leg back" transform="translate(0 40.77)">
        <g id="Group_2756" data-name="Group 2756" transform="translate(0 28.602)">
          <path id="Path_1458" data-name="Path 1458" d="M1109.3,854.057q-3.338,3.131-6.667,6.273,3.9,7.932,3.132,8.4-.945.591-9.168-10.448,5.672-4.136,11.344-8.282C1108.4,851.359,1108.851,852.708,1109.3,854.057Z" transform="translate(-1096.6 -850)" fill="#191919"/>
        </g>
        <g id="Group_2757" data-name="Group 2757" transform="translate(6.643)">
          <path id="Path_1459" data-name="Path 1459" d="M1010.8,561.726c.827,1.26.354,2.413-.118,6.765-.483,4.412-.079,3.949-.473,7a45.238,45.238,0,0,1-3.328,11.817,32.268,32.268,0,0,1-4.924,7.957,3.107,3.107,0,0,1-.591.532,2.378,2.378,0,0,1-1.664.532,2.178,2.178,0,0,1-1.605-1.369c-.266-.68.049-.995-.3-1.546-.256-.394-.483-.335-1.132-.827a3.567,3.567,0,0,1-1.31-1.546,2.907,2.907,0,0,1,0-1.841,3.3,3.3,0,0,1,.709-1.192,33.025,33.025,0,0,0,2.728-4.924,40.962,40.962,0,0,0,3.565-13.826c.512-5.712-.374-7.73,1.251-8.961C1005.536,558.841,1009.435,559.639,1010.8,561.726Z" transform="translate(-995.211 -559.556)" fill="#fff"/>
        </g>
        <g id="Group_2760" data-name="Group 2760" transform="translate(7.478 4.111)">
          <g id="Group_2759" data-name="Group 2759">
            <g id="Group_2758" data-name="Group 2758">
              <path id="Path_1460" data-name="Path 1460" d="M1087.733,601.448a42.289,42.289,0,0,1-1.073,10.192,57.151,57.151,0,0,1-2.925,9.6,18.514,18.514,0,0,1-2.511,4.422c-.118.148-.325-.059-.207-.207,1.969-2.482,2.994-5.544,3.919-8.528a56.3,56.3,0,0,0,2.216-9.867,38.209,38.209,0,0,0,.276-5.613.153.153,0,0,1,.305,0Z" transform="translate(-1080.982 -601.3)" fill="#161616"/>
            </g>
          </g>
        </g>
        <g id="Group_2763" data-name="Group 2763" transform="translate(8.374 8.463)">
          <g id="Group_2762" data-name="Group 2762">
            <g id="Group_2761" data-name="Group 2761">
              <path id="Path_1461" data-name="Path 1461" d="M1014.022,645.648a50.732,50.732,0,0,1-2.363,15.589,38.136,38.136,0,0,1-3.132,7.11,32.952,32.952,0,0,1-2.157,3.319,5.029,5.029,0,0,1-2.58,2.176,2.061,2.061,0,0,1-2.521-1.192c-.423-1.073-.138-2.472-1.024-3.338a.146.146,0,1,1,.207-.207,4.081,4.081,0,0,1,.857,2.491,3.3,3.3,0,0,0,.384,1.26,1.737,1.737,0,0,0,1.871.729c1.29-.246,2.127-1.477,2.836-2.472s1.349-2.009,1.95-3.063a41.861,41.861,0,0,0,4.717-13.993,54.606,54.606,0,0,0,.66-8.41.148.148,0,0,1,.3,0Z" transform="translate(-1000.2 -645.5)" fill="#161616"/>
            </g>
          </g>
        </g>
        <g id="Group_2766" data-name="Group 2766" transform="translate(6.543 27.937)">
          <g id="Group_2765" data-name="Group 2765" transform="translate(0)">
            <g id="Group_2764" data-name="Group 2764">
              <path id="Path_1462" data-name="Path 1462" d="M1131.248,843.512a3.61,3.61,0,0,0-.995,3.427c.217.66.709.906,1.251,1.251a4.353,4.353,0,0,1,1.192,1.172c.108.158-.148.305-.256.148a4.249,4.249,0,0,0-.975-.995c-.246-.167-.522-.3-.768-.473a2.164,2.164,0,0,1-.817-1.408,4.155,4.155,0,0,1,1.162-3.338c.118-.138.325.079.207.217Z" transform="translate(-1129.834 -843.252)" fill="#161616"/>
            </g>
          </g>
        </g>
        <g id="Group_2767" data-name="Group 2767" transform="translate(8.001 8.385)" opacity="0.16" style="isolation: isolate">
          <path id="Path_1463" data-name="Path 1463" d="M1016.059,644.7c.02,1.3-.02,2.659-.118,4.087a50.537,50.537,0,0,1-2.659,12.959,39.891,39.891,0,0,1-3.6,7.514c-.226.335-.66.9-1.536,2.009-.906,1.162-1.172,1.448-1.654,1.654a2.425,2.425,0,0,1-2.127-.059,3.76,3.76,0,0,1-.768-1.3,5.9,5.9,0,0,1-.65-1.773.868.868,0,0,1-.886-.591c-.059-.374.374-.689.414-.709.591-.4,1.408-.069,1.772,0,1.8.325,4.057-3.969,4.737-5.268,2.807-5.446,4.215-8.164,5.209-11.177A65.011,65.011,0,0,0,1016.059,644.7Z" transform="translate(-1002.05 -644.7)" fill="#6d6c6c"/>
        </g>
        <g id="Group_2768" data-name="Group 2768" transform="translate(9.094 19.866)" opacity="0.13" style="isolation: isolate">
          <path id="Path_1464" data-name="Path 1464" d="M1026.452,761.288c-.089-.029-.246.414-1.773,3.486-2.974,5.977-3.683,6.844-4.441,7.514a10.171,10.171,0,0,1-5.328,2.363c-.03.177-.384,2.127.768,3.013a2.066,2.066,0,0,0,1.241.414c1.782.059,3.634-2.373,5.268-5.268C1025.369,767.177,1026.777,761.4,1026.452,761.288Z" transform="translate(-1014.836 -761.287)" fill="#6d6c6c"/>
        </g>
      </g>
      <g id="leg_front" data-name="leg front" transform="translate(12.839 40.155)">
        <g id="Group_2769" data-name="Group 2769" transform="translate(17.285 33.885)">
          <path id="Path_1465" data-name="Path 1465" d="M749.594,897.4q1.979,4.136,3.949,8.262c5.82-.867,8.814-1,8.961-.423q.281,1.078-12.743,5.544-2.216-6.662-4.422-13.334C746.748,897.439,748.166,897.42,749.594,897.4Z" transform="translate(-745.34 -897.4)" fill="#191919"/>
        </g>
        <g id="Group_2770" data-name="Group 2770" transform="translate(0.046 0.177)">
          <path id="Path_1466" data-name="Path 1466" d="M852.417,556.811c1.014.867,1.31,1.792,2.127,3.683,1.26,2.905,2.688,5.741,3.969,8.646,2.551,5.79,3.378,7.071,5.308,11.62a39.213,39.213,0,0,0,1.7,3.9,14.929,14.929,0,0,1,1.7,3.683,3.845,3.845,0,0,1,.069,2.413,2.325,2.325,0,0,1-1.2,1.487,2.645,2.645,0,0,1-1.625-.069,5.106,5.106,0,0,1-1.132-.423,2.54,2.54,0,0,1-.995.778,3.073,3.073,0,0,1-2.265,0,3.892,3.892,0,0,1-1.91-1.349,4.22,4.22,0,0,1-.709-1.625c-.354-1.467-1.083-2.816-1.556-4.254-.256-.788-.748-1.989-4.037-6.795-3.545-5.18-3.722-4.875-5.456-7.721-1.881-3.092-2.935-4.786-3.4-7.366-.374-2.088-.926-5.15.906-6.962C846,554.349,850.2,554.9,852.417,556.811Z" transform="translate(-842.633 -555.108)" fill="#fff"/>
        </g>
        <g id="Group_2773" data-name="Group 2773" transform="translate(0 3.645)">
          <g id="Group_2772" data-name="Group 2772">
            <g id="Group_2771" data-name="Group 2771">
              <path id="Path_1467" data-name="Path 1467" d="M886.956,590.47c-.62,5.672,2.452,10.823,5.672,15.214,1.635,2.226,3.358,4.382,4.845,6.7a38.235,38.235,0,0,1,3.7,7.6c.492,1.349.807,3.082,2.137,3.89a3.247,3.247,0,0,0,3.6-.167c.148-.118.3.138.148.256a3.51,3.51,0,0,1-5.219-1.339c-.62-1.27-.985-2.688-1.507-4a37.982,37.982,0,0,0-2.029-4.294c-2.9-5.15-7.248-9.355-9.808-14.712a17.025,17.025,0,0,1-1.842-9.158c.02-.177.315-.187.3.01Z" transform="translate(-886.579 -590.325)" fill="#161616"/>
            </g>
          </g>
        </g>
        <g id="Group_2776" data-name="Group 2776" transform="translate(9.73 0.913)">
          <g id="Group_2775" data-name="Group 2775">
            <g id="Group_2774" data-name="Group 2774">
              <path id="Path_1468" data-name="Path 1468" d="M842.334,562.665q4.047,8.848,8.1,17.706,2.038,4.476,4.087,8.942c.64,1.408,1.31,2.807,1.93,4.225a6.671,6.671,0,0,1,.778,3.594,2.291,2.291,0,0,1-1.871,2.127,6.322,6.322,0,0,1-2.314-.551c-.857-.276-1.723-.561-2.58-.837-.177-.059-.1-.345.079-.286.68.217,1.349.433,2.029.66.709.227,1.418.512,2.147.67,1.428.3,2.216-.926,2.265-2.206a9.367,9.367,0,0,0-1.231-4.037c-.63-1.369-1.251-2.738-1.881-4.116q-3.767-8.228-7.524-16.455-2.127-4.653-4.254-9.3c-.1-.167.158-.315.236-.138Z" transform="translate(-842.075 -562.584)" fill="#161616"/>
            </g>
          </g>
        </g>
        <g id="Group_2779" data-name="Group 2779" transform="translate(20.209 36.817)">
          <g id="Group_2778" data-name="Group 2778" transform="translate(0)">
            <g id="Group_2777" data-name="Group 2777">
              <path id="Path_1469" data-name="Path 1469" d="M884.449,927.453a2.927,2.927,0,0,0-.286.2.146.146,0,0,1-.207-.207c.108-.089.227-.167.345-.246.158-.1.305.158.148.256Z" transform="translate(-883.916 -927.175)" fill="#161616"/>
            </g>
          </g>
        </g>
        <g id="Group_2780" data-name="Group 2780" transform="translate(0.105)" opacity="0.09" style="isolation: isolate">
          <path id="Path_1470" data-name="Path 1470" d="M881.725,553.436c1.192.591.827,2.994,1,5.623.128,1.94.453,2.531,4.973,12.841,3.8,8.676,4.254,9.818,5.741,12.073a43.94,43.94,0,0,0,5.032,6.273l-.945-.059a3.393,3.393,0,0,1-1,.65,3.329,3.329,0,0,1-2.3.177,3.69,3.69,0,0,1-1.95-1.95,7.372,7.372,0,0,1-.827-2.422c-.217-1.152-.9-2.462-2.245-5.091-1.822-3.535-3.594-4.983-6.864-9.818-2.679-3.978-4.156-6.214-4.855-9.582a18.74,18.74,0,0,1-.177-6.509C878.751,554.273,880.6,552.874,881.725,553.436Z" transform="translate(-877.1 -553.309)" fill="#6d6c6c"/>
        </g>
        <g id="Group_2781" data-name="Group 2781" transform="translate(0.442 7.048)" opacity="0.16" style="isolation: isolate">
          <path id="Path_1471" data-name="Path 1471" d="M892.873,624.884c.167-.069.995,1.92,2.659,4.855,2.294,4.018,3.092,4.392,6.155,8.991,3.092,4.648,3.043,5.426,6.273,10.172,1.674,2.462,3.151,4.412,4.146,5.682.286.463.236.679.177.768-.246.423-1.487.138-2.068,0a4.438,4.438,0,0,1-1.536-.532c-.857-.561-1.044-1.438-1.654-3.25-.325-.975-.739-1.92-1.064-2.9a22.547,22.547,0,0,0-3.368-5.918c-5.672-8.065-5.652-7.612-6.627-9.4C893.631,629.1,892.637,624.983,892.873,624.884Z" transform="translate(-892.839 -624.882)" fill="#6d6c6c"/>
        </g>
      </g>
      <g id="torso" transform="translate(7.368 15.272)">
        <g id="Group_2782" data-name="Group 2782" transform="translate(0.029)">
          <path id="Path_1472" data-name="Path 1472" d="M992.08,302.133c1.635,1.211,2.235,2.826,2.915,4.618,1.26,3.328,1.054,5.978.916,10.173-.089,2.669-.167,6.539-.089,11.364a30.172,30.172,0,0,1-11.335.62c-.807-3.713-1.654-6.706-2.285-8.784-2.107-6.952-4.244-12.044-2.294-16.12a3.513,3.513,0,0,1,.305-.512C982.459,300.321,988.752,299.661,992.08,302.133Z" transform="translate(-979.142 -300.629)" fill="#0fbf89"/>
        </g>
        <g id="Group_2783" data-name="Group 2783" transform="translate(0 0.224)" opacity="0.15" style="isolation: isolate">
          <path id="Path_1473" data-name="Path 1473" d="M1020.857,302.9c.128.719.345,1.851.67,3.21,1.842,7.681,3.693,8.1,4.018,12.359.335,4.284-1.4,5.83.049,9.05a9.544,9.544,0,0,0,2.777,3.5c-1.369.1-2.836.158-4.4.148-1.231-.01-2.393-.059-3.5-.148-.7-3.043-1.369-5.475-1.871-7.179-.246-.837-.542-1.832-1.1-3.683-.916-3.033-1.152-3.781-1.536-5.219a22.734,22.734,0,0,1-.906-4.313c-.1-1.625-.207-3.476.955-5.032a6.659,6.659,0,0,1,2.295-1.822A8.065,8.065,0,0,1,1020.857,302.9Z" transform="translate(-1015 -302.9)" fill="#6d6c6c"/>
        </g>
        <g id="Group_2784" data-name="Group 2784" transform="translate(1.711 13.871)" opacity="0.17" style="isolation: isolate">
          <path id="Path_1474" data-name="Path 1474" d="M1055.83,441.485c.207-.079,1.261,2.718,3.112,6.509a92.481,92.481,0,0,0,4.5,8.144c-1.29-.1-2.59-.187-3.88-.286-.335-1.31-.847-3.269-1.487-5.653C1056.5,444.331,1055.623,441.554,1055.83,441.485Z" transform="translate(-1055.8 -441.484)" fill="#6d6c6c"/>
        </g>
      </g>
      <g id="hand_front" data-name="hand front" transform="translate(7.281 17.494)">
        <g id="Group_2785" data-name="Group 2785" transform="translate(0.124 0.198)">
          <path id="Path_1475" data-name="Path 1475" d="M881.91,325.2a8.57,8.57,0,0,1,1.32.62,10.462,10.462,0,0,1,3.476,3.437s2.058,2.994,5.229,7.011a47.765,47.765,0,0,0,3.181,3.673c2.511,2.619,3.624,3.161,4.106,3.368a7.16,7.16,0,0,0,3.644.886c.916-.069,1.487-.354,2.117.03a2.256,2.256,0,0,1,1.024,1.9,4.523,4.523,0,0,0-.069.512,4.291,4.291,0,0,0,0,.65c.03.532.089.483.069.679-.059.423-.355.64-.266.778.059.1.217.01.335.138a.518.518,0,0,1,.069.443.877.877,0,0,1-.433.542c-.423.276-.709.128-1.782.167-.758.03-.985.118-1.359-.069a1.754,1.754,0,0,1-.561-.473c-.847-.945-.748-1.576-1.487-2.176a2.715,2.715,0,0,0-.7-.4,6.461,6.461,0,0,0-1.418-.345,7.854,7.854,0,0,1-1.418-.512,25.407,25.407,0,0,1-2.383-1.123,34.981,34.981,0,0,1-4.362-2.856,47.779,47.779,0,0,1-5.327-4.835,30.134,30.134,0,0,1-3.969-4.727,8.076,8.076,0,0,1-1.359-3.338,3.692,3.692,0,0,1,.2-2.344A3.277,3.277,0,0,1,881.91,325.2Z" transform="translate(-879.487 -325.2)" fill="#fff"/>
        </g>
        <g id="Group_2788" data-name="Group 2788" transform="translate(2.656 0.101)">
          <g id="Group_2787" data-name="Group 2787">
            <g id="Group_2786" data-name="Group 2786">
              <path id="Path_1476" data-name="Path 1476" d="M885.361,324.227c1.861.581,3.279,2.265,4.441,3.742,1.32,1.684,2.511,3.457,3.791,5.16a67.433,67.433,0,0,0,4.333,5.278,16.7,16.7,0,0,0,5.052,4.038,7.455,7.455,0,0,0,3.683.709c.719-.059,1.635-.236,2.078.492.1.158-.158.315-.256.148-.266-.443-.817-.433-1.27-.394a13.494,13.494,0,0,1-1.408.069,8.189,8.189,0,0,1-2.728-.65,14.854,14.854,0,0,1-4.756-3.545,93.759,93.759,0,0,1-7.937-10.015,25.537,25.537,0,0,0-2.275-2.767,7.124,7.124,0,0,0-2.856-1.979c-.148-.059-.069-.345.108-.286Z" transform="translate(-885.175 -324.219)" fill="#161616"/>
            </g>
          </g>
        </g>
        <g id="Group_2791" data-name="Group 2791" transform="translate(0)">
          <g id="Group_2790" data-name="Group 2790">
            <g id="Group_2789" data-name="Group 2789">
              <path id="Path_1477" data-name="Path 1477" d="M881.621,323.489c-1.645-.227-2.56,1.517-2.55,2.925a8.307,8.307,0,0,0,1.29,3.969,30.193,30.193,0,0,0,4.943,5.968c3.565,3.575,7.72,6.815,12.634,8.262a6.733,6.733,0,0,1,1.861.591,5.27,5.27,0,0,1,1.1,1.467,11.75,11.75,0,0,0,.827,1.024,1.328,1.328,0,0,0,1.26.414l1.192-.089c.4-.03.975,0,1.172-.433.079-.177.335-.02.256.148-.207.463-.7.522-1.152.561-.364.03-.729.059-1.093.079a4.219,4.219,0,0,1-1.113.039c-.591-.118-1.034-.857-1.379-1.29-.414-.532-.758-1.408-1.359-1.743a4.918,4.918,0,0,0-1.123-.335c-.364-.1-.719-.2-1.073-.315-.64-.207-1.28-.453-1.9-.719a25.644,25.644,0,0,1-3.732-2,40.026,40.026,0,0,1-6.549-5.4,26.951,26.951,0,0,1-5.446-6.815,6.572,6.572,0,0,1-.788-4.54,2.649,2.649,0,0,1,2.777-2.048c.207.02.128.305-.059.276Z" transform="translate(-878.749 -323.193)" fill="#161616"/>
            </g>
          </g>
        </g>
        <g id="Group_2794" data-name="Group 2794" transform="translate(23 19.695)">
          <g id="Group_2793" data-name="Group 2793" transform="translate(0)">
            <g id="Group_2792" data-name="Group 2792">
              <path id="Path_1478" data-name="Path 1478" d="M882.807,524.551c-.089-.6-1.615-.542-2.019-.581a2.5,2.5,0,0,1-1.477-.532c-.148-.128.069-.335.207-.207a4.059,4.059,0,0,0,2.265.522c.4.059,1.231.207,1.3.709.039.2-.246.276-.276.089Z" transform="translate(-879.262 -523.191)" fill="#161616"/>
            </g>
          </g>
        </g>
        <g id="Group_2797" data-name="Group 2797" transform="translate(24.164 20.873)">
          <g id="Group_2796" data-name="Group 2796" transform="translate(0)">
            <g id="Group_2795" data-name="Group 2795">
              <path id="Path_1479" data-name="Path 1479" d="M881.59,535.374a2.327,2.327,0,0,1-2.57,1.251c-.187-.039-.108-.325.079-.286a2.024,2.024,0,0,0,2.245-1.113c.079-.167.335-.02.246.148Z" transform="translate(-878.913 -535.152)" fill="#161616"/>
            </g>
          </g>
        </g>
        <g id="Group_2800" data-name="Group 2800" transform="translate(24.429 21.27)">
          <g id="Group_2799" data-name="Group 2799">
            <g id="Group_2798" data-name="Group 2798">
              <path id="Path_1480" data-name="Path 1480" d="M882.045,539.285a1.219,1.219,0,0,1-.463,1.4,2.187,2.187,0,0,1-1.7.227c-.187-.03-.108-.315.079-.286a2.02,2.02,0,0,0,1.359-.118.954.954,0,0,0,.453-1.142c-.079-.177.207-.256.276-.079Z" transform="translate(-879.772 -539.185)" fill="#161616"/>
            </g>
          </g>
        </g>
        <g id="Group_2803" data-name="Group 2803" transform="translate(24.719 22.114)">
          <g id="Group_2802" data-name="Group 2802" transform="translate(0)">
            <g id="Group_2801" data-name="Group 2801">
              <path id="Path_1481" data-name="Path 1481" d="M881.133,547.826a1.158,1.158,0,0,1-.226,1.418,1.471,1.471,0,0,1-1.664.128c-.167-.079-.02-.335.148-.256a1.2,1.2,0,0,0,1.29-.069.861.861,0,0,0,.2-1.073.148.148,0,0,1,.256-.148Z" transform="translate(-879.169 -547.752)" fill="#161616"/>
            </g>
          </g>
        </g>
        <g id="Group_2806" data-name="Group 2806" transform="translate(25.933 23.532)">
          <g id="Group_2805" data-name="Group 2805" transform="translate(0)">
            <g id="Group_2804" data-name="Group 2804">
              <path id="Path_1482" data-name="Path 1482" d="M879.061,563.06a.376.376,0,0,0-.443-.571c-.177.069-.256-.217-.079-.286a.67.67,0,0,1,.768,1c-.089.158-.345.01-.246-.148Z" transform="translate(-878.439 -562.16)" fill="#161616"/>
            </g>
          </g>
        </g>
        <g id="Group_2809" data-name="Group 2809" transform="translate(24.59 19.369)">
          <g id="Group_2808" data-name="Group 2808" transform="translate(0)">
            <g id="Group_2807" data-name="Group 2807">
              <path id="Path_1483" data-name="Path 1483" d="M885.125,520.233a1.087,1.087,0,0,0-1.369.6c-.079.177-.335.02-.256-.148a1.366,1.366,0,0,1,1.7-.729c.177.059.1.345-.079.276Z" transform="translate(-883.485 -519.877)" fill="#161616"/>
            </g>
          </g>
        </g>
        <g id="Group_2812" data-name="Group 2812" transform="translate(26.058 19.518)">
          <g id="Group_2811" data-name="Group 2811" transform="translate(0)">
            <g id="Group_2810" data-name="Group 2810">
              <path id="Path_1484" data-name="Path 1484" d="M881.588,521.422a.732.732,0,0,1-.059,1.2c-.167.089-.315-.167-.148-.256a.426.426,0,0,0,.059-.689c-.157-.118-.01-.374.148-.256Z" transform="translate(-881.307 -521.391)" fill="#161616"/>
            </g>
          </g>
        </g>
        <g id="Group_2815" data-name="Group 2815" transform="translate(24.867 19.527)">
          <g id="Group_2814" data-name="Group 2814" transform="translate(0)">
            <g id="Group_2813" data-name="Group 2813">
              <path id="Path_1485" data-name="Path 1485" d="M883.381,522.328a1.1,1.1,0,0,0-.217-.571h.256a.431.431,0,0,0,0,.483,2.464,2.464,0,0,0-.266.039c.02-.059.029-.512-.089-.433-.089.059.108.364.148.433h-.256a.433.433,0,0,0,.069-.217c-.039-.217-.1-.236-.167-.049a1.676,1.676,0,0,0-.138.108c.03-.108,0-.167-.089-.148-.089-.039-.108-.01-.059.079a1.581,1.581,0,0,1-.207.049c-.03.03-.049.059-.079.089.03.187-.256.266-.286.079-.039-.246.187-.581.443-.355a.25.25,0,0,1-.276.414.346.346,0,0,1,.118-.62c.315-.069.473.305.335.542a.155.155,0,0,1-.207.049.385.385,0,0,1,.049-.67c.354-.148.581.276.532.571a.137.137,0,0,1-.138.108.371.371,0,0,1-.128-.719c.532-.177.68.492.483.847a.148.148,0,0,1-.256,0c-.138-.2-.423-.906.03-.945.423-.029.542.581.453.876a.149.149,0,0,1-.266.039.756.756,0,0,1,0-.788.152.152,0,0,1,.256,0,1.441,1.441,0,0,1,.256.719c.01.187-.286.177-.305-.01Z" transform="translate(-881.997 -521.489)" fill="#161616"/>
            </g>
          </g>
        </g>
        <g id="Group_2818" data-name="Group 2818" transform="translate(24.643 19.963)">
          <g id="Group_2817" data-name="Group 2817" transform="translate(0)">
            <g id="Group_2816" data-name="Group 2816">
              <path id="Path_1486" data-name="Path 1486" d="M883.367,526.641c-.5.089-1.723.187-1.851-.542-.03-.187.256-.266.286-.079.089.5,1.142.394,1.487.335.187-.03.266.256.079.286Z" transform="translate(-881.514 -525.914)" fill="#161616"/>
            </g>
          </g>
        </g>
        <g id="Group_2821" data-name="Group 2821" transform="translate(24.755 20.357)">
          <g id="Group_2820" data-name="Group 2820" transform="translate(0)">
            <g id="Group_2819" data-name="Group 2819">
              <path id="Path_1487" data-name="Path 1487" d="M893.869,530.1a8.33,8.33,0,0,0,.128,4.53c.059.177-.227.256-.286.079a8.616,8.616,0,0,1-.128-4.687.148.148,0,0,1,.286.079Z" transform="translate(-893.319 -529.914)" fill="#161616"/>
            </g>
          </g>
        </g>
        <g id="Group_2824" data-name="Group 2824" transform="translate(24.923 20.422)">
          <g id="Group_2823" data-name="Group 2823" transform="translate(0)">
            <g id="Group_2822" data-name="Group 2822">
              <path id="Path_1488" data-name="Path 1488" d="M894.059,530.715c-.069.748-.108,1.487-.128,2.235a6.049,6.049,0,0,0,.167,2.147c.059.177-.227.256-.286.079a5.911,5.911,0,0,1-.187-2.038c.02-.807.059-1.615.128-2.422.03-.187.325-.187.305,0Z" transform="translate(-893.619 -530.575)" fill="#161616"/>
            </g>
          </g>
        </g>
        <g id="Group_2827" data-name="Group 2827" transform="translate(24.497 20.27)">
          <g id="Group_2826" data-name="Group 2826" transform="translate(0)">
            <g id="Group_2825" data-name="Group 2825">
              <path id="Path_1489" data-name="Path 1489" d="M896.925,529.317c-.217.157-.177.935-.187,1.182-.01.335-.01.66.01.995a10.909,10.909,0,0,0,.325,2.107.148.148,0,0,1-.286.079,11.344,11.344,0,0,1-.345-2.639,12.556,12.556,0,0,1,.069-1.359.747.747,0,0,1,.266-.62c.158-.108.305.148.148.256Z" transform="translate(-896.442 -529.034)" fill="#161616"/>
            </g>
          </g>
        </g>
        <g id="Group_2830" data-name="Group 2830" transform="translate(24.618 20.288)">
          <g id="Group_2829" data-name="Group 2829" transform="translate(0)">
            <g id="Group_2828" data-name="Group 2828">
              <path id="Path_1490" data-name="Path 1490" d="M897.709,529.4a10.273,10.273,0,0,0-.108,2.393c.01.187-.286.187-.3,0a10.394,10.394,0,0,1,.118-2.472c.03-.187.315-.108.286.079Z" transform="translate(-897.278 -529.214)" fill="#161616"/>
            </g>
          </g>
        </g>
        <g id="Group_2833" data-name="Group 2833" transform="translate(24.495 19.973)">
          <g id="Group_2832" data-name="Group 2832" transform="translate(0)">
            <g id="Group_2831" data-name="Group 2831">
              <path id="Path_1491" data-name="Path 1491" d="M891.215,526.576a9.263,9.263,0,0,0-.364,3.368c.02.3.325,1.684-.473,1.31-.3-.138-.325-.483-.354-.758a16.049,16.049,0,0,1-.069-1.684,4.933,4.933,0,0,1,.394-2.728c.108-.158.364-.01.256.148a4,4,0,0,0-.355,2.206c0,.4,0,.807.01,1.211l.03.561c.01.1.069.906.355.571,0,0-.059-.433-.069-.482-.02-.177-.039-.364-.049-.542a9.927,9.927,0,0,1,0-1.083,9.611,9.611,0,0,1,.384-2.176c.069-.187.355-.108.305.079Z" transform="translate(-889.942 -526.016)" fill="#161616"/>
            </g>
          </g>
        </g>
        <g id="Group_2836" data-name="Group 2836" transform="translate(24.939 20.353)">
          <g id="Group_2835" data-name="Group 2835" transform="translate(0)">
            <g id="Group_2834" data-name="Group 2834">
              <path id="Path_1492" data-name="Path 1492" d="M894.143,530.015c-.059.473-.108.945-.167,1.408-.02.187-.315.187-.3,0,.059-.473.108-.945.167-1.408.03-.187.325-.187.3,0Z" transform="translate(-893.679 -529.875)" fill="#161616"/>
            </g>
          </g>
        </g>
        <g id="Group_2839" data-name="Group 2839" transform="translate(24.927 20.029)">
          <g id="Group_2838" data-name="Group 2838" transform="translate(0)">
            <g id="Group_2837" data-name="Group 2837">
              <path id="Path_1493" data-name="Path 1493" d="M891.364,526.764a9.549,9.549,0,0,0-.482,1.645c-.039.187-.325.108-.286-.079a8.743,8.743,0,0,1,.483-1.645c.069-.177.354-.1.286.079Z" transform="translate(-890.592 -526.585)" fill="#161616"/>
            </g>
          </g>
        </g>
        <g id="Group_2840" data-name="Group 2840" transform="translate(0.22 1.251)" opacity="0.15" style="isolation: isolate">
          <path id="Path_1494" data-name="Path 1494" d="M880.351,335.9c.374,0,.473,1.989,1,3.683.463,1.467,1.251,2.669,4.6,5.938,4.648,4.53,7.051,6.824,11.01,8.814a32.275,32.275,0,0,0,4.166,1.723,4.571,4.571,0,0,0,2.964,1.152,4.273,4.273,0,0,0,1.773-.384.847.847,0,0,1,.384.433.864.864,0,0,1-.187.867.85.85,0,0,1,.286.62.948.948,0,0,1-.384.67c-.335.276-.906.286-2.009.286h-1.2a10.542,10.542,0,0,1-.768-.906c-.729-.985-.807-1.477-1.339-1.92a2.987,2.987,0,0,0-1.625-.571c-2.629-.453-5.889-2.619-7.711-3.831-2.9-1.93-4.559-3.752-7.858-7.376a21.045,21.045,0,0,1-3.112-4.884,5.327,5.327,0,0,1-.522-2.777C879.888,336.816,880.1,335.91,880.351,335.9Z" transform="translate(-879.797 -335.9)" fill="#6d6c6c"/>
        </g>
      </g>
      <g id="head" transform="translate(11.049 0)">
        <g id="Group_2841" data-name="Group 2841" transform="translate(0.055 1.41)">
          <path id="Path_1495" data-name="Path 1495" d="M1000.275,168.162a36.515,36.515,0,0,1-.394,6.007,23.08,23.08,0,0,1-.581,2.491,11.646,11.646,0,0,0,8.085-.355,10.712,10.712,0,0,1-1.221-5.79c1.024-.414,2.048-.837,3.072-1.251.089-.522.167-1.044.256-1.556.286-.089.581-.177.867-.266-.384-.581-.985-1.5-1.694-2.639-1.329-2.157-1.408-2.491-1.94-2.915-1.438-1.162-4.077-1.457-5.446-.266C1000.472,162.332,1000.393,164.282,1000.275,168.162Z" transform="translate(-999.179 -160.763)" fill="#fff"/>
          <path id="Path_1496" data-name="Path 1496" d="M1001.431,176.414a11.475,11.475,0,0,0,1.237-.066,11.812,11.812,0,0,0,3.307-.854l.1-.042-.05-.1a10.609,10.609,0,0,1-1.214-5.676q.739-.3,1.479-.6.768-.314,1.536-.625l.051-.021.009-.054c.041-.242.08-.484.119-.725.042-.259.083-.516.127-.772l.377-.116.432-.132.125-.039-.072-.109c-.391-.592-.992-1.509-1.692-2.637-.4-.644-.677-1.116-.9-1.495a4.49,4.49,0,0,0-1.061-1.445,5.105,5.105,0,0,0-2.8-1.037,3.777,3.777,0,0,0-2.768.774c-.825.724-.915,2.55-1.038,6.61-.019.568-.028,1.069-.037,1.554a25.332,25.332,0,0,1-.356,4.439,23.085,23.085,0,0,1-.578,2.481l-.027.092.092.029A11.877,11.877,0,0,0,1001.431,176.414Zm4.369-1.061a11.545,11.545,0,0,1-7.826.339,23.329,23.329,0,0,0,.557-2.41,25.486,25.486,0,0,0,.359-4.47c.009-.484.018-.985.037-1.551h0c.119-3.9.209-5.8.971-6.468,1.352-1.177,3.969-.822,5.319.268a4.313,4.313,0,0,1,1.015,1.392c.225.38.505.853.9,1.5.66,1.063,1.231,1.938,1.623,2.532l-.305.093-.436.134-.057.018-.01.059c-.048.275-.092.554-.137.833-.036.222-.072.445-.11.669q-.743.3-1.486.6-.768.314-1.536.625l-.057.023,0,.062a10.806,10.806,0,0,0,1.182,5.747Z" transform="translate(-997.73 -159.859)" fill="#161616"/>
        </g>
        <g id="Group_2844" data-name="Group 2844" transform="translate(9.461 7.966)">
          <g id="Group_2843" data-name="Group 2843" transform="translate(0)">
            <g id="Group_2842" data-name="Group 2842">
              <path id="Path_1497" data-name="Path 1497" d="M999.808,226.734a9.432,9.432,0,0,1-1.654.315c-.187.02-.187-.276,0-.3a9.475,9.475,0,0,0,1.576-.305.148.148,0,0,1,.079.286Z" transform="translate(-998.014 -226.442)" fill="#161616"/>
            </g>
          </g>
        </g>
        <g id="Group_2847" data-name="Group 2847" transform="translate(9.177 3.678)">
          <g id="Group_2846" data-name="Group 2846" transform="translate(0)">
            <g id="Group_2845" data-name="Group 2845">
              <path id="Path_1498" data-name="Path 1498" d="M1007.427,183.207a.775.775,0,0,0-.9.463c-.069.177-.354.1-.286-.079a1.064,1.064,0,0,1,1.251-.67.147.147,0,1,1-.069.286Z" transform="translate(-1006.235 -182.891)" fill="#161616"/>
            </g>
          </g>
        </g>
        <g id="Group_2850" data-name="Group 2850" transform="translate(6.865 4.622)">
          <g id="Group_2849" data-name="Group 2849" transform="translate(0)">
            <g id="Group_2848" data-name="Group 2848">
              <path id="Path_1499" data-name="Path 1499" d="M1030.475,192.79a1,1,0,0,0-.995.65c-.059.177-.345.1-.286-.079a1.283,1.283,0,0,1,1.27-.876c.2.02.2.315.01.305Z" transform="translate(-1029.187 -192.483)" fill="#161616"/>
            </g>
          </g>
        </g>
        <g id="Group_2853" data-name="Group 2853" transform="translate(7.745 5.393)">
          <g id="Group_2852" data-name="Group 2852">
            <g id="Group_2851" data-name="Group 2851">
              <path id="Path_1500" data-name="Path 1500" d="M1028.459,201.1a.722.722,0,0,0,.02-.433c-.03-.039-.03-.059,0-.039s.03.03,0,.059c-.01.069-.03.138-.039.207a1.234,1.234,0,0,1,.01.187l-.059.059c0-.03-.01-.059-.01-.089-.02-.148-.039-.3-.059-.453s.217-.2.276-.079a.621.621,0,0,1,.069.3c-.01.187-.305.187-.3,0a.266.266,0,0,0-.03-.148c.089-.03.187-.049.276-.079a5.068,5.068,0,0,1,.069.542.239.239,0,0,1-.2.256c-.325.049-.354-.364-.335-.591.03-.207.187-.65.473-.414.246.2.187.62.079.867-.069.167-.325.02-.246-.148Z" transform="translate(-1028.149 -200.314)" fill="#161616"/>
            </g>
          </g>
        </g>
        <g id="Group_2854" data-name="Group 2854" transform="translate(0)">
          <path id="Path_1501" data-name="Path 1501" d="M1038.753,148.564a5.476,5.476,0,0,0-1.329-1.871,4.386,4.386,0,0,0-1.546-.985,4.15,4.15,0,0,0-4.3,1.389,4.5,4.5,0,0,0-.552,4.717Q1034.878,150.189,1038.753,148.564Z" transform="translate(-1030.6 -145.545)" fill="#faad00"/>
        </g>
        <g id="Group_2855" data-name="Group 2855" transform="translate(0.14 5.344)">
          <path id="Path_1502" data-name="Path 1502" d="M989.328,200.861a4.017,4.017,0,0,1,2,.926c1.369.985,1.182,1.526,2.117,2.117,1.487.945,2.472-.1,3.821.847a3.882,3.882,0,0,1,1.448,2.56,3.8,3.8,0,0,1-.581,2.728c-.689.975-1.841,1.457-1.96,1.31-.039-.049.02-.226.561-.837a2.221,2.221,0,0,1-.788.6c-.433.2-.876.236-.9.167-.02-.049.226-.108.364-.354a.85.85,0,0,0,.089-.414,1.638,1.638,0,0,1-1.162.64c-1.27-.049-2.167-2.6-2.462-3.447-.955-2.738-.551-4.481-1.792-5.209a1.188,1.188,0,0,0-1.014-.158,1.329,1.329,0,0,0-.394,1.723c.286.443.867.433.857.532a2.612,2.612,0,0,1-1.94-.217,1.8,1.8,0,0,1-.837-.571,1.84,1.84,0,0,1-.069-1.733A2.626,2.626,0,0,1,989.328,200.861Z" transform="translate(-986.406 -200.744)" fill="#161616"/>
          <path id="Path_1503" data-name="Path 1503" d="M995.364,210.542h.012a3.424,3.424,0,0,0,1.945-1.377,3.9,3.9,0,0,0,.6-2.8,3.946,3.946,0,0,0-1.488-2.626,2.763,2.763,0,0,0-1.917-.441,2.931,2.931,0,0,1-1.908-.408,2.7,2.7,0,0,1-.823-.822,4.966,4.966,0,0,0-1.289-1.292,4.135,4.135,0,0,0-2.047-.944,2.653,2.653,0,0,0-2.738,1.268,1.928,1.928,0,0,0,.077,1.831,1.883,1.883,0,0,0,.879.605,3.127,3.127,0,0,0,1.992.249.149.149,0,0,0,.084-.108c.012-.12-.1-.155-.236-.2a1.075,1.075,0,0,1-.636-.4,1.285,1.285,0,0,1-.083-1,.9.9,0,0,1,.436-.583,1,1,0,0,1,.907.144l.019.011c.712.418.852,1.2,1.064,2.378a17.229,17.229,0,0,0,.682,2.778c.3.856,1.207,3.46,2.551,3.513a1.493,1.493,0,0,0,1.029-.462.607.607,0,0,1-.039.09.709.709,0,0,1-.256.247c-.063.04-.148.1-.114.188a.128.128,0,0,0,.07.074,1.665,1.665,0,0,0,.96-.185q.071-.032.139-.068c-.091.163-.069.227-.03.276A.194.194,0,0,0,995.364,210.542Zm-.451-7.058a2.259,2.259,0,0,1,1.4.417,3.749,3.749,0,0,1,1.407,2.494,3.7,3.7,0,0,1-.564,2.656,3.3,3.3,0,0,1-1.779,1.3,2.97,2.97,0,0,1,.465-.622q.036-.039.071-.081l-.149-.129-.069.079a2.086,2.086,0,0,1-.685.5,2.285,2.285,0,0,1-.6.179.789.789,0,0,0,.2-.229.951.951,0,0,0,.1-.462v-.255l-.171.188a1.527,1.527,0,0,1-1.069.608h-.018c-.8-.031-1.6-1.169-2.371-3.381a17.063,17.063,0,0,1-.674-2.747c-.214-1.189-.368-2.049-1.161-2.514l-.021-.011a1.18,1.18,0,0,0-1.086-.15,1.1,1.1,0,0,0-.541.7,1.467,1.467,0,0,0,.106,1.159,1.2,1.2,0,0,0,.689.469,3.517,3.517,0,0,1-1.649-.3,1.7,1.7,0,0,1-.8-.539,1.752,1.752,0,0,1-.059-1.634,2.456,2.456,0,0,1,2.54-1.154h0a3.925,3.925,0,0,1,1.952.908,4.792,4.792,0,0,1,1.244,1.247,2.856,2.856,0,0,0,.878.873,3.1,3.1,0,0,0,2.021.438C994.653,203.489,994.783,203.483,994.913,203.483Z" transform="translate(-985.514 -199.812)" fill="#161616"/>
        </g>
        <g id="Group_2856" data-name="Group 2856" transform="translate(0.265 8.986)" opacity="0.22" style="isolation: isolate">
          <path id="Path_1504" data-name="Path 1504" d="M1073.259,237.164c.177-.03.433-.089.433-.148,0-.03-.069-.059-.069-.059a.988.988,0,0,0,.551.177.525.525,0,0,0,.286-.148,20.068,20.068,0,0,0-.414,3.87,21.117,21.117,0,0,0,.5,4.776,7.514,7.514,0,0,1-2.413-.118A7.175,7.175,0,0,1,1070.6,245a15.963,15.963,0,0,0,.817-4.106c.03-.433.059-1.448.079-1.94.03-.906.059-1.654.069-2.157.089.039.226.108.4.177A2.42,2.42,0,0,0,1073.259,237.164Z" transform="translate(-1070.6 -236.8)" fill="#6d6c6c"/>
        </g>
        <g id="Group_2857" data-name="Group 2857" transform="translate(0.008 0.074)">
          <path id="Path_1505" data-name="Path 1505" d="M1079.945,146.3a2.561,2.561,0,0,0-1.458,2.6,2.652,2.652,0,0,0,1.379,1.881c-1.1.443-2.206.876-3.309,1.32a4.844,4.844,0,0,1-.236-1.054,4.48,4.48,0,0,1,.561-2.649,4.271,4.271,0,0,1,2.275-1.92A2.9,2.9,0,0,1,1079.945,146.3Z" transform="translate(-1076.3 -146.3)" fill="#ea9e06"/>
        </g>
        <g id="Group_2860" data-name="Group 2860" transform="translate(0.049 0.939)">
          <g id="Group_2859" data-name="Group 2859">
            <g id="Group_2858" data-name="Group 2858">
              <path id="Path_1506" data-name="Path 1506" d="M995.614,155.964q-5.982,2.408-11.955,4.806c-.532.217-.758-.64-.236-.857q5.982-2.408,11.955-4.806c.522-.207.758.65.236.857Z" transform="translate(-983.128 -155.076)" fill="#161616"/>
            </g>
          </g>
        </g>
      </g>
    </g>
  </g>
</svg>
